<svg width="644" height="350" viewBox="0 0 644 350" fill="none" xmlns="http://www.w3.org/2000/svg">
    <g clip-path="url(#clip0)">
        <path d="M323.888 350C498.417 350 639.901 340.633 639.901 329.079C639.901 317.525 498.417 308.158 323.888 308.158C149.358 308.158 7.87402 317.525 7.87402 329.079C7.87402 340.633 149.358 350 323.888 350Z" fill="#F2F2F2"/>
        <path d="M311.776 100.052C260.289 100.052 223.321 133.085 223.321 210.161C223.321 297.514 260.289 320.637 311.776 320.637C363.263 320.637 402.432 295.312 402.432 210.161C402.432 119.137 363.263 100.052 311.776 100.052ZM312.114 291.642C276.453 291.642 257.822 270.72 257.822 210.217C257.822 156.833 277.216 128.68 312.877 128.68C348.538 128.68 367.932 147.172 367.932 210.217C367.931 269.195 347.775 291.642 312.114 291.642Z" fill="#2F2E41"/>
        <path d="M192.491 259.71H171.203V197.023C171.203 193.694 169.88 190.5 167.526 188.146C165.171 185.792 161.978 184.469 158.649 184.469H153.66C152.012 184.469 150.379 184.794 148.856 185.425C147.333 186.056 145.949 186.98 144.783 188.146C143.617 189.312 142.693 190.696 142.062 192.219C141.431 193.742 141.106 195.375 141.106 197.023V259.71H81.0605C79.8253 259.71 78.611 259.391 77.5354 258.783C76.4599 258.176 75.5597 257.301 74.9221 256.243C74.2845 255.185 73.9312 253.98 73.8964 252.745C73.8617 251.51 74.1466 250.287 74.7237 249.195L138.275 128.912C139.068 127.413 139.548 125.768 139.687 124.078C139.826 122.387 139.621 120.686 139.085 119.077C138.549 117.468 137.692 115.985 136.566 114.716C135.441 113.447 134.07 112.42 132.536 111.695L128.784 109.924C125.871 108.548 122.541 108.345 119.482 109.356C116.424 110.368 113.871 112.516 112.352 115.357L34.8424 260.354C33.5226 262.823 32.832 265.579 32.832 268.379C32.832 270.615 33.2724 272.828 34.1279 274.894C34.9834 276.959 36.2373 278.836 37.818 280.416C39.3988 281.997 41.2754 283.251 43.3408 284.107C45.4062 284.962 47.6198 285.402 49.8553 285.402H141.106V325.042C141.106 327.018 141.495 328.975 142.252 330.801C143.008 332.626 144.116 334.285 145.514 335.683C146.911 337.08 148.57 338.188 150.396 338.945C152.221 339.701 154.178 340.09 156.154 340.09H156.154C158.131 340.09 160.087 339.701 161.913 338.945C163.739 338.188 165.398 337.08 166.795 335.683C168.193 334.285 169.301 332.626 170.057 330.801C170.813 328.975 171.203 327.018 171.203 325.042V285.402H192.491C195.898 285.402 199.165 284.049 201.574 281.64C203.983 279.231 205.337 275.963 205.337 272.556C205.337 269.149 203.983 265.882 201.574 263.473C199.165 261.064 195.898 259.71 192.491 259.71Z" fill="#0075FF"/>
        <path d="M586.682 259.71H565.394V197.023C565.394 193.694 564.071 190.5 561.717 188.146C559.363 185.792 556.17 184.469 552.84 184.469H547.852C546.203 184.469 544.571 184.794 543.048 185.425C541.524 186.056 540.14 186.98 538.975 188.146C537.809 189.312 536.884 190.696 536.253 192.219C535.622 193.742 535.298 195.375 535.298 197.023V259.71H475.252C474.017 259.71 472.802 259.391 471.727 258.783C470.651 258.176 469.751 257.301 469.114 256.243C468.476 255.185 468.123 253.98 468.088 252.745C468.053 251.51 468.338 250.287 468.915 249.195L532.467 128.912C533.259 127.413 533.739 125.768 533.878 124.078C534.018 122.387 533.813 120.686 533.276 119.077C532.74 117.468 531.883 115.985 530.758 114.716C529.632 113.447 528.261 112.42 526.727 111.695L522.976 109.924C520.063 108.548 516.732 108.345 513.674 109.356C510.615 110.368 508.062 112.516 506.543 115.357L429.034 260.354C427.714 262.823 427.023 265.579 427.023 268.379C427.023 272.894 428.817 277.224 432.009 280.416C435.202 283.609 439.532 285.402 444.047 285.402H535.298V325.042C535.298 329.033 536.883 332.86 539.705 335.683C542.527 338.505 546.355 340.09 550.346 340.09C554.337 340.09 558.164 338.505 560.987 335.683C563.809 332.86 565.394 329.033 565.394 325.042V285.402H586.682C590.089 285.402 593.356 284.049 595.765 281.64C598.175 279.231 599.528 275.963 599.528 272.556C599.528 269.149 598.175 265.882 595.765 263.473C593.356 261.064 590.089 259.71 586.682 259.71Z" fill="#0075FF"/>
        <path d="M198.363 252.37H177.075V189.682C177.075 188.034 176.751 186.401 176.12 184.878C175.489 183.355 174.564 181.971 173.398 180.805C172.232 179.639 170.848 178.715 169.325 178.084C167.802 177.453 166.17 177.128 164.521 177.128H159.533C156.203 177.128 153.01 178.451 150.656 180.805C148.301 183.16 146.979 186.353 146.979 189.682V252.37H86.9331C85.6978 252.37 84.4835 252.05 83.408 251.443C82.3325 250.835 81.4323 249.96 80.7947 248.902C80.1571 247.844 79.8037 246.639 79.769 245.404C79.7342 244.169 80.0192 242.947 80.5963 241.854L144.148 121.571C144.94 120.072 145.42 118.427 145.56 116.737C145.699 115.046 145.494 113.345 144.958 111.736C144.421 110.127 143.564 108.644 142.439 107.375C141.313 106.106 139.942 105.079 138.409 104.355L134.657 102.583C131.744 101.207 128.413 101.004 125.355 102.016C122.296 103.027 119.743 105.176 118.225 108.017L40.715 253.013C39.3951 255.482 38.7046 258.239 38.7046 261.038V261.038C38.7046 265.553 40.4981 269.883 43.6906 273.076C46.8831 276.268 51.213 278.062 55.7279 278.062H146.979V317.701C146.979 319.677 147.368 321.634 148.124 323.46C148.88 325.285 149.989 326.944 151.386 328.342C152.784 329.739 154.443 330.848 156.268 331.604C158.094 332.36 160.051 332.749 162.027 332.749H162.027C166.018 332.749 169.846 331.164 172.668 328.342C175.49 325.52 177.075 321.692 177.075 317.701V278.062H198.363C200.05 278.062 201.72 277.729 203.279 277.084C204.838 276.438 206.254 275.492 207.447 274.299C208.639 273.106 209.586 271.69 210.231 270.132C210.877 268.573 211.209 266.903 211.209 265.216V265.216C211.209 263.529 210.877 261.858 210.231 260.3C209.586 258.741 208.639 257.325 207.447 256.132C206.254 254.939 204.838 253.993 203.279 253.347C201.72 252.702 200.05 252.37 198.363 252.37V252.37Z" stroke="#3F3D56" stroke-miterlimit="10"/>
        <path d="M597.693 252.37H576.405V189.682C576.405 186.353 575.082 183.16 572.728 180.805C570.373 178.451 567.18 177.128 563.851 177.128H558.863C557.214 177.128 555.581 177.453 554.058 178.084C552.535 178.715 551.151 179.639 549.985 180.805C548.82 181.971 547.895 183.355 547.264 184.878C546.633 186.401 546.308 188.034 546.308 189.682V252.37H486.263C485.027 252.37 483.813 252.05 482.738 251.443C481.662 250.835 480.762 249.96 480.124 248.902C479.487 247.844 479.133 246.639 479.099 245.404C479.064 244.169 479.349 242.947 479.926 241.854L543.477 121.571C544.27 120.072 544.75 118.427 544.889 116.737C545.028 115.046 544.824 113.345 544.287 111.736C543.751 110.127 542.894 108.644 541.768 107.375C540.643 106.106 539.272 105.079 537.738 104.355L533.986 102.583C531.073 101.207 527.743 101.004 524.684 102.016C521.626 103.027 519.073 105.176 517.554 108.017L440.045 253.013C438.725 255.482 438.034 258.239 438.034 261.038C438.034 265.553 439.828 269.883 443.02 273.076C446.213 276.268 450.543 278.062 455.057 278.062H546.308V317.701C546.308 321.692 547.894 325.52 550.716 328.342C553.538 331.164 557.366 332.749 561.357 332.749V332.749C565.348 332.749 569.175 331.164 571.997 328.342C574.819 325.52 576.405 321.692 576.405 317.701V278.062H597.693C599.38 278.062 601.05 277.729 602.609 277.084C604.167 276.438 605.583 275.492 606.776 274.299C607.969 273.106 608.915 271.69 609.561 270.132C610.206 268.573 610.539 266.903 610.539 265.216V265.216C610.539 261.809 609.185 258.541 606.776 256.132C604.367 253.723 601.1 252.37 597.693 252.37V252.37Z" stroke="#3F3D56" stroke-miterlimit="10"/>
        <path d="M323.52 93.4453C272.033 93.4453 235.066 126.478 235.066 203.555C235.066 290.908 272.033 314.031 323.52 314.031C375.008 314.031 414.177 288.706 414.177 203.555C414.177 112.531 375.008 93.4453 323.52 93.4453ZM323.859 285.035C288.198 285.035 269.567 264.114 269.567 203.611C269.567 150.226 288.96 122.074 324.622 122.074C360.283 122.074 379.676 140.566 379.676 203.611C379.676 262.589 359.52 285.035 323.859 285.035V285.035Z" stroke="#3F3D56" stroke-miterlimit="10"/>
        <path d="M345.214 110.343C344.749 112.256 342.741 113.788 340.518 114.859C335.844 117.11 330.079 117.781 324.487 118.007C323.06 118.093 321.629 118.067 320.207 117.928C317.45 117.661 314.865 116.472 312.868 114.554C312.725 114.461 312.609 114.333 312.529 114.183C312.449 114.033 312.408 113.865 312.411 113.695C312.413 113.525 312.459 113.358 312.544 113.21C312.628 113.063 312.749 112.939 312.894 112.85C315.871 109.58 320.839 107.575 325.844 106.131C329.639 105.036 336.256 102.2 340.395 102.583C344.404 102.954 345.802 107.928 345.214 110.343Z" fill="#3F3D56"/>
        <path opacity="0.1" d="M345.214 110.343C344.749 112.256 342.741 113.788 340.518 114.859C335.844 117.11 330.079 117.781 324.487 118.007C323.06 118.093 321.629 118.067 320.207 117.928C317.45 117.661 314.865 116.472 312.868 114.554C312.725 114.461 312.609 114.333 312.529 114.183C312.449 114.033 312.408 113.865 312.411 113.695C312.413 113.525 312.459 113.358 312.544 113.21C312.628 113.063 312.749 112.939 312.894 112.85C315.871 109.58 320.839 107.575 325.844 106.131C329.639 105.036 336.256 102.2 340.395 102.583C344.404 102.954 345.802 107.928 345.214 110.343Z" fill="black"/>
    </g>
    <defs>
        <clipPath id="clip0">
            <rect width="643.645" height="350" fill="white"/>
        </clipPath>
    </defs>
</svg>