<svg width="644" height="350" viewBox="0 0 644 350" fill="none" xmlns="http://www.w3.org/2000/svg">
    <g clip-path="url(#clip0)">
        <path d="M323.888 350C498.417 350 639.901 340.633 639.901 329.079C639.901 317.525 498.417 308.158 323.888 308.158C149.358 308.158 7.87402 317.525 7.87402 329.079C7.87402 340.633 149.358 350 323.888 350Z" fill="#F2F2F2"/>
        <path d="M311.776 100.052C260.289 100.052 223.321 133.085 223.321 210.161C223.321 297.514 260.289 320.637 311.776 320.637C363.263 320.637 402.432 295.312 402.432 210.161C402.432 119.137 363.263 100.052 311.776 100.052ZM312.114 291.642C276.453 291.642 257.822 270.72 257.822 210.217C257.822 156.833 277.216 128.68 312.877 128.68C348.538 128.68 367.932 147.172 367.932 210.217C367.931 269.195 347.775 291.642 312.114 291.642Z" fill="#2F2E41"/>
        <path d="M192.491 259.71H171.203V197.023C171.203 193.694 169.88 190.5 167.526 188.146C165.171 185.792 161.978 184.469 158.649 184.469H153.66C152.012 184.469 150.379 184.794 148.856 185.425C147.333 186.056 145.949 186.98 144.783 188.146C143.617 189.312 142.693 190.696 142.062 192.219C141.431 193.742 141.106 195.375 141.106 197.023V259.71H81.0605C79.8253 259.71 78.611 259.391 77.5354 258.783C76.4599 258.176 75.5597 257.301 74.9221 256.243C74.2845 255.185 73.9312 253.98 73.8964 252.745C73.8617 251.51 74.1466 250.287 74.7237 249.195L138.275 128.912C139.068 127.413 139.548 125.768 139.687 124.078C139.826 122.387 139.621 120.686 139.085 119.077C138.549 117.468 137.692 115.985 136.566 114.716C135.441 113.447 134.07 112.42 132.536 111.695L128.784 109.924C125.871 108.548 122.541 108.345 119.482 109.356C116.424 110.368 113.871 112.516 112.352 115.357L34.8424 260.354C33.5226 262.823 32.832 265.579 32.832 268.379C32.832 270.615 33.2724 272.828 34.1279 274.894C34.9834 276.959 36.2373 278.836 37.818 280.416C39.3988 281.997 41.2754 283.251 43.3408 284.107C45.4062 284.962 47.6198 285.402 49.8553 285.402H141.106V325.042C141.106 327.018 141.495 328.975 142.252 330.801C143.008 332.626 144.116 334.285 145.514 335.683C146.911 337.08 148.57 338.188 150.396 338.945C152.221 339.701 154.178 340.09 156.154 340.09H156.154C158.131 340.09 160.087 339.701 161.913 338.945C163.739 338.188 165.398 337.08 166.795 335.683C168.193 334.285 169.301 332.626 170.057 330.801C170.813 328.975 171.203 327.018 171.203 325.042V285.402H192.491C195.898 285.402 199.165 284.049 201.574 281.64C203.983 279.231 205.337 275.963 205.337 272.556C205.337 269.149 203.983 265.882 201.574 263.473C199.165 261.064 195.898 259.71 192.491 259.71Z" fill="#0075FF"/>
        <path d="M586.682 259.71H565.394V197.023C565.394 193.694 564.071 190.5 561.717 188.146C559.363 185.792 556.17 184.469 552.84 184.469H547.852C546.203 184.469 544.571 184.794 543.048 185.425C541.524 186.056 540.14 186.98 538.975 188.146C537.809 189.312 536.884 190.696 536.253 192.219C535.622 193.742 535.298 195.375 535.298 197.023V259.71H475.252C474.017 259.71 472.802 259.391 471.727 258.783C470.651 258.176 469.751 257.301 469.114 256.243C468.476 255.185 468.123 253.98 468.088 252.745C468.053 251.51 468.338 250.287 468.915 249.195L532.467 128.912C533.259 127.413 533.739 125.768 533.878 124.078C534.018 122.387 533.813 120.686 533.276 119.077C532.74 117.468 531.883 115.985 530.758 114.716C529.632 113.447 528.261 112.42 526.727 111.695L522.976 109.924C520.063 108.548 516.732 108.345 513.674 109.356C510.615 110.368 508.062 112.516 506.543 115.357L429.034 260.354C427.714 262.823 427.023 265.579 427.023 268.379C427.023 272.894 428.817 277.224 432.009 280.416C435.202 283.609 439.532 285.402 444.047 285.402H535.298V325.042C535.298 329.033 536.883 332.86 539.705 335.683C542.527 338.505 546.355 340.09 550.346 340.09C554.337 340.09 558.164 338.505 560.987 335.683C563.809 332.86 565.394 329.033 565.394 325.042V285.402H586.682C590.089 285.402 593.356 284.049 595.765 281.64C598.175 279.231 599.528 275.963 599.528 272.556C599.528 269.149 598.175 265.882 595.765 263.473C593.356 261.064 590.089 259.71 586.682 259.71Z" fill="#0075FF"/>
        <path d="M198.363 252.37H177.075V189.682C177.075 188.034 176.751 186.401 176.12 184.878C175.489 183.355 174.564 181.971 173.398 180.805C172.232 179.639 170.848 178.715 169.325 178.084C167.802 177.453 166.17 177.128 164.521 177.128H159.533C156.203 177.128 153.01 178.451 150.656 180.805C148.301 183.16 146.979 186.353 146.979 189.682V252.37H86.9331C85.6978 252.37 84.4835 252.05 83.408 251.443C82.3325 250.835 81.4323 249.96 80.7947 248.902C80.1571 247.844 79.8037 246.639 79.769 245.404C79.7342 244.169 80.0192 242.947 80.5963 241.854L144.148 121.571C144.94 120.072 145.42 118.427 145.56 116.737C145.699 115.046 145.494 113.345 144.958 111.736C144.421 110.127 143.564 108.644 142.439 107.375C141.313 106.106 139.942 105.079 138.409 104.355L134.657 102.583C131.744 101.207 128.413 101.004 125.355 102.016C122.296 103.027 119.743 105.176 118.225 108.017L40.715 253.013C39.3951 255.482 38.7046 258.239 38.7046 261.038V261.038C38.7046 265.553 40.4981 269.883 43.6906 273.076C46.8831 276.268 51.213 278.062 55.7279 278.062H146.979V317.701C146.979 319.677 147.368 321.634 148.124 323.46C148.88 325.285 149.989 326.944 151.386 328.342C152.784 329.739 154.443 330.848 156.268 331.604C158.094 332.36 160.051 332.749 162.027 332.749H162.027C166.018 332.749 169.846 331.164 172.668 328.342C175.49 325.52 177.075 321.692 177.075 317.701V278.062H198.363C200.05 278.062 201.72 277.729 203.279 277.084C204.838 276.438 206.254 275.492 207.447 274.299C208.639 273.106 209.586 271.69 210.231 270.132C210.877 268.573 211.209 266.903 211.209 265.216V265.216C211.209 263.529 210.877 261.858 210.231 260.3C209.586 258.741 208.639 257.325 207.447 256.132C206.254 254.939 204.838 253.993 203.279 253.347C201.72 252.702 200.05 252.37 198.363 252.37V252.37Z" stroke="#3F3D56" stroke-miterlimit="10"/>
        <path d="M597.693 252.37H576.405V189.682C576.405 186.353 575.082 183.16 572.728 180.805C570.373 178.451 567.18 177.128 563.851 177.128H558.863C557.214 177.128 555.581 177.453 554.058 178.084C552.535 178.715 551.151 179.639 549.985 180.805C548.82 181.971 547.895 183.355 547.264 184.878C546.633 186.401 546.308 188.034 546.308 189.682V252.37H486.263C485.027 252.37 483.813 252.05 482.738 251.443C481.662 250.835 480.762 249.96 480.124 248.902C479.487 247.844 479.133 246.639 479.099 245.404C479.064 244.169 479.349 242.947 479.926 241.854L543.477 121.571C544.27 120.072 544.75 118.427 544.889 116.737C545.028 115.046 544.824 113.345 544.287 111.736C543.751 110.127 542.894 108.644 541.768 107.375C540.643 106.106 539.272 105.079 537.738 104.355L533.986 102.583C531.073 101.207 527.743 101.004 524.684 102.016C521.626 103.027 519.073 105.176 517.554 108.017L440.045 253.013C438.725 255.482 438.034 258.239 438.034 261.038C438.034 265.553 439.828 269.883 443.02 273.076C446.213 276.268 450.543 278.062 455.057 278.062H546.308V317.701C546.308 321.692 547.894 325.52 550.716 328.342C553.538 331.164 557.366 332.749 561.357 332.749V332.749C565.348 332.749 569.175 331.164 571.997 328.342C574.819 325.52 576.405 321.692 576.405 317.701V278.062H597.693C599.38 278.062 601.05 277.729 602.609 277.084C604.167 276.438 605.583 275.492 606.776 274.299C607.969 273.106 608.915 271.69 609.561 270.132C610.206 268.573 610.539 266.903 610.539 265.216V265.216C610.539 261.809 609.185 258.541 606.776 256.132C604.367 253.723 601.1 252.37 597.693 252.37V252.37Z" stroke="#3F3D56" stroke-miterlimit="10"/>
        <path d="M323.52 93.4453C272.033 93.4453 235.066 126.478 235.066 203.555C235.066 290.908 272.033 314.031 323.52 314.031C375.008 314.031 414.177 288.706 414.177 203.555C414.177 112.531 375.008 93.4453 323.52 93.4453ZM323.859 285.035C288.198 285.035 269.567 264.114 269.567 203.611C269.567 150.226 288.96 122.074 324.622 122.074C360.283 122.074 379.676 140.566 379.676 203.611C379.676 262.589 359.52 285.035 323.859 285.035V285.035Z" stroke="#3F3D56" stroke-miterlimit="10"/>
        <path d="M282.25 18.6617C286.519 18.6617 289.979 15.2014 289.979 10.9329C289.979 6.66441 286.519 3.2041 282.25 3.2041C277.982 3.2041 274.521 6.66441 274.521 10.9329C274.521 15.2014 277.982 18.6617 282.25 18.6617Z" fill="#2F2E41"/>
        <path d="M301.101 56.1753C313.074 56.1753 322.78 43.6 322.78 28.0876C322.78 12.5753 313.074 0 301.101 0C289.129 0 279.423 12.5753 279.423 28.0876C279.423 43.6 289.129 56.1753 301.101 56.1753Z" fill="#2F2E41"/>
        <path opacity="0.1" d="M301.101 47.6929C290.241 47.6929 281.247 37.3465 279.669 23.8467C279.505 25.2545 279.422 26.6707 279.423 28.0881C279.423 43.6005 289.129 56.1757 301.101 56.1757C313.074 56.1757 322.78 43.6005 322.78 28.0881C322.78 26.6707 322.698 25.2545 322.534 23.8467C320.955 37.3465 311.961 47.6929 301.101 47.6929Z" fill="black"/>
        <path d="M345.214 110.343C344.749 112.256 342.741 113.788 340.518 114.859C335.844 117.11 330.079 117.781 324.487 118.007C323.06 118.093 321.629 118.067 320.207 117.928C317.45 117.661 314.865 116.472 312.868 114.554C312.725 114.461 312.609 114.333 312.529 114.183C312.449 114.033 312.408 113.865 312.411 113.695C312.413 113.525 312.459 113.358 312.544 113.21C312.628 113.063 312.749 112.939 312.894 112.85C315.871 109.58 320.839 107.575 325.844 106.131C329.639 105.036 336.256 102.2 340.395 102.583C344.404 102.954 345.802 107.928 345.214 110.343Z" fill="#3F3D56"/>
        <path opacity="0.1" d="M345.214 110.343C344.749 112.256 342.741 113.788 340.518 114.859C335.844 117.11 330.079 117.781 324.487 118.007C323.06 118.093 321.629 118.067 320.207 117.928C317.45 117.661 314.865 116.472 312.868 114.554C312.725 114.461 312.609 114.333 312.529 114.183C312.449 114.033 312.408 113.865 312.411 113.695C312.413 113.525 312.459 113.358 312.544 113.21C312.628 113.063 312.749 112.939 312.894 112.85C315.871 109.58 320.839 107.575 325.844 106.131C329.639 105.036 336.256 102.2 340.395 102.583C344.404 102.954 345.802 107.928 345.214 110.343Z" fill="black"/>
        <path d="M285.787 96.0451C284.36 98.8413 284.102 102.09 285.069 105.076C286.052 108.04 287.893 110.646 290.358 112.563C296.405 117.41 304.729 118.077 312.479 118.01C319.271 117.951 326.054 117.486 332.791 116.618C335.048 116.418 337.267 115.903 339.381 115.087C341.911 113.993 344.134 111.986 345.034 109.381C345.935 106.776 345.296 103.586 343.157 101.848C341.278 100.32 338.686 100.11 336.269 99.965L322.438 99.1339C323.804 97.7509 325.623 96.9688 327.288 95.9634C329.495 94.6296 330.962 92.3902 332.567 90.3712C335.041 87.4152 337.732 84.6483 340.618 82.0938C341.068 84.676 342.702 86.7965 344.624 88.5782C346.547 90.3599 348.763 91.7943 350.761 93.4907C355.601 97.5994 359.086 103.176 364.176 106.97C367.677 106.05 370.951 104.416 373.79 102.17L371.812 98.5869C371.647 98.2182 371.39 97.8979 371.066 97.6567C370.507 97.3122 369.785 97.4897 369.134 97.3922C367.397 97.1316 366.638 95.1253 365.956 93.5058C364.084 89.0596 360.499 85.61 357.438 81.8814C355.179 79.129 353.174 76.1768 351.45 73.0612C350.422 71.2031 349.48 69.2684 348.085 67.6676C346.689 66.0668 344.734 64.8082 342.61 64.8037C340.733 64.7998 339.003 65.7524 337.389 66.7106C332.476 69.6294 327.748 72.8504 323.233 76.3552C320.87 78.1894 318.522 80.1272 315.751 81.252C314.584 81.7255 313.354 82.0491 312.235 82.6252C310.274 83.6343 308.786 85.3416 307.184 86.8572C301.47 92.2628 293.647 95.7651 285.787 96.0451Z" fill="#3F3D56"/>
        <path d="M314.707 57.5699C314.643 59.2222 314.292 60.8507 313.669 62.3825C313.353 63.1464 312.883 63.8371 312.289 64.4115C311.694 64.9859 310.988 65.4316 310.213 65.721C309.114 66.0155 307.961 66.0529 306.845 65.8303C305.871 65.7286 304.933 65.409 304.1 64.8953C302.803 64.0036 302.157 62.4126 301.921 60.8555C301.685 59.3003 301.791 57.7112 301.64 56.1447C301.493 54.8795 301.253 53.6269 300.92 52.3972C300.818 51.9882 300.715 51.581 300.613 51.1738C300.513 50.7666 300.415 50.3595 300.324 49.9523C300.241 49.5696 300.164 49.1851 300.098 48.7986C300.043 48.4725 299.994 48.1445 299.959 47.8146C299.926 46.8366 299.763 45.8674 299.474 44.9323C299.203 44.3259 298.864 43.7523 298.464 43.2226C298.292 42.9775 298.126 42.7325 297.974 42.478C297.532 41.8166 297.327 41.0255 297.391 40.2328C297.409 40.1103 297.439 39.9897 297.48 39.8728C297.495 39.8275 297.512 39.7823 297.531 39.739C297.7 39.6929 297.856 39.6062 297.984 39.4863C298.113 39.3663 298.21 39.2169 298.268 39.0509C298.333 38.6942 298.302 38.3268 298.179 37.9858C298.038 37.5093 297.845 37.0497 297.604 36.6153C297.446 36.3288 296.909 35.8123 296.905 35.4843C296.897 34.8245 298.187 34.2929 298.709 34.0328C300.303 33.2346 302.08 32.8742 303.859 32.9884C304.999 33.0657 306.236 33.4164 306.866 34.3721C307.431 35.2336 307.356 36.3495 307.597 37.3505C307.622 37.496 307.684 37.6328 307.776 37.7483C307.899 37.8604 308.054 37.9315 308.219 37.9518C308.498 38.0074 308.785 38.0189 309.067 37.9858H309.069C309.144 37.9799 309.218 37.9692 309.292 37.9537C309.732 37.8725 310.148 37.6927 310.509 37.4278C310.743 37.3656 310.979 37.3147 311.216 37.2751C311.226 37.2741 311.235 37.2722 311.245 37.2694C312.189 40.2498 312.312 43.445 313.084 46.4799C313.467 47.9899 314.016 49.481 314.093 51.0343C314.099 51.1021 314.1 51.1719 314.102 51.2416C314.114 51.7412 314.074 52.2445 314.095 52.7421C314.102 52.9662 314.127 53.1894 314.17 53.4095C314.255 53.7634 314.36 54.1121 314.485 54.4538L314.491 54.4708C314.526 54.5801 314.56 54.6913 314.589 54.8025C314.609 54.8836 314.628 54.9628 314.643 55.0438L314.645 55.0495C314.785 55.8825 314.806 56.731 314.707 57.5699Z" fill="#FBBEBE"/>
        <path d="M301.478 38.0789C307.62 38.0789 312.6 33.0994 312.6 26.9569C312.6 20.8144 307.62 15.835 301.478 15.835C295.335 15.835 290.356 20.8144 290.356 26.9569C290.356 33.0994 295.335 38.0789 301.478 38.0789Z" fill="#FBBEBE"/>
        <path d="M372.089 87.5543C371.767 84.5199 370.688 81.6149 368.953 79.1054C369.241 80.8208 369.53 82.5356 369.82 84.2498C369.46 84.3539 369.077 84.3508 368.719 84.2406C368.36 84.1304 368.042 83.9181 367.803 83.6296C367.334 83.0448 366.976 82.3799 366.745 81.6672C365.482 78.5304 363.829 75.5647 361.827 72.8394C354.747 72.2494 347.747 69.3143 341.521 65.8929C335.293 62.4733 329.464 58.3733 323.319 54.8086C322.253 54.1646 321.143 53.5977 319.997 53.112C318.074 52.341 315.916 51.9414 314.093 51.0347C313.971 50.9744 313.848 50.9103 313.727 50.8443C313.316 50.6203 312.926 50.3584 312.562 50.062C312.366 49.9026 312.18 49.7314 312.004 49.5492C311.095 48.4911 310.374 47.2848 309.872 45.9827C308.894 43.8186 308.545 41.2078 307.569 39.0437C308.018 38.6243 308.522 38.2685 309.067 37.9862H309.069C309.149 37.9447 309.228 37.9051 309.309 37.8674C309.695 37.6855 310.097 37.5385 310.51 37.4282C310.743 37.366 310.979 37.3151 311.216 37.2755C311.226 37.2745 311.236 37.2727 311.245 37.2699C312.346 37.0904 313.475 37.1796 314.534 37.53C316.084 38.0541 317.39 39.1003 318.693 40.0899C320.809 41.5808 322.839 43.1907 324.772 44.912C325.847 45.9412 326.827 47.0722 327.982 48.0073C328.943 48.7484 329.955 49.4193 331.012 50.0149C337.264 53.7398 343.518 57.464 349.772 61.1877C351.889 62.4488 354.008 63.7099 356.078 65.0446C359.222 67.0729 362.253 69.2709 365.282 71.467C367.068 72.7602 368.852 74.054 370.636 75.3484C371.221 75.7218 371.735 76.1967 372.153 76.7509C372.523 77.3801 372.753 78.0816 372.826 78.8075C373.274 81.7404 373.022 84.7377 372.089 87.5543Z" fill="#FBBEBE"/>
        <path d="M317.465 65.9342C316.715 69.299 313.314 71.3331 311.537 74.2888C309.327 77.9572 310.228 82.2212 311.058 86.4231C309.542 87.7294 308.026 89.0358 306.509 90.3421C305.672 91.0604 304.835 91.7823 303.934 92.4176C302.62 93.298 301.247 94.0865 299.825 94.7777C298.482 95.4677 297.14 96.1582 295.798 96.8494C294.55 97.551 293.228 98.1112 291.856 98.5196C289.212 99.1982 286.403 98.7232 283.786 97.9371C283.478 97.8562 283.181 97.7351 282.904 97.5771C282.741 97.4797 282.599 97.3509 282.486 97.1982C282.228 96.7357 282.134 96.1995 282.22 95.6769C282.486 91.2734 283.562 86.9622 284.635 82.6831C285.208 80.1159 285.979 77.5969 286.94 75.1484C287.883 73.0505 288.967 71.0187 290.184 69.0672C291.528 66.6117 293.12 64.3005 294.935 62.1697C295.818 61.3496 296.562 60.3906 297.137 59.3307C297.806 57.8038 297.548 56.0526 297.683 54.39C297.787 53.1408 298.119 51.9212 298.662 50.7914V50.7895C298.952 50.1809 299.302 49.6025 299.706 49.0627C299.889 49.4888 300.072 49.9142 300.254 50.3389C300.375 50.6179 300.495 50.8963 300.613 51.1741C300.767 51.5322 300.921 51.8891 301.073 52.2448C301.512 53.2665 301.95 54.2876 302.388 55.308C302.862 56.5933 303.536 57.7953 304.387 58.869C304.775 59.4187 305.3 59.8583 305.909 60.1448C306.519 60.4312 307.192 60.5547 307.863 60.5033C308.535 60.4518 309.181 60.2271 309.74 59.8511C310.298 59.4751 310.75 58.9607 311.05 58.3581C311.684 57.2332 312.143 56.0185 312.411 54.7557C312.784 53.2181 312.835 51.6202 312.562 50.0619C312.108 47.0608 310.832 43.9957 309.904 41.2077C309.527 40.2781 309.308 39.2916 309.258 38.2896C309.26 38.177 309.271 38.0647 309.292 37.954C309.297 37.9257 309.303 37.8956 309.309 37.8673C309.695 37.6854 310.097 37.5384 310.509 37.4281C310.743 37.3659 310.979 37.315 311.216 37.2754C312.032 41.694 312.85 46.1126 313.669 50.5312C313.688 50.6349 313.708 50.7386 313.727 50.8442C313.844 51.4775 313.963 52.1109 314.095 52.7424C314.214 53.3155 314.342 53.8867 314.485 54.4541L314.491 54.471C314.54 54.6634 314.591 54.8537 314.643 55.0441L314.645 55.0498C314.79 55.5701 314.952 56.0866 315.135 56.5955C316.244 59.6625 318.176 62.7503 317.465 65.9342Z" fill="#0075FF"/>
        <path d="M362.602 113.222C362.567 113.87 362.693 114.517 362.968 115.105C363.664 116.377 365.334 116.666 366.779 116.785C375.222 117.479 383.715 117.22 392.1 116.014C392.555 115.982 392.996 115.846 393.389 115.614C394.581 114.778 393.846 112.741 392.544 112.089C391.243 111.437 389.698 111.594 388.27 111.312C386.851 110.954 385.5 110.368 384.269 109.577C381.373 107.912 378.518 106.178 375.706 104.372C374.032 103.297 372.056 102.149 370.171 102.787C365.064 104.514 362.569 107.712 362.602 113.222Z" fill="#3F3D56"/>
        <path d="M300.368 49.7171V49.719C300.355 49.7982 300.341 49.8755 300.325 49.9528C300.304 50.081 300.279 50.211 300.255 50.3392C300.021 51.5362 299.735 52.7276 299.405 53.9114C298.5 57.182 297.288 60.3998 296.085 63.5705C292.858 72.0722 289.63 80.5745 286.401 89.0775C285.587 91.2189 284.775 93.3623 283.849 95.4604C283.54 96.1597 283.221 96.8647 282.905 97.5773C281.77 100.128 280.68 102.761 280.318 105.476C279.981 107.262 279.942 109.092 280.203 110.892C280.565 112.671 281.645 114.409 283.336 115.067C284.162 115.389 285.344 115.821 285.118 116.679C284.995 117.15 284.46 117.38 283.979 117.459C283.344 117.56 282.695 117.521 282.077 117.343C281.46 117.165 280.889 116.853 280.405 116.43C279.502 115.629 278.808 114.383 277.608 114.249C276.776 114.158 276.011 114.656 275.249 115.005C272.143 116.424 268.523 115.431 265.26 114.422C265.517 113.101 266.844 112.23 268.161 111.966C269.479 111.7 270.842 111.889 272.186 111.853C272.616 111.876 273.044 111.766 273.409 111.538C273.737 111.237 273.967 110.844 274.069 110.411C274.935 107.846 275.579 105.211 275.994 102.535C276.427 99.7395 276.608 96.9006 277.227 94.1389C277.707 91.9843 278.45 89.8975 279.087 87.7825C280.319 83.4277 281.331 79.0135 282.118 74.5568C282.517 72.7052 282.802 70.8311 282.972 68.9449C283.08 67.3803 283.029 65.8081 283.18 64.2492C283.433 62.221 283.856 60.2176 284.445 58.2603C285.021 56.1245 285.598 53.99 286.173 51.8567C287.027 48.6992 287.943 45.4192 290.107 42.9648C290.859 42.1007 291.78 41.4002 292.814 40.9067C293.847 40.4132 294.971 40.1372 296.115 40.0957C296.544 40.0952 296.972 40.1413 297.391 40.2333C297.461 40.2503 297.531 40.2672 297.601 40.2861C298.057 40.4055 298.496 40.5869 298.903 40.8252C299.57 40.4011 299.91 40.55 300.353 41.2041C300.741 41.8964 300.924 42.685 300.881 43.4775C300.918 45.5693 300.746 47.6595 300.368 49.7171Z" fill="#FBBEBE"/>
        <path d="M301.101 52.2165L301.073 52.2448L300.92 52.3975L299.405 53.9112L298.662 50.7914L296.115 40.0955C296.544 40.095 296.972 40.1411 297.391 40.2331C297.41 40.1106 297.439 39.99 297.48 39.873L297.601 40.2859L298.464 43.2228L300.098 48.7989L300.368 49.7169V49.7188L301.101 52.2165Z" fill="#0075FF"/>
        <path d="M310.718 18.0935C310.717 19.0839 310.521 20.0643 310.14 20.9788C309.76 21.8932 309.203 22.7237 308.501 23.4228C308.247 23.6773 307.975 23.9128 307.687 24.1275C306.386 25.1082 304.801 25.6389 303.172 25.6397H294.129C292.13 25.6366 290.215 24.8406 288.803 23.4264C287.391 22.0123 286.598 20.0956 286.598 18.0972C286.598 16.0988 287.391 14.1821 288.803 12.7679C290.215 11.3538 292.13 10.5578 294.129 10.5547H303.172C305.171 10.5599 307.086 11.3556 308.5 12.7681C309.914 14.1805 310.711 16.095 310.718 18.0935Z" fill="#2F2E41"/>
        <path d="M319.198 18.6617C323.466 18.6617 326.926 15.2014 326.926 10.9329C326.926 6.66441 323.466 3.2041 319.198 3.2041C314.929 3.2041 311.469 6.66441 311.469 10.9329C311.469 15.2014 314.929 18.6617 319.198 18.6617Z" fill="#2F2E41"/>
        <path opacity="0.1" d="M319.009 3.2041C318.915 3.2041 318.821 3.20787 318.727 3.21125C320.726 3.28394 322.619 4.12928 324.008 5.56943C325.397 7.00958 326.173 8.93226 326.173 10.9329C326.173 12.9336 325.397 14.8562 324.008 16.2964C322.619 17.7365 320.726 18.5819 318.727 18.6546C318.821 18.658 318.915 18.6617 319.009 18.6617C321.059 18.6617 323.025 17.8474 324.474 16.398C325.924 14.9486 326.738 12.9827 326.738 10.9329C326.738 8.88311 325.924 6.91725 324.474 5.46782C323.025 4.01839 321.059 3.2041 319.009 3.2041Z" fill="black"/>
        <path opacity="0.1" d="M282.25 3.2041C282.345 3.2041 282.439 3.20787 282.533 3.21125C280.534 3.28394 278.641 4.12928 277.252 5.56943C275.863 7.00958 275.087 8.93226 275.087 10.9329C275.087 12.9336 275.863 14.8562 277.252 16.2964C278.641 17.7365 280.534 18.5819 282.533 18.6546C282.439 18.658 282.345 18.6617 282.25 18.6617C280.202 18.6599 278.238 17.8448 276.79 16.3956C275.342 14.9464 274.528 12.9815 274.528 10.9329C274.528 8.88429 275.342 6.91946 276.79 5.47022C278.238 4.02099 280.202 3.20591 282.25 3.2041Z" fill="black"/>
        <path opacity="0.1" d="M307.687 24.1279C306.386 25.1086 304.802 25.6393 303.172 25.6401H294.129C292.5 25.6393 290.915 25.1086 289.614 24.1279H307.687Z" fill="black"/>
        <path d="M366.088 80.1303C366.088 80.1303 368.036 85.7446 369.82 84.2497L368.398 76.9111L366.088 80.1303Z" fill="#FBBEBE"/>
        <path d="M603.19 251.344C605.005 252.003 606.948 252.233 608.866 252.013C610.785 251.794 612.626 251.132 614.245 250.079C615.864 249.027 617.217 247.613 618.196 245.949C619.175 244.285 619.755 242.416 619.888 240.489C620.022 238.563 619.707 236.632 618.967 234.848C618.227 233.065 617.083 231.477 615.625 230.211C614.167 228.945 612.435 228.035 610.565 227.553C608.695 227.07 606.739 227.029 604.85 227.431L605.163 233.849L602.126 228.349C599.146 229.749 596.844 232.275 595.726 235.372C595.329 236.456 595.087 237.592 595.009 238.744C594.817 241.448 595.512 244.141 596.988 246.415C598.465 248.688 600.642 250.419 603.19 251.344Z" fill="#57B894"/>
        <path d="M618.213 325.775C617.141 320.317 621.786 315.478 626.373 312.333C630.961 309.188 636.321 306.098 637.886 300.761C640.136 293.09 633.435 286.066 628.22 280.008C624.35 275.512 621.027 270.574 618.321 265.296C617.236 263.18 616.238 260.968 615.953 258.607C615.542 255.207 616.634 251.823 617.735 248.58C621.401 237.776 625.32 227.062 629.494 216.439" stroke="#3F3D56" stroke-miterlimit="10"/>
        <path d="M603.704 249.691C605.518 250.351 607.462 250.58 609.38 250.361C611.299 250.141 613.14 249.479 614.759 248.427C616.378 247.375 617.73 245.961 618.71 244.296C619.689 242.632 620.268 240.763 620.402 238.837C620.536 236.911 620.22 234.979 619.48 233.196C618.74 231.412 617.596 229.825 616.138 228.559C614.68 227.293 612.948 226.383 611.079 225.9C609.209 225.418 607.253 225.376 605.364 225.779L605.676 232.196L602.64 226.697C599.66 228.097 597.358 230.623 596.24 233.719C595.842 234.804 595.601 235.94 595.522 237.092C595.331 239.796 596.026 242.489 597.502 244.762C598.978 247.036 601.156 248.766 603.704 249.691V249.691Z" stroke="#3F3D56" stroke-miterlimit="10"/>
        <path d="M616.69 214.223C617.402 212.258 618.597 210.504 620.165 209.122C621.734 207.74 623.625 206.775 625.664 206.316L626.69 212.417L628.594 206.01C631.236 206.049 633.798 206.927 635.909 208.517C638.02 210.107 639.571 212.327 640.339 214.856C641.106 217.385 641.05 220.092 640.178 222.587C639.306 225.082 637.664 227.236 635.489 228.737C633.313 230.238 630.717 231.008 628.075 230.938C625.433 230.867 622.882 229.958 620.79 228.343C618.698 226.728 617.174 224.49 616.437 221.952C615.699 219.414 615.788 216.707 616.69 214.223H616.69Z" fill="#57B894"/>
        <path d="M617.374 212.021C618.086 210.056 619.282 208.301 620.85 206.92C622.418 205.538 624.309 204.573 626.348 204.114L627.375 210.215L629.278 203.808C631.921 203.847 634.483 204.725 636.594 206.315C638.705 207.905 640.256 210.125 641.023 212.654C641.79 215.183 641.734 217.89 640.862 220.385C639.991 222.88 638.348 225.034 636.173 226.535C633.998 228.035 631.402 228.806 628.76 228.735C626.118 228.665 623.567 227.756 621.475 226.141C619.383 224.526 617.858 222.288 617.121 219.75C616.384 217.212 616.473 214.505 617.374 212.021H617.374Z" stroke="#3F3D56" stroke-miterlimit="10"/>
        <path d="M626.031 280.132C628.909 281.176 632.071 281.124 634.913 279.987C637.756 278.85 640.08 276.706 641.444 273.965C642.808 271.224 643.115 268.077 642.308 265.124C641.5 262.171 639.634 259.618 637.065 257.952L635.603 262.876L634.566 256.703C634.556 256.698 634.545 256.694 634.534 256.691C632.995 256.132 631.36 255.881 629.724 255.954C628.088 256.026 626.482 256.42 624.998 257.114C623.514 257.807 622.181 258.786 621.076 259.994C619.97 261.203 619.114 262.618 618.555 264.157C617.997 265.697 617.747 267.332 617.821 268.968C617.894 270.604 618.289 272.21 618.983 273.693C619.678 275.177 620.657 276.509 621.867 277.614C623.076 278.718 624.491 279.574 626.031 280.132H626.031Z" fill="#57B894"/>
        <path d="M626.624 277.9C629.502 278.944 632.664 278.893 635.506 277.755C638.349 276.618 640.673 274.475 642.037 271.734C643.401 268.993 643.708 265.846 642.901 262.892C642.093 259.939 640.227 257.386 637.659 255.721L636.196 260.645L635.159 254.472C635.149 254.467 635.138 254.463 635.127 254.46C633.588 253.9 631.954 253.65 630.317 253.722C628.681 253.795 627.075 254.189 625.591 254.882C624.107 255.575 622.775 256.554 621.669 257.763C620.564 258.972 619.707 260.386 619.149 261.926C618.59 263.466 618.34 265.1 618.414 266.736C618.487 268.373 618.882 269.978 619.577 271.462C620.271 272.945 621.251 274.278 622.46 275.382C623.669 276.487 625.084 277.343 626.624 277.9H626.624Z" stroke="#3F3D56" stroke-miterlimit="10"/>
        <path d="M613.051 300.837C613.546 303.653 614.994 306.213 617.152 308.088C619.31 309.963 622.048 311.039 624.905 311.135C627.762 311.231 630.566 310.342 632.845 308.617C635.125 306.891 636.742 304.434 637.425 301.658C638.108 298.882 637.816 295.956 636.598 293.369C635.379 290.783 633.308 288.694 630.733 287.454C628.157 286.213 625.233 285.895 622.451 286.555C619.669 287.214 617.199 288.809 615.454 291.074L621.009 299.435L613.418 294.997C612.83 296.886 612.704 298.889 613.051 300.837Z" fill="#57B894"/>
        <path d="M613.565 299.185C614.059 302.001 615.507 304.561 617.666 306.436C619.824 308.311 622.561 309.386 625.419 309.483C628.276 309.579 631.079 308.69 633.359 306.964C635.638 305.239 637.255 302.782 637.939 300.006C638.622 297.23 638.33 294.303 637.111 291.717C635.893 289.131 633.822 287.042 631.246 285.801C628.671 284.56 625.747 284.243 622.965 284.902C620.183 285.561 617.712 287.157 615.967 289.422L621.522 297.783L613.932 293.345C613.343 295.234 613.217 297.237 613.565 299.185V299.185Z" stroke="#3F3D56" stroke-miterlimit="10"/>
        <path d="M5.39622 281.715C6.58856 282.149 7.86528 282.299 9.12576 282.155C10.3862 282.011 11.596 281.576 12.6597 280.885C13.7234 280.193 14.612 279.264 15.2554 278.171C15.8988 277.077 16.2795 275.849 16.3674 274.584C16.4553 273.318 16.248 272.049 15.7619 270.877C15.2758 269.705 14.5241 268.663 13.5662 267.831C12.6082 266.999 11.4702 266.401 10.2417 266.084C9.01324 265.767 7.72795 265.74 6.48714 266.004L6.69219 270.221L4.69733 266.607C2.7395 267.527 1.22699 269.187 0.492188 271.221C0.231229 271.934 0.0725848 272.68 0.0209891 273.437C-0.104927 275.214 0.351696 276.983 1.32166 278.477C2.29162 279.97 3.72206 281.107 5.39622 281.715Z" fill="#57B894"/>
        <path d="M15.2669 330.618C14.5627 327.032 17.6141 323.854 20.6281 321.787C23.6422 319.721 27.1639 317.691 28.1923 314.184C29.6703 309.144 25.2678 304.529 21.8412 300.549C19.299 297.595 17.1159 294.35 15.3375 290.883C14.5643 289.521 14.0377 288.033 13.7819 286.488C13.5117 284.254 14.2294 282.031 14.9524 279.9C17.3611 272.802 19.9364 265.763 22.6783 258.783" stroke="#3F3D56" stroke-miterlimit="10"/>
        <path d="M5.73363 280.63C6.92597 281.064 8.20269 281.214 9.46317 281.07C10.7236 280.926 11.9334 280.491 12.9971 279.8C14.0608 279.108 14.9494 278.179 15.5928 277.086C16.2362 275.992 16.6169 274.764 16.7048 273.499C16.7926 272.233 16.5854 270.964 16.0992 269.792C15.6131 268.62 14.8615 267.578 13.9035 266.746C12.9456 265.914 11.8076 265.316 10.5791 264.999C9.35064 264.682 8.06536 264.655 6.82455 264.919L7.0296 269.136L5.03474 265.522C3.0769 266.442 1.56439 268.102 0.829591 270.136C0.568634 270.849 0.409993 271.595 0.358394 272.352C0.23247 274.129 0.689089 275.898 1.65905 277.392C2.62902 278.886 4.05946 280.022 5.73363 280.63V280.63Z" stroke="#3F3D56" stroke-miterlimit="10"/>
        <path d="M14.2656 257.328C14.7336 256.037 15.5189 254.884 16.5493 253.976C17.5797 253.068 18.822 252.435 20.1618 252.133L20.8363 256.142L22.0868 251.932C23.823 251.957 25.5062 252.534 26.8932 253.579C28.2802 254.624 29.2993 256.082 29.8035 257.744C30.3076 259.405 30.2706 261.184 29.6978 262.823C29.125 264.463 28.0461 265.877 26.6169 266.864C25.1876 267.85 23.482 268.356 21.7461 268.31C20.0103 268.263 18.3342 267.666 16.9597 266.605C15.5853 265.544 14.5836 264.073 14.0994 262.406C13.6151 260.738 13.6733 258.96 14.2656 257.328Z" fill="#57B894"/>
        <path d="M14.7153 255.881C15.1833 254.589 15.9686 253.437 16.999 252.529C18.0294 251.621 19.2718 250.987 20.6115 250.686L21.286 254.694L22.5365 250.484C24.2727 250.51 25.9559 251.087 27.3429 252.132C28.7299 253.176 29.749 254.635 30.2532 256.296C30.7573 257.958 30.7203 259.737 30.1475 261.376C29.5747 263.015 28.4958 264.43 27.0666 265.416C25.6373 266.402 23.9317 266.909 22.1958 266.862C20.46 266.816 18.7839 266.219 17.4095 265.158C16.035 264.097 15.0333 262.626 14.5491 260.959C14.0648 259.291 14.1231 257.513 14.7153 255.881V255.881Z" stroke="#3F3D56" stroke-miterlimit="10"/>
        <path d="M20.403 300.63C22.2939 301.316 24.3711 301.282 26.2387 300.535C28.1063 299.788 29.6336 298.38 30.5296 296.579C31.4256 294.778 31.6275 292.71 31.097 290.77C30.5664 288.83 29.3405 287.152 27.6528 286.058L26.6919 289.293L26.0106 285.237C26.0039 285.234 25.9969 285.232 25.9897 285.23C24.9783 284.862 23.9043 284.697 22.8291 284.744C21.7539 284.792 20.6986 285.051 19.7235 285.506C18.7484 285.962 17.8726 286.605 17.1462 287.399C16.4198 288.193 15.857 289.123 15.49 290.134C15.123 291.146 14.959 292.22 15.0073 293.295C15.0556 294.371 15.3153 295.426 15.7715 296.4C16.2278 297.375 16.8717 298.25 17.6664 298.976C18.4611 299.702 19.391 300.264 20.403 300.63Z" fill="#57B894"/>
        <path d="M20.793 299.164C22.6839 299.85 24.7612 299.816 26.6287 299.069C28.4963 298.322 30.0236 296.914 30.9196 295.113C31.8156 293.312 32.0175 291.244 31.487 289.304C30.9565 287.364 29.7305 285.686 28.0428 284.592L27.082 287.827L26.4006 283.771C26.3939 283.768 26.3869 283.766 26.3798 283.763C25.3685 283.397 24.295 283.233 23.2203 283.281C22.1457 283.329 21.0911 283.588 20.1166 284.044C18.1487 284.964 16.6269 286.628 15.886 288.67C15.1452 290.713 15.246 292.966 16.1662 294.934C17.0864 296.902 18.7507 298.423 20.793 299.164V299.164Z" stroke="#3F3D56" stroke-miterlimit="10"/>
        <path d="M11.8749 314.235C12.2 316.085 13.1514 317.767 14.5694 318.998C15.9874 320.23 17.7859 320.937 19.6632 321C21.5405 321.063 23.3825 320.479 24.8802 319.346C26.3779 318.212 27.4403 316.598 27.8891 314.774C28.3379 312.95 28.146 311.027 27.3454 309.328C26.5449 307.629 25.1844 306.256 23.4921 305.441C21.7998 304.626 19.8788 304.417 18.051 304.85C16.2232 305.284 14.6 306.332 13.4534 307.82L17.1032 313.313L12.1163 310.398C11.7296 311.639 11.6468 312.955 11.8749 314.235Z" fill="#57B894"/>
        <path d="M12.2123 313.149C12.5374 314.999 13.4888 316.681 14.9068 317.912C16.3248 319.144 18.1233 319.851 20.0006 319.914C21.8779 319.978 23.7199 319.393 25.2176 318.26C26.7153 317.126 27.7777 315.512 28.2265 313.688C28.6754 311.864 28.4834 309.941 27.6828 308.242C26.8823 306.543 25.5218 305.17 23.8295 304.355C22.1373 303.54 20.2162 303.331 18.3884 303.765C16.5606 304.198 14.9374 305.246 13.7908 306.734L17.4406 312.227L12.4536 309.312C12.067 310.553 11.9842 311.869 12.2123 313.149V313.149Z" stroke="#3F3D56" stroke-miterlimit="10"/>
        <path d="M288.124 204.355C293.749 204.355 298.309 198.454 298.309 191.175C298.309 183.896 293.749 177.995 288.124 177.995C282.5 177.995 277.94 183.896 277.94 191.175C277.94 198.454 282.5 204.355 288.124 204.355Z" fill="#2F2E41"/>
        <path d="M343.539 204.654C349.163 204.654 353.723 198.754 353.723 191.475C353.723 184.196 349.163 178.295 343.539 178.295C337.914 178.295 333.354 184.196 333.354 191.475C333.354 198.754 337.914 204.654 343.539 204.654Z" fill="#2F2E41"/>
        <path d="M335.751 230.414C335.751 236.369 327.436 241.198 317.18 241.198C306.924 241.198 298.608 236.369 298.608 230.414C298.608 225.256 304.845 220.943 313.178 219.889C314.505 219.714 315.842 219.628 317.18 219.631C319.422 219.624 321.658 219.865 323.848 220.35C330.809 221.902 335.751 225.825 335.751 230.414Z" fill="#2F2E41"/>
        <path d="M290.521 201.359C296.145 201.359 300.705 195.459 300.705 188.18C300.705 180.901 296.145 175 290.521 175C284.896 175 280.336 180.901 280.336 188.18C280.336 195.459 284.896 201.359 290.521 201.359Z" stroke="#3F3D56" stroke-miterlimit="10"/>
        <path d="M345.935 201.659C351.56 201.659 356.12 195.758 356.12 188.48C356.12 181.201 351.56 175.3 345.935 175.3C340.311 175.3 335.751 181.201 335.751 188.48C335.751 195.758 340.311 201.659 345.935 201.659Z" stroke="#3F3D56" stroke-miterlimit="10"/>
        <path d="M319.576 238.203C329.833 238.203 338.147 233.375 338.147 227.419C338.147 221.464 329.833 216.636 319.576 216.636C309.319 216.636 301.004 221.464 301.004 227.419C301.004 233.375 309.319 238.203 319.576 238.203Z" stroke="#3F3D56" stroke-miterlimit="10"/>
        <path d="M324.069 221.249C324.074 222.003 323.791 222.729 323.278 223.281C323.036 223.546 322.742 223.757 322.414 223.902C322.086 224.047 321.731 224.123 321.373 224.125H315.382C314.644 224.099 313.946 223.782 313.441 223.243C312.936 222.704 312.664 221.988 312.686 221.249C312.683 220.665 312.854 220.093 313.178 219.607C314.503 219.42 315.841 219.329 317.179 219.332C319.424 219.325 321.662 219.582 323.847 220.099C323.995 220.464 324.07 220.855 324.069 221.249Z" fill="white"/>
        <path d="M290.521 187.581C292.175 187.581 293.516 186.24 293.516 184.585C293.516 182.931 292.175 181.59 290.521 181.59C288.866 181.59 287.525 182.931 287.525 184.585C287.525 186.24 288.866 187.581 290.521 187.581Z" fill="white"/>
        <path d="M346.235 187.581C347.889 187.581 349.23 186.24 349.23 184.585C349.23 182.931 347.889 181.59 346.235 181.59C344.58 181.59 343.239 182.931 343.239 184.585C343.239 186.24 344.58 187.581 346.235 187.581Z" fill="white"/>
        <path opacity="0.3" d="M349.23 215.738C350.885 215.738 352.226 214.397 352.226 212.742C352.226 211.088 350.885 209.747 349.23 209.747C347.576 209.747 346.235 211.088 346.235 212.742C346.235 214.397 347.576 215.738 349.23 215.738Z" fill="#0075FF"/>
        <path opacity="0.3" d="M276.143 215.738C277.797 215.738 279.138 214.397 279.138 212.742C279.138 211.088 277.797 209.747 276.143 209.747C274.489 209.747 273.147 211.088 273.147 212.742C273.147 214.397 274.489 215.738 276.143 215.738Z" fill="#0075FF"/>
    </g>
    <defs>
        <clipPath id="clip0">
            <rect width="643.645" height="350" fill="white"/>
        </clipPath>
    </defs>
</svg>