<svg width="328" height="256" viewBox="0 0 328 256" fill="none" xmlns="http://www.w3.org/2000/svg">
    <g clip-path="url(#clip0)">
        <path opacity="0.1" d="M115.057 251.043C146.656 251.043 172.272 246.202 172.272 240.231C172.272 234.26 146.656 229.42 115.057 229.42C83.4578 229.42 57.8418 234.26 57.8418 240.231C57.8418 246.202 83.4578 251.043 115.057 251.043Z" fill="#0075FF"/>
        <path opacity="0.1" d="M190.57 36.1033C169.542 35.3774 149.515 28.6041 130.392 21.1957C111.268 13.7872 92.3263 5.58151 71.8024 1.65691C58.6017 -0.867671 43.5036 -1.2274 32.8696 5.82457C22.6319 12.6302 19.3245 24.3457 17.5473 35.225C16.2087 43.4113 15.4224 52.0286 19.0873 59.693C21.6345 65.0144 26.1506 69.4867 29.2762 74.5845C40.1506 92.3181 32.4634 114.187 20.6825 131.503C15.1592 139.624 8.74245 147.382 4.47651 156.019C0.210567 164.656 -1.76158 174.586 1.97153 183.42C5.6689 192.17 14.4834 198.73 24.0323 203.348C43.4256 212.73 66.2693 215.413 88.5607 216.936C137.89 220.3 187.48 218.845 236.94 217.384C255.244 216.846 273.627 216.298 291.633 213.475C301.634 211.907 311.956 209.418 319.217 203.409C328.431 195.784 330.716 182.872 324.539 173.312C314.181 157.27 285.551 153.287 278.303 136.075C274.319 126.599 278.41 116.047 284.203 107.261C296.627 88.4097 317.45 71.8719 318.545 50.3271C319.299 35.5297 309.288 20.7095 293.81 13.7062C277.588 6.36578 255.088 7.28941 243.126 19.4391C230.796 31.9356 209.138 36.7482 190.57 36.1033Z" fill="#0075FF"/>
        <path d="M173.86 117.232L163.908 110.54L168.928 103.086L142.643 100.996L133.199 108.281L121.375 101.67L111.515 102.853L111.398 100.26C111.276 97.5573 111.003 94.8633 110.582 92.1906C110.624 91.3804 110.654 90.4503 110.65 89.4391C110.65 85.1775 110.072 79.5288 107.531 75.763L108.116 70.5194L103.373 64.929C104.134 63.4154 105.003 61.9577 105.972 60.5669C106.134 60.3336 106.297 60.1067 106.472 59.8863C112.629 59.4423 117.486 54.3932 117.486 48.2195C117.486 47.9343 117.486 47.6491 117.454 47.3671C117.454 47.2537 117.431 47.137 117.418 47.0236C118.019 47.3477 118.627 47.6718 119.234 47.9959C119.348 48.1579 119.478 48.3199 119.621 48.5111L119.65 48.5468L119.832 48.7704L119.891 48.8385C119.956 48.9162 120.024 48.9908 120.092 49.0686L120.138 49.1204C120.31 49.3116 120.492 49.5061 120.687 49.6973C120.71 49.7161 120.732 49.7367 120.752 49.7589L120.995 49.9857L121.064 50.0473C121.271 50.232 121.492 50.4103 121.713 50.5788L121.785 50.6306L122.064 50.8218L122.155 50.8802C122.262 50.945 122.373 51.013 122.48 51.0746L122.519 51.0973C122.646 51.1654 122.776 51.2302 122.906 51.2917L122.971 51.3177C123.081 51.3652 123.189 51.4106 123.296 51.4538L123.396 51.4894C123.51 51.5283 123.62 51.564 123.737 51.5964L123.809 51.6158C123.952 51.6515 124.095 51.6806 124.241 51.7033H124.257C124.395 51.7255 124.534 51.7396 124.673 51.7455H124.767C124.892 51.752 125.017 51.752 125.141 51.7455H125.222C125.378 51.7365 125.533 51.7181 125.687 51.6904C126.414 51.595 127.112 51.3453 127.734 50.9579C127.892 50.8523 128.032 50.7221 128.15 50.5723C128.799 49.7232 128.085 48.7931 128.085 48.7931C127.831 48.1903 126.187 47.7658 126.187 47.7658C126.187 47.7658 120.989 45.6009 120.989 43.8768C120.989 42.1527 119.689 33.2081 106.274 31.1632C106.274 31.1632 97.5472 30.6738 95.0942 35.3341L95.0423 35.8785C94.321 36.329 93.7232 37.2332 93.0116 37.4989C92.7042 37.5648 92.4078 37.6739 92.1311 37.823V37.7614C92.049 37.8331 91.9817 37.9201 91.933 38.0175C91.7801 38.3208 91.6885 38.6511 91.6633 38.9897C91.5901 39.4033 91.4461 39.8012 91.2377 40.1661C91.1796 40.2698 91.1144 40.3694 91.0427 40.4643L90.9875 40.5518C91.3647 40.5811 91.7435 40.52 92.0922 40.3735C92.0372 40.8172 91.9281 41.2525 91.7673 41.6698C91.9738 41.6765 92.1779 41.6238 92.3553 41.5181C92.5327 41.4124 92.6759 41.2581 92.768 41.0735V41.0476L92.8102 40.9893C92.8919 40.8392 92.9593 40.6819 93.0116 40.5193L92.9759 40.5582C93.0409 40.3476 93.0994 40.1337 93.1708 39.9263C93.2036 39.8095 93.2575 39.6996 93.33 39.6022C93.4167 39.515 93.5228 39.4493 93.6396 39.4105C93.7564 39.3717 93.8808 39.3607 94.0026 39.3786L93.8694 42.1884H93.9278C93.8496 42.3927 93.7539 42.5901 93.6419 42.7782C93.1806 43.5236 92.3423 44.0324 92.0337 44.849C91.9006 45.2429 91.8497 45.6598 91.8842 46.0741C91.8842 46.3171 91.9135 46.5634 91.933 46.8065V46.787C91.9784 47.4352 91.9914 48.051 91.6406 48.5727C91.4001 48.9292 91.0135 49.1982 90.8803 49.6033C90.8434 49.7162 90.8269 49.8347 90.8315 49.9533C90.8576 50.3084 90.9319 50.6584 91.0525 50.9936C91.0539 50.9872 91.0539 50.9806 91.0525 50.9741C91.1335 51.2207 91.1525 51.4834 91.1077 51.739C90.9615 52.3871 90.172 52.9283 90.211 53.5473C90.2088 53.6287 90.2209 53.7099 90.2467 53.7872C90.3986 54.0895 90.6617 54.3217 90.981 54.4353C91.4819 54.7194 92.0572 54.846 92.6315 54.7983C92.8467 54.7595 93.0549 54.6885 93.2488 54.5876C93.0214 55.1094 92.7874 55.6247 92.5503 56.114C92.5145 56.1918 92.4755 56.2696 92.4366 56.3474C92.4366 56.3474 90.4287 55.0089 89.2883 57.7377C88.9554 58.3047 88.7172 58.9221 88.5832 59.5655C88.5261 59.8229 88.4456 60.0745 88.3428 60.3174C87.8365 61.1723 87.0788 61.8512 86.1725 62.2618C83.8462 63.3248 74.4501 75.0144 74.2844 78.0413C74.203 79.2228 74.0028 80.3932 73.6866 81.5348C72.9469 84.2232 72.7569 87.0325 73.1277 89.7956C73.2438 90.6886 73.4362 91.5701 73.7028 92.4304C74.7002 95.454 75.3663 101.096 75.3663 101.096L76.445 110.89C76.4049 112.242 76.4635 113.594 76.6204 114.938C75.519 116.192 71.0971 121.419 72.7866 122.842C74.0862 123.963 76.3605 123.779 77.6373 123.548C76.5619 126.203 74.8692 130.818 74.645 133.987C74.3201 138.677 75.2006 144.889 76.5944 147.274C77.9882 149.66 82.6343 155.778 82.6343 155.778C82.6343 155.778 82.4166 164.172 84.0769 167.221C85.7371 170.271 86.4064 176.597 86.4064 176.597C86.4064 176.597 87.9562 181.938 87.1797 183.902C86.4032 185.866 88.619 187.499 86.2927 188.805C83.9664 190.111 80.9903 219.547 80.9903 219.547C80.9903 219.547 79.7914 238.84 80.9903 239.822C81.0545 239.868 81.123 239.908 81.195 239.942V246.423C81.195 246.423 80.3633 247.784 83.7455 248.06C86.062 248.244 92.6283 248.663 96.5238 248.906L99.5421 249.094C99.5421 249.094 106.69 250.513 109.848 249.094C113.006 247.674 118.604 247.706 117.772 243.957C117.662 243.447 117.514 242.945 117.33 242.456C116.417 240.13 114.868 239.864 112.012 239.216C111.846 239.18 111.687 239.148 111.541 239.122C108.532 238.6 107.544 239.997 105.858 238.179C104.393 236.607 99.7273 234.847 98.1386 234.29C98.1776 234.173 98.2263 234.06 98.2653 233.94C97.8154 233.863 97.3969 233.66 97.0599 233.353L101.365 233.625L103.928 233.784C103.928 233.784 110.004 234.993 112.701 233.784C115.397 232.575 120.141 232.608 119.433 229.422C119.339 228.988 119.214 228.561 119.059 228.145C118.282 226.168 116.963 225.951 114.536 225.403C114.397 225.374 114.267 225.345 114.137 225.322C111.58 224.878 110.741 226.064 109.309 224.522C108.081 223.206 104.204 221.732 102.811 221.229C102.811 220.51 101.836 219.486 101.222 218.458C100.501 217.259 101.833 213.062 101.833 213.062L102.593 195.65C102.882 195.521 103.189 195.434 103.503 195.39C103.503 195.39 106.94 192.117 106.164 188.63C106.005 187.575 105.923 186.511 105.917 185.444C107.047 184.398 108.604 182.852 109.045 181.899C109.767 180.347 109.045 172.825 109.045 172.825V144.063L114.796 144.643L120.014 145.178L121.603 145.34L126.821 145.865L138.813 147.073L149.619 145.032L154.294 144.15L163.908 142.335V118.872L173.86 117.232ZM94.7109 39.4823L94.0416 39.411C94.2625 39.4207 94.4964 39.4629 94.7109 39.4823Z" fill="url(#paint0_linear)"/>
        <path d="M150.535 132.468C147.286 137.106 135.606 134.649 135.606 134.649L126.554 126.2L125.336 125.056L127.38 120.727C127.38 120.727 128.029 120.905 129.144 121.222C134.995 122.917 153.277 128.569 150.535 132.468Z" fill="#EFB7B9"/>
        <path opacity="0.1" d="M129.137 121.222C128.738 122.609 127.643 124.687 126.554 126.2L125.336 125.056L127.38 120.727C127.38 120.727 128.036 120.905 129.137 121.222Z" fill="black"/>
        <path d="M98.0932 72.3959C98.0932 72.3959 89.7497 76.0872 90.1591 85.1517C90.4537 90.9915 91.0916 96.809 92.0695 102.574C92.0695 102.574 90.3638 116.215 97.4661 119.731C104.568 123.247 111.141 126.138 111.141 126.138C111.141 126.138 122.253 127.331 123.634 127.823C125.014 128.316 129.329 120.784 128.533 119.611C127.737 118.438 117.538 115.978 116.239 114.021C114.939 112.063 111.934 110.854 111.934 110.854C111.934 110.854 108.831 108.981 108.62 107.29C108.409 105.598 109.228 104.337 109.435 103.595C109.643 102.853 110.17 95.6875 110.17 95.6875C110.17 95.6875 113.672 70.1825 98.0932 72.3959Z" fill="#DCE6F2"/>
        <path opacity="0.1" d="M103.601 102.201C103.601 102.201 92.1551 104.113 93.263 108.109C93.263 108.109 97.4185 103.796 103.601 102.201Z" fill="black"/>
        <path opacity="0.1" d="M103.688 103.818C103.688 103.818 97.3951 108.942 98.6265 109.205C99.8579 109.467 103.688 103.818 103.688 103.818Z" fill="black"/>
        <path opacity="0.1" d="M106.713 105.604C106.713 105.604 105.027 109.048 106.063 108.815C107.1 108.582 106.713 105.604 106.713 105.604Z" fill="black"/>
        <path opacity="0.1" d="M129.56 121.588L128.865 121.391C129.063 120.742 129.119 120.217 128.956 119.974C128.16 118.801 117.968 116.345 116.672 114.384C115.375 112.423 112.367 111.218 112.367 111.218C112.367 111.218 109.264 109.345 109.053 107.653C108.841 105.961 109.66 104.7 109.868 103.958C110.076 103.216 110.602 96.0476 110.602 96.0476C110.602 96.0476 114.095 70.5458 98.5161 72.7592C98.5161 72.7592 90.1727 76.4537 90.5788 85.5182C90.8735 91.3582 91.5125 97.1757 92.4925 102.941C92.4925 102.941 90.7867 116.581 97.8891 120.097C104.991 123.614 111.564 126.505 111.564 126.505C111.564 126.505 122.672 127.694 124.057 128.19C124.58 128.378 125.525 127.409 126.451 126.077L126.977 126.566L136.029 135.012C136.029 135.012 147.709 137.471 150.958 132.834C153.704 128.932 135.425 123.28 129.56 121.588Z" fill="black"/>
        <path d="M93.2918 38.3736C92.9738 38.4357 92.6691 38.553 92.3919 38.7204C92.067 38.9894 92.067 39.4496 91.9857 39.8514C91.8903 40.4105 91.6681 40.9403 91.3359 41.4005C91.7056 41.4276 92.0765 41.3665 92.4179 41.2223C92.3622 41.6659 92.2532 42.1011 92.093 42.5186C92.2954 42.5238 92.495 42.4705 92.6679 42.3653C92.8408 42.2602 92.9796 42.1075 93.0677 41.9256C93.2396 41.5604 93.3756 41.1794 93.4738 40.788C93.5043 40.671 93.5573 40.5609 93.6297 40.464C93.9286 40.1107 94.4842 40.2695 94.9456 40.3149C95.3295 40.3472 95.7152 40.2765 96.0625 40.1101C96.4098 39.9437 96.7062 39.6877 96.921 39.3686C97.4116 38.6264 97.4408 36.7273 96.2712 36.5264C95.0496 36.3255 94.2893 38.0042 93.2918 38.3736Z" fill="#965D7B"/>
        <g opacity="0.1">
            <path opacity="0.1" d="M92.359 39.1196C92.3883 38.9608 92.4078 38.7955 92.4435 38.6367C92.1349 38.9057 92.1186 39.3627 92.0374 39.7678C91.9965 40.0015 91.9323 40.2306 91.8457 40.4516C92.1015 40.0448 92.2758 39.5925 92.359 39.1196Z" fill="black"/>
            <path opacity="0.1" d="M92.4634 41.7963C92.6252 41.3793 92.7344 40.9439 92.7883 40.5C92.463 40.6366 92.1108 40.6975 91.7584 40.6782C91.6558 40.9062 91.5306 41.1233 91.3848 41.3264C91.7532 41.3548 92.1231 41.2948 92.4634 41.1514C92.4095 41.5953 92.3003 42.0307 92.1385 42.4477C92.3409 42.4524 92.5404 42.3991 92.7132 42.2939C92.886 42.1888 93.0249 42.0363 93.1132 41.8546C93.1942 41.7073 93.2595 41.552 93.3082 41.3912C93.2129 41.5241 93.0855 41.6309 92.9378 41.7017C92.7902 41.7725 92.627 41.805 92.4634 41.7963Z" fill="black"/>
            <path opacity="0.1" d="M95.3167 39.5928C94.8553 39.5475 94.2965 39.3887 93.9976 39.7419C93.9264 39.8397 93.8736 39.9495 93.8416 40.066C93.8124 40.1502 93.7864 40.2378 93.7637 40.3253C94.0723 40.0822 94.5727 40.2118 94.9918 40.254C95.3756 40.2852 95.7609 40.214 96.108 40.0477C96.4552 39.8814 96.7517 39.626 96.9672 39.3076C97.0657 39.1503 97.1391 38.9786 97.1849 38.7988C96.9624 39.0735 96.6757 39.2896 96.35 39.428C96.0242 39.5664 95.6695 39.623 95.3167 39.5928Z" fill="black"/>
        </g>
        <path d="M103.072 65.1406L108.027 71.0842L107.38 77.0829L101.393 67.7333L103.072 65.1406Z" fill="#DCE6F2"/>
        <path opacity="0.1" d="M108.024 71.0842L107.416 76.7265L107.377 77.0829L101.974 68.6439L101.393 67.7333L101.562 67.4708L103.069 65.1406L103.404 65.5425L108.024 71.0842Z" fill="black"/>
        <path d="M110.596 57.0933C108.92 57.5729 107.318 59.2193 105.924 61.2188C104.982 62.5985 104.14 64.0432 103.403 65.542C102.945 66.456 102.542 67.3342 102.207 68.099L101.974 68.6435C101.408 69.9755 101.093 70.8667 101.093 70.8667C101.093 70.8667 88.2595 61.2415 90.2901 60.5934C90.9724 60.3762 91.8691 58.9179 92.7561 57.0803L92.8666 56.847C93.4287 55.6674 93.981 54.3516 94.4716 53.1136C95.4755 50.5696 96.2195 48.3594 96.2195 48.3594C96.2195 48.3594 115.714 55.635 110.596 57.0933Z" fill="#EFB7B9"/>
        <path d="M118.273 47.8184C118.273 47.8184 121.237 53.1657 125.217 52.4365C129.197 51.7073 127.559 49.5651 127.559 49.5651L118.273 47.8184Z" fill="#444053"/>
        <path d="M112.533 232.917C109.908 234.112 103.972 232.917 103.972 232.917L101.47 232.761C98.2213 232.554 92.7824 232.204 90.859 232.048C88.0519 231.818 88.7407 230.671 88.7407 230.671V223.739L102.36 220.297C102.36 220.297 107.744 222.134 109.219 223.739C110.619 225.268 111.438 224.092 113.937 224.533C114.06 224.555 114.19 224.581 114.327 224.614C116.698 225.155 117.985 225.369 118.745 227.329C118.898 227.741 119.021 228.164 119.112 228.593C119.814 231.75 115.155 231.727 112.533 232.917Z" fill="#A36468"/>
        <path opacity="0.1" d="M118.745 227.328C118.257 227.632 117.744 227.895 117.212 228.112C115.425 228.926 113.726 229.917 111.919 230.686C110.113 231.454 108.166 232.001 106.211 231.855C105.187 231.781 104.141 231.531 103.163 231.823C102.558 232.056 101.989 232.371 101.47 232.76C98.2213 232.552 92.7824 232.202 90.859 232.047C88.0519 231.817 88.7407 230.669 88.7407 230.669V229.859C88.8414 229.859 88.9551 229.83 89.0851 229.82C89.7574 229.809 90.427 229.909 91.0669 230.115C92.477 230.498 93.8806 230.873 95.2907 231.249C95.4066 230.813 95.6105 230.404 95.8897 230.049C96.169 229.694 96.5179 229.398 96.9152 229.182C97.72 228.756 98.6233 228.549 99.5339 228.582C101.72 228.611 103.79 229.645 105.973 229.749C106.584 229.805 107.198 229.702 107.757 229.451C108.056 229.302 108.319 229.085 108.612 228.919C109.08 228.693 109.574 228.527 110.083 228.423C111.515 228.068 112.921 227.615 114.291 227.069C114.681 226.916 115.136 226.641 115.084 226.226C115.015 225.675 114.148 225.61 113.92 225.105C113.88 225.014 113.862 224.915 113.866 224.815C113.871 224.716 113.898 224.618 113.946 224.531C114.07 224.554 114.2 224.58 114.336 224.612C116.698 225.153 117.985 225.367 118.745 227.328Z" fill="black"/>
        <path d="M109.758 248.083C106.672 249.49 99.6862 248.083 99.6862 248.083L96.7458 247.911C92.938 247.668 86.5245 247.263 84.2599 247.072C80.9557 246.8 81.7679 245.451 81.7679 245.451V237.281L97.7953 233.23C97.7953 233.23 104.131 235.392 105.866 237.281C107.513 239.08 108.465 237.696 111.418 238.215C111.565 238.241 111.717 238.273 111.876 238.309C114.667 238.957 116.181 239.2 117.075 241.507C117.256 241.992 117.4 242.489 117.507 242.995C118.313 246.709 112.845 246.68 109.758 248.083Z" fill="#A36468"/>
        <path opacity="0.1" d="M117.068 241.507C116.494 241.865 115.891 242.174 115.265 242.431C113.163 243.387 111.162 244.553 109.037 245.457C106.912 246.362 104.621 247.003 102.318 246.835C101.116 246.747 99.8844 246.446 98.744 246.796C98.0294 247.073 97.357 247.449 96.7458 247.911C92.938 247.668 86.5245 247.263 84.2599 247.071C80.9557 246.799 81.7679 245.451 81.7679 245.451V244.498C81.9025 244.476 82.038 244.461 82.1741 244.453C82.9656 244.438 83.7539 244.556 84.5068 244.8L89.4746 246.135C89.613 245.62 89.8552 245.138 90.1864 244.72C90.5177 244.301 90.9311 243.955 91.4012 243.701C92.3482 243.197 93.4122 242.954 94.4845 242.994C97.0578 243.03 99.4912 244.245 102.061 244.369C102.777 244.434 103.497 244.314 104.154 244.022C104.508 243.844 104.803 243.588 105.161 243.396C105.71 243.128 106.292 242.932 106.892 242.813C108.568 242.391 110.213 241.859 111.818 241.218C112.276 241.037 112.812 240.713 112.75 240.227C112.669 239.579 111.649 239.501 111.379 238.905C111.334 238.797 111.313 238.68 111.319 238.564C111.324 238.447 111.356 238.333 111.412 238.23C111.558 238.256 111.711 238.289 111.87 238.324C114.661 238.947 116.175 239.199 117.068 241.507Z" fill="black"/>
        <path d="M102.772 192.02L101.904 212.381C101.904 212.381 100.605 216.539 101.31 217.729C102.015 218.918 103.204 220.104 102.772 220.807C102.34 221.511 97.1415 229.114 95.4617 226.197C93.782 223.28 92.125 210.641 92.125 210.641L93.6748 195.03L102.772 192.02Z" fill="#444053"/>
        <path d="M106.536 141.289L108.946 144.504V172.466C108.946 172.466 109.651 179.919 108.946 181.459C108.241 182.998 104.667 186.077 104.667 186.077L101.662 170.683L102.312 154.398L106.536 141.289Z" fill="#444053"/>
        <path opacity="0.1" d="M102.772 192.02L101.904 212.381C101.904 212.381 100.605 216.539 101.31 217.729C102.015 218.918 103.204 220.104 102.772 220.807C102.34 221.511 97.1415 229.114 95.4617 226.197C93.782 223.28 92.125 210.641 92.125 210.641L93.6748 195.03L102.772 192.02Z" fill="black"/>
        <path opacity="0.1" d="M106.536 141.289L108.946 144.504V172.466C108.946 172.466 109.651 179.919 108.946 181.459C108.241 182.998 104.667 186.077 104.667 186.077L101.662 170.683L102.312 154.398L106.536 141.289Z" fill="black"/>
        <path d="M108.946 129.362V144.487L106.24 156.26C106.24 156.26 105.372 184.673 106.129 188.127C106.886 191.582 103.53 194.826 103.53 194.826C103.53 194.826 101.581 195.043 101.581 196.553C101.581 198.063 98.3316 202.387 98.3316 202.387L98.4388 210.813C98.4388 210.813 99.8489 226.586 97.6818 229.609C95.5147 232.633 98.4388 233.067 98.4388 233.067C95.7324 241.924 82.7364 239.873 81.5635 238.901C80.3906 237.928 81.5635 218.808 81.5635 218.808C81.5635 218.808 84.4681 189.641 86.7424 188.344C89.0167 187.048 86.8529 185.428 87.6099 183.483C88.3669 181.539 86.8528 176.246 86.8528 176.246C86.8528 176.246 86.203 169.979 84.5785 166.955C82.954 163.931 83.1685 155.612 83.1685 155.612C83.1685 155.612 78.6199 149.562 77.2683 147.186C75.9167 144.811 75.046 138.653 75.3709 134.006C75.5918 130.866 77.2455 126.293 78.295 123.661C78.7986 122.401 79.1625 121.584 79.1625 121.584L79.4711 121.665L97.2172 126.299L108.946 129.362Z" fill="#444053"/>
        <path opacity="0.1" d="M110.597 57.0926C108.92 57.5722 107.319 59.2185 105.925 61.2181H105.561C103.518 61.2195 101.511 60.683 99.7421 59.6627C97.9736 58.6424 96.5064 57.1745 95.4889 55.4074C95.0637 54.6751 94.7215 53.8979 94.4688 53.0902C95.4727 50.5462 96.2167 48.3359 96.2167 48.3359C96.2167 48.3359 115.714 55.6342 110.597 57.0926Z" fill="black"/>
        <path d="M117.176 48.991C117.179 50.7643 116.773 52.5145 115.991 54.1069C115.209 55.6993 114.071 57.0914 112.665 58.176C111.258 59.2605 109.621 60.0086 107.879 60.3625C106.137 60.7164 104.337 60.6668 102.617 60.2175C100.897 59.7681 99.304 58.931 97.9598 57.7706C96.6155 56.6103 95.5562 55.1576 94.8635 53.5246C94.1707 51.8915 93.863 50.1216 93.9641 48.3512C94.0651 46.5809 94.5723 44.8573 95.4463 43.3132C95.7985 42.6858 96.2097 42.0933 96.6745 41.5437C97.4406 40.6332 98.3412 39.8443 99.3451 39.2039C101.041 38.1289 102.987 37.5112 104.994 37.411C107.001 37.3108 108.999 37.7315 110.794 38.6321C112.589 39.5327 114.119 40.8824 115.235 42.5492C116.351 44.2161 117.014 46.1431 117.159 48.142C117.166 48.4272 117.176 48.7091 117.176 48.991Z" fill="#EFB7B9"/>
        <path opacity="0.1" d="M107.416 76.7267L107.377 77.0832L101.974 68.6571C101.408 69.9891 101.093 70.8803 101.093 70.8803C101.093 70.8803 88.2595 61.2422 90.2901 60.594C90.9724 60.3769 91.8691 58.9185 92.7561 57.081L92.8666 56.8477C93.8088 59.6477 99.2834 65.2445 101.561 67.4872C101.824 67.7464 102.042 67.9603 102.211 68.1159L102.558 68.44L102.74 68.6215C103.569 69.4738 107.065 73.2331 107.416 76.7267Z" fill="black"/>
        <path d="M111.453 105.315L110.862 124.297L110.758 127.677C110.758 127.677 103.753 127.029 97.2163 126.316C91.9529 125.742 86.9916 125.123 86.2281 124.76C85.2534 124.303 83.1643 123.95 81.5171 123.726C80.2435 123.555 79.2428 123.464 79.2428 123.464C79.2428 123.464 78.8691 123.574 78.294 123.678C77.0399 123.905 74.8371 124.089 73.5538 122.978C71.913 121.555 76.2244 116.386 77.2999 115.145L77.537 114.876L77.1309 111.133L76.075 101.426C76.075 101.426 75.4252 95.8361 74.4505 92.8384C74.1899 91.9861 74.0019 91.1134 73.8884 90.2295C73.5262 87.4916 73.7118 84.7092 74.4342 82.0433C74.7429 80.9105 74.9388 79.75 75.0191 78.5789C75.1815 75.5811 84.3599 63.9953 86.6342 62.942C87.6573 62.4662 88.4806 61.6473 88.9605 60.6281C89.119 60.3077 89.2379 59.9692 89.3147 59.6202C90.2894 55.4072 92.7554 57.0794 92.7554 57.0794C93.3499 60.3753 102.554 69.0995 102.554 69.0995L102.736 69.281C103.649 70.2144 107.717 74.5959 107.428 78.3358C107.37 79.7278 107.578 81.118 108.042 82.4322C109.914 88.3125 110.99 94.416 111.242 100.581L111.453 105.315Z" fill="#DCE6F2"/>
        <path opacity="0.1" d="M98.4132 82.7754C98.4132 82.7754 96.1389 88.2847 94.4331 89.176C92.7274 90.0672 99.2254 91.0556 98.4132 82.7754Z" fill="black"/>
        <path opacity="0.1" d="M100.118 93.0664C100.118 93.0664 94.9199 93.7146 94.9199 94.6868C94.9199 95.659 100.118 93.0664 100.118 93.0664Z" fill="black"/>
        <path opacity="0.1" d="M105.56 99.3848C105.56 99.3848 98.006 115.427 95.8941 115.913C93.7823 116.399 105.56 99.3848 105.56 99.3848Z" fill="black"/>
        <path opacity="0.1" d="M102.412 69.9139L96.164 72.6231L88.623 61.2609C88.7815 60.9405 88.9004 60.602 88.9772 60.253C89.9519 56.04 92.4179 57.7123 92.4179 57.7123C93.0125 61.0081 102.217 69.7324 102.217 69.7324L102.412 69.9139Z" fill="black"/>
        <path d="M102.736 69.2654L96.4882 71.9747L88.9473 60.6125C89.1057 60.292 89.2246 59.9536 89.3014 59.6046C90.2761 55.3916 92.7421 57.0638 92.7421 57.0638C93.3367 60.3597 102.541 69.0839 102.541 69.0839L102.736 69.2654Z" fill="#DCE6F2"/>
        <path opacity="0.1" d="M110.759 127.677C110.759 127.677 103.754 127.029 97.2173 126.316L108.946 129.378V132.943C108.433 133.407 107.988 133.646 107.699 133.523C106.347 132.956 95.3166 131.174 95.3166 131.174C95.3166 131.174 88.9095 127.933 81.9957 124.044C81.8278 123.951 81.6652 123.85 81.5083 123.739C80.7021 123.193 80.0075 122.499 79.4614 121.694C78.1846 119.85 77.5608 117.481 77.2911 115.158C77.1395 113.826 77.083 112.485 77.1221 111.146C77.1556 109.627 77.2946 108.112 77.538 106.612C76.8694 100.802 76.5439 94.959 76.5633 89.1115C76.6445 80.0373 85.1732 76.7965 85.1732 76.7965C100.85 75.4192 95.9891 100.697 95.9891 100.697C95.9891 100.697 95.0826 107.827 94.8357 108.556C94.5888 109.285 93.7018 110.501 93.822 112.202C93.9422 113.904 96.9378 115.939 96.9378 115.939C96.9378 115.939 99.8619 117.306 101.067 119.332C101.945 120.826 107.643 122.851 110.863 124.297L110.759 127.677Z" fill="black"/>
        <path opacity="0.1" d="M116.009 41.7966C116.015 42.3304 115.904 42.8591 115.684 43.3457C115.517 43.7428 115.324 44.1283 115.106 44.4995C114.764 45.1822 114.278 45.7835 113.683 46.2624C112.932 46.7972 111.983 46.9463 111.083 47.1634C110.183 47.3805 109.248 47.7273 108.734 48.4921C108.456 48.9838 108.27 49.5219 108.185 50.0801C108.099 50.6378 107.876 51.1656 107.535 51.6162C107.358 51.8363 107.113 51.9913 106.837 52.057C106.562 52.1227 106.273 52.0953 106.015 51.9792C105.743 51.7965 105.537 51.5319 105.427 51.2241C105.056 50.3912 104.962 49.4676 104.813 48.5699C104.663 47.6722 104.452 46.7486 103.9 46.0259C103.347 45.3032 102.37 44.8268 101.502 45.1087C101.212 45.2202 100.947 45.3891 100.724 45.6051C100.5 45.8212 100.323 46.0801 100.202 46.3662C99.9624 46.9389 99.7975 47.5402 99.7118 48.1551C99.309 50.3545 98.8335 52.5409 98.2855 54.7144C98.2688 54.8035 98.2322 54.8877 98.1783 54.9607C98.0919 55.0466 97.9754 55.0954 97.8534 55.0968C97.1256 55.1941 96.4271 54.6853 95.6928 54.7404C95.6172 54.7454 95.5421 54.7573 95.4686 54.776C94.2815 52.718 93.7573 50.3457 93.9671 47.9805C94.1769 45.6154 95.1105 43.3717 96.6415 41.5536L96.7 41.5374C97.1885 41.3644 97.6323 41.0855 97.9996 40.7207C98.4686 40.2525 98.903 39.7511 99.2992 39.2202L99.5591 38.8961C100.306 37.9987 101.157 37.1926 102.093 36.4947C102.349 36.2857 102.642 36.1273 102.958 36.028C103.227 35.9756 103.504 35.9668 103.776 36.0021C104.898 36.1365 106.03 36.1787 107.159 36.1285C107.945 36.0051 108.738 35.9251 109.534 35.8887C111.59 35.947 113.345 37.3956 114.644 38.9836C115.343 39.7971 115.967 40.7337 116.009 41.7966Z" fill="black"/>
        <path d="M93.9284 43.6211C93.4768 44.36 92.6613 44.8623 92.3559 45.6725C91.9075 46.8489 92.6645 48.3138 91.9692 49.3638C91.7386 49.717 91.3584 49.9795 91.2285 50.3846C91.0075 51.0685 91.6119 51.7976 91.4559 52.5009C91.3 53.2041 90.3707 53.7972 90.6177 54.4842C90.7636 54.7839 91.0195 55.016 91.3324 55.1324C91.8247 55.4141 92.3914 55.5396 92.9569 55.4921C93.8439 55.3463 94.5035 54.4778 95.4034 54.4129C96.1345 54.3611 96.833 54.8667 97.5608 54.7727C97.6828 54.7684 97.7987 54.7187 97.8857 54.6333C97.9409 54.5611 97.9777 54.4766 97.9929 54.387C98.5387 52.2157 99.0153 50.0292 99.4225 47.8277C99.5054 47.2126 99.6693 46.6111 99.9098 46.0387C100.031 45.7532 100.209 45.4949 100.432 45.2789C100.655 45.063 100.92 44.8938 101.209 44.7813C102.077 44.5026 103.052 44.9758 103.607 45.6985C104.163 46.4212 104.374 47.3448 104.523 48.2425C104.673 49.1402 104.767 50.0638 105.134 50.8967C105.246 51.2056 105.453 51.4711 105.726 51.655C106.213 51.937 106.869 51.7134 107.243 51.2921C107.585 50.8412 107.809 50.312 107.893 49.7527C107.977 49.1955 108.163 48.6584 108.442 48.1679C108.955 47.4031 109.894 47.0563 110.791 46.8392C111.687 46.6221 112.633 46.4698 113.39 45.935C113.985 45.4566 114.47 44.8566 114.813 44.1753C115.294 43.3392 115.742 42.4317 115.703 41.4692C115.661 40.4192 115.037 39.4826 114.371 38.6659C113.072 37.0779 111.314 35.6293 109.257 35.5742C108.461 35.6074 107.668 35.6875 106.882 35.814C105.753 35.8647 104.622 35.8213 103.5 35.6844C103.227 35.6519 102.951 35.6617 102.681 35.7136C102.366 35.8097 102.073 35.9684 101.82 36.1802C100.883 36.877 100.031 37.682 99.2828 38.5784C98.8004 39.2164 98.2773 39.8226 97.7167 40.3933C97.3493 40.7586 96.9055 41.0386 96.4171 41.2132C96.0922 41.3039 95.7673 41.2391 95.4587 41.3396C94.5002 41.641 94.3735 42.8887 93.9284 43.6211Z" fill="#965D7B"/>
        <path opacity="0.1" d="M125.217 52.4333C122.617 52.9097 120.463 50.8129 119.271 49.2832C118.905 48.8186 118.571 48.3292 118.273 47.8184L127.195 49.4971L127.556 49.5651C127.556 49.5651 129.197 51.7073 125.217 52.4333Z" fill="black"/>
        <g opacity="0.1">
            <path opacity="0.1" d="M91.4566 51.5745C91.4929 51.1507 91.4284 50.7243 91.2681 50.3301C91.2681 50.3625 91.2389 50.3949 91.2291 50.4273C91.0894 50.8616 91.2779 51.312 91.3981 51.7625C91.4239 51.702 91.4435 51.639 91.4566 51.5745Z" fill="black"/>
            <path opacity="0.1" d="M92.2289 46.2695C92.1955 46.7177 92.2042 47.1679 92.2549 47.6145C92.2882 47.1663 92.2795 46.7161 92.2289 46.2695Z" fill="black"/>
            <path opacity="0.1" d="M114.794 43.2387C114.452 43.9215 113.966 44.5228 113.371 45.0017C112.62 45.5365 111.675 45.6855 110.771 45.9027C109.868 46.1198 108.936 46.4666 108.422 47.2314C108.145 47.7233 107.959 48.2613 107.873 48.8194C107.789 49.3785 107.565 49.9077 107.224 50.3588C106.85 50.7801 106.194 51.0069 105.706 50.7217C105.434 50.5379 105.226 50.2723 105.115 49.9634C104.748 49.1305 104.65 48.2101 104.504 47.3092C104.358 46.4082 104.14 45.4879 103.588 44.7652C103.036 44.0425 102.058 43.5661 101.19 43.848C100.9 43.96 100.636 44.129 100.412 44.345C100.189 44.5611 100.012 44.8197 99.8905 45.1054C99.65 45.6778 99.4861 46.2793 99.4032 46.8944C98.9981 49.0959 98.5216 51.2824 97.9736 53.4537C97.9584 53.5433 97.9216 53.6278 97.8664 53.7C97.7794 53.7854 97.6635 53.8352 97.5415 53.8394C96.8137 53.9334 96.1152 53.4278 95.3841 53.4797C94.4842 53.5445 93.8246 54.413 92.9376 54.5556C92.3719 54.6062 91.8043 54.4805 91.3131 54.1959C91.0873 54.099 90.8847 53.9554 90.7186 53.7746C90.6426 53.8832 90.5922 54.0075 90.5714 54.1383C90.5506 54.2691 90.5598 54.4029 90.5984 54.5297C90.7415 54.8314 90.9984 55.0644 91.3131 55.1778C91.8043 55.4625 92.3719 55.5882 92.9376 55.5376C93.8246 55.395 94.4842 54.5264 95.3841 54.4616C96.1152 54.4098 96.8137 54.9153 97.5415 54.8213C97.6635 54.8171 97.7794 54.7674 97.8664 54.682C97.9216 54.6098 97.9584 54.5252 97.9736 54.4357C98.5194 52.2752 98.9959 50.0887 99.4032 47.8763C99.4861 47.2613 99.65 46.6598 99.8905 46.0874C100.012 45.8016 100.189 45.543 100.412 45.327C100.636 45.111 100.9 44.942 101.19 44.83C102.058 44.548 103.032 45.0244 103.588 45.7471C104.143 46.4698 104.355 47.3934 104.504 48.2911C104.654 49.1888 104.748 50.1125 105.115 50.9454C105.226 51.2543 105.434 51.5198 105.706 51.7037C106.194 51.9857 106.85 51.762 107.224 51.3407C107.565 50.8896 107.789 50.3605 107.873 49.8014C107.959 49.2433 108.145 48.7052 108.422 48.2134C108.936 47.4485 109.875 47.105 110.771 46.8846C111.668 46.6643 112.614 46.5184 113.371 45.9837C113.966 45.5048 114.452 44.9035 114.794 44.2207C115.275 43.3878 115.723 42.4804 115.684 41.5179C115.678 41.3941 115.665 41.2708 115.645 41.1484C115.488 41.8902 115.2 42.5981 114.794 43.2387Z" fill="black"/>
        </g>
        <path opacity="0.1" d="M115.696 43.3352C116.53 44.8128 117.023 46.4566 117.142 48.1477C114.247 46.5273 111.525 44.7481 110.15 44.1292C107.756 43.05 98.8015 43.212 95.4355 43.3125C95.7877 42.6851 96.1989 42.0926 96.6637 41.543C97.4328 40.6318 98.3367 39.8428 99.3441 39.2031C100.678 38.3586 102.171 37.7942 103.731 37.5447C105.292 37.2951 106.887 37.3655 108.419 37.7517C109.951 38.1378 111.388 38.8315 112.642 39.7904C113.896 40.7493 114.941 41.9533 115.713 43.3287L115.696 43.3352Z" fill="black"/>
        <path opacity="0.1" d="M126.029 51.0592C124.466 51.5388 121.916 50.6119 119.271 49.2832C118.905 48.8186 118.571 48.3292 118.273 47.8184L127.195 49.4971C127.787 49.899 127.936 50.4726 126.029 51.0592Z" fill="black"/>
        <path d="M106.253 32.1006C106.253 32.1006 97.7243 31.6145 95.3265 36.2327L94.9399 40.3258L94.2901 40.2545L94.1602 43.0383C94.1602 43.0383 107.195 42.4712 110.162 43.8064C113.128 45.1416 122.345 51.8695 126.039 50.7352C129.733 49.6009 125.714 48.5477 125.714 48.5477C125.714 48.5477 120.63 46.399 120.63 44.7138C120.63 43.0286 119.369 34.1261 106.253 32.1006Z" fill="#444053"/>
        <path opacity="0.1" d="M89.8027 183.834C89.8027 183.834 95.2448 189.1 97.6003 188.695C97.6003 188.695 90.9399 188.128 89.8027 183.834Z" fill="black"/>
        <path opacity="0.1" d="M88.666 186.275C88.666 186.275 89.1534 188.985 90.453 188.719C91.7526 188.453 88.666 186.275 88.666 186.275Z" fill="black"/>
        <path opacity="0.1" d="M97.1944 231.555C97.1944 231.555 89.4682 237.55 90.7711 237.712C92.0739 237.874 97.1944 231.555 97.1944 231.555Z" fill="black"/>
        <path d="M107.529 112.563L132.547 108.502V132.127L108.777 130.886L107.529 112.563Z" fill="#0075FF"/>
        <path opacity="0.05" d="M107.529 112.563L132.547 108.502V132.127L108.777 130.886L107.529 112.563Z" fill="black"/>
        <path d="M132.547 108.502L162.548 110.741L160.888 131.301L132.547 132.127V108.502Z" fill="#0075FF"/>
        <path opacity="0.1" d="M132.547 108.502L162.548 110.741L160.888 131.301L132.547 132.127V108.502Z" fill="black"/>
        <path d="M141.771 101.291L132.547 108.502L162.548 110.741L167.451 103.362L141.771 101.291Z" fill="#0075FF"/>
        <path d="M98.4707 104.686L120.993 101.951L132.546 108.501L107.529 112.562L98.4707 104.686Z" fill="#0075FF"/>
        <path d="M138.031 114.637V146.938L126.312 145.739L121.214 145.22L119.661 145.058L114.567 144.536L107.529 143.817V112.562L132.543 114.261L138.031 114.637Z" fill="#0075FF"/>
        <path d="M162.548 110.74V142.241L153.155 144.039L148.587 144.914L138.031 146.937V114.636L162.548 110.74Z" fill="#0075FF"/>
        <path opacity="0.05" d="M162.548 110.74V142.241L153.155 144.039L148.587 144.914L138.031 146.937V114.636L162.548 110.74Z" fill="black"/>
        <path d="M98.4707 119.362L107.529 112.562L138.031 114.637L133.54 122.181L98.4707 119.362Z" fill="#0075FF"/>
        <path opacity="0.1" d="M98.4707 119.362L107.529 112.562L138.031 114.637L133.54 122.181L98.4707 119.362Z" fill="white"/>
        <path d="M162.548 110.74L138.031 114.636L146.011 121.765L172.272 117.371L162.548 110.74Z" fill="#0075FF"/>
        <path opacity="0.1" d="M162.548 110.74L138.031 114.636L146.011 121.765L172.272 117.371L162.548 110.74Z" fill="white"/>
        <path opacity="0.1" d="M153.154 144.039L148.586 144.915V138.183L152.865 137.107L153.154 144.039Z" fill="white"/>
        <path opacity="0.1" d="M126.311 141.285V145.738L121.213 145.219V141.285H126.311Z" fill="white"/>
        <path opacity="0.1" d="M119.661 142.689V145.058L114.566 144.537V142.689H119.661Z" fill="white"/>
        <path opacity="0.1" d="M134.964 138.922C131.471 143.378 119.937 140.3 119.937 140.3L111.366 131.381L110.203 130.172L112.477 125.959C112.477 125.959 113.127 126.173 114.212 126.549C119.957 128.552 137.904 135.173 134.964 138.922Z" fill="black"/>
        <path d="M134.64 138.276C131.147 142.732 119.613 139.653 119.613 139.653L111.042 130.734L109.879 129.526L112.153 125.312C112.153 125.312 112.803 125.526 113.888 125.902C119.632 127.905 137.58 134.526 134.64 138.276Z" fill="#EFB7B9"/>
        <path opacity="0.1" d="M113.875 125.902C113.4 127.263 112.195 129.279 111.028 130.734L109.865 129.526L112.14 125.312C112.14 125.312 112.793 125.526 113.875 125.902Z" fill="black"/>
        <path d="M85.4974 75.5008C85.4974 75.5008 76.9688 78.7416 76.8875 87.8159C76.8681 93.6633 77.1936 99.5068 77.8622 105.316C77.8622 105.316 75.4255 118.846 82.3296 122.735C89.2338 126.624 95.6505 129.865 95.6505 129.865C95.6505 129.865 106.681 131.648 108.036 132.215C109.391 132.782 114.098 125.49 113.367 124.275C112.636 123.06 102.594 120.062 101.401 118.036C100.209 116.011 97.2718 114.646 97.2718 114.646C97.2718 114.646 94.2762 112.608 94.156 110.907C94.0358 109.205 94.9195 107.99 95.1697 107.261C95.4199 106.531 96.3263 99.4017 96.3263 99.4017C96.3263 99.4017 101.174 74.1073 85.4974 75.5008Z" fill="#DCE6F2"/>
        <path opacity="0.1" d="M89.3969 105.543C89.3969 105.543 77.8629 106.839 78.7564 110.89C78.7564 110.89 83.1393 106.804 89.3969 105.543Z" fill="black"/>
        <path opacity="0.1" d="M89.3963 107.164C89.3963 107.164 82.8496 111.944 84.0517 112.268C85.2538 112.592 89.3963 107.164 89.3963 107.164Z" fill="black"/>
        <path opacity="0.1" d="M92.3211 109.107C92.3211 109.107 90.453 112.458 91.5089 112.283C92.5648 112.108 92.3211 109.107 92.3211 109.107Z" fill="black"/>
        <path d="M212.41 36.4242C212.41 36.4242 200.063 35.682 201.506 44.322C201.506 44.322 201.217 45.8484 202.604 46.5419C202.604 46.5419 202.627 45.8938 203.871 46.1174C204.314 46.1918 204.765 46.2135 205.213 46.1822C205.821 46.1418 206.398 45.9038 206.857 45.5049C206.857 45.5049 210.33 44.0757 211.682 38.4108C211.682 38.4108 212.682 37.1728 212.656 36.8552L210.571 37.7464C210.571 37.7464 211.282 39.2469 210.72 40.4946C210.72 40.4946 210.655 37.8015 210.252 37.8631C210.171 37.8631 209.17 38.3848 209.17 38.3848C209.17 38.3848 210.395 40.9969 209.469 42.8993C209.469 42.8993 209.82 39.6779 208.787 38.5728L207.318 39.4284C207.318 39.4284 208.751 42.128 207.78 44.3317C207.78 44.3317 208.03 40.9515 207.01 39.6358L205.678 40.6696C205.678 40.6696 207.026 43.3335 206.204 45.1613C206.204 45.1613 206.097 41.227 205.388 40.9289C205.388 40.9289 204.225 41.9529 204.05 42.3742C204.05 42.3742 204.969 44.3187 204.398 45.3266C204.398 45.3266 204.047 42.7048 203.748 42.6918C203.748 42.6918 202.588 44.4289 202.468 45.6086C202.524 44.5088 202.868 43.4429 203.465 42.5168C202.797 42.643 202.18 42.9619 201.691 43.434C201.691 43.434 201.87 42.2057 203.751 42.0988C203.751 42.0988 204.726 40.7798 204.966 40.6988C204.966 40.6988 203.095 40.5432 201.961 41.0455C201.961 41.0455 202.958 39.8886 205.311 40.3974L206.61 39.3279C206.61 39.3279 204.147 39.0038 203.101 39.3636C203.101 39.3636 204.303 38.3395 206.964 39.0848L208.394 38.2325C208.394 38.2325 206.295 37.7788 205.044 37.9441C205.044 37.9441 206.363 37.2344 208.813 38.0024L209.836 37.5455C209.836 37.5455 208.296 37.2441 207.848 37.1955C207.4 37.1469 207.374 37.0237 207.374 37.0237C208.348 36.862 209.348 36.9742 210.262 37.3478C210.262 37.3478 212.455 36.5603 212.41 36.4242Z" fill="#0075FF"/>
        <path opacity="0.1" d="M249.923 79.637C249.923 79.637 237.577 78.8949 239.02 87.5349C239.02 87.5349 238.73 89.0613 240.118 89.7548C240.118 89.7548 240.14 89.1067 241.388 89.3303C241.831 89.4047 242.282 89.4264 242.73 89.3951C243.33 89.3517 243.9 89.1151 244.354 88.721C244.354 88.721 247.831 87.2886 249.182 81.6237C249.182 81.6237 250.18 80.3889 250.141 80.0713L248.055 80.9593C248.055 80.9593 248.767 82.4598 248.208 83.7075C248.208 83.7075 248.14 81.0144 247.74 81.076C247.659 81.076 246.655 81.5977 246.655 81.5977C246.655 81.5977 247.883 84.213 246.957 86.1122C246.957 86.1122 247.308 82.8908 246.271 81.7857L244.819 82.6315C244.819 82.6315 246.252 85.3311 245.28 87.5349C245.28 87.5349 245.531 84.1547 244.51 82.839L243.182 83.876C243.182 83.876 244.527 86.5367 243.708 88.3645C243.708 88.3645 243.601 84.4302 242.892 84.132C242.892 84.132 241.729 85.1561 241.551 85.5774C241.551 85.5774 242.473 87.5219 241.901 88.5298C241.901 88.5298 241.551 85.908 241.252 85.895C241.252 85.895 240.092 87.6321 239.972 88.8117C240.03 87.7118 240.375 86.6461 240.972 85.72C240.303 85.8465 239.685 86.1653 239.195 86.6372C239.195 86.6372 239.377 85.4089 241.258 85.302C241.258 85.302 242.217 83.983 242.473 83.9019C242.473 83.9019 240.602 83.7464 239.468 84.2487C239.468 84.2487 240.465 83.0917 242.814 83.6167L244.114 82.5473C244.114 82.5473 241.648 82.2232 240.605 82.5829C240.605 82.5829 241.807 81.5588 244.468 82.3042L245.898 81.4519C245.898 81.4519 243.796 81.0014 242.545 81.1635C242.545 81.1635 243.867 80.4537 246.317 81.2218L247.34 80.7648C247.34 80.7648 245.8 80.4634 245.349 80.4148C244.897 80.3662 244.874 80.2431 244.874 80.2431C245.85 80.0812 246.851 80.1934 247.766 80.5672C247.766 80.5672 249.962 79.7732 249.923 79.637Z" fill="#0075FF"/>
        <path opacity="0.1" d="M174.919 71.966C174.919 71.966 177.762 59.9459 168.976 59.9037C168.976 59.9037 167.518 59.3593 166.598 60.6037C166.598 60.6037 167.225 60.7366 166.8 61.9227C166.652 62.3422 166.554 62.7772 166.507 63.2191C166.444 63.8215 166.58 64.4279 166.894 64.9464C166.894 64.9464 167.716 68.6085 173.067 70.903C173.067 70.903 174.12 72.0956 174.438 72.1086L173.918 69.9081C173.918 69.9081 172.313 70.352 171.176 69.584C171.176 69.584 173.85 69.9761 173.853 69.584C173.853 69.503 173.528 68.4303 173.528 68.4303C173.528 68.4303 170.737 69.1886 169.015 67.9539C169.015 67.9539 172.138 68.8483 173.408 68.0219L172.823 66.4274C172.823 66.4274 169.899 67.377 167.898 66.045C167.898 66.045 171.196 66.8682 172.671 66.0904L171.875 64.6061C171.875 64.6061 169.015 65.4746 167.349 64.3566C167.349 64.3566 171.248 64.9205 171.67 64.2788C171.67 64.2788 170.858 62.9598 170.471 62.7135C170.471 62.7135 168.405 63.2904 167.495 62.5547C167.495 62.5547 170.143 62.6552 170.205 62.3765C170.205 62.3765 168.687 60.9408 167.531 60.6167C168.609 60.8615 169.604 61.382 170.419 62.1269C170.407 61.4477 170.197 60.7867 169.815 60.2246C169.815 60.2246 170.997 60.6135 170.789 62.4931C170.789 62.4931 171.927 63.6598 171.962 63.9255C171.962 63.9255 172.433 62.1139 172.131 60.9116C172.131 60.9116 173.106 62.0913 172.187 64.3112L173.018 65.7858C173.018 65.7858 173.772 63.42 173.58 62.3311C173.58 62.3311 174.389 63.6857 173.197 66.1747L173.798 67.727C173.798 67.727 174.601 65.7372 174.652 64.4862C174.652 64.4862 175.13 65.9057 173.951 68.184L174.23 69.2664C174.23 69.2664 174.789 67.8048 174.912 67.3705C175.036 66.9362 175.163 66.933 175.163 66.933C175.158 67.9189 174.878 68.884 174.354 69.7201C174.354 69.7201 174.779 71.9822 174.919 71.966Z" fill="#0075FF"/>
        <path opacity="0.1" d="M147.882 76.0624C147.882 76.0624 137.967 68.6637 134.422 76.6782C134.422 76.6782 133.34 77.7962 134.116 79.1347C134.116 79.1347 134.487 78.6129 135.416 79.4782C135.745 79.7836 136.109 80.0491 136.501 80.269C137.032 80.5637 137.645 80.6775 138.246 80.593C138.246 80.593 141.937 81.3028 146.187 77.3134C146.187 77.3134 147.704 76.8272 147.847 76.5421L145.608 76.1499C145.608 76.1499 145.374 77.793 144.221 78.5287C144.221 78.5287 145.647 76.2407 145.277 76.0754C145.202 76.0397 144.084 75.9133 144.084 75.9133C144.084 75.9133 143.669 78.7717 141.849 79.8509C141.849 79.8509 143.919 77.3523 143.662 75.8615L141.963 75.7707C141.963 75.7707 141.674 78.8139 139.646 80.1231C139.646 80.1231 141.716 77.4365 141.596 75.7772L139.913 75.9133C139.913 75.9133 139.572 78.8722 137.879 79.9481C137.879 79.9481 139.955 76.6036 139.529 75.9684C139.529 75.9684 137.993 76.1856 137.612 76.4384C137.612 76.4384 137.317 78.5578 136.277 79.0958C136.277 79.0958 137.43 76.7138 137.197 76.5485C137.197 76.5485 135.27 77.362 134.513 78.2888C135.168 77.4014 136.043 76.6999 137.054 76.2536C136.425 75.9931 135.734 75.921 135.065 76.0462C135.065 76.0462 135.89 75.1194 137.521 76.0624C137.521 76.0624 139.048 75.4888 139.308 75.5601C139.308 75.5601 137.83 74.4031 136.605 74.2022C136.605 74.2022 138.08 73.7809 139.753 75.4985L141.44 75.3268C141.44 75.3268 139.565 73.7064 138.49 73.4341C138.49 73.4341 140.059 73.2364 141.869 75.317L143.532 75.3916C143.532 75.3916 142.028 73.8619 140.894 73.311C140.894 73.311 142.385 73.4406 144.01 75.4272L145.118 75.6055C145.118 75.6055 143.997 74.5101 143.646 74.2249C143.295 73.9397 143.344 73.8198 143.344 73.8198C144.247 74.219 145.022 74.8608 145.582 75.6735C145.582 75.6735 147.84 76.1953 147.882 76.0624Z" fill="#0075FF"/>
        <path opacity="0.1" d="M180.894 7.32167C180.894 7.32167 170.978 -0.0803041 167.434 7.93742C167.434 7.93742 166.352 9.05549 167.128 10.3939C167.128 10.3939 167.499 9.87218 168.428 10.7375C168.759 11.0413 169.124 11.3056 169.516 11.525C170.047 11.8199 170.659 11.9337 171.261 11.8491C171.261 11.8491 174.952 12.5588 179.201 8.56613C179.201 8.56613 180.719 8.08326 180.858 7.79483L178.62 7.40917C178.62 7.40917 178.389 9.05226 177.233 9.78792C177.233 9.78792 178.662 7.49992 178.292 7.33463C178.217 7.29899 177.099 7.1726 177.099 7.1726C177.099 7.1726 176.671 10.0375 174.851 11.1102C174.851 11.1102 176.917 8.61151 176.664 7.12074L174.965 7.03C174.965 7.03 174.672 10.0731 172.648 11.3791C172.648 11.3791 174.718 8.69253 174.598 7.03324L172.918 7.16935C172.918 7.16935 172.574 10.1314 170.881 11.2074C170.881 11.2074 172.96 7.86288 172.535 7.22769C172.535 7.22769 170.998 7.44482 170.618 7.6976C170.618 7.6976 170.322 9.81708 169.282 10.3551C169.282 10.3551 170.436 7.97307 170.202 7.80455C170.202 7.80455 168.275 8.62123 167.518 9.5481C168.172 8.6597 169.048 7.95794 170.059 7.51288C169.43 7.25039 168.737 7.17826 168.067 7.30547C168.067 7.30547 168.896 6.3786 170.527 7.32167C170.527 7.32167 172.054 6.74481 172.314 6.81935C172.314 6.81935 170.835 5.66238 169.61 5.45821C169.61 5.45821 171.082 5.04015 172.755 6.75453L174.442 6.58277C174.442 6.58277 172.57 4.96237 171.492 4.6869C171.492 4.6869 173.061 4.49246 174.874 6.57305L176.537 6.64434C176.537 6.64434 175.033 5.11469 173.896 4.567C173.896 4.567 175.39 4.69663 177.015 6.68323L178.12 6.86148C178.12 6.86148 176.995 5.77905 176.644 5.50034C176.294 5.22164 176.342 5.09849 176.342 5.09849C177.246 5.49729 178.022 6.13913 178.581 6.95222C178.581 6.95222 180.839 7.44482 180.894 7.32167Z" fill="#0075FF"/>
        <path opacity="0.1" d="M218.784 16.6961C218.784 16.6961 214.82 4.99357 207.344 9.59225C207.344 9.59225 205.817 9.91633 205.697 11.4427C205.697 11.4427 206.298 11.2224 206.565 12.4539C206.664 12.8919 206.813 13.3171 207.01 13.721C207.278 14.2646 207.716 14.7068 208.257 14.9817C208.257 14.9817 210.896 17.6553 216.666 16.7706C216.666 16.7706 218.19 17.2308 218.469 17.072L216.845 15.4808C216.845 15.4808 215.72 16.7026 214.349 16.6539C214.349 16.6539 216.828 15.578 216.624 15.2312C216.581 15.1632 215.733 14.4275 215.733 14.4275C215.733 14.4275 213.765 16.5438 211.653 16.4044C211.653 16.4044 214.775 15.5164 215.412 14.1358L214.067 13.102C214.067 13.102 212.098 15.4419 209.684 15.3706C209.684 15.3706 212.933 14.3303 213.755 12.8914L212.293 12.052C212.293 12.052 210.343 14.2979 208.322 14.2266C208.322 14.2266 211.935 12.6483 211.945 11.8835C211.945 11.8835 210.558 11.1932 210.1 11.1867C210.1 11.1867 208.651 12.765 207.5 12.6224C207.5 12.6224 209.801 11.3099 209.703 11.0409C209.703 11.0409 207.656 10.6228 206.503 10.9599C207.546 10.5976 208.666 10.5138 209.752 10.7168C209.381 10.1461 208.852 9.69561 208.228 9.42049C208.228 9.42049 209.437 9.12558 210.246 10.8238C210.246 10.8238 211.831 11.2159 212 11.4201C212 11.4201 211.441 9.63438 210.548 8.77233C210.548 8.77233 212 9.26169 212.397 11.6307L213.885 12.4409C213.885 12.4409 213.271 10.0395 212.53 9.20012C212.53 9.20012 213.937 9.92605 214.242 12.6645L215.574 13.6659C215.574 13.6659 215.204 11.5529 214.58 10.4575C214.58 10.4575 215.737 11.4103 215.945 13.9673L216.754 14.7386C216.754 14.7386 216.455 13.2025 216.331 12.7682C216.208 12.334 216.308 12.3048 216.308 12.3048C216.825 13.1455 217.098 14.1124 217.098 15.0984C217.098 15.0984 218.671 16.7803 218.784 16.6961Z" fill="#0075FF"/>
        <path opacity="0.1" d="M192.917 17.2734C192.917 17.2734 180.603 15.9057 181.62 24.6202C181.62 24.6202 181.253 26.1304 182.595 26.8888C182.595 26.8888 182.65 26.2406 183.895 26.5323C184.334 26.6267 184.783 26.6713 185.233 26.6652C185.841 26.6542 186.428 26.446 186.906 26.0721C186.906 26.0721 190.451 24.8179 192.105 19.2276C192.105 19.2276 193.164 18.0447 193.141 17.7238L191.013 18.5081C191.013 18.5081 191.663 20.041 191.013 21.2595C191.013 21.2595 191.081 18.5664 190.688 18.6086C190.607 18.6086 189.58 19.0752 189.58 19.0752C189.58 19.0752 190.672 21.7489 189.652 23.6123C189.652 23.6123 190.165 20.4104 189.187 19.2567L187.676 20.0345C187.676 20.0345 188.976 22.8054 187.888 24.9573C187.888 24.9573 188.31 21.5933 187.358 20.229L185.977 21.2012C185.977 21.2012 187.186 23.9267 186.273 25.7124C186.273 25.7124 186.367 21.7781 185.675 21.4443C185.675 21.4443 184.46 22.4165 184.262 22.8184C184.262 22.8184 185.084 24.7952 184.463 25.7837C184.463 25.7837 184.245 23.1489 183.96 23.123C183.96 23.123 182.712 24.7985 182.53 25.9814C182.643 24.8847 183.041 23.8366 183.687 22.9415C183.012 23.0344 182.38 23.3217 181.867 23.7679C181.867 23.7679 182.108 22.5526 183.992 22.5396C183.992 22.5396 185.015 21.2725 185.292 21.2044C185.292 21.2044 183.43 20.9549 182.27 21.3989C182.27 21.3989 183.326 20.2905 185.646 20.9355L187.014 19.9341C187.014 19.9341 184.541 19.435 183.495 19.759C183.495 19.759 184.749 18.7868 187.368 19.678L188.84 18.897C188.84 18.897 186.763 18.3396 185.506 18.44C185.506 18.44 186.861 17.7919 189.268 18.6896L190.315 18.2845C190.315 18.2845 188.791 17.9053 188.342 17.834C187.894 17.7627 187.878 17.6396 187.878 17.6396C188.86 17.5272 189.854 17.6887 190.75 18.1062C190.75 18.1062 192.94 17.4095 192.917 17.2734Z" fill="#0075FF"/>
        <path opacity="0.1" d="M300.653 112.607C300.653 112.607 288.346 111.24 289.362 119.945C289.362 119.945 288.995 121.455 290.337 122.213C290.337 122.213 290.392 121.565 291.637 121.853C292.076 121.951 292.525 121.996 292.975 121.986C293.583 121.977 294.171 121.769 294.649 121.393C294.649 121.393 298.193 120.139 299.831 114.552C299.831 114.552 300.89 113.366 300.867 113.048L298.739 113.829C298.739 113.829 299.389 115.365 298.739 116.584C298.739 116.584 298.807 113.888 298.414 113.933C298.333 113.933 297.306 114.396 297.306 114.396C297.306 114.396 298.398 117.07 297.378 118.933C297.378 118.933 297.891 115.735 296.913 114.578L295.402 115.359C295.402 115.359 296.702 118.13 295.617 120.282C295.617 120.282 296.036 116.918 295.084 115.55L293.703 116.522C293.703 116.522 294.912 119.248 293.999 121.03C293.999 121.03 294.093 117.096 293.401 116.765C293.401 116.765 292.189 117.738 291.988 118.14C291.988 118.14 292.813 120.116 292.189 121.105C292.189 121.105 291.971 118.47 291.686 118.444C291.686 118.444 290.438 120.12 290.256 121.303C290.369 120.206 290.767 119.158 291.413 118.263C290.738 118.354 290.105 118.641 289.593 119.089C289.593 119.089 289.834 117.871 291.718 117.858C291.718 117.858 292.745 116.59 293.018 116.526C293.018 116.526 291.156 116.273 289.996 116.717C289.996 116.717 291.052 115.612 293.375 116.257L294.74 115.255C294.74 115.255 292.296 114.795 291.234 115.113C291.234 115.113 292.488 114.14 295.107 115.028L296.579 114.251C296.579 114.251 294.502 113.693 293.245 113.794C293.245 113.794 294.6 113.145 297.007 114.043L298.054 113.635C298.054 113.635 296.53 113.256 296.081 113.188C295.633 113.12 295.617 112.993 295.617 112.993C296.599 112.879 297.593 113.039 298.489 113.457C298.489 113.457 300.685 112.747 300.653 112.607Z" fill="#0075FF"/>
        <path opacity="0.1" d="M319.467 124.074C319.467 124.074 307.16 122.709 308.177 131.411C308.177 131.411 307.813 132.921 309.152 133.68C309.152 133.68 309.207 133.031 310.451 133.323C310.89 133.418 311.338 133.462 311.787 133.453C312.391 133.44 312.976 133.233 313.453 132.863C313.453 132.863 316.995 131.609 318.632 126.018C318.632 126.018 319.695 124.835 319.669 124.515L317.541 125.296C317.541 125.296 318.19 126.832 317.541 128.05C317.541 128.05 317.609 125.357 317.216 125.399C317.134 125.399 316.108 125.863 316.108 125.863C316.108 125.863 317.199 128.536 316.179 130.4C316.179 130.4 316.693 127.201 315.715 126.047L314.204 126.825C314.204 126.825 315.503 129.596 314.418 131.748C314.418 131.748 314.837 128.384 313.885 127.02L312.505 127.992C312.505 127.992 313.713 130.717 312.803 132.503C312.803 132.503 312.894 128.566 312.202 128.235C312.202 128.235 310.991 129.207 310.789 129.609C310.789 129.609 311.614 131.586 310.991 132.574C310.991 132.574 310.773 129.94 310.487 129.914C310.487 129.914 309.239 131.589 309.061 132.772C309.173 131.676 309.571 130.628 310.214 129.732C309.54 129.825 308.908 130.112 308.395 130.559C308.395 130.559 308.638 129.34 310.523 129.33C310.523 129.33 311.546 128.063 311.822 127.995C311.822 127.995 309.961 127.746 308.801 128.19C308.801 128.19 309.857 127.081 312.18 127.726L313.544 126.725C313.544 126.725 311.101 126.265 310.039 126.582C310.039 126.582 311.293 125.61 313.911 126.501L315.383 125.72C315.383 125.72 313.307 125.163 312.05 125.263C312.05 125.263 313.405 124.615 315.812 125.513L316.858 125.108C316.858 125.108 315.334 124.728 314.889 124.657C314.444 124.586 314.421 124.463 314.421 124.463C315.404 124.35 316.398 124.512 317.294 124.929C317.294 124.929 319.5 124.213 319.467 124.074Z" fill="#0075FF"/>
        <path opacity="0.1" d="M277.695 27.4941C277.695 27.4941 267.779 20.0953 264.234 28.1098C264.234 28.1098 263.152 29.2279 263.929 30.5663C263.929 30.5663 264.299 30.0446 265.229 30.9099C265.558 31.2153 265.922 31.4807 266.314 31.7006C266.844 31.9951 267.457 32.1089 268.058 32.0247C268.058 32.0247 271.749 32.7344 276.002 28.745C276.002 28.745 277.516 28.2589 277.659 27.9737L275.427 27.5718C275.427 27.5718 275.193 29.2149 274.04 29.9506C274.04 29.9506 275.466 27.6626 275.096 27.4973C275.021 27.4617 273.907 27.3353 273.907 27.3353C273.907 27.3353 273.488 30.1936 271.668 31.2728C271.668 31.2728 273.738 28.7742 273.481 27.2834L271.782 27.1927C271.782 27.1927 271.493 30.2358 269.465 31.545C269.465 31.545 271.538 28.8584 271.415 27.1991L269.732 27.3353C269.732 27.3353 269.407 30.2941 267.698 31.37C267.698 31.37 269.777 28.0255 269.348 27.3904C269.348 27.3904 267.812 27.6075 267.431 27.8603C267.431 27.8603 267.139 29.9797 266.099 30.5177C266.099 30.5177 267.249 28.1357 267.016 27.9705C267.016 27.9705 265.089 28.7839 264.332 29.7108C264.987 28.8233 265.862 28.1218 266.873 27.6755C266.244 27.415 265.553 27.3429 264.884 27.4681C264.884 27.4681 265.713 26.5413 267.344 27.4843C267.344 27.4843 268.867 26.9107 269.127 26.982C269.127 26.982 267.649 25.8251 266.424 25.6241C266.424 25.6241 267.899 25.2028 269.572 26.9204L271.259 26.7487C271.259 26.7487 269.387 25.1283 268.309 24.8561C268.309 24.8561 269.878 24.6584 271.688 26.739L273.354 26.8135C273.354 26.8135 271.847 25.2838 270.713 24.7329C270.713 24.7329 272.207 24.8625 273.829 26.8491L274.937 27.0274C274.937 27.0274 273.816 25.932 273.465 25.6468C273.114 25.3616 273.166 25.2676 273.166 25.2676C274.068 25.6675 274.842 26.3092 275.401 27.1214C275.401 27.1214 277.653 27.6269 277.695 27.4941Z" fill="#0075FF"/>
        <path opacity="0.1" d="M285.356 80.9098C285.356 80.9098 281.938 69.0388 274.251 73.3004C274.251 73.3004 272.711 73.537 272.52 75.0731C272.52 75.0731 273.13 74.8819 273.342 76.1232C273.42 76.5691 273.551 77.0042 273.731 77.4195C273.972 77.9779 274.39 78.4423 274.921 78.7417C274.921 78.7417 277.435 81.5288 283.238 80.9066C283.238 80.9066 284.739 81.4316 285.025 81.289L283.488 79.6232C283.488 79.6232 282.309 80.7964 280.944 80.6862C280.944 80.6862 283.465 79.714 283.27 79.3672C283.231 79.2959 282.419 78.5213 282.419 78.5213C282.419 78.5213 280.359 80.5501 278.254 80.3135C278.254 80.3135 281.415 79.5681 282.111 78.2264L280.811 77.131C280.811 77.131 278.738 79.3801 276.331 79.2051C276.331 79.2051 279.606 78.3075 280.509 76.9107L279.086 76.0065C279.086 76.0065 277.023 78.1616 275.021 77.9996C275.021 77.9996 278.702 76.5833 278.748 75.8218C278.748 75.8218 277.39 75.0699 276.932 75.044C276.932 75.044 275.414 76.5542 274.261 76.3597C274.261 76.3597 276.62 75.1509 276.535 74.8787C276.535 74.8787 274.508 74.3699 273.342 74.6518C274.398 74.3394 275.518 74.307 276.591 74.5578C276.247 73.9714 275.739 73.4983 275.128 73.1967C275.128 73.1967 276.35 72.9537 277.078 74.6875C277.078 74.6875 278.641 75.1477 278.803 75.3616C278.803 75.3616 278.326 73.55 277.471 72.6523C277.471 72.6523 278.901 73.2032 279.19 75.5884L280.639 76.4667C280.639 76.4667 280.132 74.0361 279.43 73.1805C279.43 73.1805 280.801 73.968 280.986 76.7162L282.286 77.776C282.286 77.776 282.01 75.65 281.438 74.5352C281.438 74.5352 282.552 75.5398 282.643 78.1L283.417 78.9102C283.417 78.9102 283.189 77.3611 283.092 76.9204C282.994 76.4796 283.092 76.4181 283.092 76.4181C283.573 77.2801 283.803 78.2586 283.758 79.244C283.758 79.244 285.239 80.9876 285.356 80.9098Z" fill="#0075FF"/>
        <path opacity="0.1" d="M209.194 107.658C209.194 107.658 202.557 97.2296 196.393 103.471C196.393 103.471 194.983 104.12 195.23 105.659C195.23 105.659 195.766 105.302 196.319 106.437C196.517 106.839 196.764 107.215 197.053 107.558C197.44 108.026 197.971 108.354 198.564 108.491C198.564 108.491 201.764 110.462 207.157 108.232C207.157 108.232 208.746 108.316 208.98 108.099L207.031 106.933C207.031 106.933 206.228 108.391 204.886 108.666C204.886 108.666 207.037 107.046 206.748 106.748C206.693 106.689 205.692 106.177 205.692 106.177C205.692 106.177 204.285 108.699 202.199 109.065C202.199 109.065 205.023 107.461 205.315 105.977L203.759 105.293C203.759 105.293 202.404 108.031 200.045 108.533C200.045 108.533 202.937 106.754 203.408 105.16L201.783 104.693C201.783 104.693 200.412 107.341 198.447 107.746C198.447 107.746 201.579 105.354 201.407 104.609C201.407 104.609 199.893 104.269 199.457 104.372C199.457 104.372 198.427 106.249 197.264 106.385C197.264 106.385 199.187 104.564 199.028 104.324C199.028 104.324 196.939 104.405 195.899 105.004C196.827 104.405 197.896 104.059 198.999 104C198.505 103.533 197.885 103.221 197.215 103.102C197.215 103.102 198.317 102.528 199.49 103.987C199.49 103.987 201.114 103.987 201.338 104.149C201.338 104.149 200.364 102.528 199.295 101.922C199.295 101.922 200.822 102.052 201.77 104.259L203.411 104.693C203.411 104.693 202.238 102.506 201.325 101.88C201.325 101.88 202.862 102.25 203.814 104.839L205.348 105.487C205.348 105.487 204.483 103.526 203.616 102.609C203.616 102.609 204.967 103.257 205.776 105.691L206.751 106.252C206.751 106.252 206.101 104.829 205.871 104.437C205.64 104.045 205.731 103.954 205.731 103.954C206.434 104.647 206.93 105.521 207.164 106.479C207.164 106.479 209.107 107.769 209.194 107.658Z" fill="#0075FF"/>
        <path d="M252.819 54.3738C252.819 54.3738 246.506 43.7472 240.148 49.7945C240.148 49.7945 238.718 50.4103 238.92 51.9464C238.92 51.9464 239.462 51.6029 239.982 52.7534C240.168 53.1624 240.403 53.5475 240.681 53.9006C241.054 54.3786 241.575 54.7203 242.162 54.8729C242.162 54.8729 245.298 56.9405 250.759 54.8729C250.759 54.8729 252.345 55.0057 252.585 54.7951L250.678 53.5701C250.678 53.5701 249.833 54.9993 248.482 55.2358C248.482 55.2358 250.681 53.6705 250.405 53.3756C250.347 53.3141 249.365 52.7696 249.365 52.7696C249.365 52.7696 247.881 55.2488 245.791 55.5502C245.791 55.5502 248.664 54.0335 248.998 52.5622L247.465 51.8427C247.465 51.8427 246.025 54.5423 243.65 54.9733C243.65 54.9733 246.597 53.2849 247.117 51.7066L245.512 51.1881C245.512 51.1881 244.057 53.7807 242.081 54.1372C242.081 54.1372 245.285 51.8427 245.135 51.0941C245.135 51.0941 243.634 50.7052 243.186 50.796C243.186 50.796 242.097 52.64 240.931 52.7404C240.931 52.7404 242.91 50.9839 242.76 50.7376C242.76 50.7376 240.668 50.7538 239.612 51.321C240.558 50.7519 241.636 50.4391 242.741 50.4135C242.26 49.9318 241.649 49.6006 240.983 49.4607C240.983 49.4607 242.104 48.9195 243.257 50.4135C243.257 50.4135 244.882 50.4686 245.099 50.6339C245.099 50.6339 244.18 49.0135 243.127 48.3459C243.127 48.3459 244.648 48.5209 245.528 50.7571L247.153 51.2432C247.153 51.2432 246.051 49.02 245.155 48.3654C245.155 48.3654 246.682 48.7834 247.552 51.3987L249.063 52.102C249.063 52.102 248.261 50.1154 247.439 49.1853C247.439 49.1853 248.768 49.8756 249.505 52.3321L250.457 52.9219C250.457 52.9219 249.846 51.4798 249.632 51.0811C249.417 50.6825 249.508 50.595 249.508 50.595C250.189 51.309 250.658 52.1976 250.863 53.1617C250.863 53.1617 252.725 54.4807 252.819 54.3738Z" fill="#0075FF"/>
        <path d="M212.879 76.7186C212.879 76.7186 213.204 64.3711 204.604 66.1114C204.604 66.1114 203.064 65.8749 202.414 67.2814C202.414 67.2814 203.064 67.2814 202.882 68.5291C202.822 68.974 202.816 69.4243 202.862 69.8708C202.921 70.4763 203.178 71.0457 203.593 71.4912C203.593 71.4912 205.143 74.907 210.865 76.0672C210.865 76.0672 212.135 77.0232 212.453 76.9714L211.479 74.9232C211.479 74.9232 210 75.6815 208.73 75.1662C208.73 75.1662 211.427 75.0074 211.352 74.6121C211.352 74.531 210.793 73.5458 210.793 73.5458C210.793 73.5458 208.214 74.8583 206.28 73.9963C206.28 73.9963 209.529 74.2394 210.592 73.1731L209.685 71.7375C209.685 71.7375 207.028 73.2542 204.786 72.3597C204.786 72.3597 208.181 72.4958 209.468 71.4361L208.386 70.1397C208.386 70.1397 205.764 71.5722 203.905 70.8138C203.905 70.8138 207.843 70.5773 208.129 69.861C208.129 69.861 207.063 68.7365 206.635 68.5647C206.635 68.5647 204.731 69.537 203.691 69.012C203.691 69.012 206.29 68.5777 206.306 68.2893C206.306 68.2893 204.529 67.1906 203.33 67.1096C204.436 67.1293 205.517 67.4377 206.466 68.0041C206.318 67.3416 205.979 66.7368 205.491 66.2638C205.491 66.2638 206.729 66.4031 206.898 68.2731C206.898 68.2731 208.253 69.187 208.34 69.4397C208.34 69.4397 208.434 67.5698 207.892 66.455C207.892 66.455 209.088 67.411 208.639 69.7703L209.754 71.0472C209.754 71.0472 210.007 68.5777 209.601 67.5504C209.601 67.5504 210.667 68.7138 210.01 71.3907L210.91 72.7875C210.91 72.7875 211.294 70.6777 211.089 69.4365C211.089 69.4365 211.843 70.7328 211.154 73.1991L211.648 74.2037C211.648 74.2037 211.898 72.6578 211.93 72.2074C211.963 71.7569 212.086 71.7277 212.086 71.7277C212.282 72.6945 212.204 73.6965 211.862 74.6218C211.862 74.6218 212.736 76.7607 212.879 76.7186Z" fill="#0075FF"/>
        <path opacity="0.1" d="M227.095 233.613C231.928 233.613 235.845 232.953 235.845 232.139C235.845 231.324 231.928 230.664 227.095 230.664C222.263 230.664 218.346 231.324 218.346 232.139C218.346 232.953 222.263 233.613 227.095 233.613Z" fill="#0075FF"/>
        <path opacity="0.1" d="M195.201 256C200.033 256 203.95 255.34 203.95 254.525C203.95 253.711 200.033 253.051 195.201 253.051C190.368 253.051 186.451 253.711 186.451 254.525C186.451 255.34 190.368 256 195.201 256Z" fill="#0075FF"/>
        <path opacity="0.1" d="M30.2613 244.531C35.0935 244.531 39.0109 243.871 39.0109 243.057C39.0109 242.242 35.0935 241.582 30.2613 241.582C25.429 241.582 21.5117 242.242 21.5117 243.057C21.5117 243.871 25.429 244.531 30.2613 244.531Z" fill="#0075FF"/>
        <path opacity="0.1" d="M261.564 254.525C266.396 254.525 270.314 253.865 270.314 253.051C270.314 252.236 266.396 251.576 261.564 251.576C256.732 251.576 252.814 252.236 252.814 253.051C252.814 253.865 256.732 254.525 261.564 254.525Z" fill="#0075FF"/>
        <path d="M270.676 236.546C277.891 236.546 283.74 235.56 283.74 234.342C283.74 233.125 277.891 232.139 270.676 232.139C263.46 232.139 257.611 233.125 257.611 234.342C257.611 235.56 263.46 236.546 270.676 236.546Z" fill="#0075FF"/>
        <path d="M276.091 230.734C276.687 230.251 277.121 229.597 277.335 228.861C277.497 228.116 277.179 227.225 276.467 226.952C275.668 226.648 274.814 227.199 274.164 227.756C273.514 228.314 272.777 228.952 271.929 228.835C272.364 228.441 272.69 227.941 272.874 227.384C273.059 226.827 273.095 226.232 272.981 225.656C272.944 225.418 272.843 225.194 272.689 225.008C272.244 224.535 271.441 224.739 270.908 225.112C269.219 226.298 268.748 228.586 268.738 230.647C268.569 229.905 268.712 229.13 268.709 228.378C268.706 227.626 268.494 226.758 267.848 226.363C267.451 226.142 267.003 226.03 266.548 226.038C265.788 226.013 264.94 226.087 264.423 226.641C263.774 227.328 263.946 228.485 264.505 229.234C265.063 229.983 265.918 230.465 266.704 230.99C267.333 231.365 267.871 231.876 268.277 232.484C268.323 232.569 268.361 232.658 268.39 232.75H273.153C274.22 232.214 275.208 231.536 276.091 230.734Z" fill="#0075FF"/>
        <path d="M24.3867 236.201C24.3867 236.201 29.3739 236.049 30.8847 234.979C32.3955 233.91 38.5621 232.636 38.9358 234.351C39.3094 236.065 46.4345 242.871 40.8007 242.916C35.1669 242.961 27.7105 242.041 26.2094 241.127C24.7084 240.213 24.3867 236.201 24.3867 236.201Z" fill="#A8A8A8"/>
        <path opacity="0.2" d="M40.8949 242.32C35.2611 242.366 27.8047 241.445 26.3036 240.532C25.16 239.838 24.7051 237.346 24.5524 236.195H24.3867C24.3867 236.195 24.7116 240.211 26.2029 241.121C27.6942 242.032 35.1604 242.956 40.7942 242.91C42.4187 242.91 42.9808 242.32 42.9515 241.465C42.7241 241.987 42.1035 242.311 40.8949 242.32Z" fill="black"/>
    </g>
    <defs>
        <linearGradient id="paint0_linear" x1="72.4487" y1="140.462" x2="173.86" y2="140.462" gradientUnits="userSpaceOnUse">
            <stop stop-color="#808080" stop-opacity="0.25"/>
            <stop offset="0.54" stop-color="#808080" stop-opacity="0.12"/>
            <stop offset="1" stop-color="#808080" stop-opacity="0.1"/>
        </linearGradient>
        <clipPath id="clip0">
            <rect width="328" height="256" fill="white"/>
        </clipPath>
    </defs>
</svg>