<svg width="175" height="133" viewBox="0 0 175 133" fill="none" xmlns="http://www.w3.org/2000/svg">
<g clip-path="url(#clip0)">
<path d="M34.539 1.35449C34.539 1.35449 33.931 3.73241 38.181 10.4539C42.431 17.1755 42.1359 18.1276 41.8907 20.0497C41.6455 21.9717 41.6601 23.0241 39.1907 25.3842C39.1907 25.3842 31.7922 27.8187 30.8035 29.3366C29.8148 30.8545 32.4374 36.3734 32.4374 36.3734C32.4374 36.3734 34.9568 43.0771 25.9099 45.649C25.9099 45.649 18.8308 45.6587 16.8679 47.2219C16.8679 47.2219 17.6276 44.5013 15.2663 40.5004C12.905 36.4995 16.1582 32.5988 16.1582 32.5988C16.1582 32.5988 18.7776 31.1536 20.4405 31.0421C22.1034 30.9305 22.6309 30.1675 21.5615 28.2519C21.5615 28.2519 20.0147 27.4437 17.8727 29.175C15.7308 30.9063 14.1308 32.1397 12.2646 31.9942C10.3985 31.8487 7.73717 31.0598 5.99038 27.5989C4.24359 24.1379 3.32422 19.2446 2.01615 17.0106C0.708071 14.7765 0 14.2867 0 14.2867C0 14.2867 1.65324 15.5444 7.36136 11.2751C13.0695 7.00588 16.0485 8.83256 16.0485 8.83256C16.0485 8.83256 20.6357 10.0676 21.3712 18.1745C21.3712 18.1745 22.705 25.8999 25.4164 21.22C25.4164 21.22 24.4986 18.5851 22.6647 14.7054C20.8308 10.8257 25.7389 7.174 29.3325 5.9519C32.9261 4.72981 34.539 1.35449 34.539 1.35449Z" fill="#0075FF"/>
<path d="M4.99855 15.9987L4.98242 15.9583C6.11146 15.4863 11.3196 18.3136 15.4841 20.7691L15.4616 20.8063C9.5873 17.3437 5.87114 15.6366 4.99855 15.9987Z" fill="#444053"/>
<path d="M15.376 20.7528L15.4211 20.7285C18.747 22.6926 22.7373 25.1853 25.7261 27.2092C26.0099 27.4016 26.3051 27.5923 26.6067 27.7717L26.56 27.8477C26.2583 27.6667 25.9616 27.4759 25.6761 27.2819C22.6906 25.2596 18.7002 22.7152 15.376 20.7528Z" fill="#444053"/>
<path d="M26.4727 27.7994L26.5468 27.7412C32.5421 31.3477 40.976 30.4893 41.0502 30.4893L40.1196 31.5481C40.0454 31.553 32.5098 31.4301 26.4727 27.7994Z" fill="#444053"/>
<path d="M32.2868 6.78809C32.2868 6.78809 30.3239 12.2665 31.8159 16.1268C33.3078 19.987 30.2029 29.5521 30.2029 29.5521C30.2029 29.5521 29.1723 33.5756 27.5142 34.5811C27.5142 34.5811 25.1094 37.5733 23.6997 37.916C22.29 38.2587 19.048 41.2945 19.1335 42.9741" stroke="#444053" stroke-miterlimit="10"/>
<path d="M34.9426 7.17383C34.9426 7.17383 33.5587 9.98659 31.499 9.96234" stroke="#444053" stroke-miterlimit="10"/>
<path d="M37.716 10.8311C37.716 10.8311 36.8789 14.6994 31.6934 15.7809" stroke="#444053" stroke-miterlimit="10"/>
<path d="M39.8762 16.5947C39.8762 16.5947 37.4358 20.5132 32.1777 20.0363" stroke="#444053" stroke-miterlimit="10"/>
<path d="M39.4191 23.9365C39.4191 23.9365 34.8271 26.9514 31.3545 25.296" stroke="#444053" stroke-miterlimit="10"/>
<path d="M29.043 7.17383C29.043 7.17383 30.243 9.71825 31.5704 8.95201" stroke="#444053" stroke-miterlimit="10"/>
<path d="M24.6484 11.0391C24.6484 11.0391 26.2614 14.4532 31.3082 13.8534" stroke="#444053" stroke-miterlimit="10"/>
<path d="M24.1621 16.1738C24.1621 16.1738 28.6009 18.8767 32.2009 18.1444" stroke="#444053" stroke-miterlimit="10"/>
<path d="M26.499 21.6455C26.499 21.6455 30.012 24.4534 31.6604 23.8084" stroke="#444053" stroke-miterlimit="10"/>
<path d="M25.6758 23.7383C25.6758 23.7383 26.6258 26.6884 25.6919 27.2462" stroke="#444053" stroke-miterlimit="10"/>
<path d="M22.5645 28.1631C22.5645 28.1631 24.3758 26.3607 23.8709 26.0293" stroke="#444053" stroke-miterlimit="10"/>
<path d="M19.2369 13.1904C19.2369 13.1904 20.8224 20.738 18.7627 22.7748" stroke="#444053" stroke-miterlimit="10"/>
<path d="M12.6084 31.1489C12.6084 31.1489 19.7843 26.5305 20.4101 23.8018" stroke="#444053" stroke-miterlimit="10"/>
<path d="M8.45117 27.8929C8.45117 27.8929 15.2012 24.7391 17.0319 21.7178" stroke="#444053" stroke-miterlimit="10"/>
<path d="M12.9844 10.7725C12.9844 10.7725 16.2505 16.2331 14.2102 20.0546" stroke="#444053" stroke-width="0.75" stroke-miterlimit="10"/>
<path d="M6.25 22.9333C6.25 22.9333 11.25 20.9046 12.2613 18.9502" stroke="#444053" stroke-width="0.75" stroke-miterlimit="10"/>
<path d="M7.30469 12.4375C7.30469 12.4375 8.97729 15.5283 8.19825 16.8716" stroke="#444053" stroke-width="0.75" stroke-miterlimit="10"/>
<path d="M24.6338 30.7238C24.6338 30.7238 29.15 30.1176 29.6338 31.2993" stroke="#444053" stroke-miterlimit="10"/>
<path d="M31.8556 39.9995C31.8556 39.9995 31.612 35.0497 28.791 33.1357" stroke="#444053" stroke-miterlimit="10"/>
<path d="M19.4717 32.7158C19.4717 32.7158 24.212 33.2768 25.8879 36.3756" stroke="#444053" stroke-miterlimit="10"/>
<path d="M27.4211 43.5901C27.4211 43.5901 28.1534 39.9642 24.6904 37.4004" stroke="#444053" stroke-miterlimit="10"/>
<path d="M16.0566 37.0962C16.0566 37.0962 19.9889 36.8941 22.0954 38.7677" stroke="#444053" stroke-miterlimit="10"/>
<path d="M21.4766 44.264C21.4766 44.264 21.1088 41.3866 20.083 40.8418" stroke="#444053" stroke-miterlimit="10"/>
<path opacity="0.1" d="M82.4669 31.9076C73.6168 36.3708 63.9377 38.3171 54.5005 39.8172C45.0633 41.3174 35.5374 42.4732 26.2373 45.6093C20.2566 47.6267 13.9356 50.8937 10.9872 55.9696C8.14525 60.8435 9.19526 66.0406 10.6985 70.5701C11.8275 73.9761 13.2792 77.4226 16.3695 79.5047C18.5179 80.9499 21.3067 81.6272 23.6486 82.8574C31.7955 87.1331 33.1164 97.162 31.8035 106.388C31.1874 110.715 30.1293 115.099 30.1438 119.341C30.1583 123.583 31.3793 127.786 34.7374 130.291C38.0665 132.774 43.0649 133.279 47.9633 132.878C57.9167 132.069 67.9248 127.933 77.4572 123.487C98.5638 113.647 118.782 101.916 138.953 90.2142C146.414 85.8835 153.909 81.5318 160.779 76.4026C164.593 73.5542 168.36 70.2824 170.121 66.3671C172.364 61.3979 170.653 55.9842 166.131 53.7485C158.55 49.9982 145.876 54.9431 139.338 50.045C135.727 47.3487 135.256 42.415 135.845 37.7837C137.106 27.8323 142.319 16.8641 138.34 8.44363C135.608 2.65969 128.417 -0.705925 120.566 0.126588C112.34 0.999514 103.224 6.41974 100.772 13.7265C98.2525 21.2514 90.2815 27.9584 82.4669 31.9076Z" fill="#0075FF"/>
<path opacity="0.1" d="M103.684 127.068C112.602 127.068 119.831 125.278 119.831 123.07C119.831 120.862 112.602 119.072 103.684 119.072C94.7663 119.072 87.5371 120.862 87.5371 123.07C87.5371 125.278 94.7663 127.068 103.684 127.068Z" fill="#0075FF"/>
<path d="M172.986 21.9375H23.7343C22.6217 21.9375 21.7197 22.8415 21.7197 23.9565V106.941C21.7197 108.056 22.6217 108.96 23.7343 108.96H172.986C174.098 108.96 175 108.056 175 106.941V23.9565C175 22.8415 174.098 21.9375 172.986 21.9375Z" fill="url(#paint0_linear)"/>
<path d="M172.759 23.1621H23.9774C22.8648 23.1621 21.9629 24.0661 21.9629 25.1812V106.653C21.9629 107.768 22.8648 108.672 23.9774 108.672H172.759C173.872 108.672 174.774 107.768 174.774 106.653V25.1812C174.774 24.0661 173.872 23.1621 172.759 23.1621Z" fill="white"/>
<path d="M172.759 23.1621H23.9774C22.8648 23.1621 21.9629 24.0661 21.9629 25.1812V106.653C21.9629 107.768 22.8648 108.672 23.9774 108.672H172.759C173.872 108.672 174.774 107.768 174.774 106.653V25.1812C174.774 24.0661 173.872 23.1621 172.759 23.1621Z" fill="white"/>
<path opacity="0.04" d="M172.759 23.1621H23.9774C22.8648 23.1621 21.9629 24.0661 21.9629 25.1812V106.653C21.9629 107.768 22.8648 108.672 23.9774 108.672H172.759C173.872 108.672 174.774 107.768 174.774 106.653V25.1812C174.774 24.0661 173.872 23.1621 172.759 23.1621Z" fill="#5A5773"/>
<path d="M174 22.1807H22.7407C22.5349 22.1807 22.3376 22.2626 22.1921 22.4084C22.0466 22.5542 21.9648 22.752 21.9648 22.9582V26.2495H174.776V22.9582C174.776 22.752 174.694 22.5542 174.549 22.4084C174.403 22.2626 174.206 22.1807 174 22.1807Z" fill="#5A5773"/>
<path d="M25.0152 25.2636C25.5942 25.2636 26.0636 24.7932 26.0636 24.2129C26.0636 23.6325 25.5942 23.1621 25.0152 23.1621C24.4362 23.1621 23.9668 23.6325 23.9668 24.2129C23.9668 24.7932 24.4362 25.2636 25.0152 25.2636Z" fill="white"/>
<path d="M27.8375 25.2636C28.4165 25.2636 28.8859 24.7932 28.8859 24.2129C28.8859 23.6325 28.4165 23.1621 27.8375 23.1621C27.2584 23.1621 26.7891 23.6325 26.7891 24.2129C26.7891 24.7932 27.2584 25.2636 27.8375 25.2636Z" fill="white"/>
<path d="M30.6607 25.2636C31.2397 25.2636 31.7091 24.7932 31.7091 24.2129C31.7091 23.6325 31.2397 23.1621 30.6607 23.1621C30.0817 23.1621 29.6123 23.6325 29.6123 24.2129C29.6123 24.7932 30.0817 25.2636 30.6607 25.2636Z" fill="white"/>
<path opacity="0.1" d="M157.969 45.1768H33.8359C32.9282 45.1768 32.1924 45.9143 32.1924 46.824V92.672C32.1924 93.5817 32.9282 94.3192 33.8359 94.3192H157.969C158.877 94.3192 159.613 93.5817 159.613 92.672V46.824C159.613 45.9143 158.877 45.1768 157.969 45.1768Z" fill="#0075FF"/>
<path d="M161.035 43.5849L36.9419 40.415C36.0344 40.3918 35.2801 41.1103 35.257 42.0198L34.0914 87.8529C34.0683 88.7623 34.7851 89.5184 35.6925 89.5416L159.786 92.7114C160.693 92.7346 161.447 92.0162 161.471 91.1067L162.636 45.2736C162.659 44.3641 161.942 43.6081 161.035 43.5849Z" fill="white"/>
<path opacity="0.2" d="M54.3594 50.8018L143.121 53.0633" stroke="#5A5773" stroke-miterlimit="10"/>
<path opacity="0.2" d="M54.1826 57.751L142.945 60.0125" stroke="#5A5773" stroke-miterlimit="10"/>
<path opacity="0.2" d="M54.0068 64.6982L142.769 66.9597" stroke="#5A5773" stroke-miterlimit="10"/>
<path opacity="0.2" d="M53.8291 71.6475L142.593 73.909" stroke="#5A5773" stroke-miterlimit="10"/>
<path opacity="0.2" d="M61.897 69.9668L61.6729 78.8011" stroke="#5A5773" stroke-miterlimit="10" stroke-dasharray="12 12"/>
<path opacity="0.2" d="M53.6533 78.5977L142.415 80.8576" stroke="#5A5773" stroke-miterlimit="10"/>
<path opacity="0.2" d="M71.7119 79.0566L72.0458 65.8867" stroke="#5A5773" stroke-miterlimit="10" stroke-dasharray="12 12"/>
<path opacity="0.2" d="M130.43 64.8457C128.848 64.9831 127.303 64.094 126.356 63.1596C125.375 62.1897 124.664 60.9967 123.977 59.836C123.759 59.4691 123.533 59.0908 123.306 58.7255C122.108 56.8212 120.911 55.5409 119.541 54.6955C119.04 54.3858 118.502 54.1393 117.94 53.9616C117.886 54.0899 117.809 54.2072 117.712 54.3075C117.505 54.5237 117.221 54.6487 116.922 54.6551H116.869C116.601 54.6478 116.344 54.5451 116.144 54.3653C115.945 54.1855 115.816 53.9404 115.78 53.6738C115.272 53.698 114.771 53.801 114.295 53.9794C112.887 54.5112 111.817 55.6541 110.845 56.7808C109.667 58.1419 108.532 59.5693 107.474 61.0258C107.259 61.32 107.043 61.6158 106.828 61.9133C105.68 63.5201 104.493 65.1803 102.957 66.4784C100.896 68.2307 98.4171 68.9856 96.3251 68.499C93.8154 67.9155 92.0202 65.6927 90.7379 63.8208C90.5767 63.5783 90.4154 63.3358 90.2412 63.0885C89.0444 61.3103 87.8073 59.4723 85.9814 58.4006C83.5766 56.9861 80.2556 57.2302 78.0781 58.9777C77.0168 59.8296 76.2201 60.987 75.4475 62.1057C75.183 62.4904 74.9088 62.8881 74.6265 63.2696C73.1749 65.2239 71.712 66.2844 70.1345 66.5139C69.509 66.5835 68.8778 66.5835 68.2522 66.5139C67.8361 66.4848 67.4055 66.4525 66.9845 66.4638C65.9342 66.5087 64.9134 66.8252 64.0211 67.3823C63.1289 67.9395 62.3956 68.7184 61.8925 69.6435L61.6699 78.9483L131.398 80.7265L131.788 65.3323C131.669 65.3974 131.537 65.4365 131.401 65.4472C131.266 65.4578 131.129 65.4396 131.001 65.3938C130.873 65.3481 130.756 65.2757 130.658 65.1816C130.559 65.0874 130.482 64.9735 130.43 64.8473V64.8457Z" fill="#0075FF"/>
<path opacity="0.2" d="M82.5737 57.4805L82.0205 79.3198" stroke="#5A5773" stroke-miterlimit="10" stroke-dasharray="12 12"/>
<path opacity="0.2" d="M92.2976 65.8359L91.9492 79.5716" stroke="#5A5773" stroke-miterlimit="10" stroke-dasharray="12 12"/>
<path opacity="0.2" d="M101.969 67.4482L101.656 79.8196" stroke="#5A5773" stroke-miterlimit="10" stroke-dasharray="12 12"/>
<path opacity="0.2" d="M111.354 56.377L110.754 80.051" stroke="#5A5773" stroke-miterlimit="10" stroke-dasharray="12 12"/>
<path opacity="0.2" d="M120.906 55.5508L120.278 80.295" stroke="#5A5773" stroke-miterlimit="10" stroke-dasharray="12 12"/>
<path opacity="0.2" d="M131.485 64.8535L131.085 80.5694" stroke="#5A5773" stroke-miterlimit="10" stroke-dasharray="12 12"/>
<path d="M117.844 52.8702C117.736 52.767 117.61 52.6861 117.472 52.632C117.333 52.5779 117.186 52.5517 117.037 52.555C116.771 52.5598 116.515 52.6587 116.315 52.834C116.115 53.0094 115.983 53.2501 115.942 53.5135C115.932 53.5777 115.928 53.6426 115.929 53.7075C115.929 53.7512 115.929 53.7948 115.939 53.8368C115.973 54.0901 116.092 54.3243 116.276 54.5012C116.476 54.7011 116.745 54.8168 117.027 54.8245H117.081C117.38 54.819 117.665 54.6946 117.873 54.4786C117.969 54.3779 118.046 54.2607 118.1 54.1327C118.142 54.0321 118.169 53.9259 118.181 53.8174C118.185 53.7685 118.185 53.7193 118.181 53.6703C118.18 53.5213 118.15 53.3739 118.092 53.2365C118.034 53.0992 117.95 52.9747 117.844 52.8702ZM117.787 54.0341C117.751 54.1128 117.701 54.1845 117.64 54.2458C117.537 54.3525 117.407 54.4287 117.263 54.4659C117.12 54.5032 116.969 54.5001 116.827 54.457C116.685 54.4139 116.558 54.3324 116.459 54.2216C116.361 54.1108 116.294 53.9749 116.268 53.8288C116.259 53.7868 116.254 53.744 116.253 53.7011C116.251 53.6358 116.258 53.5707 116.273 53.5071C116.312 53.3307 116.41 53.1728 116.549 53.0585C116.689 52.9442 116.863 52.8802 117.044 52.8766H117.081C117.288 52.882 117.485 52.9671 117.631 53.1143C117.778 53.2615 117.862 53.4594 117.866 53.6671C117.866 53.6833 117.866 53.7011 117.866 53.7172C117.863 53.8274 117.836 53.9355 117.787 54.0341Z" fill="#0075FF"/>
<path d="M131.495 65.6117C132.03 65.6117 132.463 65.1775 132.463 64.6418C132.463 64.1061 132.03 63.6719 131.495 63.6719C130.961 63.6719 130.527 64.1061 130.527 64.6418C130.527 65.1775 130.961 65.6117 131.495 65.6117Z" fill="#0075FF"/>
<path d="M116.253 53.701C116.254 53.7439 116.259 53.7866 116.267 53.8287C116.158 53.8287 116.048 53.8287 115.945 53.8367C115.436 53.8611 114.935 53.9641 114.458 54.1423C113.05 54.6741 111.98 55.817 111.006 56.9437C109.829 58.3032 108.693 59.7322 107.633 61.1871C107.419 61.4813 107.208 61.7788 106.988 62.0762C105.838 63.683 104.651 65.3416 103.117 66.6413C101.054 68.392 98.5737 69.1469 96.4801 68.6603C93.9736 68.0784 92.1785 65.854 90.8881 63.9821C90.7268 63.7412 90.5559 63.4971 90.3913 63.2498C89.1929 61.4716 87.9542 59.6336 86.1284 58.5619C83.7235 57.1474 80.3993 57.3915 78.2251 59.139C77.1783 59.9893 76.3719 61.1467 75.5993 62.2653C75.3331 62.6501 75.0589 63.0494 74.7767 63.4292C73.325 65.3836 71.8605 66.4441 70.2831 66.6736C69.6575 66.7423 69.0264 66.7423 68.4008 66.6736C67.9788 66.6351 67.5551 66.6183 67.1314 66.6235C66.006 66.6704 64.9157 67.0296 63.9819 67.6609C63.0481 68.2922 62.3076 69.171 61.8427 70.1993L61.5459 70.07C62.0365 68.9862 62.8174 68.0601 63.8018 67.3946C64.7862 66.7291 65.9354 66.3502 67.1218 66.3002C67.5568 66.2938 67.9918 66.3111 68.425 66.3519C69.027 66.4174 69.6343 66.4174 70.2363 66.3519C71.725 66.1369 73.125 65.1169 74.517 63.2353C74.796 62.8586 75.0686 62.4626 75.3331 62.0794C76.1186 60.9479 76.9315 59.7662 78.0283 58.8836C79.1911 57.972 80.5983 57.4279 82.0706 57.3205C83.543 57.2131 85.0139 57.5473 86.2961 58.2806C88.1865 59.3911 89.4462 61.2599 90.6655 63.0688C90.8268 63.3112 90.9881 63.5537 91.1607 63.7978C92.4107 65.6213 94.1527 67.7858 96.5575 68.3435C98.5511 68.8074 100.927 68.0784 102.912 66.3923C104.411 65.1201 105.59 63.4826 106.727 61.8855C106.938 61.588 107.153 61.2906 107.372 60.9947C108.438 59.5399 109.579 58.0979 110.759 56.7287C111.761 55.5713 112.856 54.3961 114.342 53.8384C114.856 53.6478 115.397 53.5388 115.945 53.5151C116.053 53.5151 116.164 53.5054 116.267 53.5151C116.255 53.5762 116.25 53.6386 116.253 53.701Z" fill="#0075FF"/>
<path d="M131.551 64.7936C129.659 65.5016 127.659 64.4444 126.52 63.3226C125.54 62.3526 124.828 61.158 124.141 59.9974C123.924 59.632 123.698 59.2521 123.469 58.8884C122.27 56.9825 121.074 55.7022 119.703 54.8568C119.201 54.5479 118.663 54.302 118.101 54.1245C117.998 54.0906 117.893 54.0615 117.778 54.034C117.827 53.9359 117.854 53.8283 117.857 53.7188C117.964 53.7462 118.069 53.7769 118.18 53.8093C118.773 53.9955 119.34 54.2551 119.869 54.582C121.285 55.4533 122.514 56.7659 123.74 58.7154C123.97 59.084 124.196 59.4639 124.417 59.8341C125.095 60.9754 125.795 62.157 126.745 63.0914C127.814 64.1454 129.686 65.146 131.437 64.4913L131.551 64.7936Z" fill="#0075FF"/>
<path opacity="0.5" d="M57.5368 49.4319L54.5377 49.3553C54.4575 49.3532 54.3909 49.4167 54.3889 49.497L54.3593 50.6605C54.3572 50.7409 54.4206 50.8076 54.5007 50.8097L57.4998 50.8863C57.5799 50.8883 57.6465 50.8249 57.6486 50.7446L57.6782 49.581C57.6802 49.5007 57.6169 49.4339 57.5368 49.4319Z" fill="#0075FF"/>
<path d="M57.359 56.3791L54.36 56.3025C54.2798 56.3005 54.2132 56.3639 54.2111 56.4443L54.1816 57.6078C54.1795 57.6881 54.2428 57.7549 54.323 57.7569L57.322 57.8336C57.4022 57.8356 57.4688 57.7721 57.4708 57.6918L57.5004 56.5283C57.5025 56.448 57.4392 56.3812 57.359 56.3791Z" fill="#0075FF"/>
<path opacity="0.5" d="M57.1823 63.3303L54.1832 63.2537C54.1031 63.2517 54.0364 63.3151 54.0344 63.3954L54.0048 64.559C54.0028 64.6393 54.0661 64.706 54.1462 64.7081L57.1453 64.7847C57.2254 64.7868 57.292 64.7233 57.2941 64.643L57.3237 63.4795C57.3257 63.3991 57.2624 63.3324 57.1823 63.3303Z" fill="#0075FF"/>
<path opacity="0.5" d="M57.0065 70.2776L54.0074 70.201C53.9273 70.1989 53.8606 70.2624 53.8586 70.3427L53.829 71.5062C53.827 71.5866 53.8903 71.6533 53.9704 71.6554L56.9695 71.732C57.0496 71.734 57.1163 71.6706 57.1183 71.5903L57.1479 70.4267C57.1499 70.3464 57.0866 70.2796 57.0065 70.2776Z" fill="#0075FF"/>
<path opacity="0.5" d="M56.8287 77.2268L53.8297 77.1502C53.7495 77.1481 53.6829 77.2116 53.6809 77.2919L53.6513 78.4554C53.6492 78.5358 53.7126 78.6026 53.7927 78.6046L56.7918 78.6812C56.8719 78.6833 56.9385 78.6198 56.9406 78.5395L56.9702 77.3759C56.9722 77.2956 56.9089 77.2288 56.8287 77.2268Z" fill="#0075FF"/>
<path opacity="0.5" d="M62.9323 80.2932L59.9332 80.2166C59.8531 80.2146 59.7864 80.278 59.7844 80.3583L59.7548 81.5219C59.7528 81.6022 59.8161 81.669 59.8962 81.671L62.8953 81.7476C62.9754 81.7497 63.042 81.6862 63.0441 81.6059L63.0737 80.4424C63.0757 80.362 63.0124 80.2953 62.9323 80.2932Z" fill="#0075FF"/>
<path opacity="0.5" d="M73.1705 80.5549L70.1715 80.4783C70.0913 80.4763 70.0247 80.5397 70.0227 80.6201L69.9931 81.7836C69.991 81.8639 70.0544 81.9307 70.1345 81.9327L73.1336 82.0093C73.2137 82.0114 73.2803 81.9479 73.2824 81.8676L73.312 80.7041C73.314 80.6238 73.2507 80.557 73.1705 80.5549Z" fill="#0075FF"/>
<path d="M83.1139 81.2664L80.1139 81.1762C80.0337 81.1738 79.9668 81.237 79.9644 81.3174L79.9296 82.4813C79.9272 82.5616 79.9902 82.6287 80.0704 82.6311L83.0704 82.7213C83.1505 82.7237 83.2175 82.6606 83.2199 82.5802L83.2547 81.4163C83.2571 81.3359 83.1941 81.2689 83.1139 81.2664Z" fill="#0075FF"/>
<path opacity="0.5" d="M93.4068 81.0715L90.4078 80.9949C90.3277 80.9929 90.261 81.0563 90.259 81.1367L90.2294 82.3002C90.2274 82.3805 90.2907 82.4473 90.3708 82.4493L93.3698 82.5259C93.45 82.528 93.5166 82.4645 93.5187 82.3842L93.5483 81.2207C93.5503 81.1404 93.487 81.0736 93.4068 81.0715Z" fill="#0075FF"/>
<path opacity="0.5" d="M103.112 81.3205L100.113 81.2439C100.033 81.2419 99.9661 81.3053 99.9641 81.3857L99.9345 82.5492C99.9324 82.6295 99.9958 82.6963 100.076 82.6983L103.075 82.7749C103.155 82.777 103.222 82.7135 103.224 82.6332L103.253 81.4697C103.255 81.3894 103.192 81.3226 103.112 81.3205Z" fill="#0075FF"/>
<path d="M112.21 81.551L109.211 81.4744C109.13 81.4724 109.064 81.5358 109.062 81.6161L109.032 82.7797C109.03 82.86 109.093 82.9268 109.174 82.9288L112.173 83.0054C112.253 83.0075 112.319 82.944 112.321 82.8637L112.351 81.7002C112.353 81.6198 112.29 81.5531 112.21 81.551Z" fill="#0075FF"/>
<path d="M121.802 81.7961L118.803 81.7195C118.723 81.7175 118.657 81.7809 118.655 81.8613L118.625 83.0248C118.623 83.1051 118.686 83.1719 118.766 83.1739L121.765 83.2505C121.846 83.2526 121.912 83.1891 121.914 83.1088L121.944 81.9453C121.946 81.865 121.882 81.7982 121.802 81.7961Z" fill="#0075FF"/>
<path d="M132.112 82.7406L129.27 82.6552C129.146 82.6515 129.043 82.749 129.039 82.8731L129.009 83.8786C129.005 84.0027 129.103 84.1064 129.227 84.1101L132.069 84.1955C132.192 84.1993 132.296 84.1017 132.299 83.9776L132.33 82.9721C132.333 82.848 132.236 82.7444 132.112 82.7406Z" fill="#0075FF"/>
<path d="M158.206 97.8788C158.576 97.8788 158.934 98.0072 159.219 98.242C159.505 98.4769 159.7 98.8037 159.772 99.1669C159.844 99.53 159.789 99.907 159.615 100.233C159.44 100.56 159.159 100.816 158.817 100.958C158.476 101.099 158.096 101.118 157.743 101.011C157.389 100.903 157.084 100.676 156.879 100.368C156.673 100.061 156.581 99.6909 156.617 99.3224C156.653 98.9539 156.816 98.6094 157.077 98.3476C157.225 98.1987 157.401 98.0805 157.595 98.0001C157.789 97.9196 157.996 97.8784 158.206 97.8788ZM158.206 97.6299C157.841 97.6299 157.484 97.7385 157.18 97.942C156.876 98.1456 156.639 98.4348 156.5 98.7732C156.36 99.1116 156.324 99.484 156.395 99.8431C156.467 100.202 156.643 100.532 156.901 100.791C157.16 101.049 157.489 101.225 157.848 101.297C158.206 101.368 158.578 101.33 158.915 101.19C159.253 101.049 159.541 100.812 159.743 100.507C159.946 100.202 160.054 99.8438 160.053 99.4776C160.053 99.2347 160.005 98.9943 159.912 98.77C159.819 98.5457 159.683 98.342 159.511 98.1704C159.34 97.9988 159.136 97.8628 158.912 97.77C158.688 97.6773 158.448 97.6297 158.206 97.6299Z" fill="#0075FF"/>
<path d="M157.711 100.024L157.808 99.8947C157.902 99.9875 158.029 100.04 158.161 100.042C158.322 100.042 158.45 99.9593 158.45 99.8284C158.45 99.6974 158.332 99.5924 158.006 99.5924V99.4437C158.296 99.4437 158.406 99.3467 158.406 99.2206C158.406 99.0945 158.308 99.0347 158.164 99.0347C158.051 99.0382 157.943 99.0824 157.859 99.1592L157.756 99.0347C157.871 98.9329 158.019 98.8756 158.172 98.873C158.422 98.873 158.608 98.9943 158.608 99.206C158.608 99.3548 158.5 99.4534 158.342 99.5067V99.5148C158.423 99.5234 158.499 99.5606 158.555 99.6197C158.612 99.6789 158.646 99.7562 158.651 99.8381C158.651 100.068 158.435 100.207 158.177 100.207C158.091 100.21 158.005 100.196 157.925 100.164C157.845 100.133 157.772 100.085 157.711 100.024Z" fill="#0075FF"/>
<path d="M165.834 97.9872C166.204 97.9872 166.562 98.1156 166.847 98.3504C167.133 98.5853 167.328 98.9121 167.4 99.2753C167.472 99.6384 167.417 100.015 167.243 100.342C167.068 100.668 166.787 100.924 166.445 101.066C166.104 101.208 165.724 101.227 165.371 101.119C165.017 101.012 164.712 100.785 164.507 100.477C164.301 100.169 164.209 99.7993 164.245 99.4308C164.281 99.0623 164.444 98.7178 164.705 98.456C164.853 98.307 165.029 98.1888 165.223 98.1083C165.417 98.0279 165.624 97.9867 165.834 97.9872ZM165.834 97.7383C165.469 97.7383 165.112 97.8468 164.808 98.0502C164.504 98.2536 164.268 98.5427 164.128 98.8809C163.988 99.2191 163.952 99.5913 164.023 99.9503C164.094 100.309 164.27 100.639 164.528 100.898C164.787 101.157 165.116 101.333 165.474 101.405C165.832 101.476 166.203 101.439 166.541 101.299C166.878 101.159 167.167 100.922 167.37 100.618C167.573 100.313 167.681 99.9553 167.681 99.5892C167.681 99.3461 167.634 99.1053 167.541 98.8806C167.448 98.656 167.312 98.4518 167.141 98.2799C166.969 98.108 166.765 97.9717 166.541 97.8787C166.317 97.7858 166.077 97.7381 165.834 97.7383Z" fill="#5A5773"/>
<path d="M165.857 99.396C165.857 99.3167 165.857 99.2165 165.869 99.1373H165.857C165.812 99.2068 165.761 99.2763 165.715 99.3458L165.393 99.7678H166.265V99.9375H165.167V99.8017L165.822 98.9385H166.062V100.313H165.862L165.857 99.396Z" fill="#5A5773"/>
<path d="M161.626 98.5319C161.658 98.5008 161.7 98.4834 161.745 98.4834C161.789 98.4834 161.831 98.5008 161.863 98.5319L162.695 99.3693C162.711 99.3844 162.723 99.4024 162.732 99.4224C162.74 99.4424 162.745 99.4639 162.745 99.4857C162.745 99.5074 162.74 99.5289 162.732 99.5489C162.723 99.5689 162.711 99.587 162.695 99.6021L161.876 100.426C161.861 100.443 161.842 100.456 161.822 100.466C161.801 100.475 161.779 100.479 161.757 100.479C161.734 100.479 161.712 100.475 161.691 100.466C161.671 100.456 161.652 100.443 161.637 100.426C161.621 100.411 161.608 100.393 161.599 100.373C161.59 100.352 161.585 100.33 161.585 100.308C161.585 100.285 161.59 100.263 161.599 100.243C161.608 100.222 161.621 100.204 161.637 100.189L162.341 99.4776L161.626 98.7695C161.609 98.7544 161.596 98.7359 161.587 98.7153C161.578 98.6947 161.573 98.6725 161.573 98.6499C161.573 98.6274 161.578 98.6051 161.587 98.5845C161.596 98.5639 161.609 98.5455 161.626 98.5303V98.5319Z" fill="#5A5773"/>
<path d="M160.207 99.4785C160.206 99.8384 160.312 100.19 160.511 100.49C160.711 100.79 160.994 101.023 161.326 101.161C161.657 101.299 162.022 101.336 162.375 101.265C162.727 101.195 163.051 101.022 163.305 100.768C163.559 100.513 163.731 100.189 163.801 99.8357C163.871 99.4826 163.835 99.1167 163.697 98.7842C163.56 98.4518 163.327 98.1678 163.028 97.9682C162.729 97.7686 162.377 97.6624 162.018 97.6631C161.538 97.6635 161.078 97.8549 160.738 98.1953C160.398 98.5356 160.207 98.9971 160.207 99.4785ZM160.486 99.4785C160.485 99.1219 160.608 98.7762 160.833 98.5002C161.059 98.2242 161.372 98.0351 161.721 97.9651C162.07 97.8951 162.432 97.9485 162.746 98.1162C163.06 98.2839 163.306 98.5556 163.443 98.8849C163.579 99.2142 163.597 99.5807 163.494 99.922C163.391 100.263 163.173 100.558 162.878 100.756C162.582 100.954 162.227 101.044 161.873 101.009C161.519 100.974 161.188 100.817 160.936 100.565C160.793 100.423 160.679 100.253 160.602 100.067C160.525 99.8804 160.485 99.6804 160.486 99.4785Z" fill="#5A5773"/>
<path opacity="0.2" d="M62.8184 30.5605H27.4116C27.0678 30.5605 26.7891 30.8399 26.7891 31.1845V33.792C26.7891 34.1366 27.0678 34.416 27.4116 34.416H62.8184C63.1623 34.416 63.441 34.1366 63.441 33.792V31.1845C63.441 30.8399 63.1623 30.5605 62.8184 30.5605Z" fill="#5A5773"/>
<path d="M114.063 122.394C113.796 121.424 113.622 120.568 113.622 120.568C113.622 120.568 113.633 119.501 113.125 118.717L113.115 118.45L113.039 116.478C113.161 116.115 113.314 115.763 113.496 115.425C113.828 114.792 113.386 112.535 113.386 112.535C113.386 112.535 111.949 109.385 112.191 107.341C112.433 105.298 109.149 98.4261 109.149 98.4261C109.141 97.7517 109.21 97.0785 109.355 96.42C109.381 96.2814 109.388 96.1401 109.378 95.9997C109.378 95.9819 109.378 95.9673 109.378 95.9479C109.378 95.9479 109.378 95.9592 109.378 95.9641C109.283 94.6272 108.13 92.1572 108.13 92.1572L108.088 87.3674C108.088 87.3674 108.654 84.5191 107.407 80.7752C106.973 79.469 106.686 78.4215 106.499 77.61C106.478 77.5195 106.457 77.4306 106.439 77.3465C108.697 76.9117 110.409 76.5577 110.409 76.5577C110.409 76.5577 108.884 71.1019 107.96 70.1724C107.036 69.2429 106.21 66.2426 106.21 66.2426C106.21 66.2426 105.599 62.371 106.301 61.2055C107.002 60.04 107.034 58.0759 107.034 58.0759C107.034 58.0759 108.689 56.7697 108.881 56.212C109.073 55.6543 109.38 54.3999 109.355 53.7452C109.331 53.0905 109.094 52.515 109.152 52.1675C109.21 51.8199 108.592 50.5348 108.852 49.9043C108.918 49.7109 108.949 49.5072 108.942 49.303C108.942 49.303 108.942 49.29 108.942 49.2852C108.942 49.2803 108.942 49.2852 108.942 49.2771C108.924 48.7354 108.853 48.1967 108.731 47.6687C108.224 47.2703 107.638 46.9843 107.012 46.8297L106.968 46.6842L106.855 46.2946C106.797 46.259 106.741 46.2283 106.684 46.2008L106.675 46.0602L106.638 45.5025L106.855 44.2416C107.294 42.035 104.373 41.8168 104.373 41.8168C104.184 41.488 103.88 41.2414 103.52 41.1249C102.926 40.9407 103.549 44.4162 103.831 44.628C104.042 44.7896 104.721 45.8598 105.049 46.3867L105.1 46.4724C105.055 46.5182 105.012 46.5668 104.973 46.6179L105.113 47.3728L105.134 47.4876C104.952 47.7346 104.805 48.0069 104.7 48.2959C104.7 48.2959 105.255 48.8617 105.175 49.5196C105.094 50.1775 105.394 50.9825 105.409 51.0262C105.376 50.9906 104.986 50.5994 104.617 50.7126C104.247 50.8257 103.213 51.1798 103.213 51.1798C103.213 51.1798 102.438 51.3414 102.515 51.5176C102.592 51.6938 102.018 52.4681 102.018 52.4681L99.844 50.5558C99.8214 50.4976 99.7972 50.4394 99.7763 50.378C99.6782 50.0969 99.6058 49.8074 99.5601 49.5131C99.7865 49.4488 100.008 49.3683 100.223 49.2723C100.441 49.1883 100.635 49.053 100.789 48.8778C100.991 48.6176 101.018 48.2749 101.092 47.958C101.234 47.3405 101.576 46.7812 101.804 46.1895C102.195 45.1957 102.298 44.1114 102.1 43.0615C102.054 42.7369 101.932 42.4277 101.744 42.1595C101.383 41.7004 100.755 41.5323 100.292 41.1734C99.8295 40.8146 99.5117 40.2504 98.9746 39.9869C98.4908 39.7509 97.9101 39.8026 97.3778 39.9125C96.3315 40.1235 95.3337 40.5287 94.4359 41.1072C94.1375 41.2995 93.8101 41.5226 93.4552 41.4725C93.152 41.4288 92.9213 41.1961 92.7181 40.973C92.7181 40.9633 92.7181 40.9536 92.7262 40.9439L92.702 40.9164C92.499 41.4192 92.4087 41.9606 92.4375 42.5022C92.4375 42.5863 92.4439 42.6703 92.4568 42.7544C92.4568 42.7835 92.4568 42.8126 92.4649 42.8417C92.4665 42.8659 92.4665 42.8902 92.4649 42.9144C92.4659 42.9519 92.4621 42.9894 92.4536 43.026C92.4133 43.1357 92.3501 43.2354 92.2681 43.3186C92.2076 43.3935 92.1537 43.4736 92.1068 43.5578C92.1068 43.5287 92.123 43.4996 92.1326 43.4721C92.006 43.6728 91.9394 43.9056 91.9407 44.143C91.9358 44.3158 91.9989 44.4837 92.1165 44.6102C92.2255 44.7092 92.3438 44.7975 92.4697 44.8737C92.4368 45.1065 92.4249 45.3419 92.4343 45.5769C92.4637 46.2771 92.6735 46.9577 93.0432 47.5526C93.4129 48.1474 93.9299 48.6363 94.5439 48.9716L94.6214 49.1494C94.9165 49.8461 95.1504 50.6625 95.0907 51.4271C95.0907 51.4837 95.0794 51.5386 95.0714 51.5887C95.0456 51.6178 95.0214 51.6485 94.9988 51.6793C94.9988 51.6793 91.5359 51.8409 90.6923 51.1377C89.8487 50.4345 88.7036 53.0242 88.7036 53.0242C88.7036 53.0242 87.4713 53.3136 87.2148 53.0824C86.9584 52.8512 85.51 53.1131 85.51 53.1131C84.8945 52.6064 84.1097 52.3532 83.3148 52.4051C82.8164 52.0543 82.2706 51.7767 81.6938 51.5807L81.6551 51.5677C81.4017 51.4861 81.1334 51.4624 80.8696 51.4982C80.8696 51.4982 79.1132 50.1533 78.5873 49.4145C78.0615 48.6757 75.5873 45.9584 75.576 45.947L75.5647 45.8096L75.5228 45.4023C75.453 45.4154 75.3824 45.4241 75.3115 45.4281C75.2975 45.3883 75.2798 45.3414 75.2583 45.2875C75.1068 44.8962 74.9239 44.5177 74.7115 44.1559C74.7115 44.1559 74.6922 43.6386 74.8373 43.5093C74.9825 43.38 74.697 41.4887 74.697 41.4887C74.697 41.4887 73.0244 37.9517 71.7518 40.6901C71.7518 40.6901 69.2195 42.5281 71.4792 44.4663C71.4792 44.4663 72.3663 44.8543 72.5018 45.184C72.5905 45.399 72.9099 45.9923 73.1244 46.39L73.2196 46.5678L73.1954 46.5888L73.2405 46.925L73.2583 47.056C72.8567 47.3065 72.5873 47.549 72.6615 47.7204C72.794 48.0139 72.8893 48.3229 72.9454 48.6402C72.9454 48.6402 76.1067 52.3113 76.5599 53.9133C76.5599 53.9133 84.8342 58.4202 87.5084 58.6627L87.1407 61.0875C87.1407 61.0875 87.0536 62.5423 87.1084 63.0532C87.1632 63.564 86.8987 65.9225 86.8987 65.9225C86.8987 65.9225 86.5761 69.3835 86.1987 69.8798C85.8213 70.376 85.9761 72.4387 85.9761 72.4387C85.9209 73.4313 85.7806 74.4172 85.5568 75.3857C85.2164 76.708 85.5568 78.3148 85.5568 78.3148C85.5568 78.3148 84.3277 81.4654 87.4745 79.2411C87.4745 79.2411 89.0568 79.0794 90.8794 78.9485C90.8794 79.0083 90.8794 79.0681 90.8794 79.1312C90.8794 79.3672 90.8891 79.6161 90.8971 79.8909C90.9407 81.6691 91.0246 84.1117 91.1746 85.9578C91.4423 89.2215 92.6843 95.657 92.6843 95.657L92.8084 98.9078C92.7568 99.2158 92.7379 99.5285 92.752 99.8405C92.773 100.987 93.1193 102.104 93.7504 103.061L94.0827 105.22C94.0827 105.22 94.7278 106.625 94.7633 107.483C94.7641 107.553 94.7587 107.623 94.7472 107.692C94.7294 107.802 94.724 107.914 94.731 108.025C94.731 109.011 95.4182 111.344 95.4182 111.344C95.4182 111.344 95.5456 113.717 95.902 113.841C96.2101 113.948 95.5488 115.225 95.352 115.594C95.352 115.571 95.3407 115.548 95.3359 115.526L95.2956 115.598C95.2291 115.793 95.199 115.998 95.2069 116.203C95.1932 116.366 95.226 116.53 95.3014 116.675C95.3768 116.82 95.4916 116.94 95.6327 117.023C96.323 117.411 96.6988 117.74 96.1311 117.9C95.922 117.944 95.7152 117.998 95.5117 118.062L95.4794 117.984C95.4057 118.021 95.3458 118.08 95.3089 118.154C95.2719 118.227 95.2599 118.311 95.2746 118.392C95.2649 118.565 95.3327 118.817 95.5165 119.189C96.1327 120.44 96.5456 120.907 96.5456 120.907L96.8166 120.865C96.7802 120.971 96.7309 121.072 96.6698 121.166C96.5724 121.319 96.4396 121.447 96.2827 121.538C96.1363 121.633 95.9714 121.697 95.7988 121.723C95.6064 121.737 95.4189 121.791 95.2488 121.882C95.0786 121.973 94.9297 122.099 94.8117 122.252C94.4762 122.724 94.2778 123.358 94.9988 123.88L97.5698 124.659C97.5698 124.659 101.955 125.06 101.686 124.087C101.417 123.114 101.244 122.26 101.244 122.26C101.238 121.66 101.094 121.069 100.823 120.534C100.776 120.446 100.722 120.362 100.662 120.283L100.815 120.259C100.815 120.259 101.052 118.078 101.46 117.65C101.554 117.55 101.573 117.477 101.549 117.42C101.588 117.301 101.475 117.236 101.329 117.202C101.32 117.231 101.31 117.259 101.302 117.289C101.165 117.266 101.026 117.256 100.888 117.26C100.888 117.26 100.702 116.129 101.147 115.699C101.183 115.65 101.208 115.595 101.221 115.536C101.234 115.477 101.235 115.417 101.223 115.358C101.221 115.202 101.199 115.047 101.159 114.897C101.159 114.897 101.149 114.915 101.142 114.924C100.87 113.903 100.021 112.294 100.021 112.294C100.021 112.294 99.9472 111.263 100.215 110.839C100.483 110.416 99.9634 105.23 99.9634 105.23C99.9634 105.23 99.973 102.713 99.6085 101.556C99.244 100.398 99.894 98.9935 99.894 98.9935C99.894 98.9935 99.894 98.966 99.8827 98.9191C99.8861 98.9135 99.8888 98.9076 99.8908 98.9013C99.8908 98.9013 99.8698 98.7397 99.8343 98.5069C99.8343 98.5069 99.8343 98.5231 99.8343 98.5311C99.7375 97.8684 99.5553 96.6689 99.4343 96.1161C99.2617 95.3304 99.294 91.5364 99.294 91.5364L99.8714 89.894L101.113 92.6421L102.462 96.3133C102.462 96.3133 103.091 97.0746 103.134 97.87C103.134 97.9088 103.134 97.9476 103.134 97.9864C103.134 98.0721 103.134 98.148 103.134 98.2353C103.132 98.7059 103.278 99.1651 103.554 99.5463C103.554 99.5463 103.941 101.289 104.454 101.717C104.967 102.146 105.002 103.011 105.002 103.011C105.002 103.011 105.702 105.534 106.004 105.97C106.257 106.339 106.31 107.375 106.326 107.692C106.326 107.75 106.326 107.784 106.326 107.784C106.326 107.784 106.446 108.691 106.471 109.457C106.471 109.551 106.471 109.643 106.471 109.729C106.471 109.729 106.471 109.716 106.471 109.709C106.479 109.918 106.462 110.127 106.421 110.332C106.421 110.342 106.421 110.354 106.412 110.367C106.412 110.324 106.412 110.28 106.412 110.238C106.306 110.762 106.266 111.298 106.291 111.832C106.31 112.749 106.491 113.827 107.068 114.443C108.068 115.508 108.667 115.346 108.667 115.346C108.667 115.346 108.259 116.741 107.699 117.039C107.678 117.05 107.658 117.063 107.641 117.079C107.641 117.053 107.628 117.026 107.623 117C107.564 117.072 107.52 117.155 107.495 117.244C107.47 117.333 107.463 117.427 107.476 117.519C107.459 118.127 107.878 119.095 108.257 119.533C108.394 119.659 108.561 119.749 108.741 119.795C108.713 119.816 108.684 119.836 108.654 119.853C108.592 119.891 108.528 119.924 108.462 119.953C108.371 119.998 108.275 120.027 108.175 120.041C107.982 120.054 107.795 120.108 107.625 120.199C107.455 120.29 107.307 120.416 107.189 120.569C106.854 121.04 106.654 121.673 107.375 122.196L109.947 122.975C109.947 122.975 114.333 123.368 114.063 122.394Z" fill="url(#paint1_linear)"/>
<path d="M97.4571 124.663L94.9684 123.887C94.27 123.363 94.4603 122.73 94.7861 122.259C94.8977 122.108 95.0406 121.982 95.2051 121.891C95.3696 121.8 95.5519 121.745 95.7394 121.731C95.9052 121.704 96.0632 121.641 96.2023 121.547C96.3557 121.455 96.4847 121.327 96.5781 121.175C96.746 120.883 96.8303 120.55 96.8216 120.213C96.8216 120.213 99.4878 119.317 100.256 120.08C100.393 120.218 100.509 120.376 100.601 120.547C100.864 121.084 101.005 121.673 101.012 122.271C101.012 122.271 101.181 123.124 101.443 124.097C101.704 125.071 97.4571 124.663 97.4571 124.663Z" fill="#2D293D"/>
<path d="M109.437 122.987L106.946 122.205C106.248 121.681 106.44 121.047 106.764 120.577C106.875 120.425 107.018 120.299 107.183 120.208C107.347 120.117 107.53 120.063 107.717 120.05C107.814 120.036 107.908 120.007 107.995 119.963C108.059 119.934 108.122 119.901 108.182 119.864C108.854 119.458 108.8 118.53 108.8 118.53C108.8 118.53 111.466 117.635 112.235 118.398C112.338 118.501 112.429 118.615 112.506 118.739C113 119.523 112.99 120.593 112.99 120.593C112.99 120.593 113.161 121.448 113.421 122.42C113.68 123.391 109.437 122.987 109.437 122.987Z" fill="#2D293D"/>
<path opacity="0.1" d="M100.256 120.075C100.393 120.213 100.509 120.37 100.601 120.542L96.5781 121.168C96.7461 120.876 96.8303 120.543 96.8217 120.206C96.8217 120.206 99.4878 119.312 100.256 120.075Z" fill="black"/>
<path opacity="0.1" d="M112.501 118.739L112.53 119.497C111.943 120.559 108.892 120.449 107.989 119.963C108.054 119.934 108.116 119.901 108.176 119.864C108.849 119.458 108.794 118.53 108.794 118.53C108.794 118.53 111.46 117.635 112.23 118.398C112.332 118.501 112.423 118.615 112.501 118.739Z" fill="black"/>
<path d="M112.856 115.452C112.68 115.79 112.533 116.141 112.416 116.503L112.521 119.222C111.875 120.384 108.29 120.144 107.785 119.545C107.28 118.947 106.704 117.347 107.243 117.05C107.782 116.752 108.175 115.36 108.175 115.36C108.175 115.36 107.596 115.522 106.627 114.455C105.658 113.388 105.838 110.934 105.982 110.343C106.125 109.751 105.882 107.795 105.882 107.795C105.882 107.795 105.864 106.418 105.572 105.981C105.28 105.545 104.604 103.02 104.604 103.02C104.604 103.02 104.572 102.158 104.074 101.726C103.575 101.295 103.2 99.5538 103.2 99.5538C102.902 99.1259 102.76 98.608 102.8 98.0876C102.869 97.2228 102.146 96.3192 102.146 96.3192L100.837 92.648L99.6302 89.8999L99.0737 91.5423C99.0737 91.5423 99.0479 95.3347 99.2156 96.1203C99.3834 96.9059 99.6705 98.9993 99.6705 98.9993C99.6705 98.9993 99.035 100.403 99.3898 101.56C99.7447 102.717 99.7366 105.236 99.7366 105.236C99.7366 105.236 100.246 110.422 99.9866 110.845C99.7269 111.269 99.8027 112.3 99.8027 112.3C99.8027 112.3 101.327 115.275 100.896 115.705C100.466 116.135 100.646 117.265 100.646 117.265C100.646 117.265 101.614 117.227 101.211 117.657C100.808 118.087 100.59 120.266 100.59 120.266L96.4559 120.913C96.4559 120.913 96.0559 120.446 95.4575 119.193C94.8591 117.94 95.5172 118.053 96.064 117.9C96.6108 117.746 96.2495 117.415 95.5801 117.022C94.9108 116.629 95.2575 115.69 95.2575 115.69C95.2575 115.69 96.1882 113.965 95.8398 113.841C95.4914 113.716 95.3656 111.343 95.3656 111.343C95.3656 111.343 94.5704 108.547 94.7204 107.787C94.8704 107.027 94.0753 105.226 94.0753 105.226L93.7527 103.067C92.4204 100.97 92.8236 98.9929 92.8236 98.9929L92.6946 95.6531C92.6946 95.6531 91.4849 89.2194 91.222 85.954C91.0607 83.8622 90.9688 81.0042 90.9301 79.2195C90.9075 78.2173 90.8994 77.5545 90.8994 77.5545L105.677 75.4336C105.677 75.4336 105.688 76.1206 106.03 77.6321C106.212 78.4403 106.492 79.4911 106.914 80.7989C108.124 84.5427 107.58 87.3911 107.58 87.3911L107.627 92.1808C107.627 92.1808 109.054 95.3314 108.822 96.4436C108.685 97.1027 108.621 97.7749 108.63 98.4481C108.63 98.4481 111.817 105.323 111.587 107.367C111.356 109.41 112.748 112.56 112.748 112.56C112.748 112.56 113.175 114.819 112.856 115.452Z" fill="#575988"/>
<path opacity="0.05" d="M103.685 97.8469L108.178 97.0693C108.178 97.0693 105.727 99.785 103.685 97.8469Z" fill="black"/>
<path opacity="0.1" d="M107.356 92.6719C107.356 92.6719 107.572 94.2658 106.615 94.9059C106.615 94.9059 108.357 94.5632 107.356 92.6719Z" fill="black"/>
<path opacity="0.1" d="M106.883 87.5889C106.883 87.5889 103.227 90.8494 101.844 90.6441C100.462 90.4388 106.883 87.5889 106.883 87.5889Z" fill="black"/>
<path opacity="0.1" d="M98.1454 99.5254C98.1454 99.5254 95.3002 100.287 95.2583 101.446C95.2163 102.605 98.1454 99.5254 98.1454 99.5254Z" fill="black"/>
<path opacity="0.05" d="M99.3252 113.854C99.3252 113.854 95.3026 114.767 96.472 115.239C97.6413 115.711 99.5478 116.047 99.5478 116.047C99.5478 116.047 100.854 116.07 99.3252 113.854Z" fill="black"/>
<g opacity="0.05">
<path opacity="0.05" d="M95.6852 116.089C95.5814 116.029 95.4923 115.946 95.4245 115.847C95.3567 115.748 95.3119 115.634 95.2933 115.516L95.2546 115.59C95.2546 115.59 94.911 116.534 95.5772 116.922C95.6546 116.966 95.7255 117.009 95.7949 117.053C95.9126 117.025 96.0433 117.004 96.1659 116.967C96.7175 116.809 96.3546 116.477 95.6852 116.089Z" fill="black"/>
<path opacity="0.05" d="M100.889 115.614C100.997 115.506 100.982 115.242 100.902 114.904C100.729 115.179 100.7 115.595 100.71 115.91C100.747 115.799 100.808 115.698 100.889 115.614Z" fill="black"/>
<path opacity="0.05" d="M99.6144 98.5078C99.4807 98.9204 99.4047 99.3497 99.3887 99.7833C99.4549 99.481 99.5488 99.1856 99.6693 98.9006C99.6693 98.9006 99.6483 98.7535 99.6144 98.5078Z" fill="black"/>
<path opacity="0.05" d="M108.823 96.348C108.846 96.2233 108.854 96.0963 108.847 95.9697C108.805 96.23 108.779 96.4692 108.762 96.6794C108.779 96.5678 108.8 96.4612 108.823 96.348Z" fill="black"/>
<path opacity="0.05" d="M99.987 110.753C100.039 110.668 100.06 110.381 100.06 109.985C99.9449 110.295 99.8901 110.625 99.8982 110.955C99.9196 110.885 99.9494 110.817 99.987 110.753Z" fill="black"/>
<path opacity="0.05" d="M101.086 117.211C100.833 117.997 100.694 119.343 100.694 119.343L96.5604 119.99C96.5604 119.99 96.1604 119.523 95.5652 118.267C95.5136 118.157 95.4701 118.058 95.4362 117.967C95.1927 118.092 95.1039 118.354 95.4604 119.099C96.0588 120.352 96.4572 120.819 96.4572 120.819L100.591 120.172C100.591 120.172 100.817 117.992 101.214 117.562C101.406 117.355 101.272 117.259 101.086 117.211Z" fill="black"/>
<path opacity="0.05" d="M95.3628 111.241C95.3628 111.241 95.4886 113.616 95.837 113.741C95.9982 113.34 96.0966 112.963 95.9402 112.908C95.5918 112.784 95.466 110.409 95.466 110.409C95.466 110.409 94.6708 107.614 94.8208 106.853C94.9708 106.091 94.1757 104.292 94.1757 104.292L93.8531 102.134C92.5353 100.047 92.9402 98.0667 92.9402 98.0667L92.8111 94.7286C92.8111 94.7286 91.6015 88.2948 91.3385 85.0294C91.1773 82.9393 91.0853 80.0796 91.0466 78.295C91.0466 77.9717 91.0337 77.6872 91.0289 77.4463L90.9111 77.4625C90.9111 77.4625 90.9111 78.1252 90.9402 79.1275C90.9805 80.9057 91.0644 83.7702 91.2337 85.8603C91.4966 89.1257 92.7063 95.5595 92.7063 95.5595L92.824 98.896C92.824 98.896 92.4192 100.876 93.7369 102.963L94.0595 105.123C94.0595 105.123 94.8515 106.919 94.7047 107.682C94.5579 108.445 95.3628 111.241 95.3628 111.241Z" fill="black"/>
<path opacity="0.05" d="M107.891 118.617C107.533 118.142 107.287 117.592 107.17 117.009C106.76 117.408 107.305 118.877 107.784 119.45C108.289 120.051 111.874 120.292 112.518 119.126L112.492 118.47C111.6 119.432 108.366 119.186 107.891 118.617Z" fill="black"/>
<path opacity="0.05" d="M112.96 114.528C112.784 114.865 112.637 115.216 112.52 115.579L112.537 116.064C112.608 115.884 112.711 115.645 112.86 115.36C112.958 115.086 112.998 114.793 112.978 114.502C112.968 114.512 112.965 114.52 112.96 114.528Z" fill="black"/>
<path opacity="0.05" d="M107.973 115.263C108.093 114.993 108.195 114.716 108.279 114.432C108.279 114.432 107.7 114.594 106.731 113.527C106.026 112.751 105.924 111.24 105.987 110.247C105.837 110.839 105.657 113.293 106.632 114.358C107.26 115.055 107.726 115.228 107.973 115.263Z" fill="black"/>
<path opacity="0.05" d="M105.888 107.7C105.974 108.376 106.023 109.056 106.035 109.737C106.048 109.628 106.067 109.52 106.093 109.413C106.243 108.822 105.993 106.867 105.993 106.867C105.993 106.867 105.976 105.488 105.684 105.052C105.392 104.615 104.716 102.09 104.716 102.09C104.716 102.09 104.684 101.23 104.185 100.797C103.687 100.364 103.308 98.6295 103.308 98.6295C103.009 98.202 102.868 97.6837 102.908 97.1633C102.977 96.2984 102.263 95.3964 102.263 95.3964L100.942 91.7188L99.7352 88.9707L99.1787 90.6196C99.1787 90.6196 99.1787 90.8232 99.1787 91.1433L99.6303 89.8097L100.837 92.5578L102.148 96.2305C102.148 96.2305 102.871 97.1342 102.793 97.9974C102.754 98.5183 102.895 99.0369 103.193 99.4652C103.193 99.4652 103.571 101.208 104.067 101.638C104.564 102.068 104.6 102.931 104.6 102.931C104.6 102.931 105.28 105.456 105.567 105.893C105.855 106.329 105.888 107.7 105.888 107.7Z" fill="black"/>
</g>
<path d="M106.34 44.2621L106.13 45.5295L106.167 46.0872L106.193 46.4994L104.767 46.7031L104.595 46.4121C104.272 45.8851 103.619 44.8133 103.414 44.6517C103.14 44.4399 102.533 40.9644 103.109 41.1487C103.46 41.2699 103.754 41.5169 103.935 41.8422C103.935 41.8422 106.762 42.0572 106.34 44.2621Z" fill="#FFCDD3"/>
<path opacity="0.1" d="M106.192 46.4999L104.766 46.7036L104.594 46.4126C104.778 46.1849 105.036 46.0282 105.322 45.9692C105.609 45.9103 105.907 45.9527 106.166 46.0893L106.192 46.4999Z" fill="black"/>
<path d="M106.581 47.1672L104.709 47.678L104.657 47.3984L104.521 46.6435C104.521 46.6435 105.231 45.6153 106.341 46.3202L106.451 46.7033L106.581 47.1672Z" fill="#DCE6F2"/>
<path d="M75.8653 45.5748L73.8911 46.7387C73.8911 46.7387 73.8073 46.577 73.6927 46.3636C73.4863 45.9676 73.1766 45.3711 73.0895 45.1577C72.9572 44.8344 72.0992 44.4367 72.0992 44.4367C69.9105 42.4969 72.3589 40.6622 72.3589 40.6622C73.5863 37.9254 75.2105 41.4704 75.2105 41.4704C75.2105 41.4704 75.4879 43.3569 75.3476 43.4911C75.2073 43.6252 75.2266 44.1377 75.2266 44.1377C75.4343 44.4996 75.6118 44.8781 75.7573 45.2693C75.8282 45.4584 75.8653 45.5748 75.8653 45.5748Z" fill="#FFCDD3"/>
<path opacity="0.1" d="M75.866 45.5746L73.8917 46.7385C73.8917 46.7385 73.8079 46.5769 73.6934 46.3635C73.9692 46.1146 74.9466 45.2546 75.2805 45.2788C75.4414 45.2941 75.6034 45.2941 75.7643 45.2788C75.8289 45.4583 75.866 45.5746 75.866 45.5746Z" fill="black"/>
<path d="M76.094 46.1792L73.8714 47.3851L73.8069 46.9001L73.7617 46.5639C73.7617 46.5639 75.0327 45.3854 75.4214 45.4129C75.6189 45.4332 75.8182 45.4251 76.0134 45.3887L76.0553 45.7977L76.094 46.1792Z" fill="#DCE6F2"/>
<path d="M101.165 52.8213C101.165 52.8213 91.3264 54.3198 93.149 53.6473C94.4184 53.1785 94.899 52.3395 94.97 51.4262C95.0281 50.6616 94.8087 49.8452 94.5152 49.1485C94.2576 48.5325 93.9382 47.9443 93.5619 47.3929C93.5619 47.3929 100.957 42.9362 99.5975 46.7787C99.3856 47.3601 99.2643 47.9708 99.2378 48.5892C99.2145 49.2032 99.3036 49.8162 99.5007 50.3981C99.8216 51.3444 100.398 52.1831 101.165 52.8213Z" fill="#FFCDD3"/>
<path opacity="0.1" d="M99.5971 46.779C99.3853 47.3605 99.264 47.9711 99.2375 48.5895C98.5487 49.2168 97.7665 49.2071 96.7648 49.2459C95.9939 49.275 95.1519 49.4948 94.5197 49.1472C94.2621 48.5312 93.9427 47.943 93.5664 47.3917C93.5664 47.3917 100.957 42.9365 99.5971 46.779Z" fill="black"/>
<path d="M96.478 49.5174C98.7371 49.5174 100.568 47.682 100.568 45.4179C100.568 43.1538 98.7371 41.3184 96.478 41.3184C94.219 41.3184 92.3877 43.1538 92.3877 45.4179C92.3877 47.682 94.219 49.5174 96.478 49.5174Z" fill="#FFCDD3"/>
<path opacity="0.1" d="M101.165 52.8219C101.165 52.8219 91.3264 54.3204 93.149 53.6479C94.4184 53.1791 94.899 52.3401 94.97 51.4268C95.4426 50.8739 96.4216 50.4569 97.0426 50.2209C97.615 50.0038 98.2403 49.9693 98.8329 50.1223C99.0663 50.182 99.2896 50.2757 99.4958 50.4003C99.8183 51.3466 100.396 52.1848 101.165 52.8219Z" fill="black"/>
<path opacity="0.1" d="M106.581 47.1673L104.709 47.6781L104.657 47.3984C104.849 47.112 105.124 46.8917 105.445 46.7676C105.766 46.6435 106.117 46.6216 106.451 46.7049L106.581 47.1673Z" fill="black"/>
<path opacity="0.1" d="M76.0947 46.1794L73.8721 47.3853L73.8076 46.9003C74.5996 46.3895 75.9399 45.8447 76.056 45.7979L76.0947 46.1794Z" fill="black"/>
<path opacity="0.1" d="M106.033 77.6311C102.23 78.3844 96.8121 79.3834 95.9379 79.1523C95.2121 78.9615 92.9234 79.073 90.9379 79.2185C90.9153 78.2163 90.9072 77.5535 90.9072 77.5535L105.685 75.4326C105.685 75.4326 105.691 76.1196 106.033 77.6311Z" fill="black"/>
<path d="M109.817 76.5827C109.817 76.5827 97.2961 79.237 95.9267 78.8765C94.5573 78.5161 87.6315 79.2306 87.6315 79.2306C84.5863 81.4501 85.7734 78.3027 85.7734 78.3027C85.7734 78.3027 85.4363 76.6958 85.7637 75.3735C85.9792 74.4046 86.114 73.4195 86.1669 72.4282C86.1669 72.4282 86.0185 70.3655 86.3782 69.8692C86.7379 69.373 87.0508 65.9136 87.0508 65.9136C87.0508 65.9136 87.304 63.5583 87.2508 63.0442C87.1976 62.5302 87.2782 61.0785 87.2782 61.0785L87.6315 58.6537C85.0508 58.408 77.0282 53.8914 77.0282 53.8914C76.5878 52.2878 73.5233 48.6151 73.5233 48.6151C73.4693 48.2983 73.3767 47.9894 73.2475 47.6953C73.0201 47.1521 76.0685 45.9316 76.0685 45.9316C76.0685 45.9316 78.4782 48.6652 78.9878 49.4039C79.4975 50.1427 81.2008 51.4893 81.2008 51.4893C81.4561 51.4549 81.7159 51.4793 81.9605 51.5604C81.9742 51.5629 81.9877 51.5667 82.0008 51.5717C82.5619 51.7699 83.0915 52.0481 83.5734 52.3978C84.8056 52.2814 85.6976 53.109 85.6976 53.109C85.6976 53.109 87.0976 52.8488 87.3476 53.0799C87.5976 53.3111 88.7895 53.025 88.7895 53.025C88.7895 53.025 89.8944 50.4304 90.7121 51.1401C91.5299 51.8498 94.8815 51.6865 94.8815 51.6865C95.3057 51.0738 96.3751 50.605 97.0461 50.3593C97.6184 50.1422 98.2438 50.1078 98.8364 50.2607C99.0934 50.3263 99.3373 50.4357 99.5574 50.584L101.667 52.5012C101.667 52.5012 102.222 51.7221 102.151 51.5523C102.08 51.3826 102.827 51.2161 102.827 51.2161C102.827 51.2161 103.811 50.8669 104.185 50.7505C104.559 50.6341 104.92 51.0286 104.951 51.0641C104.938 51.0205 104.648 50.1977 104.724 49.5575C104.799 48.9174 104.264 48.3338 104.264 48.3338C105.353 45.3271 108.161 47.7017 108.161 47.7017C108.161 47.7017 108.532 49.307 108.28 49.9374C108.028 50.5679 108.628 51.8546 108.574 52.2005C108.519 52.5465 108.746 53.1252 108.772 53.7783C108.798 54.4314 108.498 55.6696 108.307 56.2338C108.117 56.798 106.533 58.0944 106.533 58.0944C106.533 58.0944 106.506 60.0601 105.828 61.2224C105.151 62.3847 105.746 66.2595 105.746 66.2595C105.746 66.2595 106.553 69.2614 107.445 70.1925C108.336 71.1237 109.817 76.5827 109.817 76.5827Z" fill="#656691"/>
<path opacity="0.1" d="M90.5733 54.6438C90.5733 54.6438 90.1523 53.5219 89.8039 53.433C89.4576 53.3195 89.1192 53.1829 88.791 53.024L88.9959 52.5908C88.9959 52.5908 90.3007 52.8963 90.5201 53.2665C90.7394 53.6367 90.5733 54.6438 90.5733 54.6438Z" fill="black"/>
<path opacity="0.1" d="M83.5746 52.3969C83.5182 52.7445 80.4746 53.1712 80.4746 53.1712L81.9601 51.5547L81.9988 51.5676C82.5612 51.7665 83.092 52.0458 83.5746 52.3969Z" fill="black"/>
<path d="M74.5486 48.2889C74.7 48.2889 74.8228 48.1658 74.8228 48.0141C74.8228 47.8623 74.7 47.7393 74.5486 47.7393C74.3972 47.7393 74.2744 47.8623 74.2744 48.0141C74.2744 48.1658 74.3972 48.2889 74.5486 48.2889Z" fill="#575988"/>
<path d="M74.9217 48.826C75.0731 48.826 75.1959 48.7029 75.1959 48.5512C75.1959 48.3994 75.0731 48.2764 74.9217 48.2764C74.7702 48.2764 74.6475 48.3994 74.6475 48.5512C74.6475 48.7029 74.7702 48.826 74.9217 48.826Z" fill="#575988"/>
<path d="M75.2849 49.3201C75.4364 49.3201 75.5591 49.1971 75.5591 49.0453C75.5591 48.8935 75.4364 48.7705 75.2849 48.7705C75.1335 48.7705 75.0107 48.8935 75.0107 49.0453C75.0107 49.1971 75.1335 49.3201 75.2849 49.3201Z" fill="#575988"/>
<path d="M75.6668 49.8572C75.8182 49.8572 75.941 49.7342 75.941 49.5824C75.941 49.4307 75.8182 49.3076 75.6668 49.3076C75.5153 49.3076 75.3926 49.4307 75.3926 49.5824C75.3926 49.7342 75.5153 49.8572 75.6668 49.8572Z" fill="#575988"/>
<path d="M108.038 48.5285C108.161 48.5285 108.262 48.4279 108.262 48.3038C108.262 48.1797 108.161 48.0791 108.038 48.0791C107.914 48.0791 107.813 48.1797 107.813 48.3038C107.813 48.4279 107.914 48.5285 108.038 48.5285Z" fill="#575988"/>
<path d="M108.091 49.0344C108.215 49.0344 108.316 48.9338 108.316 48.8097C108.316 48.6856 108.215 48.585 108.091 48.585C107.968 48.585 107.867 48.6856 107.867 48.8097C107.867 48.9338 107.968 49.0344 108.091 49.0344Z" fill="#575988"/>
<path d="M108.141 49.5402C108.265 49.5402 108.365 49.4396 108.365 49.3155C108.365 49.1914 108.265 49.0908 108.141 49.0908C108.017 49.0908 107.917 49.1914 107.917 49.3155C107.917 49.4396 108.017 49.5402 108.141 49.5402Z" fill="#575988"/>
<path opacity="0.1" d="M90.9493 63.9708C90.9155 63.9304 99.0333 73.4308 104.82 67.5369C104.827 67.5369 95.38 69.1938 90.9493 63.9708Z" fill="black"/>
<path opacity="0.1" d="M86.6943 69.2356C86.6943 69.2356 91.3315 69.1839 91.867 70.4998L91.9202 71.89C91.7915 71.9689 91.6447 72.0134 91.4939 72.0193C91.3432 72.0253 91.1934 71.9924 91.0589 71.9239C90.575 71.6879 87.7266 70.3704 86.7653 71.0946L86.6943 69.2356Z" fill="black"/>
<path d="M86.7832 69.2327C86.7832 69.2327 91.2187 69.1826 91.73 70.4386L91.7816 71.7626C91.6583 71.8376 91.5179 71.88 91.3737 71.8856C91.2295 71.8913 91.0863 71.8601 90.9574 71.7949C90.501 71.5718 87.7703 70.3142 86.8509 71.006L86.7832 69.2327Z" fill="#656691"/>
<path opacity="0.1" d="M88.8379 59.0645C89.354 60.1436 89.9973 61.1568 90.754 62.0825C91.5781 63.1077 92.5637 63.9912 93.6718 64.6981C93.6718 64.6981 88.9411 59.6917 88.8379 59.0645Z" fill="black"/>
<path opacity="0.1" d="M87.1152 53.7207C87.1152 53.7207 88.0169 57.0346 90.0524 58.0934L87.1152 53.7207Z" fill="black"/>
<path opacity="0.1" d="M85.9442 54.1036C85.9216 54.0421 85.3587 56.7741 88.67 58.1449C88.67 58.1465 87.27 57.7294 85.9442 54.1036Z" fill="black"/>
<path opacity="0.1" d="M106.087 51.0806C106.035 51.0806 107.734 52.0764 108.202 52.5501C108.202 52.5501 107.063 50.982 106.087 51.0806Z" fill="black"/>
<path d="M95.5166 49.1745C95.5828 49.3831 95.6634 49.611 95.857 49.7145C95.979 49.7691 96.1123 49.7935 96.2457 49.7856C97.4941 49.8163 98.7925 49.8212 99.9264 49.3006C100.139 49.2158 100.327 49.0798 100.475 48.9046C100.67 48.6459 100.696 48.3032 100.767 47.9864C100.904 47.3689 101.228 46.8096 101.454 46.2179C101.834 45.2173 101.932 44.1313 101.738 43.0786C101.694 42.755 101.575 42.4462 101.391 42.1766C101.043 41.7159 100.433 41.5478 99.9812 41.1889C99.5296 40.83 99.2264 40.2642 98.7054 40.0007C98.236 39.7631 97.6747 39.8148 97.1602 39.9231C96.1468 40.137 95.1837 40.5436 94.3231 41.121C94.0344 41.3134 93.7182 41.5364 93.3747 41.4847C93.0731 41.4411 92.8473 41.197 92.6456 40.969C92.4242 41.54 92.3429 42.156 92.4085 42.765C92.4238 42.8543 92.4238 42.9456 92.4085 43.035C92.37 43.1435 92.309 43.2427 92.2295 43.3259C91.9359 43.6961 91.765 44.2684 92.0827 44.6192C92.2214 44.7711 92.4279 44.8487 92.5666 45.0039C92.8085 45.2836 92.7472 45.7006 92.7553 46.0692C92.7469 46.1975 92.784 46.3246 92.8601 46.4281C92.929 46.4873 93.0119 46.5278 93.1009 46.5456C93.1899 46.5634 93.2819 46.558 93.3682 46.5299C93.5401 46.4702 93.7222 46.4454 93.9037 46.4572C94.0995 46.5123 94.2703 46.6333 94.3876 46.7999C94.986 47.5031 95.2424 48.3 95.5166 49.1745Z" fill="#2D293D"/>
<g opacity="0.1">
<path opacity="0.1" d="M100.599 48.5805C100.452 48.7552 100.264 48.8908 100.052 48.975C98.9234 49.5003 97.6201 49.4955 96.3701 49.4599C96.2368 49.4668 96.1037 49.4424 95.9814 49.3888C95.7895 49.2853 95.7072 49.0558 95.6411 48.8473C95.3669 47.9743 95.1104 47.1758 94.5121 46.4645C94.3941 46.299 94.2234 46.1787 94.0282 46.1234C93.8468 46.1118 93.6649 46.136 93.4927 46.1945C93.4063 46.2228 93.3141 46.2285 93.2248 46.211C93.1356 46.1934 93.0524 46.1533 92.983 46.0943C92.9077 45.9898 92.8706 45.8625 92.8782 45.7338C92.8701 45.3652 92.9314 44.9482 92.6911 44.6701C92.5556 44.5085 92.3491 44.4374 92.2072 44.2838C92.1173 44.1699 92.0596 44.0338 92.0403 43.8899C92.021 43.746 92.0408 43.5995 92.0975 43.4658C91.8927 43.8215 91.8153 44.2741 92.0814 44.5651C92.2185 44.717 92.4266 44.7946 92.5653 44.9514C92.8072 45.2295 92.7459 45.6465 92.754 46.0151C92.7456 46.1434 92.7827 46.2705 92.8588 46.374C92.9277 46.4332 93.0106 46.4737 93.0996 46.4915C93.1885 46.5093 93.2806 46.5039 93.3669 46.4758C93.539 46.4169 93.7209 46.3921 93.9024 46.4031C94.0982 46.4582 94.269 46.5792 94.3863 46.7458C94.9911 47.457 95.2459 48.254 95.5153 49.1285C95.5814 49.3371 95.6621 49.565 95.8556 49.6701C95.9778 49.724 96.111 49.7484 96.2443 49.7412C97.4927 49.7703 98.7911 49.7752 99.925 49.2562C100.137 49.1714 100.325 49.036 100.473 48.8618C100.546 48.7584 100.6 48.6437 100.635 48.5223C100.625 48.5417 100.614 48.5579 100.599 48.5805Z" fill="black"/>
<path opacity="0.1" d="M92.4191 42.9173C92.4722 42.8557 92.5118 42.7835 92.5352 42.7055C92.5513 42.6168 92.5513 42.5259 92.5352 42.4372C92.4809 41.9369 92.5264 41.4308 92.6691 40.9484L92.6449 40.9209C92.4235 41.4919 92.3422 42.1078 92.4078 42.7168C92.4179 42.7831 92.4217 42.8503 92.4191 42.9173Z" fill="black"/>
</g>
<path opacity="0.1" d="M94.8838 51.6854C94.8838 51.6854 100.014 52.1704 100.445 51.3799L94.8838 51.6854Z" fill="black"/>
<path opacity="0.1" d="M104.727 49.1846C104.727 49.1846 107.564 49.0795 108.228 50.1206L104.727 49.1846Z" fill="black"/>
<path d="M166.761 103.196C166.761 103.196 167.717 104.449 166.319 106.342C164.921 108.235 163.769 109.832 164.235 111.012C164.235 111.012 166.345 107.498 168.061 107.448C169.777 107.398 168.65 105.307 166.761 103.196Z" fill="#0075FF"/>
<path opacity="0.1" d="M166.762 103.196C166.846 103.317 166.912 103.449 166.957 103.589C168.633 105.561 169.525 107.403 167.915 107.448C166.415 107.491 164.615 110.18 164.185 110.857C164.199 110.912 164.216 110.966 164.236 111.019C164.236 111.019 166.346 107.504 168.062 107.454C169.778 107.404 168.651 105.307 166.762 103.196Z" fill="black"/>
<path d="M168.54 104.792C168.54 105.233 168.49 105.59 168.429 105.59C168.368 105.59 168.319 105.233 168.319 104.792C168.319 104.35 168.381 104.559 168.442 104.559C168.503 104.559 168.54 104.35 168.54 104.792Z" fill="#FFD037"/>
<path d="M169.151 105.319C168.764 105.529 168.427 105.657 168.398 105.603C168.368 105.55 168.659 105.335 169.043 105.118C169.427 104.902 169.277 105.06 169.307 105.118C169.338 105.177 169.536 105.107 169.151 105.319Z" fill="#FFD037"/>
<path d="M161.709 103.196C161.709 103.196 160.752 104.449 162.149 106.342C163.546 108.235 164.701 109.832 164.235 111.012C164.235 111.012 162.125 107.498 160.409 107.448C158.693 107.398 159.82 105.307 161.709 103.196Z" fill="#0075FF"/>
<path opacity="0.1" d="M161.709 103.196C161.625 103.317 161.559 103.449 161.514 103.589C159.838 105.561 158.946 107.403 160.556 107.448C162.056 107.491 163.854 110.18 164.286 110.857C164.272 110.912 164.255 110.966 164.235 111.019C164.235 111.019 162.125 107.504 160.409 107.454C158.693 107.404 159.82 105.307 161.709 103.196Z" fill="black"/>
<path d="M159.93 104.792C159.93 105.233 159.98 105.59 160.041 105.59C160.102 105.59 160.151 105.233 160.151 104.792C160.151 104.35 160.089 104.559 160.028 104.559C159.967 104.559 159.93 104.35 159.93 104.792Z" fill="#FFD037"/>
<path d="M159.321 105.319C159.708 105.529 160.045 105.657 160.074 105.603C160.103 105.55 159.813 105.335 159.429 105.118C159.045 104.902 159.193 105.06 159.164 105.118C159.135 105.177 158.934 105.107 159.321 105.319Z" fill="#FFD037"/>
<path opacity="0.1" d="M164.233 120.6C169.756 120.6 174.234 119.912 174.234 119.063C174.234 118.214 169.756 117.525 164.233 117.525C158.711 117.525 154.233 118.214 154.233 119.063C154.233 119.912 158.711 120.6 164.233 120.6Z" fill="#0075FF"/>
<path d="M169.382 109.322L169.333 109.713L169.267 110.266L169.24 110.497L169.172 111.05L169.143 111.281L169.075 111.832L168.311 118.12C168.241 118.681 167.327 119.119 166.224 119.119H162.246C161.141 119.119 160.228 118.681 160.161 118.12L159.393 111.832L159.327 111.281L159.299 111.05L159.23 110.497L159.203 110.266L159.135 109.713L159.088 109.322C159.049 108.998 159.545 108.736 160.169 108.736H168.308C168.925 108.736 169.422 109.003 169.382 109.322Z" fill="#65617D"/>
<path d="M169.334 109.712L169.266 110.265H159.202L159.136 109.712H169.334Z" fill="#9D9CB5"/>
<path d="M169.239 110.494L169.172 111.049H159.298L159.23 110.494H169.239Z" fill="#9D9CB5"/>
<path d="M169.142 111.278L169.076 111.831H159.394L159.326 111.278H169.142Z" fill="#9D9CB5"/>
</g>
<defs>
<linearGradient id="paint0_linear" x1="98.3591" y1="108.96" x2="98.3591" y2="21.9375" gradientUnits="userSpaceOnUse">
<stop stop-color="#808080" stop-opacity="0.25"/>
<stop offset="0.54" stop-color="#808080" stop-opacity="0.12"/>
<stop offset="1" stop-color="#808080" stop-opacity="0.1"/>
</linearGradient>
<linearGradient id="paint1_linear" x1="30126" y1="68298" x2="28383" y2="23026.9" gradientUnits="userSpaceOnUse">
<stop stop-color="#808080" stop-opacity="0.25"/>
<stop offset="0.54" stop-color="#808080" stop-opacity="0.12"/>
<stop offset="1" stop-color="#808080" stop-opacity="0.1"/>
</linearGradient>
<clipPath id="clip0">
<rect width="175" height="133" fill="white"/>
</clipPath>
</defs>
</svg>