<svg width="160" height="133" viewBox="0 0 160 133" fill="none" xmlns="http://www.w3.org/2000/svg">
<g clip-path="url(#clip0)">
<path opacity="0.1" d="M50.8474 4.96926C55.7384 0.610561 63.4182 -0.274528 70.4067 0.0687022C92.3607 1.16036 112.177 11.7576 129.318 23.7452C135.523 28.0848 141.633 32.7614 145.661 38.7377C153.861 50.9049 151.43 67.7581 140.027 77.7801C136.148 81.1901 131.446 83.8057 126.617 86.1225C118.036 90.2428 108.771 93.5496 99.0283 94.4919C92.0795 95.1625 85.0448 94.6174 78.1389 93.6799C58.8418 91.0628 39.899 85.2755 24.023 75.3743C17.0599 71.0315 10.4956 65.6336 7.62583 58.6085C4.75605 51.5834 6.59296 42.6801 13.7023 38.5216C16.6436 36.8023 20.1601 36.0252 23.6019 35.2959C28.6693 34.2217 33.8178 33.1634 38.3894 30.9816C43.112 28.7268 48.7054 24.3665 47.7647 19.3817C46.7668 14.0251 45.9611 9.3232 50.8474 4.96926Z" fill="#0075FF"/>
<path opacity="0.1" d="M153.726 133C156.658 133 159.036 132.598 159.036 132.102C159.036 131.606 156.658 131.204 153.726 131.204C150.793 131.204 148.415 131.606 148.415 132.102C148.415 132.598 150.793 133 153.726 133Z" fill="#0075FF"/>
<path opacity="0.1" d="M62.5187 125.216C75.5703 125.216 86.1507 123.343 86.1507 121.033C86.1507 118.722 75.5703 116.849 62.5187 116.849C49.4671 116.849 38.8867 118.722 38.8867 121.033C38.8867 123.343 49.4671 125.216 62.5187 125.216Z" fill="#0075FF"/>
<path opacity="0.1" d="M125.98 122.851C132.614 122.851 137.992 121.666 137.992 120.205C137.992 118.744 132.614 117.56 125.98 117.56C119.346 117.56 113.969 118.744 113.969 120.205C113.969 121.666 119.346 122.851 125.98 122.851Z" fill="#0075FF"/>
<path d="M154.822 120.765C154.822 120.765 155.798 122.036 154.372 123.965C152.947 125.894 151.773 127.516 152.248 128.716C152.248 128.716 154.398 125.141 156.147 125.09C157.897 125.039 156.745 122.911 154.822 120.765Z" fill="#0075FF"/>
<path opacity="0.1" d="M154.822 120.765C154.907 120.888 154.975 121.023 155.022 121.165C156.729 123.172 157.639 125.044 155.998 125.09C154.469 125.134 152.634 127.869 152.195 128.559C152.209 128.613 152.227 128.666 152.248 128.718C152.248 128.718 154.398 125.142 156.147 125.092C157.897 125.041 156.745 122.911 154.822 120.765Z" fill="black"/>
<path d="M156.636 122.39C156.636 122.839 156.585 123.202 156.523 123.202C156.461 123.202 156.41 122.839 156.41 122.39C156.41 121.94 156.474 122.153 156.536 122.153C156.598 122.153 156.636 121.942 156.636 122.39Z" fill="#FFD037"/>
<path d="M157.259 122.925C156.865 123.14 156.52 123.27 156.491 123.216C156.463 123.162 156.757 122.942 157.151 122.728C157.545 122.513 157.389 122.669 157.419 122.728C157.449 122.787 157.653 122.71 157.259 122.925Z" fill="#FFD037"/>
<path d="M149.672 120.765C149.672 120.765 148.696 122.036 150.121 123.965C151.547 125.894 152.722 127.516 152.247 128.716C152.247 128.716 150.096 125.141 148.346 125.09C146.597 125.039 147.746 122.911 149.672 120.765Z" fill="#0075FF"/>
<path opacity="0.1" d="M149.672 120.765C149.586 120.888 149.52 121.023 149.473 121.165C147.765 123.172 146.854 125.044 148.496 125.09C150.026 125.134 151.86 127.869 152.298 128.559C152.284 128.613 152.266 128.665 152.247 128.718C152.247 128.718 150.096 125.142 148.346 125.092C146.597 125.041 147.746 122.911 149.672 120.765Z" fill="black"/>
<path d="M147.859 122.39C147.859 122.839 147.91 123.202 147.972 123.202C148.034 123.202 148.085 122.839 148.085 122.39C148.085 121.94 148.021 122.153 147.959 122.153C147.898 122.153 147.859 121.942 147.859 122.39Z" fill="#FFD037"/>
<path d="M147.237 122.925C147.631 123.14 147.975 123.27 148.005 123.216C148.035 123.162 147.738 122.942 147.344 122.728C146.95 122.513 147.105 122.669 147.077 122.728C147.048 122.787 146.843 122.71 147.237 122.925Z" fill="#FFD037"/>
<path d="M148.164 128.549C148.164 128.549 150.889 128.465 151.711 127.88C152.532 127.295 155.906 126.596 156.109 127.535C156.313 128.474 160.206 132.202 157.128 132.226C154.05 132.25 149.977 131.749 149.156 131.247C148.334 130.745 148.164 128.549 148.164 128.549Z" fill="#A8A8A8"/>
<path opacity="0.2" d="M157.189 131.9C154.111 131.924 150.038 131.424 149.217 130.922C148.592 130.54 148.343 129.174 148.263 128.546H148.173C148.173 128.546 148.344 130.745 149.164 131.247C149.984 131.749 154.059 132.252 157.137 132.226C158.025 132.226 158.332 131.908 158.316 131.432C158.189 131.718 157.856 131.894 157.189 131.9Z" fill="black"/>
<path opacity="0.1" d="M5.31053 126.326C8.24345 126.326 10.6211 125.924 10.6211 125.428C10.6211 124.932 8.24345 124.53 5.31053 124.53C2.3776 124.53 0 124.932 0 125.428C0 125.924 2.3776 126.326 5.31053 126.326Z" fill="#0075FF"/>
<path d="M1.74316 121.257C1.74316 121.257 4.77344 121.163 5.68554 120.513C6.59764 119.863 10.3462 119.083 10.5734 120.13C10.8006 121.177 15.126 125.315 11.7064 125.344C8.28678 125.372 3.76123 124.81 2.84754 124.255C1.93385 123.701 1.74316 121.257 1.74316 121.257Z" fill="#A8A8A8"/>
<path opacity="0.2" d="M11.7667 124.977C8.34557 125.004 3.82161 124.445 2.90792 123.888C2.21352 123.466 1.93703 121.95 1.84486 121.249H1.74316C1.74316 121.249 1.93544 123.693 2.85548 124.248C3.77553 124.802 8.29313 125.36 11.7143 125.336C12.7011 125.336 13.0427 124.975 13.0237 124.456C12.8775 124.778 12.5009 124.977 11.7667 124.977Z" fill="black"/>
<path d="M24.8364 129.774C28.0318 129.774 30.6221 129.336 30.6221 128.795C30.6221 128.255 28.0318 127.816 24.8364 127.816C21.6411 127.816 19.0508 128.255 19.0508 128.795C19.0508 129.336 21.6411 129.774 24.8364 129.774Z" fill="#0075FF"/>
<path d="M27.2287 127.202C27.493 126.986 27.6858 126.696 27.7816 126.369C27.8516 126.038 27.7117 125.641 27.3955 125.52C27.0412 125.385 26.663 125.632 26.3769 125.88C26.0909 126.127 25.7604 126.41 25.3854 126.356C25.5785 126.181 25.723 125.959 25.8049 125.711C25.8867 125.464 25.9032 125.199 25.8526 124.944C25.8361 124.838 25.7911 124.739 25.7223 124.658C25.5252 124.446 25.1693 124.537 24.9277 124.702C24.1793 125.23 23.9743 126.245 23.9664 127.16C23.8917 126.83 23.9553 126.487 23.9521 126.148C23.9489 125.81 23.8583 125.435 23.5723 125.252C23.3944 125.156 23.1943 125.109 22.9923 125.115C22.657 125.104 22.282 125.137 22.0516 125.384C21.7672 125.689 21.8403 126.202 22.0882 126.539C22.336 126.876 22.7142 127.086 23.0622 127.318C23.3413 127.484 23.5792 127.711 23.7582 127.982C23.7791 128.02 23.7967 128.06 23.8107 128.101H25.9193C26.3945 127.862 26.835 127.559 27.2287 127.202Z" fill="#0075FF"/>
<path d="M65.5443 74.6111L64.5654 74.3203L64.6115 75.0322L66.8028 75.8696L66.4055 74.6906L65.5443 74.6111Z" fill="#0075FF"/>
<path opacity="0.03" d="M65.5443 74.6111L64.5654 74.3203L64.6115 75.0322L66.8028 75.8696L66.4055 74.6906L65.5443 74.6111Z" fill="black"/>
<path d="M96.7135 106.425C105.057 97.9779 109.727 86.5782 109.71 74.7052C109.71 74.5781 109.71 74.451 109.71 74.3223H64.6104L96.7135 106.425Z" fill="#0075FF"/>
<path opacity="0.03" d="M96.7135 106.425C105.057 97.9779 109.727 86.5782 109.71 74.7052C109.71 74.5781 109.71 74.451 109.71 74.3223H64.6104L96.7135 106.425Z" fill="black"/>
<path d="M96.7135 107.135C105.057 98.6879 109.727 87.2882 109.71 75.4152C109.71 75.2865 109.71 75.1593 109.71 75.0322H64.6104L96.7135 107.135Z" fill="#0075FF"/>
<path opacity="0.15" d="M96.7135 107.135C105.057 98.6879 109.727 87.2882 109.71 75.4152C109.71 75.2865 109.71 75.1593 109.71 75.0322H64.6104L96.7135 107.135Z" fill="white"/>
<path d="M137.737 67.4542L137.041 61.1728C137.041 61.1728 135.781 55.5175 135.601 52.6906C135.422 49.8637 134.06 49.6571 134.049 49.6571C134.049 49.6571 132.369 48.6751 132.22 48.3478C132.104 48.0967 131.171 47.5628 130.748 47.3276L130.542 47.218C130.542 47.218 130.017 45.0331 129.393 45.3461L129.342 45.1983C129.178 44.7283 129.079 44.238 129.048 43.7412C129.048 43.6792 129.048 43.6188 129.048 43.5585C129.735 42.8898 130.229 42.0483 130.478 41.1225C130.563 40.7967 130.616 40.4636 130.637 40.1277C130.637 40.0658 130.637 40.0022 130.637 39.9386C130.944 39.7241 130.994 39.2697 131.076 38.8899C131.225 38.1939 131.616 37.571 131.802 36.8845C131.818 36.8257 131.83 36.7654 131.841 36.7034C131.841 36.6907 131.841 36.678 131.841 36.6637C131.864 36.5378 131.876 36.4102 131.878 36.2823C131.878 36.2728 131.878 36.2648 131.878 36.2553C131.878 35.7373 131.719 35.2288 131.29 34.9523C131.191 34.901 131.099 34.8369 131.017 34.7616C130.956 34.6863 130.908 34.6008 130.877 34.5089L130.559 33.7526C130.525 33.6533 130.471 33.562 130.4 33.484C130.274 33.3883 130.13 33.3196 129.976 33.2822C129.499 33.0995 129.181 32.6561 128.948 32.2144C128.714 31.7726 128.5 31.2959 128.136 30.9432C127.545 30.3791 126.668 30.2599 125.854 30.1709C125.794 30.4252 125.774 30.6875 125.797 30.9479C124.505 30.6651 123.095 30.3934 121.905 30.9638C121.694 31.0513 121.523 31.216 121.429 31.4246C121.421 31.4491 121.414 31.4741 121.409 31.4993C121.406 31.5316 121.406 31.564 121.409 31.5963C121.425 31.6656 121.432 31.7366 121.43 31.8076C121.416 31.8563 121.391 31.9011 121.357 31.9382C121.322 31.9752 121.279 32.0034 121.232 32.0205C120.841 32.1937 120.369 31.9697 119.96 32.1079C119.587 32.235 119.38 32.6275 119.264 33.0025C119.148 33.3776 119.074 33.7796 118.821 34.0799C118.694 34.2388 118.527 34.3453 118.395 34.4931C118.276 34.6302 118.187 34.7914 118.135 34.9658C118.083 35.1401 118.07 35.3235 118.095 35.5037C118.094 35.5132 118.094 35.5228 118.095 35.5323C118.095 35.5799 118.112 35.6276 118.125 35.6753C118.142 35.7295 118.162 35.7826 118.185 35.8342C118.208 35.8803 118.231 35.9248 118.257 35.9693C118.435 36.2696 118.7 36.5302 118.767 36.8702C118.767 36.8702 118.767 36.8798 118.767 36.8829C118.845 37.3199 118.567 37.7363 118.497 38.1717C118.497 38.2066 118.487 38.24 118.486 38.2749C118.486 38.2749 118.486 38.2749 118.486 38.2845C118.486 38.3194 118.486 38.356 118.486 38.3925C118.51 39.0281 119.093 39.4492 119.439 39.9164C119.531 40.0403 119.703 40.4011 119.887 40.5361C119.897 40.6045 119.908 40.6712 119.922 40.7363C120.019 41.2523 120.194 41.7506 120.44 42.2141C121.042 43.3449 122.026 44.2252 123.216 44.6978C123.216 44.7598 123.229 44.8233 123.235 44.8869C123.235 45.0045 123.251 45.1252 123.251 45.2428C123.251 45.3 123.251 45.3572 123.251 45.4144L123.199 45.0108C123.002 44.9698 122.799 44.9671 122.601 45.0029C114.1 36.9871 102.858 32.5221 91.1735 32.5211V54.4639C89.8609 54.0699 88.7899 54.0254 88.8694 54.9534C88.9425 55.9068 89.9817 56.8729 91.1735 57.6722V78.5028H114.094C114.117 79.0335 114.165 79.5102 114.253 79.6262C114.499 79.9249 114.477 83.5034 114.477 83.5034C114.477 83.5034 114.597 84.1597 114.628 84.2773C114.658 84.3949 115.017 87.4331 115.017 87.5809C115.017 87.7286 115.347 88.7726 115.317 89.189C115.287 89.6053 115.857 90.9734 115.857 90.9734L115.946 93.4746C115.946 93.4746 116.876 94.8745 116.936 94.9635C116.997 95.0525 116.967 96.8083 117.985 97.6426C118.146 97.7959 118.261 97.9914 118.316 98.2067C118.392 98.5086 120.95 102.805 121.742 104.131L121.646 104.58L121.011 107.553L120.98 108.804C120.98 108.804 120.59 109.875 120.71 110.321C120.783 110.552 120.804 110.797 120.771 111.036C120.771 111.036 120.351 111.69 120.621 112.107C120.891 112.525 120.741 112.762 120.351 113.833C120.18 114.31 120.327 114.591 120.547 114.766C120.547 114.818 120.534 114.874 120.528 114.925C120.472 115.402 120.41 115.947 120.41 116.091C120.41 116.236 120.354 116.886 120.351 117.458C120.351 117.911 120.38 118.317 120.501 118.384C120.771 118.532 122.271 118.702 122.299 119.217C122.328 119.732 122.9 120.466 124.098 120.466C125.296 120.466 127.367 120.049 127.875 120.108C127.959 120.119 128.009 120.064 128.034 119.965C128.039 119.949 128.042 119.932 128.045 119.914C128.226 120.119 128.474 120.251 128.744 120.288C130.543 120.617 132.731 119.811 133.152 119.009C133.205 118.908 133.245 118.801 133.273 118.691C133.473 117.896 133.152 116.897 133.152 116.897C133.057 116.494 133.044 116.075 133.114 115.667C133.151 115.483 133.236 115.312 133.361 115.173C133.648 114.871 133.926 114.041 134.114 113.374C134.258 112.854 134.351 112.432 134.351 112.432C134.351 112.432 134.161 112.142 133.874 111.745C133.297 110.936 132.323 109.679 131.714 109.465C131.684 109.406 131.663 109.343 131.651 109.277C131.622 108.98 130.991 108.006 130.991 108.006C130.991 108.006 130.122 106.606 130.122 106.489C130.122 106.371 128.924 104.553 128.924 104.553C128.924 104.553 128.463 103.554 128.16 103.012C128.195 102.917 128.23 102.796 128.266 102.653C128.584 101.401 128.902 98.542 128.833 98.1543C128.743 97.6775 128.675 97.1722 129.132 96.4874C129.59 95.8025 129.553 94.7029 129.553 94.7029C129.553 94.7029 129.523 91.3373 129.852 90.654C130.181 89.9708 131.11 84.4934 131.082 84.3726C131.053 84.2518 131.32 83.5034 131.32 83.5034L131.376 81.3439V81.212C131.376 81.212 131.586 79.337 131.853 78.9191C131.909 78.7903 131.937 78.6511 131.935 78.5107H136.882C136.882 78.212 136.871 77.9148 136.863 77.6177H136.882C136.866 75.5345 136.707 73.4548 136.405 71.3934C136.869 70.8309 137.43 70.44 137.448 70.3193C137.527 69.9531 137.637 69.5942 137.776 69.2467C137.977 68.6444 137.737 67.4542 137.737 67.4542ZM127.753 114.033C127.753 114.033 127.88 113.957 128.087 113.851C128.099 113.902 128.112 113.956 128.125 114.01C128.258 114.585 128.419 115.382 128.382 115.757C128.32 116.382 128.223 117.366 128.223 117.366C128.055 117.721 127.928 118.094 127.843 118.478C127.748 118.085 127.654 117.776 127.654 117.776C127.654 117.776 125.614 116.409 125.614 115.723C125.6 115.378 125.553 115.036 125.474 114.701C125.457 114.615 125.438 114.532 125.419 114.451C125.507 114.559 125.583 114.677 125.644 114.802C125.644 114.802 126.253 113.326 126.399 112.737C126.426 112.665 126.434 112.587 126.424 112.511C126.38 112.311 126.368 112.105 126.388 111.901C126.531 112.06 126.641 112.219 126.604 112.333C126.521 112.605 127.753 114.033 127.753 114.033Z" fill="url(#paint0_linear)"/>
<path d="M127.918 120.266C127.416 120.207 125.376 120.62 124.19 120.62C123.005 120.62 122.442 119.883 122.415 119.378C122.388 118.872 120.907 118.699 120.64 118.551C120.523 118.485 120.493 118.075 120.494 117.63C120.494 117.062 120.551 116.42 120.551 116.271C120.551 116.122 120.612 115.585 120.667 115.113C120.715 114.704 120.76 114.35 120.76 114.35C122.15 112.664 125.317 113.905 125.317 113.905C125.317 113.905 125.452 114.374 125.562 114.898C125.64 115.231 125.686 115.571 125.7 115.913C125.7 116.595 127.713 117.955 127.713 117.955C127.849 118.417 127.961 118.885 128.047 119.358C128.128 119.859 128.142 120.293 127.918 120.266Z" fill="#53517C"/>
<path opacity="0.1" d="M127.918 120.264C127.416 120.207 125.376 120.62 124.192 120.62C123.008 120.62 122.444 119.882 122.417 119.378C122.39 118.874 120.907 118.698 120.64 118.55C120.523 118.485 120.493 118.073 120.494 117.63C121.06 117.801 121.848 118.083 122.121 118.374C122.565 118.85 122.682 119.378 122.979 119.438C123.277 119.499 123.571 119.915 124.99 119.556C125.876 119.333 127.186 119.332 128.047 119.362C128.128 119.859 128.142 120.292 127.918 120.264Z" fill="black"/>
<path d="M133.332 115.355C132.83 115.888 133.127 117.07 133.127 117.07C133.127 117.07 133.54 118.373 133.127 119.172C132.714 119.971 130.553 120.761 128.778 120.443C128.608 120.424 128.446 120.364 128.306 120.267C128.165 120.171 128.05 120.041 127.971 119.89C127.537 119.035 128.274 117.543 128.274 117.543C128.274 117.543 128.363 116.568 128.424 115.946C128.459 115.571 128.3 114.778 128.169 114.206C128.082 113.831 128.01 113.55 128.01 113.55C128.01 113.55 130.712 109.675 131.532 109.646C131.571 109.644 131.61 109.648 131.648 109.659C132.242 109.805 133.254 111.117 133.844 111.948C134.125 112.346 134.313 112.633 134.313 112.633C134.313 112.633 133.837 114.823 133.332 115.355Z" fill="#53517C"/>
<path opacity="0.1" d="M133.332 115.356C132.83 115.888 133.127 117.071 133.127 117.071C133.127 117.071 133.54 118.374 133.127 119.171C132.714 119.969 130.553 120.77 128.778 120.443C128.609 120.423 128.447 120.363 128.306 120.267C128.165 120.171 128.05 120.042 127.971 119.891C128.482 119.783 129.288 119.645 130.553 119.497C133.599 119.141 132.8 117.131 132.8 117.131C132.8 117.131 132.445 115.71 132.889 115C133.207 114.496 133.624 112.855 133.842 111.949C134.125 112.345 134.311 112.633 134.311 112.633C134.311 112.633 133.837 114.824 133.332 115.356Z" fill="black"/>
<path opacity="0.1" d="M125.562 114.898C125.138 114.318 123.883 113.201 121.351 115.384C121.104 115.355 120.868 115.261 120.668 115.113C120.716 114.704 120.76 114.35 120.76 114.35C122.151 112.664 125.317 113.905 125.317 113.905C125.317 113.905 125.453 114.374 125.562 114.898Z" fill="black"/>
<path d="M131.381 81.5962V81.7265L131.32 83.8764C131.32 83.8764 131.053 84.6169 131.084 84.7345C131.114 84.8521 130.197 90.2961 129.87 90.9762C129.542 91.6563 129.572 95.0012 129.572 95.0012C129.572 95.0012 129.601 96.0945 129.156 96.7761C128.711 97.4578 128.778 97.9631 128.867 98.4399C128.94 98.8244 128.621 101.667 128.308 102.911C128.274 103.109 128.202 103.299 128.096 103.469C128.065 103.51 128.04 103.556 128.025 103.606C127.599 104.704 126.499 111.486 126.499 111.486C126.499 111.486 126.488 111.616 126.477 111.794C126.458 112.121 126.44 112.614 126.499 112.728C126.509 112.804 126.5 112.881 126.474 112.952C126.331 113.539 125.73 115.007 125.73 115.007C125.73 115.007 124.577 112.433 121.351 115.214C121.351 115.214 120.108 115.094 120.494 114.03C120.88 112.965 121.027 112.728 120.76 112.315C120.493 111.902 120.907 111.251 120.907 111.251C120.941 111.012 120.921 110.77 120.849 110.54C120.729 110.097 121.116 109.032 121.116 109.032L121.146 107.79L121.769 104.834L121.956 103.944L122.15 103.024L123.183 85.092L123.223 84.4246L123.512 79.389L130.492 78.2354L130.731 80.0675L131.109 80.9669L131.381 81.5962Z" fill="#B3D7F7"/>
<path opacity="0.1" d="M128.077 81.323L123.801 84.1387L123.96 86.6033C123.96 86.6033 124.403 90.5679 124.403 90.9811C124.403 91.3942 124.195 94.7677 124.195 94.7677C124.195 94.7677 125.261 96.3568 125.148 96.7508C125.036 97.1449 126.064 98.2286 126.064 98.2286L127.824 101.597C127.824 101.597 128.121 102.697 128.301 102.904C128.267 103.101 128.195 103.291 128.09 103.461C127.735 103.816 126.493 111.478 126.493 111.478C126.493 111.478 126.482 111.608 126.47 111.786C126.38 111.705 126.312 111.656 126.312 111.656C126.312 111.656 125.454 110.235 125.454 110.089C125.454 109.943 124.537 108.758 124.537 108.758L122.445 104.764L121.956 103.936L122.15 103.016L123.512 79.3812L130.492 78.2275L130.731 80.0597L124.375 81.6789L128.077 81.323Z" fill="black"/>
<path opacity="0.1" d="M131.025 81.5963L123.217 84.4168L123.506 79.3812L130.487 78.2275L130.725 80.0597L131.103 80.9591C131.055 81.323 131.025 81.5963 131.025 81.5963Z" fill="black"/>
<path opacity="0.1" d="M126.499 112.721C126.509 112.797 126.5 112.874 126.474 112.945C126.364 112.763 126.297 112.613 126.315 112.545C126.404 112.278 125.604 111.657 125.604 111.657C125.604 111.657 124.748 110.236 124.748 110.09C124.748 109.944 123.829 108.758 123.829 108.758L121.764 104.827L121.951 103.937L122.145 103.017L123.183 85.0928L123.245 86.6071C123.245 86.6071 123.693 90.5638 123.693 90.9722C123.693 91.3806 123.486 94.7588 123.486 94.7588C123.486 94.7588 124.551 96.3479 124.44 96.7419C124.328 97.136 125.356 98.2197 125.356 98.2197L127.131 101.593C127.131 101.593 127.449 102.807 127.635 102.925C127.796 103.13 127.931 103.355 128.036 103.594C127.61 104.692 126.51 111.474 126.51 111.474C126.51 111.474 126.499 111.604 126.488 111.782C126.458 112.114 126.44 112.607 126.499 112.721Z" fill="black"/>
<path opacity="0.1" d="M132.476 111.094C132.476 111.094 131.144 113.49 130.138 113.55C129.46 113.59 128.634 113.965 128.17 114.206C128.082 113.831 128.011 113.55 128.011 113.55C128.011 113.55 130.712 109.675 131.532 109.646C131.571 109.644 131.61 109.648 131.648 109.659C131.648 109.659 131.648 109.67 131.648 109.673C131.677 109.97 132.476 111.094 132.476 111.094Z" fill="black"/>
<path d="M132.476 110.916C132.476 110.916 131.145 113.312 130.139 113.372C129.133 113.433 127.803 114.23 127.803 114.23C127.803 114.23 126.589 112.81 126.676 112.544C126.764 112.279 125.968 111.656 125.968 111.656C125.968 111.656 125.11 110.236 125.11 110.089C125.11 109.943 124.191 108.758 124.191 108.758L122.092 104.765C122.092 104.765 118.572 98.8455 118.483 98.4911C118.429 98.277 118.316 98.0826 118.156 97.9302C117.152 97.1007 117.18 95.356 117.122 95.267L116.146 93.7876L116.057 91.3023C116.057 91.3023 115.494 89.9421 115.525 89.5274C115.555 89.1127 115.227 88.0782 115.227 87.9288C115.227 87.7795 114.873 84.7651 114.844 84.6459C114.816 84.5267 114.695 83.8768 114.695 83.8768C114.695 83.8768 114.725 80.3269 114.49 80.0298C114.36 79.8709 114.318 79.0335 114.309 78.3057C114.299 77.6971 114.309 77.1616 114.309 77.1616L131.733 75.3564C131.733 75.3564 131.841 76.3496 131.903 77.3443C131.958 78.2326 131.977 79.1256 131.852 79.3211C131.585 79.7358 131.375 81.5997 131.375 81.5997L123.506 84.4393L123.594 86.5988C123.594 86.5988 124.039 90.5635 124.039 90.9766C124.039 91.3897 123.83 94.7632 123.83 94.7632C123.83 94.7632 124.895 96.3523 124.784 96.7464C124.673 97.1404 125.699 98.2242 125.699 98.2242L127.474 101.598C127.474 101.598 127.801 102.812 127.978 102.929C128.154 103.047 128.957 104.796 128.957 104.796C128.957 104.796 130.139 106.603 130.139 106.721C130.139 106.838 130.997 108.23 130.997 108.23C130.997 108.23 131.618 109.206 131.647 109.501C131.675 109.797 132.476 110.916 132.476 110.916Z" fill="#B3D7F7"/>
<path opacity="0.1" d="M121.826 96.0059C121.826 96.0059 123.275 97.6632 124.014 97.6934C124.753 97.7236 121.826 96.0059 121.826 96.0059Z" fill="black"/>
<path opacity="0.1" d="M127.357 112.277C127.357 112.277 131.735 110.029 131.171 111.065C130.607 112.101 129.012 112.654 129.012 112.654L127.357 112.277Z" fill="black"/>
<path opacity="0.1" d="M121.648 111.775C121.648 111.775 124.34 111.952 124.695 112.397C124.695 112.397 121.826 111.804 121.648 111.775Z" fill="black"/>
<path opacity="0.1" d="M121.676 112.692C121.676 112.692 124.132 112.781 124.93 113.136C124.93 113.136 122.327 113.047 121.676 112.692Z" fill="black"/>
<path d="M97.4744 61.0986L96.6957 60.7426L95.4627 60.1801C95.4627 60.1801 89.6055 57.8426 89.4243 55.5068C89.2432 53.1709 96.2572 57.045 96.2572 57.045C96.4499 57.3533 96.6672 57.6456 96.9071 57.9189C97.1311 58.17 97.3838 58.3829 97.5888 58.4052C98.129 58.464 97.4744 61.0986 97.4744 61.0986Z" fill="#C37871"/>
<path d="M130.049 48.4353L128.126 50.66L123.452 49.1234L122.299 48.2049L123.036 47.2292C123.289 46.8956 123.365 46.3871 123.354 45.8627C123.354 45.7451 123.354 45.6243 123.338 45.5067C123.285 44.9179 123.174 44.3357 123.008 43.7683C123.008 43.7683 129.662 42.0808 129.189 43.4712C129.097 43.7601 129.06 44.0633 129.078 44.3658C129.108 44.8599 129.206 45.3475 129.368 45.815C129.504 46.2294 129.671 46.6326 129.869 47.0211L130.049 48.4353Z" fill="#C37871"/>
<path opacity="0.1" d="M129.191 43.4603C129.1 43.7492 129.062 44.0524 129.08 44.3549C128.339 45.0848 127.401 45.5818 126.381 45.7845C125.361 45.9873 124.304 45.8869 123.34 45.4959C123.287 44.907 123.176 44.3248 123.01 43.7575C123.01 43.7575 129.665 42.0747 129.191 43.4603Z" fill="black"/>
<path d="M130.671 40.3879C130.671 40.515 130.671 40.6421 130.657 40.7676C130.574 41.9235 130.117 43.021 129.355 43.8936C128.592 44.7662 127.566 45.3662 126.431 45.6025C125.297 45.8389 124.116 45.6987 123.069 45.2032C122.021 44.7078 121.164 43.8841 120.627 42.8572C120.384 42.396 120.212 41.9011 120.116 41.389C120.051 41.0593 120.019 40.7239 120.02 40.3879C120.02 40.0955 120.044 39.8037 120.093 39.5155C120.309 38.2126 121.001 37.0365 122.036 36.2156C123.07 35.3948 124.373 34.9878 125.691 35.0738C127.009 35.1598 128.248 35.7325 129.167 36.6808C130.086 37.6291 130.62 38.8852 130.664 40.2051C130.669 40.2655 130.671 40.3275 130.671 40.3879Z" fill="#C37871"/>
<path opacity="0.1" d="M130.049 48.4351L128.126 50.6598L123.452 49.1232L122.299 48.2047L123.036 47.2291C123.289 46.8954 123.365 46.3869 123.354 45.8625L123.567 47.4944L123.618 47.5453L123.923 47.8504H124.307L125.048 48.8562C125.048 48.8562 126.112 47.9997 126.201 48.2047C126.29 48.4097 127.74 47.8504 127.74 47.8504H127.795C129.108 47.7947 129.337 45.8402 129.337 45.8402C129.337 45.8402 129.357 45.8228 129.368 45.8164C129.504 46.2308 129.671 46.634 129.869 47.0225L130.049 48.4351Z" fill="black"/>
<path opacity="0.1" d="M131.905 77.3443C131.872 77.473 131.835 77.5986 131.795 77.7241C130.642 81.3916 122.328 81.4806 122.328 81.4806L122.091 79.2035L121.297 80.7417C121.297 80.7417 116.151 79.3211 114.313 78.3057C114.303 77.6971 114.313 77.1616 114.313 77.1616L131.737 75.3564C131.737 75.3564 131.843 76.3528 131.905 77.3443Z" fill="black"/>
<path opacity="0.1" d="M97.4749 61.0976L96.6963 60.7417C96.8759 59.8963 96.9076 58.2183 96.9124 57.918C97.1365 58.169 97.3891 58.382 97.5941 58.4042C98.1296 58.463 97.4749 61.0976 97.4749 61.0976Z" fill="black"/>
<path d="M131.646 69.026C131.646 69.026 132.949 73.7009 131.796 77.37C130.642 81.0391 122.328 81.1201 122.328 81.1201L122.091 78.843L121.297 80.3828C121.297 80.3828 115.085 78.6651 113.873 77.6592C112.661 76.6533 113.28 75.1454 113.28 75.1454C113.28 75.1454 113.695 73.194 114.049 72.7777C114.404 72.3614 114.464 70.9138 114.345 70.712C114.226 70.5102 114.76 68.5509 114.938 68.2553C115.116 67.9598 114.907 60.0607 114.907 60.0607C114.907 60.0607 112.274 61.243 112.127 61.5989C111.979 61.9548 108.872 63.6646 108.872 63.6646C108.872 63.6646 105.944 64.0206 105.411 64.0206C104.879 64.0206 101.949 63.6646 101.949 63.6646C101.949 63.6646 101.154 63.6344 100.914 63.4581C100.674 63.3146 100.414 63.205 100.144 63.1323C100.144 63.1323 99.3175 62.9543 99.0791 62.6302C98.8408 62.306 96.8545 61.2096 96.8545 61.2096C97.239 60.9728 97.2692 57.8726 97.2692 57.8726L101.026 58.7895C101.026 58.7895 101.264 58.2874 101.618 58.4939C101.973 58.7005 104.134 58.8737 104.134 58.8737C104.134 58.8737 105.939 58.5194 106.028 58.6656C106.117 58.8117 106.382 58.7847 106.382 58.7847C106.382 58.7847 106.738 58.7545 106.738 58.6385C106.738 58.5225 107.056 58.6656 107.056 58.6656L107.649 58.7545C107.649 58.7545 107.56 57.987 107.827 57.9282C107.903 57.9096 107.971 57.8686 108.024 57.8105C108.076 57.7524 108.11 57.68 108.121 57.6025C108.121 57.6025 108.915 56.5378 109.305 56.5378C109.694 56.5378 109.956 55.4732 109.956 55.4732L111.377 54.024C111.377 54.024 111.199 53.2835 111.377 53.2533C111.555 53.2231 111.582 52.899 111.582 52.899C111.582 52.899 111.642 52.2491 111.968 52.1045C112.293 51.9598 112.47 51.1002 112.47 51.1002C112.47 51.1002 113.978 49.4142 114.097 48.8215C114.216 48.2288 114.838 48.1112 114.838 48.1112C115.173 47.8935 115.543 47.7325 115.931 47.6345C116.434 47.5455 117.766 47.3962 117.766 47.3962C117.766 47.3962 120.191 47.1912 120.429 46.9195C120.668 46.6477 121.079 46.6811 121.345 46.6811C121.402 46.677 121.457 46.6566 121.503 46.6223C121.743 46.4729 122.029 46.0566 122.315 45.7944C122.67 45.4687 123.291 45.6164 123.291 45.6164L123.558 47.6584L123.607 47.7076L123.912 48.0127H124.297L125.037 49.0201C125.037 49.0201 126.102 48.1621 126.191 48.3686C126.28 48.5752 127.729 48.0127 127.729 48.0127H127.785C129.097 47.9571 129.326 46.0042 129.326 46.0042C129.978 45.4401 130.54 47.8093 130.54 47.8093L130.745 47.919C131.162 48.1509 132.083 48.6817 132.196 48.9328C132.344 49.2506 134.001 50.2326 134.001 50.2326L131.646 69.026Z" fill="#53517C"/>
<path d="M132.417 76.1258L131.543 76.8297L130.553 77.6242C130.553 77.6242 128.718 81.9146 126.204 80.7022C123.69 79.4897 129.573 75.0023 129.573 75.0023L130.386 74.6082L131.287 74.1729L132.417 76.1258Z" fill="#C37871"/>
<path opacity="0.1" d="M123.442 48.0682C122.528 48.448 121.376 49.3506 121.376 49.3506L121.333 46.9845C121.573 46.8335 121.859 46.4188 122.145 46.155C122.499 45.8372 123.121 45.9786 123.121 45.9786L123.388 48.0189L123.442 48.0682Z" fill="black"/>
<path d="M123.62 47.7153C122.707 48.0951 121.555 48.9976 121.555 48.9976L121.517 46.6379C121.757 46.4886 122.043 46.0722 122.329 45.81C122.683 45.4843 123.304 45.6321 123.304 45.6321L123.571 47.674L123.62 47.7153Z" fill="#E6EAED"/>
<path opacity="0.1" d="M130.758 48.4573C130.304 49.6744 129.738 51.0219 129.636 50.5055C129.514 49.8937 128.448 49.0293 127.798 48.551C129.11 48.497 129.339 46.5425 129.339 46.5425C129.991 45.98 130.553 48.3476 130.553 48.3476L130.758 48.4573Z" fill="black"/>
<path d="M130.758 47.9254C130.304 49.1426 129.738 50.4901 129.636 49.9737C129.514 49.3619 128.448 48.4975 127.798 48.0192C129.11 47.9636 129.339 46.0107 129.339 46.0107C129.991 45.4465 130.553 47.8158 130.553 47.8158L130.758 47.9254Z" fill="#E6EAED"/>
<path opacity="0.1" d="M124.725 94.6452C124.725 94.6452 128.097 94.1685 127.949 94.882C127.801 95.5954 124.725 94.6452 124.725 94.6452Z" fill="black"/>
<path opacity="0.1" d="M119.28 83.0269C119.28 83.0269 120.612 82.3165 121.796 82.6137L119.28 83.0269Z" fill="black"/>
<path opacity="0.1" d="M117.121 81.0962C117.121 81.0962 119.252 80.7704 120.05 81.1264L117.121 81.0962Z" fill="black"/>
<path opacity="0.1" d="M126.44 85.9775C126.44 85.9775 124.576 87.9591 124.692 88.4914L126.44 85.9775Z" fill="black"/>
<path opacity="0.1" d="M108.247 59.3818C108.247 59.3818 107.951 60.4465 109.756 60.8898L108.247 59.3818Z" fill="black"/>
<path opacity="0.1" d="M107.714 61.2158C107.714 61.2158 109.938 63.1973 108.898 63.2577C107.857 63.3181 107.714 61.2158 107.714 61.2158Z" fill="black"/>
<path opacity="0.1" d="M112.654 53.2578C112.654 53.2578 115.376 55.1503 115.197 55.5953C115.017 56.0402 112.654 53.2578 112.654 53.2578Z" fill="black"/>
<path opacity="0.1" d="M132.417 76.126L131.543 76.8299C131.36 76.2039 130.982 75.1551 130.391 74.6053L131.292 74.1699L132.417 76.126Z" fill="black"/>
<path d="M132.829 50.9791L134.013 50.2402C134.013 50.2402 135.373 50.4468 135.551 53.2594C135.729 56.072 136.972 61.6908 136.972 61.6908L137.652 67.9309C137.652 67.9309 137.889 69.1147 137.682 69.7058C137.546 70.0509 137.44 70.4071 137.364 70.7705C137.334 70.9786 135.707 71.9845 135.737 73.2859C135.767 74.5873 133.671 75.7997 133.671 75.7997C133.671 75.7997 132.31 76.5942 131.866 77.1615C131.866 77.1615 131.363 74.7939 130.269 74.2028C129.176 73.6116 132.577 68.9081 132.577 68.9081L132.829 50.9791Z" fill="#53517C"/>
<path opacity="0.1" d="M130.784 68.9873C130.784 68.9873 127.234 70.4667 127.529 70.9402C127.825 71.4137 130.784 68.9873 130.784 68.9873Z" fill="black"/>
<path opacity="0.1" d="M130.783 70.8799C130.783 70.8799 129.307 71.533 129.429 71.7412C129.551 71.9493 130.783 70.8799 130.783 70.8799Z" fill="black"/>
<path opacity="0.1" d="M129.956 72.123C129.956 72.123 128.48 72.7761 128.602 72.9843C128.724 73.1925 129.956 72.123 129.956 72.123Z" fill="black"/>
<path d="M91.7031 34.0977V78.9083H136.804C136.6 54.1591 116.497 34.1485 91.7031 34.0977Z" fill="#0075FF"/>
<path opacity="0.1" d="M91.7031 34.0977V78.9083H136.804C136.6 54.1591 116.497 34.1485 91.7031 34.0977Z" fill="black"/>
<path d="M91.7031 33.2109V78.0215H136.804C136.6 53.2708 116.497 33.2602 91.7031 33.2109Z" fill="#0075FF"/>
<path d="M126.449 79.275C126.445 79.0298 126.518 78.7896 126.658 78.5886C126.799 78.4516 126.973 78.3541 127.164 78.3057C127.332 78.2501 127.502 78.1977 127.672 78.1468C127.804 78.1027 127.943 78.0801 128.082 78.0801C128.365 78.0912 128.61 78.266 128.837 78.4328C128.882 78.4609 128.919 78.4996 128.945 78.5457C128.996 78.6632 128.886 78.7856 128.786 78.8635C128.436 79.1748 128.058 79.4531 127.656 79.6945C127.373 79.8534 126.998 80.033 126.666 80.0362C126.258 80.0473 126.422 79.5706 126.449 79.275Z" fill="#C37871"/>
<path opacity="0.1" d="M130.671 40.3881C130.671 40.5152 130.671 40.6424 130.657 40.7679C130.634 40.7829 130.611 40.7967 130.587 40.8092C130.497 40.8417 130.409 40.8805 130.324 40.9252C130.065 41.1016 130.124 41.4861 130.148 41.7976C130.185 42.2484 130.091 42.7002 129.878 43.099C129.776 43.0885 129.681 43.0448 129.607 42.9748C129.532 42.9047 129.483 42.8121 129.466 42.7113C129.438 42.5097 129.429 42.3059 129.441 42.1027C129.416 41.5592 129.123 41.0746 128.932 40.5629C128.58 39.5825 128.658 38.4972 128.422 37.485C128.354 37.1862 128.243 36.8684 127.989 36.6904C127.652 36.4584 127.185 36.5601 126.822 36.7492C126.46 36.9383 126.136 37.2148 125.743 37.334C125.138 37.5167 124.494 37.2959 123.892 37.1084C123.29 36.9209 122.608 36.762 122.046 37.0496C121.454 37.3531 121.189 38.0443 121.008 38.6863C120.948 38.8622 120.92 39.0472 120.924 39.2329C120.935 39.3918 120.997 39.5586 120.992 39.7255C120.992 40.0814 120.689 40.3611 120.571 40.698C120.498 40.9061 120.515 41.4194 120.213 41.4162C120.179 41.415 120.145 41.4046 120.116 41.386C120.051 41.0564 120.019 40.721 120.02 40.3849C120.02 40.0926 120.044 39.8008 120.093 39.5126C120.309 38.2097 121.001 37.0336 122.036 36.2127C123.07 35.3919 124.373 34.9849 125.691 35.0709C127.009 35.1568 128.248 35.7296 129.167 36.6779C130.086 37.6262 130.62 38.8823 130.664 40.2022C130.669 40.2658 130.671 40.3277 130.671 40.3881Z" fill="black"/>
<path d="M118.695 39.0579C118.676 38.5446 119.066 38.0647 118.977 37.5594C118.907 37.1638 118.563 36.8761 118.397 36.5107C118.301 36.2911 118.269 36.0488 118.304 35.8118C118.34 35.5748 118.442 35.3527 118.598 35.1711C118.729 35.0249 118.892 34.9105 119.018 34.7611C119.267 34.4624 119.336 34.0604 119.455 33.6886C119.574 33.3167 119.773 32.9274 120.143 32.8003C120.542 32.6636 121.009 32.8861 121.394 32.7129C121.44 32.6957 121.482 32.6677 121.516 32.6313C121.55 32.5949 121.575 32.551 121.589 32.5031C121.592 32.4321 121.585 32.3609 121.568 32.2918C121.541 32.009 121.81 31.7881 122.067 31.6641C123.243 31.0969 124.632 31.367 125.906 31.6482C125.885 31.3895 125.904 31.129 125.962 30.876C126.766 30.965 127.632 31.0826 128.214 31.6419C128.574 31.9899 128.776 32.4634 129.008 32.902C129.24 33.3406 129.558 33.7807 130.023 33.9635C130.176 34.0004 130.319 34.0685 130.443 34.1637C130.513 34.2413 130.567 34.3321 130.602 34.4306L130.907 35.1822C130.939 35.2739 130.986 35.3594 131.047 35.4349C131.128 35.5091 131.218 35.5726 131.315 35.624C131.906 36.0101 131.994 36.8603 131.81 37.5435C131.625 38.2268 131.241 38.8449 131.094 39.5378C131.009 39.9461 130.959 40.4451 130.586 40.631C130.496 40.6644 130.408 40.7036 130.324 40.7486C130.065 40.9234 130.122 41.3079 130.147 41.6194C130.185 42.07 130.091 42.5217 129.879 42.9208C129.777 42.9106 129.682 42.867 129.607 42.7969C129.533 42.7268 129.484 42.634 129.467 42.5331C129.438 42.3316 129.429 42.1277 129.44 41.9245C129.415 41.381 129.122 40.8964 128.932 40.3847C128.579 39.4043 128.657 38.319 128.423 37.3068C128.353 37.0064 128.241 36.6902 127.986 36.5123C127.649 36.2787 127.182 36.3788 126.82 36.571C126.458 36.7633 126.135 37.035 125.743 37.1542C125.137 37.3354 124.494 37.1177 123.89 36.927C123.286 36.7363 122.608 36.5822 122.045 36.8698C121.454 37.1733 121.19 37.8661 121.009 38.5065C120.949 38.6823 120.919 38.8672 120.922 39.0531C120.934 39.212 120.995 39.3804 120.991 39.5457C120.991 39.9032 120.688 40.1813 120.57 40.5198C120.497 40.7279 120.515 41.2396 120.213 41.238C119.984 41.238 119.752 40.72 119.639 40.569C119.294 40.1098 118.719 39.6855 118.695 39.0579Z" fill="#4B3E3C"/>
<g opacity="0.1">
<path opacity="0.1" d="M118.977 37.2036C118.907 36.808 118.564 36.5219 118.397 36.1564C118.35 36.0524 118.318 35.9422 118.303 35.8291C118.269 36.0606 118.302 36.297 118.397 36.5108C118.556 36.8731 118.897 37.1575 118.974 37.5453C118.994 37.4324 118.995 37.3169 118.977 37.2036Z" fill="black"/>
<path opacity="0.1" d="M121.589 32.1475C121.59 32.139 121.59 32.1305 121.589 32.1221C121.581 32.1463 121.574 32.1713 121.57 32.1968C121.579 32.1813 121.585 32.1648 121.589 32.1475Z" fill="black"/>
<path opacity="0.1" d="M125.907 31.2944C125.906 31.2822 125.906 31.27 125.907 31.2578C125.907 31.2689 125.907 31.2816 125.907 31.2928V31.2944Z" fill="black"/>
<path opacity="0.1" d="M131.81 37.1882C131.627 37.8715 131.241 38.4912 131.095 39.1825C131.009 39.5924 130.96 40.0898 130.586 40.2773C130.497 40.3108 130.409 40.3495 130.324 40.3933C130.11 40.5395 130.113 40.8287 130.135 41.102C130.138 41.0328 130.157 40.9652 130.19 40.9042C130.222 40.8432 130.268 40.7902 130.324 40.7493C130.409 40.7043 130.496 40.665 130.586 40.6317C130.96 40.4457 131.009 39.9468 131.095 39.5384C131.241 38.8456 131.627 38.2275 131.81 37.5442C131.883 37.2769 131.91 36.999 131.889 36.7227C131.878 36.88 131.851 37.0359 131.81 37.1882Z" fill="black"/>
<path opacity="0.1" d="M129.879 42.5665C129.778 42.5563 129.682 42.5127 129.608 42.4426C129.533 42.3725 129.484 42.2797 129.468 42.1788C129.439 41.9768 129.43 41.7724 129.441 41.5686C129.415 41.0267 129.123 40.5405 128.932 40.0304C128.58 39.05 128.657 37.9647 128.424 36.9525C128.354 36.6521 128.241 36.3359 127.987 36.158C127.65 35.926 127.183 36.0261 126.821 36.2168C126.458 36.4074 126.136 36.6823 125.743 36.7999C125.138 36.9827 124.494 36.7634 123.89 36.5743C123.287 36.3852 122.608 36.2279 122.045 36.5171C121.454 36.8206 121.191 37.5134 121.009 38.1522C120.949 38.3285 120.919 38.514 120.922 38.7004C120.922 38.7369 120.932 38.7751 120.938 38.8116C120.955 38.709 120.979 38.6076 121.009 38.5081C121.191 37.8725 121.454 37.1749 122.045 36.8714C122.608 36.5838 123.288 36.7395 123.89 36.9286C124.493 37.1177 125.138 37.337 125.743 37.1559C126.136 37.0367 126.458 36.7634 126.821 36.5727C127.183 36.382 127.65 36.2803 127.987 36.5139C128.241 36.6871 128.354 37.0033 128.424 37.3084C128.657 38.3238 128.583 39.4059 128.932 40.3864C129.115 40.898 129.409 41.3827 129.441 41.9261C129.43 42.1294 129.439 42.3332 129.468 42.5347C129.484 42.6357 129.533 42.7284 129.608 42.7985C129.682 42.8686 129.778 42.9122 129.879 42.9224C130.09 42.5267 130.184 42.0792 130.15 41.6322C130.125 41.9589 130.033 42.2769 129.879 42.5665Z" fill="black"/>
<path opacity="0.1" d="M120.571 40.1689C120.498 40.3771 120.515 40.8887 120.213 40.8871C119.985 40.8871 119.753 40.3707 119.64 40.2197C119.322 39.7891 118.804 39.3934 118.71 38.8389C118.698 38.9113 118.694 38.9848 118.696 39.0581C118.72 39.6858 119.295 40.1101 119.64 40.5741C119.753 40.733 119.985 41.2415 120.213 41.2431C120.515 41.2431 120.498 40.733 120.571 40.5248C120.689 40.188 120.984 39.9083 120.992 39.5508C120.992 39.4824 120.984 39.4142 120.97 39.3474C120.901 39.635 120.674 39.8813 120.571 40.1689Z" fill="black"/>
</g>
<path d="M16.3845 70.9658H15.8506V71.5092H16.3845V70.9658Z" fill="#0075FF"/>
<path opacity="0.25" d="M16.3845 70.9658H15.8506V71.5092H16.3845V70.9658Z" fill="black"/>
<path d="M61.611 26.209H61.0898V26.8144H61.611V26.209Z" fill="#0075FF"/>
<path opacity="0.25" d="M61.611 26.209H61.0898V26.8144H61.611V26.209Z" fill="black"/>
<path opacity="0.2" d="M61.616 71.5108V26.7002H61.5223C36.6842 26.7002 16.529 46.7347 16.3271 71.5251L61.616 71.5108Z" fill="white"/>
<path d="M61.616 71.5108V26.7002H61.5223C36.6842 26.7002 16.529 46.7347 16.3271 71.5251L61.616 71.5108Z" fill="#0075FF"/>
<path opacity="0.25" d="M61.616 71.5108V26.7002H61.5223C36.6842 26.7002 16.529 46.7347 16.3271 71.5251L61.616 71.5108Z" fill="black"/>
<path d="M61.1395 71.0342V26.2236H61.0457C36.2076 26.2236 16.0524 46.2581 15.8506 71.0485L61.1395 71.0342Z" fill="#0075FF"/>
<path opacity="0.15" d="M61.1395 71.0342V26.2236H61.0457C36.2076 26.2236 16.0524 46.2581 15.8506 71.0485L61.1395 71.0342Z" fill="black"/>
<path d="M94.4757 107.636L95.1415 108.054V108.848L94.2373 108.708L94.4757 107.636Z" fill="#0075FF"/>
<path opacity="0.1" d="M94.4757 107.636L95.1415 108.054V108.848L94.2373 108.708L94.4757 107.636Z" fill="black"/>
<path d="M30.9741 107.953L30.7246 108.028V108.822L31.57 108.638L31.3618 107.864L30.9741 107.953Z" fill="#0075FF"/>
<path opacity="0.1" d="M30.9741 107.953L30.7246 108.028V108.822L31.57 108.638L31.3618 107.864L30.9741 107.953Z" fill="black"/>
<path d="M63.5126 77.2207L30.7246 108.823C34.9281 113.098 39.9401 116.493 45.4687 118.812C50.9974 121.131 56.9321 122.326 62.9273 122.328C68.9224 122.331 74.8581 121.14 80.3886 118.826C85.9191 116.512 90.9338 113.12 95.1406 108.849L63.5126 77.2207Z" fill="#0075FF"/>
<path d="M63.5126 76.4258L30.7246 108.028C34.9281 112.303 39.9401 115.698 45.4687 118.017C50.9974 120.336 56.9321 121.531 62.9273 121.533C68.9224 121.536 74.8581 120.345 80.3886 118.031C85.9191 115.717 90.9338 112.325 95.1406 108.054L63.5126 76.4258Z" fill="#0075FF"/>
<path opacity="0.1" d="M63.5126 76.4258L30.7246 108.028C34.9281 112.303 39.9401 115.698 45.4687 118.017C50.9974 120.336 56.9321 121.531 62.9273 121.533C68.9224 121.536 74.8581 120.345 80.3886 118.031C85.9191 115.717 90.9338 112.325 95.1406 108.054L63.5126 76.4258Z" fill="black"/>
<path d="M63.5126 77.2207L30.7246 108.823C34.9281 113.098 39.9401 116.493 45.4687 118.812C50.9974 121.131 56.9321 122.326 62.9273 122.328C68.9224 122.331 74.8581 121.14 80.3886 118.826C85.9191 116.512 90.9338 113.12 95.1406 108.849L63.5126 77.2207Z" fill="#0075FF"/>
<path d="M60.8584 75.488L61.9501 74.7412L62.109 75.059L60.8632 75.9695L60.8584 75.488Z" fill="#3ACC6C"/>
<path opacity="0.1" d="M60.8584 75.488L61.9501 74.7412L62.109 75.059L60.8632 75.9695L60.8584 75.488Z" fill="black"/>
<path d="M60.0824 74.3715L61.2345 73.9473L61.3934 74.2651L59.4277 74.9277L60.0824 74.3715Z" fill="#FF748E"/>
<path opacity="0.1" d="M60.0824 74.3715L61.2345 73.9473L61.3934 74.2651L59.4277 74.9277L60.0824 74.3715Z" fill="black"/>
<path d="M59.9382 72.9808L61.1554 72.9141V73.2319L59.1104 73.4464L59.2931 73.0348L59.9382 72.9808Z" fill="#5E5A6B"/>
<path opacity="0.1" d="M59.9382 72.9808L61.1554 72.9141V73.2319L59.1104 73.4464L59.2931 73.0348L59.9382 72.9808Z" fill="black"/>
<path d="M61.155 72.9141L17.0833 82.9504C16.394 79.7789 16.0472 76.5425 16.0488 73.297C16.0488 73.1683 16.0488 73.0412 16.0488 72.9141H61.155Z" fill="#5E5A6B"/>
<path opacity="0.1" d="M61.155 72.9141L17.0833 82.9504C16.394 79.7789 16.0472 76.5425 16.0488 73.297C16.0488 73.1683 16.0488 73.0412 16.0488 72.9141H61.155Z" fill="black"/>
<path d="M61.155 73.2324L17.0833 83.2687C16.394 80.0972 16.0472 76.8609 16.0488 73.6154C16.0488 73.4867 16.0488 73.3595 16.0488 73.2324H61.155Z" fill="#5E5A6B"/>
<path d="M17.1631 83.9804C18.0915 88.2491 19.6398 92.359 21.7586 96.1793L61.2348 73.9473L17.1631 83.9804Z" fill="#FF748E"/>
<path opacity="0.1" d="M17.1631 83.9804C18.0915 88.2491 19.6398 92.359 21.7586 96.1793L61.2348 73.9473L17.1631 83.9804Z" fill="black"/>
<path d="M17.3223 84.2978C18.2507 88.5665 19.799 92.6764 21.9177 96.4967L61.3939 74.2646L17.3223 84.2978Z" fill="#FF748E"/>
<path d="M61.863 74.7451L22.4551 96.9422L22.4741 96.9772C24.47 100.587 26.9507 103.907 29.8472 106.843L61.9456 74.7451H61.863Z" fill="#3ACC6C"/>
<path opacity="0.1" d="M61.863 74.7451L22.4551 96.9422L22.4741 96.9772C24.47 100.587 26.9507 103.907 29.8472 106.843L61.9456 74.7451H61.863Z" fill="black"/>
<path d="M62.0221 75.0625L22.6143 97.2596L22.6333 97.2946C24.6292 100.904 27.1099 104.224 30.0064 107.161L62.1048 75.0625H62.0221Z" fill="#3ACC6C"/>
</g>
<defs>
<linearGradient id="paint0_linear" x1="113.356" y1="120.463" x2="113.356" y2="30.1725" gradientUnits="userSpaceOnUse">
<stop stop-color="#808080" stop-opacity="0.25"/>
<stop offset="0.54" stop-color="#808080" stop-opacity="0.12"/>
<stop offset="1" stop-color="#808080" stop-opacity="0.1"/>
</linearGradient>
<clipPath id="clip0">
<rect width="159.038" height="133" fill="white"/>
</clipPath>
</defs>
</svg>