<svg width="167" height="133" viewBox="0 0 167 133" fill="none" xmlns="http://www.w3.org/2000/svg">
<g clip-path="url(#clip0)">
<path opacity="0.1" d="M80.3025 133C118.304 133 149.111 130.863 149.111 128.226C149.111 125.59 118.304 123.453 80.3025 123.453C42.3007 123.453 11.4941 125.59 11.4941 128.226C11.4941 130.863 42.3007 133 80.3025 133Z" fill="#0075FF"/>
<path opacity="0.1" d="M5.44123 15.195C1.15359 20.2143 0.0688968 26.577 0.00978996 32.6778C-0.0317446 36.9798 0.556129 41.6461 4.14727 44.8187C8.87422 48.9929 17.9495 49.8156 20.2914 55.1496C22.3682 59.8893 17.5358 64.6578 12.8935 68.0029C8.2512 71.3481 2.9204 75.444 3.78784 80.425C4.33737 83.6056 7.35182 86.1024 10.3583 88.1983C16.0741 92.192 22.4991 95.6857 29.7421 97.3855C42.883 100.465 57.0767 97.2768 69.3901 92.4492C76.9701 89.4779 85.7706 85.8309 93.298 88.8868C95.2852 89.6936 96.9722 90.9125 98.8045 91.9221C104.132 94.8407 110.639 95.9158 116.971 96.8279C126.252 98.1698 136.007 99.2896 144.949 96.8695C153.892 94.4493 161.621 87.3708 160.252 79.8211C158.961 72.7091 150.743 68.0732 144.195 63.2153C141.885 61.5012 139.534 59.2296 140.109 56.7359C140.566 54.7582 142.716 53.3812 144.633 52.1032C154.723 45.3395 162.138 36.0022 165.547 25.7639C167.158 20.9331 167.739 15.3675 164.146 11.2939C161.248 8.00789 156.282 6.42958 151.558 5.13083C142.793 2.72022 133.809 0.683434 124.589 0.1339C115.37 -0.415634 105.846 0.632314 97.6623 4.11003C93.7373 5.7794 90.1797 7.97754 86.2163 9.58461C74.9637 14.147 61.7046 13.5336 49.1547 12.8131C44.6706 12.5559 39.9836 12.099 36.0905 10.1405C32.7358 8.45039 30.8188 7.2395 26.6654 7.051C18.5246 6.68198 10.1027 9.72838 5.44123 15.195Z" fill="#0075FF"/>
<path d="M66.2092 49.5795L66.0335 49.9421L64.8945 52.2825L52.9469 76.815L32.6732 126.49L29.7754 126.513L50.0602 76.815L63.8833 48.4277L64.8945 48.9277L66.0335 49.4917L66.2092 49.5795Z" fill="#535461"/>
<path d="M101.779 126.513L99.394 126.49L79.1187 76.815L67.4859 52.9262L66.0338 49.9421L65.8564 49.5795L66.0338 49.4917L67.4859 48.7728L68.184 48.4277L81.7993 76.815L101.779 126.513Z" fill="#535461"/>
<path d="M67.4872 41.7549H64.8945V126.513H67.4872V41.7549Z" fill="#535461"/>
<path d="M65.8943 27.791C65.0197 27.7919 64.1811 28.1397 63.5627 28.7581C62.9442 29.3766 62.5964 30.2152 62.5955 31.0898V32.2688C62.5859 32.7082 62.6641 33.1451 62.8255 33.5539C62.987 33.9627 63.2285 34.3351 63.5359 34.6493C63.8432 34.9635 64.2102 35.2131 64.6154 35.3835C65.0205 35.554 65.4556 35.6418 65.8951 35.6418C66.3346 35.6418 66.7697 35.554 67.1749 35.3835C67.58 35.2131 67.947 34.9635 68.2544 34.6493C68.5617 34.3351 68.8032 33.9627 68.9647 33.5539C69.1262 33.1451 69.2044 32.7082 69.1947 32.2688V31.0898C69.1935 30.215 68.8453 29.3765 68.2266 28.758C67.6078 28.1396 66.7691 27.7919 65.8943 27.791ZM68.3688 32.264C68.3688 32.9207 68.108 33.5505 67.6436 34.0148C67.1792 34.4792 66.5494 34.7401 65.8927 34.7401C65.236 34.7401 64.6062 34.4792 64.1419 34.0148C63.6775 33.5505 63.4166 32.9207 63.4166 32.264V31.085C63.4166 30.4283 63.6775 29.7985 64.1419 29.3342C64.6062 28.8698 65.236 28.6089 65.8927 28.6089C66.5494 28.6089 67.1792 28.8698 67.6436 29.3342C68.108 29.7985 68.3688 30.4283 68.3688 31.085V32.264Z" fill="#535461"/>
<path opacity="0.1" d="M81.7993 76.8148H79.1188L67.4859 52.9261V76.8148H64.8948V52.2823L52.9472 76.8148H50.0605L63.8836 48.4276L64.8948 48.9276V41.7549H67.4859V48.7726L68.184 48.4276L81.7993 76.8148Z" fill="black"/>
<path opacity="0.1" d="M69.1947 31.208V32.2687C69.2044 32.7082 69.1262 33.1451 68.9647 33.5539C68.8032 33.9627 68.5617 34.3351 68.2544 34.6493C67.947 34.9634 67.58 35.2131 67.1749 35.3835C66.7697 35.5539 66.3346 35.6417 65.8951 35.6417C65.4556 35.6417 65.0205 35.5539 64.6154 35.3835C64.2102 35.2131 63.8432 34.9634 63.5359 34.6493C63.2285 34.3351 62.987 33.9627 62.8255 33.5539C62.6641 33.1451 62.5859 32.7082 62.5955 32.2687V31.208H63.4198V32.2687C63.4198 32.9254 63.6807 33.5552 64.1451 34.0196C64.6094 34.484 65.2392 34.7448 65.8959 34.7448C66.5526 34.7448 67.1824 34.484 67.6468 34.0196C68.1111 33.5552 68.372 32.9254 68.372 32.2687V31.208H69.1947Z" fill="black"/>
<path d="M115.744 31.4453H16.0469V76.4624H115.744V31.4453Z" fill="#535461"/>
<path d="M113.741 32.8584H17.8154V73.869H113.741V32.8584Z" fill="white"/>
<g opacity="0.2">
<path opacity="0.2" d="M31.8233 37.3174H27.2881V39.3829H31.8233V37.3174Z" fill="#0075FF"/>
</g>
<g opacity="0.2">
<path opacity="0.2" d="M31.8233 41.3125H27.2881V43.378H31.8233V41.3125Z" fill="#0075FF"/>
</g>
<g opacity="0.2">
<path opacity="0.2" d="M31.8233 45.3066H27.2881V47.3722H31.8233V45.3066Z" fill="#0075FF"/>
</g>
<g opacity="0.2">
<path opacity="0.2" d="M31.8233 49.2998H27.2881V51.3654H31.8233V49.2998Z" fill="#0075FF"/>
</g>
<g opacity="0.2">
<path opacity="0.2" d="M31.8233 53.2949H27.2881V55.3605H31.8233V53.2949Z" fill="#0075FF"/>
</g>
<g opacity="0.2">
<path opacity="0.2" d="M31.8233 57.2891H27.2881V59.3546H31.8233V57.2891Z" fill="#0075FF"/>
</g>
<g opacity="0.2">
<path opacity="0.2" d="M31.8233 61.2822H27.2881V63.3478H31.8233V61.2822Z" fill="#0075FF"/>
</g>
<g opacity="0.2">
<path opacity="0.2" d="M31.8233 65.2764H27.2881V67.3419H31.8233V65.2764Z" fill="#0075FF"/>
</g>
<g opacity="0.2">
<path opacity="0.2" d="M40.3624 67.3438H35.8271V69.4093H40.3624V67.3438Z" fill="#0075FF"/>
</g>
<g opacity="0.2">
<path opacity="0.2" d="M48.3507 67.3438H43.8154V69.4093H48.3507V67.3438Z" fill="#0075FF"/>
</g>
<g opacity="0.2">
<path opacity="0.2" d="M56.338 67.3438H51.8027V69.4093H56.338V67.3438Z" fill="#0075FF"/>
</g>
<g opacity="0.2">
<path opacity="0.2" d="M64.3272 67.3438H59.792V69.4093H64.3272V67.3438Z" fill="#0075FF"/>
</g>
<g opacity="0.2">
<path opacity="0.2" d="M72.3146 67.3438H67.7793V69.4093H72.3146V67.3438Z" fill="#0075FF"/>
</g>
<g opacity="0.2">
<path opacity="0.2" d="M80.3038 67.3438H75.7686V69.4093H80.3038V67.3438Z" fill="#0075FF"/>
</g>
<g opacity="0.2">
<path opacity="0.2" d="M88.2911 67.3438H83.7559V69.4093H88.2911V67.3438Z" fill="#0075FF"/>
</g>
<g opacity="0.2">
<path opacity="0.2" d="M96.2804 67.3438H91.7451V69.4093H96.2804V67.3438Z" fill="#0075FF"/>
</g>
<g opacity="0.2">
<path opacity="0.2" d="M104.268 67.3438H99.7324V69.4093H104.268V67.3438Z" fill="#0075FF"/>
</g>
<path d="M40.3624 52.3301H35.8271V65.2761H40.3624V52.3301Z" fill="#0075FF"/>
<path d="M48.3507 46.3398H43.8154V65.278H48.3507V46.3398Z" fill="#0075FF"/>
<path d="M56.338 41.3125H51.8027V65.2779H56.338V41.3125Z" fill="#0075FF"/>
<path d="M64.3272 43.918H59.792V65.2763H64.3272V43.918Z" fill="#0075FF"/>
<path d="M72.3146 39.3848H67.7793V65.2784H72.3146V39.3848Z" fill="#0075FF"/>
<g opacity="0.2">
<path opacity="0.2" d="M80.3038 49.2998H75.7686V65.2762H80.3038V49.2998Z" fill="#0075FF"/>
</g>
<g opacity="0.2">
<path opacity="0.2" d="M88.2911 49.2998H83.7559V65.2762H88.2911V49.2998Z" fill="#0075FF"/>
</g>
<g opacity="0.2">
<path opacity="0.2" d="M96.2804 49.2998H91.7451V65.2762H96.2804V49.2998Z" fill="#0075FF"/>
</g>
<g opacity="0.2">
<path opacity="0.2" d="M104.268 49.2998H99.7324V65.2762H104.268V49.2998Z" fill="#0075FF"/>
</g>
<path d="M99.2117 49.2646L60.377 51.6545V52.4117L100.039 50.8382L99.2117 49.2646Z" fill="#535461"/>
<path d="M145.19 65.0415C145.19 65.0415 147.222 61.6996 146.682 56.4567C146.142 51.2137 144.189 42.7279 144.189 42.7279C144.189 42.7279 145.037 37.9738 140.436 37.306C140.436 37.306 137.577 36.7741 135.532 35.4881C134.772 35.0089 134.125 34.429 133.775 33.7309C133.775 33.7309 133.748 33.8091 133.695 33.9529C133.65 33.881 133.608 33.8069 133.57 33.7309C133.57 33.7309 133.559 33.7596 133.541 33.8107L132.76 32.5935C132.76 32.5935 132.653 32.7069 132.473 32.8938C132.159 32.4428 131.891 31.9611 131.674 31.4561C131.868 31.4091 132.059 31.3483 132.244 31.2739C132.422 31.2153 132.581 31.1131 132.709 30.9768C132.821 30.8214 132.894 30.641 132.92 30.4512C133.045 29.844 133.08 29.222 133.025 28.6045C132.982 28.1253 132.885 27.6461 132.918 27.1588C132.954 26.6396 133.137 26.138 133.163 25.6173C133.208 24.7003 132.752 23.8281 132.19 23.1012C131.855 22.6683 131.478 22.2657 131.187 21.8025C130.934 21.3999 130.751 20.9558 130.479 20.5644C129.84 19.6538 128.775 19.1171 127.682 18.927C126.589 18.7369 125.465 18.8551 124.37 19.0356C123.412 19.1954 122.453 19.427 121.495 19.4829C120.658 19.5308 119.976 19.2481 119.209 19.8024C118.955 19.9897 118.744 20.2291 118.59 20.5046C118.436 20.7802 118.343 21.0854 118.317 21.3999C118.305 21.5069 118.313 21.6154 118.341 21.7194C118.387 21.8271 118.44 21.9313 118.501 22.0309C118.841 22.7018 118.324 23.499 118.391 24.2482C118.432 24.5795 118.583 24.8873 118.821 25.1216C119.059 25.3559 119.369 25.503 119.701 25.539C119.671 25.6029 119.637 25.6652 119.608 25.7307C119.184 26.6892 118.993 27.7347 119.051 28.7813C119.11 29.8279 119.416 30.8458 119.944 31.7512C120.472 32.6567 121.207 33.424 122.089 33.99C122.972 34.556 123.976 34.9046 125.019 35.0073L125.316 35.2357C125.987 35.7549 126.741 36.3763 127.468 37.052L127.453 37.0632L127.335 36.9961C127.114 37.1711 126.881 37.3312 126.639 37.4754C125.966 37.8875 124.882 38.4227 123.661 38.4834C123.661 38.4834 121.476 39.6416 120.723 43.4611C119.643 44.4292 117.332 46.1769 114.277 46.6321C109.985 47.2711 104.693 47.4804 104.693 47.4804C104.693 47.4804 104.649 47.5571 104.589 47.6977L104.1 47.6082C104.1 47.6082 104.1 47.6673 104.079 47.7679L103.887 47.6817C102.371 47.0187 99.3426 46.0523 98.9592 48.7153C98.4448 52.2872 101.851 51.8767 101.851 51.8767C102.524 51.6208 103.214 51.411 103.916 51.2489L104.106 51.2121C104.139 51.3053 104.184 51.3935 104.24 51.4741H104.704C104.865 51.8071 105.059 52.1229 105.284 52.4166L116.079 52.1802C116.079 52.1802 117.924 51.7776 119.627 52.0332C118.885 57.5861 118.008 63.6757 118.008 63.6757C118.008 63.6757 116.17 73.3197 117.456 74.3277C118.203 74.0787 118.964 73.8749 119.734 73.7175C119.746 74.3134 119.809 74.9072 119.923 75.4923L120.746 80.8774C120.746 80.8774 121.065 86.3791 122.134 89.6635L123.076 94.1525L123.866 97.5455L124.31 103.304C124.919 105.744 125.36 108.223 125.629 110.723C126.046 114.592 128.31 120.845 128.612 121.668C127.838 122.762 126.251 124.618 124.259 124.81C121.415 125.085 121.346 126.799 123.334 127.415C125.321 128.032 129.503 127.415 129.503 127.415L135.401 125.957C135.224 127.045 135.131 127.904 135.26 127.997C135.637 128.272 141.361 129.754 141.567 127.38C141.583 127.184 141.598 126.994 141.61 126.81C141.696 125.289 141.492 123.766 141.011 122.321C140.965 122.179 140.923 122.035 140.887 121.891C140.972 121.796 141.05 121.695 141.12 121.589C141.12 121.589 141.532 115.18 141.84 112.883C141.864 112.699 141.88 112.476 141.888 112.223C142.031 109.469 141.026 102.225 141.026 102.225C141.026 102.225 139.784 97.512 139.831 95.3458C139.838 95.1658 139.869 94.9875 139.922 94.8154C139.922 94.8154 139.922 94.7723 139.906 94.7004C139.906 94.6701 139.92 94.6381 139.93 94.6093C139.93 94.6093 139.3 90.2961 139.388 87.7306C139.401 87.3479 139.454 86.9676 139.548 86.5964C139.648 86.109 139.699 85.613 139.7 85.1155C139.78 83.3583 139.687 80.3231 139.559 77.4763C139.574 77.4284 139.588 77.3805 139.599 77.3246C139.625 77.0979 139.598 76.8683 139.521 76.6536C139.511 76.4699 139.503 76.2878 139.494 76.1073C139.546 75.9268 139.59 75.7351 139.628 75.537H139.711V75.5482C139.711 75.5482 145.082 75.291 146.317 73.8516C146.317 73.8516 145.069 69.9746 144.377 66.8227L145.19 65.0415ZM122.046 52.9821L121.961 52.9518C122.097 52.4725 122.258 51.915 122.441 51.3303C122.286 51.9629 122.151 52.538 122.046 52.9821ZM127.497 37.0888L127.521 37.1111L127.495 37.0968L127.497 37.0888ZM134.206 120.241C133.917 119.246 132.768 115.188 132.805 113.254C132.813 113.085 132.843 112.919 132.893 112.758C132.999 112.408 133.053 112.043 133.053 111.677C133.168 109.658 132.394 106.039 132.394 106.039C132.394 106.039 130.664 101.159 130.797 97.2835C130.797 97.1861 130.808 97.0886 130.815 96.9912C130.843 96.6238 130.866 96.226 130.882 95.8059V95.7979C130.947 94.301 130.933 92.4991 130.89 90.8185L130.88 90.7562C130.821 88.5309 130.711 86.5277 130.664 85.7353C130.824 86.8807 131.847 94.0103 132.287 95.1765C132.287 95.1765 132.529 98.4657 133.625 101.247L134.826 108.477C134.826 108.477 135.134 117.081 135.647 119.514C135.877 120.597 136.072 121.327 136.217 121.803C136.01 122.773 135.674 124.398 135.449 125.743C135.316 124.866 134.85 121.524 134.208 120.241H134.206Z" fill="url(#paint0_linear)"/>
<path d="M129.07 120.463C129.07 120.463 127.065 124.097 124.245 124.369C121.426 124.64 121.359 126.339 123.328 126.95C125.298 127.562 129.443 126.95 129.443 126.95L135.354 125.49C135.354 125.49 134.64 119.647 133.69 119.342C132.739 119.037 129.07 120.463 129.07 120.463Z" fill="#4C4C78"/>
<path d="M136.275 120.53C136.275 120.53 134.78 127.255 135.157 127.528C135.534 127.802 141.203 129.26 141.408 126.917C141.424 126.72 141.438 126.531 141.451 126.351C141.534 124.844 141.333 123.334 140.856 121.902C140.697 121.423 140.585 120.91 140.626 120.53C140.721 119.579 136.275 120.53 136.275 120.53Z" fill="#4C4C78"/>
<path d="M134.42 35.3826C134.42 35.3826 129.834 46.6481 130.65 43.0298C131.19 40.6335 127.7 37.4498 125.286 35.5791C124.057 34.6206 123.108 34.012 123.108 34.012C123.108 34.012 131.719 23.9734 131.109 28.3042C130.941 29.4903 131.104 30.6996 131.578 31.7995C132.529 34.0583 134.42 35.3826 134.42 35.3826Z" fill="#FFB9B9"/>
<path d="M105.124 51.3863C104.881 51.324 104.485 51.3639 104.074 51.4518C103.379 51.6124 102.695 51.82 102.028 52.0732C102.028 52.0732 98.6522 52.4806 99.1618 48.9406C99.5404 46.3015 102.542 47.26 104.045 47.915C104.556 48.1402 104.895 48.3287 104.895 48.3287L105.124 51.3863Z" fill="#FFB9B9"/>
<path opacity="0.1" d="M105.124 51.3864C104.882 51.3241 104.485 51.364 104.075 51.4519C103.707 50.5253 103.987 48.3288 104.046 47.915C104.557 48.1403 104.896 48.3288 104.896 48.3288L105.124 51.3864Z" fill="black"/>
<path d="M105.139 48.0064L104.255 47.8467C104.255 47.8467 103.803 50.8819 104.394 51.6806H105.41L105.139 48.0064Z" fill="#CBCDDA"/>
<path d="M122.856 53.5446C122.856 53.5446 120.156 51.9295 119.833 53.9679C119.511 56.0063 119.086 59.4888 119.086 59.4888L118.338 63.9218L117.37 72.8038L117.506 74.315C117.506 74.315 120.381 73.347 121.056 73.6872C121.73 74.0275 122.279 69.9507 122.279 69.9507L123.397 65.7382L123.567 56.805L122.856 53.5446Z" fill="#4C4C78"/>
<path opacity="0.1" d="M122.856 53.5446C122.856 53.5446 120.156 51.9295 119.833 53.9679C119.511 56.0063 119.086 59.4888 119.086 59.4888L118.338 63.9218L117.37 72.8038L117.506 74.315C117.506 74.315 120.381 73.347 121.056 73.6872C121.73 74.0275 122.279 69.9507 122.279 69.9507L123.397 65.7382L123.567 56.805L122.856 53.5446Z" fill="black"/>
<path d="M121.401 43.0811C121.401 43.0811 118.599 46.2409 114.345 46.8767C110.091 47.5125 104.841 47.7185 104.841 47.7185C104.841 47.7185 103.517 50.0876 105.428 52.61L116.131 52.3736C116.131 52.3736 118.5 51.8592 120.335 52.3736L121.401 43.0811Z" fill="#4C4C78"/>
<path opacity="0.05" d="M121.401 43.0811C121.401 43.0811 118.599 46.2409 114.345 46.8767C110.091 47.5125 104.841 47.7185 104.841 47.7185C104.841 47.7185 103.517 50.0876 105.428 52.61L116.131 52.3736C116.131 52.3736 118.5 51.8592 120.335 52.3736L121.401 43.0811Z" fill="black"/>
<path opacity="0.1" d="M131.125 31.702C130.08 33.9385 128.263 35.5871 125.629 35.5871C125.513 35.5871 125.399 35.5871 125.286 35.5791C124.057 34.6206 123.108 34.012 123.108 34.012C123.108 34.012 131.719 23.9734 131.109 28.3042C130.92 29.6301 130.704 30.7068 131.125 31.702Z" fill="black"/>
<path d="M132.192 28.8189C132.191 30.117 131.805 31.3857 131.083 32.4645C130.361 33.5434 129.335 34.3839 128.136 34.88C126.936 35.376 125.616 35.5052 124.343 35.2513C123.07 34.9973 121.901 34.3716 120.984 33.4533C120.066 32.5349 119.442 31.3652 119.189 30.0919C118.936 28.8186 119.067 27.499 119.564 26.2999C120.061 25.1008 120.903 24.076 121.982 23.3551C123.062 22.6343 124.331 22.2497 125.629 22.25C126.492 22.2483 127.347 22.4171 128.144 22.7467C128.941 23.0763 129.666 23.5602 130.276 24.1706C130.885 24.781 131.368 25.5059 131.697 26.3036C132.026 27.1013 132.194 27.9561 132.192 28.8189Z" fill="#FFB9B9"/>
<path d="M136.203 68.9315C136.203 68.9315 121.564 70.2239 121.027 68.3548C120.49 66.4858 122.521 61.425 122.521 61.425L121.859 54.3593L121.835 54.0893C121.835 54.0893 123.669 46.4454 123.602 45.8351C123.538 45.2856 126.554 38.8717 127.174 37.5602C127.247 37.4084 127.286 37.3253 127.286 37.3253L127.402 37.3924L127.454 37.4228L128.171 37.8413L131.003 37.1704L134.417 35.3828L134.736 54.9376L136.203 68.9315Z" fill="#CBCDDA"/>
<path opacity="0.1" d="M128.594 37.5619C128.594 37.5619 127.592 37.2903 127.201 38.2919C127.047 38.7225 126.866 39.1425 126.657 39.5492L126.268 41.8751L125.554 45.5493L125.026 61.8037L125.264 64.6903L126.573 62.3644L126.811 47.1707V45.2809C126.887 43.647 127.256 42.0401 127.9 40.5364L128.082 40.1099L129.22 38.6482L128.594 37.5619Z" fill="black"/>
<path d="M128.391 37.3568C128.391 37.3568 127.388 37.0852 126.998 38.0869C126.845 38.5176 126.663 38.9376 126.454 39.3441L126.064 41.6716L125.35 45.3458L124.824 61.6002L125.062 64.4885L126.371 62.1545L126.609 46.9705V45.0759C126.687 43.4421 127.056 41.8355 127.698 40.3313L127.882 39.9048L129.019 38.4447L128.391 37.3568Z" fill="#4C4C78"/>
<path opacity="0.1" d="M132.671 33.1621C132.671 33.1621 129.206 36.8363 127.982 37.2724C127.982 37.2724 128.594 40.0584 129.206 40.6016C129.206 40.6016 132.842 36.8938 133.486 36.5935L134.026 35.2724L132.671 33.1621Z" fill="black"/>
<path d="M132.671 32.9531C132.671 32.9531 129.206 36.6273 127.982 37.0634C127.982 37.0634 128.594 39.8495 129.206 40.3926C129.206 40.3926 132.842 36.6848 133.486 36.3845L134.026 35.065L132.671 32.9531Z" fill="#CBCDDA"/>
<path opacity="0.1" d="M127.488 37.3252L127.453 37.421L126.343 40.3972L124.357 46.0123C124.357 46.0123 124.34 46.0698 124.305 46.172C123.976 47.1944 122.207 52.7425 121.859 54.3544L121.835 54.0844C121.835 54.0844 123.669 46.4404 123.602 45.8302C123.538 45.2807 126.554 38.8668 127.174 37.5552C127.273 37.4881 127.349 37.4306 127.402 37.3875L127.488 37.3252Z" fill="black"/>
<path d="M127.286 37.3232L126.139 40.3968L124.153 46.012C124.153 46.012 124.135 46.0695 124.1 46.1717C123.752 47.2612 121.766 53.4802 121.607 54.6176C121.426 55.8668 118.929 62.6194 118.929 62.6194L117.503 74.3114C116.225 73.3193 118.04 63.768 118.04 63.768C118.04 63.768 120.078 49.6031 120.56 44.8905C121.043 40.1779 123.645 38.8009 123.645 38.8009C124.846 38.7402 125.929 38.2098 126.596 37.8025C126.836 37.6584 127.067 37.4983 127.286 37.3232Z" fill="#4C4C78"/>
<path opacity="0.1" d="M141.671 112.548C141.366 114.824 140.959 121.174 140.959 121.174C139.532 123.313 136.373 122.158 136.373 122.158C136.373 122.158 136.034 121.519 135.524 119.101C135.015 116.682 134.71 108.163 134.71 108.163L133.52 101.006C132.433 98.2535 132.195 94.993 132.195 94.993C131.716 93.7358 130.564 85.4816 130.564 85.4816C130.564 85.4816 131.043 92.886 130.735 96.7934C130.427 100.701 132.296 105.958 132.296 105.958C132.296 105.958 133.35 110.885 132.805 112.414C132.261 113.942 134.165 120.259 134.165 120.259C134.005 122.094 128.596 121.347 128.596 121.347C128.596 121.347 126.051 114.517 125.606 110.407C125.339 107.931 124.901 105.475 124.297 103.059L123.856 97.3509L123.074 93.977L122.141 89.528C121.086 86.2676 120.765 80.8154 120.765 80.8154L119.949 75.4654C119.415 72.82 120.109 69.7145 120.569 68.0898C120.768 67.3853 120.928 66.9556 120.928 66.9556C121.396 67.2879 124.077 67.6777 125.463 67.994C126.222 68.1689 127.003 68.2313 127.78 68.1793C131.285 67.9009 134.753 67.265 138.13 66.2815C138.358 66.2128 138.48 66.1729 138.48 66.1729L138.552 66.7847L138.721 68.2416L139.023 70.8279C139.023 70.8279 139.94 84.619 139.397 86.4832C138.854 88.3475 139.77 94.6304 139.77 94.6304C139.261 96.1209 140.857 102.179 140.857 102.179C140.857 102.179 141.978 110.271 141.671 112.548Z" fill="black"/>
<path d="M141.671 112.348C141.366 114.625 140.959 120.975 140.959 120.975C139.532 123.115 136.373 121.959 136.373 121.959C136.373 121.959 136.034 121.32 135.524 118.903C135.015 116.486 134.71 107.963 134.71 107.963L133.52 100.797C132.441 98.0445 132.195 94.7761 132.195 94.7761C131.716 93.5189 130.564 85.2647 130.564 85.2647C130.564 85.2647 131.043 92.669 130.735 96.5764C130.427 100.484 132.296 105.748 132.296 105.748C132.296 105.748 133.35 110.674 132.805 112.203C132.261 113.732 134.165 120.05 134.165 120.05C134.005 121.884 128.596 121.136 128.596 121.136C128.596 121.136 126.051 114.315 125.606 110.203C125.339 107.726 124.901 105.271 124.297 102.855L123.856 97.1483L123.074 93.7856L122.141 89.3367C121.086 86.0746 120.765 80.6224 120.765 80.6224L119.949 75.2724C119.415 72.627 120.109 69.5215 120.569 67.8968C120.768 67.1939 120.928 66.7642 120.928 66.7642C121.396 67.0965 124.077 67.4847 125.463 67.801C126.222 67.9767 127.003 68.0391 127.78 67.9863C131.285 67.7079 134.753 67.072 138.13 66.0885L138.48 65.9814L138.552 66.5917L138.721 68.0502L139.023 70.6365C139.023 70.6365 139.94 84.426 139.397 86.2919C138.854 88.1577 139.77 94.439 139.77 94.439C139.261 95.9279 140.857 101.986 140.857 101.986C140.857 101.986 141.978 110.069 141.671 112.348Z" fill="#474463"/>
<path opacity="0.1" d="M132.192 28.8189C132.194 29.9668 131.894 31.095 131.323 32.0906C130.3 32.2711 129.212 32.0714 128.447 31.3957C127.923 30.934 127.584 30.303 127.134 29.7678C126.842 29.439 126.529 29.1299 126.196 28.8429C125.979 28.6264 125.729 28.4448 125.457 28.3045C125.319 28.2352 125.168 28.1983 125.014 28.1967C124.861 28.195 124.709 28.2286 124.57 28.2949C124.209 28.4962 124.091 28.9451 123.881 29.303C123.724 29.6102 123.455 29.8452 123.129 29.9595C122.966 30.0116 122.791 30.0101 122.629 29.9552C122.467 29.9002 122.327 29.7948 122.23 29.6544C122.008 29.2726 122.171 28.6767 121.798 28.4435C121.7 28.395 121.599 28.3534 121.495 28.3189C121.016 28.1017 120.96 27.4579 120.918 26.9307C120.897 26.6719 120.841 26.3796 120.624 26.2406C120.407 26.1016 120.121 26.1719 119.862 26.1767C119.786 26.1797 119.709 26.1738 119.634 26.1591C120.244 24.7839 121.308 23.66 122.648 22.9755C123.987 22.291 125.522 22.0876 126.993 22.3992C128.465 22.7108 129.785 23.5185 130.733 24.6871C131.68 25.8558 132.198 27.3145 132.198 28.8189H132.192Z" fill="black"/>
<path d="M119.232 20.2817C118.979 20.4678 118.77 20.7059 118.618 20.9798C118.465 21.2537 118.373 21.5572 118.348 21.8696C118.336 21.974 118.344 22.0798 118.372 22.1811C118.417 22.2887 118.47 22.3923 118.532 22.4911C118.867 23.1572 118.355 23.9464 118.42 24.6892C118.465 25.0401 118.635 25.363 118.899 25.598C119.163 25.833 119.504 25.9642 119.858 25.9672C120.117 25.9672 120.401 25.8905 120.62 26.0311C120.839 26.1716 120.893 26.4624 120.914 26.7212C120.955 27.2484 121.008 27.8921 121.489 28.1094C121.592 28.1447 121.694 28.1863 121.792 28.234C122.166 28.4672 122.003 29.0647 122.225 29.4449C122.323 29.5853 122.463 29.6907 122.625 29.7456C122.787 29.8006 122.962 29.8021 123.125 29.75C123.45 29.6361 123.719 29.4016 123.876 29.095C124.082 28.7356 124.205 28.2963 124.566 28.087C124.704 28.0201 124.856 27.986 125.01 27.9874C125.164 27.9888 125.315 28.0256 125.452 28.095C125.725 28.2359 125.975 28.418 126.192 28.635C126.525 28.9216 126.838 29.2306 127.13 29.5599C127.58 30.0935 127.919 30.7245 128.443 31.1861C129.43 32.0536 130.941 32.1446 132.158 31.6446C132.334 31.586 132.493 31.4851 132.62 31.3507C132.731 31.1961 132.803 31.0168 132.829 30.8283C132.953 30.2269 132.989 29.6108 132.935 28.9992C132.892 28.5199 132.794 28.0407 132.828 27.5615C132.861 27.0471 133.045 26.5503 133.071 26.0359C133.115 25.1253 132.663 24.2611 132.112 23.5406C131.78 23.1109 131.406 22.7131 131.119 22.253C130.868 21.8537 130.686 21.4143 130.417 21.0278C129.788 20.1252 128.727 19.59 127.644 19.4031C126.561 19.2162 125.447 19.3312 124.363 19.5117C123.417 19.6715 122.465 19.8983 121.506 19.9543C120.668 20.0134 119.992 19.7306 119.232 20.2817Z" fill="#472727"/>
<path opacity="0.1" d="M127.286 37.3232L126.139 40.3968L124.153 46.012C124.153 46.012 124.136 46.0695 124.101 46.1717V46.1797L126.599 37.7993C126.838 37.6562 127.068 37.4971 127.286 37.3232Z" fill="black"/>
<path d="M139.685 72.4988C139.685 72.4988 139.804 76.2177 138.802 77.1523L136.136 72.125L138.372 71.0371L139.685 72.4988Z" fill="#FFB9B9"/>
<path opacity="0.1" d="M145.909 73.8566C144.686 75.2831 139.36 75.5387 139.36 75.5387L134.088 67.2318C134.088 67.2318 132.84 66.366 130.497 62.4665C128.153 58.5671 128.23 55.5638 128.361 53.321C128.492 51.0781 129.959 44.6322 129.959 44.6322C130.187 43.1817 133.473 34.0889 133.473 34.0889C133.818 34.7774 134.46 35.3525 135.211 35.8269C137.24 37.1049 140.072 37.6289 140.072 37.6289C144.635 38.2918 143.793 43.0044 143.793 43.0044C143.793 43.0044 143.844 61.3227 143.563 63.5145C143.282 65.7062 145.909 73.8566 145.909 73.8566Z" fill="black"/>
<path d="M139.754 73.2113L139.601 74.5707L137.749 73.8918L136.392 71.8359L137.411 71.0371L139.754 73.2113Z" fill="#CBCDDA"/>
<path opacity="0.1" d="M139.689 67.9457L138.721 68.0447L129.386 68.9776C127.888 69.1282 126.375 69.0539 124.898 68.7572L120.568 67.8914C120.768 67.1885 120.928 66.7587 120.928 66.7587C121.396 67.091 124.076 67.4792 125.463 67.7955C126.222 67.9712 127.002 68.0336 127.779 67.9808C131.285 67.7025 134.753 67.0666 138.129 66.083L138.551 66.5862L139.689 67.9457Z" fill="black"/>
<g opacity="0.1">
<path opacity="0.1" d="M121.025 66.8099C120.994 66.7947 120.964 66.7776 120.935 66.7588C120.935 66.7588 120.935 66.7684 120.926 66.7828L121.025 66.8099Z" fill="black"/>
<path opacity="0.1" d="M140.864 101.984C140.864 101.984 139.266 95.9259 139.777 94.4371C139.777 94.4371 138.86 88.1589 139.405 86.2899C139.95 84.4208 139.03 70.6346 139.03 70.6346L138.728 68.0482L138.558 66.5897L138.488 65.9795L138.137 66.0865L137.919 66.1504L137.947 66.3869L138.116 67.8438L138.418 70.4301C138.418 70.4301 139.335 84.2211 138.793 86.0854C138.252 87.9497 139.166 94.2326 139.166 94.2326C138.656 95.723 140.252 101.779 140.252 101.779C140.252 101.779 141.37 109.866 141.068 112.14C140.766 114.415 140.354 120.767 140.354 120.767C139.312 122.331 137.346 122.136 136.36 121.917L136.378 121.955C136.378 121.955 139.538 123.112 140.964 120.971C140.964 120.971 141.372 114.618 141.678 112.345C141.985 110.072 140.864 101.984 140.864 101.984Z" fill="black"/>
<path opacity="0.1" d="M132.815 112.209C133.358 110.681 132.305 105.754 132.305 105.754C132.305 105.754 130.438 100.482 130.743 96.5829C130.871 94.9551 130.863 92.7218 130.808 90.6722C130.375 88.0284 129.96 85.0811 129.96 85.0811C129.96 85.0811 130.439 92.4854 130.133 96.3912C129.826 100.297 131.693 105.564 131.693 105.564C131.693 105.564 132.748 110.489 132.203 112.018C131.658 113.547 133.559 119.857 133.559 119.857C133.423 121.326 129.933 121.135 128.548 121.007L128.601 121.147C128.601 121.147 134.002 121.895 134.171 120.061C134.174 120.056 132.272 113.738 132.815 112.209Z" fill="black"/>
</g>
<path d="M146.113 73.8566C144.891 75.2831 139.563 75.5387 139.563 75.5387L134.291 67.2318C134.291 67.2318 133.044 66.366 130.699 62.4665C128.353 58.5671 128.433 55.5638 128.563 53.321C128.692 51.0781 130.16 44.6322 130.16 44.6322C130.389 43.1817 133.675 34.0889 133.675 34.0889C134.018 34.7774 134.66 35.3525 135.413 35.8269C137.442 37.1049 140.274 37.6289 140.274 37.6289C144.835 38.2918 143.993 43.0044 143.993 43.0044C143.993 43.0044 144.044 61.3227 143.763 63.5145C143.482 65.7062 146.113 73.8566 146.113 73.8566Z" fill="#4C4C78"/>
<path opacity="0.1" d="M134.65 38.5969L133.503 39.0234L134.267 39.5586L128.563 53.3161C128.696 51.0796 130.161 44.6274 130.161 44.6274C130.389 43.1769 133.675 34.084 133.675 34.084C134.019 34.7725 134.661 35.3476 135.413 35.822L134.65 38.5969Z" fill="black"/>
<path opacity="0.1" d="M136.025 63.1058L141.859 61.6025L142.625 63.9716L136.663 65.4253L136.025 63.1058Z" fill="black"/>
<path opacity="0.1" d="M139.362 39.5653C139.362 39.5653 136.712 42.059 137.712 47.6166C138.712 53.1743 140.311 59.208 140.311 59.208L135.998 71.1571C135.998 71.1571 139.005 74.2914 140.482 74.6716L144.787 65.1171C144.787 65.1171 146.8 61.8055 146.265 56.6089C145.73 51.4123 143.794 43.0031 143.794 43.0031C143.794 43.0031 143.795 37.8848 139.362 39.5653Z" fill="black"/>
<path d="M139.566 39.5653C139.566 39.5653 136.914 42.059 137.911 47.6166C138.908 53.1743 140.509 59.208 140.509 59.208L136.195 71.1571C136.195 71.1571 139.202 74.2914 140.679 74.6716L144.993 65.1171C144.993 65.1171 147.006 61.8055 146.47 56.6089C145.935 51.4123 143.999 43.0031 143.999 43.0031C143.999 43.0031 143.999 37.8848 139.566 39.5653Z" fill="#4C4C78"/>
<path opacity="0.1" d="M136.339 71.4111C136.339 71.4111 139.701 76.0661 139.447 77.3058C139.193 78.5454 138.208 77.8825 138.208 77.8825L136.883 76.0661L135.693 72.6683C135.693 72.6683 135.81 71.2018 136.339 71.4111Z" fill="black"/>
<path opacity="0.1" d="M135.932 71.4111C135.932 71.4111 139.286 76.0661 139.04 77.3058C138.794 78.5454 137.801 77.8825 137.801 77.8825L136.475 76.0661L135.286 72.6683C135.286 72.6683 135.403 71.2018 135.932 71.4111Z" fill="black"/>
<path d="M136.136 71.4111C136.136 71.4111 139.49 76.0661 139.243 77.3058C138.995 78.5454 138.003 77.8825 138.003 77.8825L136.679 76.0661L135.49 72.6683C135.49 72.6683 135.605 71.2018 136.136 71.4111Z" fill="#474463"/>
</g>
<defs>
<linearGradient id="paint0_linear" x1="122.835" y1="128.714" x2="122.835" y2="18.8279" gradientUnits="userSpaceOnUse">
<stop stop-color="#808080" stop-opacity="0.25"/>
<stop offset="0.54" stop-color="#808080" stop-opacity="0.12"/>
<stop offset="1" stop-color="#808080" stop-opacity="0.1"/>
</linearGradient>
<clipPath id="clip0">
<rect width="166.798" height="133" fill="white"/>
</clipPath>
</defs>
</svg>