<svg width="91" height="40" viewBox="0 0 91 40" fill="none" xmlns="http://www.w3.org/2000/svg">
    <path d="M16.0225 34.7434C14.9002 34.7434 13.9333 34.7434 12.8455 34.7434C12.8455 36.0097 12.8627 37.2412 12.8455 38.4728C12.8455 39.184 12.4829 39.687 11.8095 39.9125C11.1706 40.1207 10.5662 39.9646 10.2036 39.3922C9.99645 39.0799 9.91012 38.6463 9.89285 38.2647C9.85832 37.1025 9.84105 35.9576 9.89285 34.7954C9.91012 34.1883 9.72018 33.8935 9.13312 33.6506C-0.967893 29.4529 -3.21256 16.1658 4.98911 8.94983C6.18051 7.90907 7.64818 7.1285 9.06405 6.38262C9.70292 6.05304 9.94465 5.72347 9.91012 5.02963C9.85832 3.90213 9.87558 2.77464 9.89285 1.64715C9.91012 0.641076 10.4972 -0.00072742 11.3778 -0.00072742C12.2584 -0.00072742 12.8455 0.658423 12.8455 1.66449C12.8627 2.84402 12.8455 4.02356 12.8455 5.23778C13.916 5.23778 14.8829 5.23778 16.0053 5.23778C16.0053 4.16232 15.988 3.10422 16.0053 2.04611C16.0053 1.68184 16.0053 1.28288 16.1261 0.935959C16.3851 0.224771 16.9722 -0.0874577 17.7147 0.0166186C18.4571 0.138041 18.9233 0.606384 18.9406 1.36961C18.9924 2.58383 18.9924 3.79806 18.9579 5.01228C18.9406 5.61939 19.1133 5.91428 19.7176 6.12243C21.6687 6.76423 23.3436 7.805 24.8113 9.19268C25.6919 10.0253 25.83 10.9099 25.1566 11.6038C24.535 12.2456 23.6544 12.1762 22.8083 11.3956C15.988 5.23778 5.40351 8.42945 3.31424 17.2759C2.12284 22.2716 4.31571 27.4754 8.70145 30.112C13.0699 32.7313 18.6989 32.2282 22.5321 28.8458C22.722 28.6723 22.9119 28.4815 23.1019 28.3254C23.7925 27.7703 24.6386 27.7876 25.1911 28.3948C25.7437 29.0019 25.7437 29.8518 25.1221 30.4936C23.6199 32.0201 21.8587 33.1476 19.8385 33.8241C19.1478 34.0496 18.9579 34.3791 18.9924 35.0556C19.0442 36.0964 19.0097 37.1372 19.0097 38.1779C18.9924 39.3228 18.4226 39.9993 17.4902 39.9819C16.5923 39.9646 16.0398 39.3054 16.0398 38.1953C16.0053 37.0851 16.0225 35.9576 16.0225 34.7434Z" fill="white"/>
    <path d="M27.7129 17.0507C28.6108 16.9119 29.3532 16.7558 30.1302 16.6691C31.1662 16.565 32.1332 17.1548 32.5821 18.1088C33.0483 19.0628 32.8929 20.1556 32.2022 20.9362C31.4943 21.7341 30.372 22.0117 29.3705 21.63C29.1288 21.5433 28.9043 21.4219 28.5762 21.2658C28.5762 23.2085 28.5762 25.0646 28.5762 26.9553C28.0928 27.0767 27.7129 27.2328 27.7129 26.539C27.7129 23.3473 27.7129 20.1383 27.7129 17.0507ZM30.3029 17.5017C29.3532 17.4843 28.5935 18.2302 28.559 19.1669C28.5244 20.1383 29.3014 20.9536 30.2684 20.9709C31.1835 20.9709 31.995 20.2077 32.0123 19.2883C32.0468 18.317 31.2698 17.519 30.3029 17.5017Z" fill="white"/>
    <path d="M49.0374 21.1621C48.8475 20.954 48.5194 20.7458 48.5022 20.5377C48.4504 19.3234 48.4849 18.1266 48.4849 17.0338C49.4346 16.895 50.2806 16.6348 51.1094 16.7215C51.8519 16.7909 52.5599 17.2593 53.3887 17.5888C54.1829 16.7389 55.288 16.3052 56.5657 16.9817C58.2233 17.8664 57.9643 19.4449 57.9125 20.9713C57.36 21.1795 57.0665 21.1101 57.101 20.4509C57.1183 20.052 57.1183 19.6357 57.101 19.2367C57.0492 18.2306 56.3585 17.5368 55.4089 17.5194C54.4247 17.5021 53.6995 18.2133 53.6477 19.2714C53.6131 19.8438 53.6477 20.4162 53.6477 20.9713C52.9915 21.2142 52.767 21.0233 52.8016 20.4162C52.8188 20.0173 52.8188 19.601 52.8016 19.202C52.7498 18.248 52.0591 17.5541 51.1612 17.5194C50.2116 17.4847 49.4346 18.1612 49.3655 19.1326C49.3137 19.7397 49.3655 20.3468 49.3655 20.9366C49.2274 21.006 49.1238 21.0927 49.0374 21.1621Z" fill="white"/>
    <path d="M20.0283 16.9116C20.6154 16.6688 20.9262 16.8249 21.1334 17.38C21.5651 18.4728 22.0485 19.5482 22.5838 20.7798C23.1191 19.5309 23.568 18.4381 24.0342 17.3626C24.2759 16.8076 24.2759 16.8076 25.0875 16.8596C25.0357 17.0504 25.0011 17.2412 24.9321 17.3973C23.6716 20.3982 22.4111 23.3991 21.1507 26.4173C20.9435 26.9203 20.7017 27.2152 20.0283 26.9377C20.6154 25.5326 21.1679 24.1276 21.7895 22.7573C22.0831 22.1155 22.0658 21.5951 21.7723 20.9706C21.1507 19.635 20.5981 18.282 20.0283 16.9116Z" fill="white"/>
    <path d="M65.6998 17.0157C65.6998 18.2472 65.6998 19.5829 65.6998 20.8665C65.2164 21.092 64.802 21.2828 64.3703 21.5083C63.4206 21.994 62.2465 21.8552 61.4695 21.1614C60.6752 20.4675 60.3989 19.3054 60.7788 18.3166C61.1587 17.3106 62.1083 16.6167 63.1616 16.6688C64.0077 16.7208 64.8192 16.8943 65.6998 17.0157ZM64.9056 19.2533C64.9228 18.3166 64.1804 17.5361 63.248 17.5014C62.281 17.4667 61.4695 18.2299 61.4522 19.2013C61.4349 20.1033 62.2119 20.9185 63.1271 20.9532C64.0595 21.0053 64.8883 20.2074 64.9056 19.2533Z" fill="white"/>
    <path d="M40.4553 19.219C40.4725 17.7793 41.6121 16.6518 43.0453 16.6691C44.4611 16.6865 45.6007 17.866 45.5662 19.2884C45.5317 20.6934 44.4266 21.7862 43.0107 21.8036C41.5776 21.8036 40.438 20.6587 40.4553 19.219ZM42.9762 20.971C43.8913 20.9883 44.7029 20.2251 44.7547 19.3057C44.8065 18.3517 44.0122 17.5191 43.0453 17.5018C42.0956 17.4844 41.3359 18.1956 41.2841 19.1496C41.2495 20.1384 42.0093 20.9536 42.9762 20.971Z" fill="white"/>
    <path d="M74.142 20.9714C73.5377 21.1622 73.2787 21.0234 73.3132 20.451C73.3305 20.0174 73.3305 19.5837 73.3132 19.1501C73.2442 18.196 72.5535 17.5195 71.6384 17.5022C70.706 17.4848 69.9462 18.1613 69.8772 19.1327C69.8426 19.7225 69.8772 20.3296 69.8772 20.9367C69.8081 21.0061 69.739 21.0755 69.67 21.1275C69.4628 20.954 69.0656 20.7806 69.0656 20.5898C69.0138 19.3582 69.0311 18.1266 69.0311 16.9991C69.9635 16.8777 70.8096 16.6869 71.6556 16.6522C72.9334 16.6175 74.0212 17.6409 74.142 18.9419C74.1938 19.6184 74.142 20.2775 74.142 20.9714Z" fill="white"/>
    <path d="M85.7637 17.0325C86.6788 16.8937 87.4385 16.7376 88.1983 16.6682C89.5796 16.5641 90.771 17.6222 90.8919 19.0273C90.9437 19.6517 90.8919 20.2935 90.8919 20.9527C90.2876 21.1955 90.0113 21.0394 90.0631 20.3976C90.0803 19.9986 90.0803 19.5823 90.0631 19.1834C89.994 18.2293 89.3206 17.5528 88.4227 17.5182C87.4731 17.4835 86.7133 18.1426 86.627 19.1313C86.5752 19.7384 86.627 20.3282 86.627 21.0047C86.1781 21.0741 85.7809 21.2476 85.7809 20.5537C85.7637 19.3395 85.7637 18.1253 85.7637 17.0325Z" fill="white"/>
    <path d="M77.4238 21.0057C77.4238 19.5833 77.4238 18.2303 77.4238 17.0335C78.3044 16.912 79.116 16.7212 79.9448 16.6865C81.2398 16.6345 82.3276 17.6232 82.4657 18.9242C82.5175 19.4446 82.483 19.9649 82.5002 20.4853C82.5175 21.0577 82.2758 21.1965 81.6887 20.971C81.6887 20.4506 81.706 19.8956 81.6887 19.3578C81.6369 18.2477 80.9117 17.5191 79.9102 17.5191C78.9433 17.5365 78.2699 18.2303 78.2181 19.3231C78.2008 19.7047 78.2181 20.069 78.2008 20.4506C78.2008 21.0231 78.1836 21.023 77.4238 21.0057Z" fill="white"/>
    <path d="M36.2242 12.3672C36.535 12.3672 36.7422 12.3672 37.0358 12.3672C37.0358 13.8069 37.0358 15.2466 37.0358 16.7037C37.3466 16.7731 37.5883 16.8251 38.1063 16.9292C37.761 17.3108 37.5365 17.571 37.2948 17.8485C37.2257 17.8138 37.1394 17.7618 37.0703 17.7271C37.0703 18.8026 37.0703 19.878 37.0703 20.9535C36.4142 21.1963 36.207 21.0055 36.2242 20.4158C36.2415 19.5485 36.2242 18.6985 36.2242 17.8138C35.8789 17.571 35.0846 17.7445 35.4472 16.8772C35.6544 16.8425 35.8962 16.8078 36.207 16.7557C36.2242 15.264 36.2242 13.8416 36.2242 12.3672Z" fill="white"/>
    <path d="M15.6781 21.1615C15.4881 20.9534 15.1601 20.7626 15.1428 20.5544C15.091 19.3575 15.1255 18.1433 15.1255 16.877C16.1443 16.8077 17.1803 16.2352 18.0436 17.6576C17.6119 17.6576 17.2839 17.7443 17.0249 17.6403C16.4205 17.3801 16.0061 17.5709 15.9716 18.2474C15.9371 19.132 15.9543 20.0167 15.9543 20.9013C15.868 21.0054 15.7644 21.0748 15.6781 21.1615Z" fill="white"/>
</svg>