<svg width="182" height="150" viewBox="0 0 182 150" fill="none" xmlns="http://www.w3.org/2000/svg">
    <g clip-path="url(#clip0)">
        <path d="M135.171 143.899C140.891 148.332 148.078 150.433 155.285 149.779C162.492 149.125 169.184 145.765 174.013 140.375C178.841 134.985 181.449 127.966 181.311 120.731C181.172 113.496 178.298 106.582 173.266 101.381L135.171 143.899Z" fill="#F2F2F2"/>
        <path d="M65.1833 44.5898L29.8174 83.5765C31.7473 87.7709 34.66 91.4382 38.3085 94.2676L76.4038 51.7489C73.2779 48.5143 69.4339 46.0617 65.1833 44.5898Z" fill="#F2F2F2"/>
        <path d="M65.0415 44.6116V21.8145H46.4297V44.5411C52.4697 42.4996 59.0171 42.5244 65.0415 44.6116Z" fill="#0075FF"/>
        <path d="M46.4297 98.3498V121.677H65.0415V98.2793C59.0171 100.366 52.4697 100.391 46.4297 98.3498Z" fill="#0075FF"/>
        <path d="M55.8354 100.163C40.0002 100.163 27.1172 87.2801 27.1172 71.4448C27.1172 55.6095 40.0002 42.7266 55.8354 42.7266C71.6707 42.7266 84.5536 55.6095 84.5536 71.4448C84.5536 87.2801 71.6707 100.163 55.8354 100.163ZM55.8354 42.9267C40.1105 42.9267 27.3173 55.7199 27.3173 71.4448C27.3173 87.1697 40.1105 99.963 55.8354 99.963C71.5603 99.963 84.3535 87.1697 84.3535 71.4448C84.3535 55.7199 71.5603 42.9267 55.8354 42.9267Z" fill="black"/>
        <path d="M35.6221 71.4452C35.6221 76.806 37.7516 81.9472 41.5423 85.7379C45.3329 89.5285 50.4741 91.6581 55.8349 91.6581V51.2324C50.4741 51.2324 45.3329 53.362 41.5423 57.1526C37.7516 60.9433 35.6221 66.0845 35.6221 71.4452Z" fill="#575A89"/>
        <path d="M55.835 51.2324V91.6581C61.1957 91.6581 66.3369 89.5285 70.1276 85.7379C73.9182 81.9472 76.0478 76.806 76.0478 71.4452C76.0478 66.0845 73.9182 60.9433 70.1276 57.1526C66.3369 53.362 61.1957 51.2324 55.835 51.2324Z" fill="#0075FF"/>
        <path d="M55.835 75.2481C57.3824 75.2481 58.6368 73.9937 58.6368 72.4463C58.6368 70.8989 57.3824 69.6445 55.835 69.6445C54.2876 69.6445 53.0332 70.8989 53.0332 72.4463C53.0332 73.9937 54.2876 75.2481 55.835 75.2481Z" fill="#2F2E41"/>
        <path d="M55.8307 62.1699L56.5287 67.7076L57.2267 73.2454H55.8307H54.4346L55.1326 67.7076L55.8307 62.1699Z" fill="#2F2E41"/>
        <path d="M72.5423 72.6035L63.4342 72.9441L54.3262 73.2846L54.3312 72.4891L54.3362 71.6934L63.4392 72.1484L72.5423 72.6035Z" fill="#2F2E41"/>
        <path d="M85.5562 73.8456C85.0928 73.8456 84.9057 73.5272 84.6689 73.1242C84.6097 73.0235 84.5456 72.9144 84.4713 72.799L84.6398 72.6907C84.7156 72.8086 84.7811 72.92 84.8414 73.0228C85.0773 73.4243 85.2073 73.6454 85.5562 73.6454C86.7149 73.6454 87.6575 71.7152 87.6575 69.3427C87.6575 66.9702 86.7149 65.04 85.5562 65.04C84.8872 65.04 84.422 65.4527 84.048 66.3783L83.8623 66.3033C84.2714 65.2912 84.7938 64.8398 85.5562 64.8398C86.8251 64.8398 87.8576 66.8598 87.8576 69.3427C87.8576 71.8256 86.8251 73.8456 85.5562 73.8456Z" fill="black"/>
        <path d="M58.6372 142.89C73.6689 142.89 85.8545 142.442 85.8545 141.889C85.8545 141.337 73.6689 140.889 58.6372 140.889C43.6055 140.889 31.4199 141.337 31.4199 141.889C31.4199 142.442 43.6055 142.89 58.6372 142.89Z" fill="#F2F2F2"/>
        <path d="M154.898 36.2237C157.219 36.2237 159.101 34.3421 159.101 32.021C159.101 29.7 157.219 27.8184 154.898 27.8184C152.577 27.8184 150.695 29.7 150.695 32.021C150.695 34.3421 152.577 36.2237 154.898 36.2237Z" fill="#F2F2F2"/>
        <path d="M28.6182 1.18964e-05C23.8219 0.00178723 19.103 1.20854 14.8947 3.50945C10.6864 5.81036 7.12357 9.13169 4.53345 13.1684C1.94334 17.2052 0.408927 21.828 0.0711077 26.6123C-0.266711 31.3967 0.602893 36.1892 2.60007 40.5499L37.9659 1.56322C34.9588 0.525442 31.7994 -0.00289088 28.6182 1.18964e-05Z" fill="#F2F2F2"/>
        <path d="M123.707 53.1729C127.159 53.1729 129.958 50.374 129.958 46.9214C129.958 43.4688 127.159 40.6699 123.707 40.6699C120.254 40.6699 117.455 43.4688 117.455 46.9214C117.455 50.374 120.254 53.1729 123.707 53.1729Z" fill="#2F2E41"/>
        <path d="M113.188 86.1113C113.188 86.1113 118.18 98.7206 118.705 98.7206C119.23 98.7206 120.018 93.9921 120.018 93.9921L116.866 85.0605L113.188 86.1113Z" fill="#FFB9B9"/>
        <path d="M120.543 51.6995C120.543 51.6995 121.856 57.2161 121.331 58.2669C120.806 59.3177 122.382 60.8938 122.382 60.8938H126.06L128.686 56.6907L129.212 54.8519C129.212 54.8519 127.636 50.6488 127.898 50.1234C128.161 49.598 120.543 51.6995 120.543 51.6995Z" fill="#FFB9B9"/>
        <path opacity="0.1" d="M120.543 51.6995C120.543 51.6995 121.856 57.2161 121.331 58.2669C120.806 59.3177 122.382 60.8938 122.382 60.8938H126.06L128.686 56.6907L129.212 54.8519C129.212 54.8519 127.636 50.6488 127.898 50.1234C128.161 49.598 120.543 51.6995 120.543 51.6995Z" fill="black"/>
        <path d="M135.254 141.014V143.903L138.669 144.691L138.932 141.014H135.254Z" fill="#575A89"/>
        <path d="M121.332 89.2646C121.332 89.2646 117.655 95.832 118.968 99.247C120.281 102.662 125.273 119.474 125.273 119.474C125.273 119.474 128.162 128.931 128.162 129.457C128.162 129.982 130.527 141.541 131.315 141.803C132.103 142.066 139.195 142.854 139.458 142.066C139.721 141.278 139.984 137.075 139.195 136.287C138.407 135.499 134.204 111.068 134.204 111.068L133.679 102.925L140.246 123.152C140.246 123.152 142.085 135.236 142.873 136.024C143.661 136.812 141.297 137.6 142.085 138.388C142.873 139.176 145.763 141.278 145.5 142.066C145.237 142.854 151.805 142.854 152.593 142.329C153.381 141.803 153.118 133.66 153.118 133.66L149.441 122.627L145.237 95.832C145.237 95.832 143.924 87.9512 142.873 87.9512C141.822 87.9512 121.332 89.2646 121.332 89.2646Z" fill="#2F2E41"/>
        <path d="M136.042 142.853C136.042 142.853 133.94 141.014 132.89 141.54C131.839 142.065 128.424 147.056 127.373 146.794C126.322 146.531 124.746 149.621 127.373 149.883C130 150.146 134.203 149.621 134.203 149.621C135.072 149.765 135.95 149.853 136.83 149.883C137.881 149.883 140.245 150.146 140.245 149.883C140.245 149.621 139.72 143.641 139.457 143.641C139.194 143.641 136.305 143.641 136.042 142.853Z" fill="#2F2E41"/>
        <path d="M150.492 141.015C150.492 141.015 147.865 140.489 147.603 141.015C147.34 141.54 146.289 143.116 146.289 143.379C146.289 143.642 146.814 146.794 146.814 147.057C146.814 147.319 147.34 148.108 147.865 148.633C148.014 148.758 148.119 148.927 148.166 149.116C148.213 149.305 148.2 149.503 148.128 149.684C148.128 149.684 154.958 150.472 154.958 149.421C154.958 148.37 154.17 146.006 153.644 145.481C153.119 144.955 152.068 141.277 150.492 141.015Z" fill="#2F2E41"/>
        <path d="M123.696 54.0624C126.743 54.0624 129.213 51.5926 129.213 48.5459C129.213 45.4991 126.743 43.0293 123.696 43.0293C120.65 43.0293 118.18 45.4991 118.18 48.5459C118.18 51.5926 120.65 54.0624 123.696 54.0624Z" fill="#FFB9B9"/>
        <path d="M121.594 58.5292C121.594 58.5292 124.746 60.368 126.585 57.4784C128.424 54.5888 134.203 63.2576 134.203 63.2576L135.779 90.0524C135.779 90.0524 132.89 90.3151 127.898 91.6285C122.907 92.942 120.543 89.7897 120.543 89.7897L120.28 74.5535L120.806 67.4607L120.018 61.6815L120.543 58.2665L121.594 58.5292Z" fill="#0075FF"/>
        <path d="M115.816 61.9434C115.816 61.9434 113.715 62.4687 113.189 66.1465C112.664 69.8242 111.613 80.8573 111.613 80.8573L112.927 87.4246C112.927 87.4246 116.604 84.535 117.918 85.8485L117.13 81.9081L117.918 79.5438L115.554 69.2988L115.816 61.9434Z" fill="#0075FF"/>
        <path d="M121.041 54.0625C121.041 54.0625 120.545 54.0625 120.545 55.9014C120.545 57.7402 115.554 60.3671 115.554 60.3671C115.554 60.3671 115.028 61.1552 115.028 63.2568C115.028 65.3583 115.028 70.3495 115.554 71.9257C116.079 73.5018 116.867 78.7557 117.13 79.2811C117.393 79.8065 117.393 82.1707 116.867 82.6961C116.342 83.2215 118.181 86.3738 118.706 86.6365C119.231 86.8992 116.867 93.7292 118.181 93.9919C119.494 94.2546 121.858 90.8396 122.646 89.0007C123.435 87.1619 122.909 61.6806 122.646 59.8418C122.384 58.0029 121.041 54.0625 121.041 54.0625Z" fill="#575A89"/>
        <path d="M128.359 52.3727C128.359 52.3727 128.162 51.1736 129.476 52.2244C130.789 53.2752 131.052 54.0633 131.052 54.0633C131.052 54.0633 137.882 54.0633 138.144 54.8513C138.407 55.6394 137.988 62.346 137.988 62.346L141.44 75.1812C141.44 75.1812 146.288 90.0522 146.813 90.5776C147.339 91.103 142.61 88.2134 139.983 90.3149C137.356 92.4165 132.628 93.4672 132.102 92.1538C131.577 90.8403 125.798 60.3679 125.798 60.3679C125.798 60.3679 125.798 55.3767 126.586 54.8513C127.374 54.3259 128.359 52.3727 128.359 52.3727Z" fill="#575A89"/>
        <path d="M142.348 77.1797L141.297 89.2636L141.034 90.3144L144.975 95.5682C144.975 95.5682 145.763 92.6786 145.5 91.6278C145.237 90.5771 146.813 78.7559 146.813 78.7559L142.348 77.1797Z" fill="#FFB9B9"/>
        <path d="M119.376 44.6255C119.376 44.6255 118.1 41.307 119.951 40.2221L120.461 41.6899C120.461 41.6899 125.12 38.882 126.332 39.5201L125.183 41.0517C125.183 41.0517 130.608 41.0517 130.991 43.1577L129.076 43.2215C129.076 43.2215 131.118 44.5616 131.182 46.7314L127.098 46.9867L129.076 48.1354C129.076 48.1354 121.674 49.1564 119.887 46.2209L119.376 44.6255Z" fill="#2F2E41"/>
        <path d="M118.271 44.7565C118.271 44.7565 119.742 47.6984 121.704 46.9629C123.665 46.2274 121.704 43.5307 121.704 43.5307L120.396 42.877L118.271 44.7565Z" fill="#2F2E41"/>
        <path d="M165.505 149.795H108.269V149.995H165.505V149.795Z" fill="black"/>
        <path d="M137.619 55.377C137.619 55.377 139.195 55.6396 140.246 57.4785C141.297 59.3174 146.551 71.4013 146.813 71.9266C147.076 72.452 147.076 79.5447 147.076 79.5447C147.076 79.5447 143.398 77.4432 141.822 78.7567L141.56 75.6043L138.145 63.5204L137.619 59.58L137.619 55.377Z" fill="#0075FF"/>
    </g>
    <defs>
        <clipPath id="clip0">
            <rect width="181.315" height="150" fill="white"/>
        </clipPath>
    </defs>
</svg>