<svg width="202" height="150" viewBox="0 0 202 150" fill="none" xmlns="http://www.w3.org/2000/svg">
    <g clip-path="url(#clip0)">
        <path opacity="0.1" d="M20.276 15.0187C19.0213 15.5393 17.7335 16.2074 17.044 17.3786C16.3137 18.6158 16.4011 20.1522 16.5371 21.5836C17.7219 33.9987 20.8431 47.2023 15.4533 58.448C12.8371 63.9039 8.46111 68.2759 4.98055 73.2307C1.49999 78.1854 -1.12791 84.3716 0.488065 90.2004C2.46142 97.3227 9.82653 101.271 14.791 106.752C18.0404 110.336 20.3187 114.691 23.3506 118.46C26.3825 122.23 30.537 125.552 35.3772 125.773C42.3383 126.094 48.0019 120.082 54.8271 118.69C61.8193 117.264 68.86 120.892 74.5295 125.235C80.1991 129.578 85.3558 134.84 91.9615 137.551C99.2567 140.548 107.48 140.09 115.16 141.89C122.152 143.531 128.589 147.022 135.531 148.882C142.472 150.743 150.608 150.63 155.987 145.878C162.996 139.662 162.445 128.591 166.922 120.37C171.08 112.731 179.22 108.17 184.699 101.417C194.558 89.2622 194.236 70.6844 185.865 57.4652C177.493 44.2461 162.33 36.242 146.825 34.1579C139.833 33.2198 132.633 33.348 125.91 31.2134C107.917 25.5032 97.2095 5.04322 78.8395 0.785752C67.1625 -1.91595 55.806 2.76299 45.8596 8.52184C37.2262 13.5213 29.2609 11.2915 20.276 15.0187Z" fill="#0075FF"/>
        <path d="M37.8112 55.127C37.8112 55.127 31.1823 61.383 24.0677 61.5695C21.0801 61.629 18.1924 62.656 15.8383 64.4965C14.7255 65.3762 13.6957 66.3559 12.7617 67.4235" stroke="#535461" stroke-width="2" stroke-miterlimit="10"/>
        <path d="M8.27553 67.5767C9.23113 67.0911 12.8787 67.4135 12.8787 67.4135C12.8787 67.4135 10.9869 70.5503 10.0313 71.0358C9.80248 71.1715 9.54819 71.2587 9.28424 71.292C9.02028 71.3254 8.7523 71.3041 8.49689 71.2296C8.24149 71.1551 8.00412 71.0289 7.79951 70.8588C7.59489 70.6888 7.42739 70.4785 7.3074 70.2411C7.18741 70.0036 7.11747 69.744 7.10194 69.4784C7.08641 69.2128 7.12562 68.9469 7.21712 68.6971C7.30862 68.4473 7.45047 68.2189 7.63387 68.0262C7.81728 67.8334 8.03832 67.6804 8.2833 67.5767H8.27553Z" fill="#0075FF"/>
        <path d="M12.1167 62.0328C13.183 62.1454 16.0692 64.3985 16.0692 64.3985C16.0692 64.3985 12.7673 66.0028 11.7107 65.8921C11.2164 65.8174 10.7699 65.555 10.4641 65.1594C10.1584 64.7638 10.017 64.2656 10.0693 63.7684C10.1216 63.2712 10.3636 62.8133 10.7449 62.49C11.1263 62.1667 11.6176 62.003 12.1167 62.0328Z" fill="#0075FF"/>
        <path d="M21.2215 57.5643C22.0839 58.1994 23.4396 61.6023 23.4396 61.6023C23.4396 61.6023 19.7862 61.3245 18.9238 60.6913C18.5351 60.3773 18.2824 59.9255 18.2182 59.43C18.1541 58.9344 18.2834 58.4332 18.5793 58.0305C18.8751 57.6278 19.3148 57.3547 19.8069 57.2678C20.2991 57.181 20.8057 57.2872 21.2215 57.5643Z" fill="#0075FF"/>
        <path d="M28.8731 55.7358C29.8306 56.2155 31.7418 59.3406 31.7418 59.3406C31.7418 59.3406 28.0942 59.6844 27.1367 59.2047C26.8951 59.0992 26.6775 58.9456 26.4972 58.7533C26.3168 58.561 26.1776 58.334 26.0878 58.0861C25.998 57.8382 25.9596 57.5747 25.975 57.3115C25.9903 57.0483 26.0591 56.791 26.1771 56.5553C26.2951 56.3196 26.4599 56.1103 26.6614 55.9403C26.8628 55.7703 27.0968 55.6431 27.3491 55.5664C27.6013 55.4897 27.8665 55.4652 28.1285 55.4943C28.3905 55.5234 28.6439 55.6056 28.8731 55.7358Z" fill="#0075FF"/>
        <path d="M18.099 67.9354C18.4175 66.9119 17.4852 63.3691 17.4852 63.3691C17.4852 63.3691 14.7117 65.762 14.3931 66.7856C14.3034 67.0327 14.2647 67.2954 14.2794 67.5578C14.2942 67.8202 14.362 68.0769 14.4789 68.3124C14.5957 68.5478 14.7592 68.7571 14.9593 68.9275C15.1594 69.098 15.392 69.226 15.6431 69.3039C15.8941 69.3818 16.1584 69.4079 16.4198 69.3807C16.6812 69.3535 16.9344 69.2735 17.164 69.1455C17.3937 69.0176 17.5949 68.8444 17.7556 68.6364C17.9163 68.4284 18.0331 68.1899 18.099 67.9354Z" fill="#0075FF"/>
        <path d="M27.0184 65.6759C27.0184 64.6038 25.0664 61.5039 25.0664 61.5039C25.0664 61.5039 23.1358 64.6116 23.1377 65.6876C23.1392 66.2027 23.3454 66.6961 23.7107 67.0593C24.076 67.4224 24.5707 67.6256 25.0858 67.624C25.6009 67.6225 26.0943 67.4164 26.4575 67.051C26.8207 66.6857 27.0238 66.1911 27.0223 65.6759H27.0184Z" fill="#0075FF"/>
        <path d="M35.389 62.3033C35.5677 61.2467 34.1693 57.8613 34.1693 57.8613C34.1693 57.8613 31.7395 60.6038 31.5628 61.6604C31.5031 62.1561 31.6366 62.6558 31.9355 63.0557C32.2345 63.4555 32.676 63.7249 33.1683 63.8079C33.6607 63.8909 34.1661 63.7811 34.5796 63.5013C34.9931 63.2215 35.283 62.7932 35.389 62.3053V62.3033Z" fill="#0075FF"/>
        <path d="M46.4257 38.5598C46.4257 38.5598 38.4411 34.1742 36.0676 27.4559C35.0925 24.6308 33.2271 22.1983 30.7516 20.5239C29.5703 19.7378 28.3194 19.0617 27.0146 18.5039" stroke="#535461" stroke-width="2" stroke-miterlimit="10"/>
        <path d="M25.5002 14.2807C26.2557 15.0401 27.0695 18.612 27.0695 18.612C27.0695 18.612 23.5035 17.7768 22.748 17.0154C22.4143 16.6449 22.2359 16.1602 22.2498 15.6618C22.2636 15.1634 22.4686 14.6894 22.8223 14.3379C23.176 13.9865 23.6513 13.7845 24.1498 13.7739C24.6483 13.7632 25.1318 13.9447 25.5002 14.2807Z" fill="#0075FF"/>
        <path d="M31.9586 16.228C32.18 17.2768 30.9234 20.7166 30.9234 20.7166C30.9234 20.7166 28.3849 18.077 28.1634 17.0263C28.0977 16.7721 28.0842 16.5073 28.1237 16.2478C28.1631 15.9883 28.2548 15.7395 28.3931 15.5164C28.5314 15.2934 28.7135 15.1006 28.9284 14.9499C29.1433 14.7992 29.3865 14.6935 29.6433 14.6394C29.9001 14.5853 30.1653 14.5838 30.4227 14.635C30.6802 14.6862 30.9246 14.789 31.1411 14.9373C31.3577 15.0856 31.542 15.2763 31.6828 15.4978C31.8237 15.7193 31.9181 15.967 31.9606 16.226L31.9586 16.228Z" fill="#0075FF"/>
        <path d="M39.0085 23.5297C38.6705 24.5455 35.8484 26.8821 35.8484 26.8821C35.8484 26.8821 34.9899 23.3219 35.3278 22.3041C35.4903 21.8148 35.8406 21.41 36.3016 21.1789C36.7625 20.9478 37.2964 20.9092 37.7858 21.0718C38.2752 21.2343 38.6799 21.5845 38.911 22.0455C39.1421 22.5064 39.1807 23.0403 39.0182 23.5297H39.0085Z" fill="#0075FF"/>
        <path d="M43.1034 30.2387C42.9422 31.2972 40.5551 34.0766 40.5551 34.0766C40.5551 34.0766 39.1062 30.7126 39.2674 29.654C39.2943 29.3924 39.374 29.139 39.5017 28.9091C39.6294 28.6793 39.8025 28.4777 40.0104 28.3167C40.2184 28.1557 40.4568 28.0386 40.7114 27.9725C40.9659 27.9064 41.2312 27.8927 41.4912 27.9322C41.7512 27.9717 42.0005 28.0636 42.2239 28.2023C42.4473 28.341 42.6403 28.5236 42.791 28.7391C42.9418 28.9546 43.0472 29.1984 43.1009 29.4558C43.1546 29.7133 43.1554 29.979 43.1034 30.2367V30.2387Z" fill="#0075FF"/>
        <path d="M28.1776 23.7362C29.2498 23.7245 32.3341 21.7473 32.3341 21.7473C32.3341 21.7473 29.2051 19.8439 28.133 19.8555C27.6178 19.8614 27.1262 20.0718 26.7661 20.4402C26.406 20.8086 26.2071 21.305 26.213 21.8201C26.2189 22.3353 26.4293 22.8269 26.7977 23.187C27.1661 23.547 27.6625 23.746 28.1776 23.7401V23.7362Z" fill="#0075FF"/>
        <path d="M33.0646 31.5328C34.0824 31.2007 36.4345 28.3922 36.4345 28.3922C36.4345 28.3922 32.8782 27.5123 31.8604 27.8444C31.6093 27.9161 31.3752 28.0377 31.1721 28.202C30.969 28.3662 30.8011 28.5697 30.6785 28.8003C30.5559 29.0309 30.4811 29.2839 30.4585 29.5441C30.4359 29.8043 30.466 30.0664 30.547 30.3147C30.628 30.563 30.7583 30.7924 30.93 30.9892C31.1017 31.186 31.3114 31.3461 31.5464 31.46C31.7815 31.5739 32.037 31.6392 32.2979 31.6521C32.5588 31.6649 32.8196 31.625 33.0646 31.5348V31.5328Z" fill="#0075FF"/>
        <path d="M38.8523 38.4588C39.9128 38.3034 42.7058 35.9339 42.7058 35.9339C42.7058 35.9339 39.3495 34.4655 38.291 34.6209C38.0303 34.6478 37.7777 34.7271 37.5485 34.8542C37.3193 34.9812 37.1181 35.1534 36.9572 35.3602C36.7963 35.5671 36.6788 35.8043 36.612 36.0578C36.5452 36.3112 36.5304 36.5755 36.5684 36.8348C36.6065 37.0941 36.6966 37.343 36.8334 37.5666C36.9701 37.7902 37.1508 37.9837 37.3643 38.1356C37.5779 38.2875 37.82 38.3947 38.076 38.4505C38.3321 38.5064 38.5968 38.5099 38.8543 38.4608L38.8523 38.4588Z" fill="#0075FF"/>
        <path d="M101.376 144.974C140.207 144.974 171.686 113.495 171.686 74.6639C171.686 35.8325 140.207 4.35352 101.376 4.35352C62.5445 4.35352 31.0654 35.8325 31.0654 74.6639C31.0654 113.495 62.5445 144.974 101.376 144.974Z" fill="url(#paint0_linear)"/>
        <path d="M101.375 143.808C139.563 143.808 170.52 112.85 170.52 74.6626C170.52 36.4749 139.563 5.51758 101.375 5.51758C63.1877 5.51758 32.2305 36.4749 32.2305 74.6626C32.2305 112.85 63.1877 143.808 101.375 143.808Z" fill="#0075FF"/>
        <path d="M101.376 129.63C131.733 129.63 156.342 105.021 156.342 74.6637C156.342 44.3066 131.733 19.6973 101.376 19.6973C71.0185 19.6973 46.4092 44.3066 46.4092 74.6637C46.4092 105.021 71.0185 129.63 101.376 129.63Z" fill="#DDE1EC"/>
        <path opacity="0.3" d="M102.93 29.4082H99.8223V77.9651H102.93V29.4082Z" fill="#535461"/>
        <g opacity="0.1">
            <path opacity="0.1" d="M148.573 73.498H104.678V77.3826H148.573V73.498Z" fill="black"/>
            <path opacity="0.1" d="M73.6859 58.965L71.8838 62.4062L99.5032 76.8699L101.305 73.4287L73.6859 58.965Z" fill="black"/>
            <path opacity="0.1" d="M101.376 81.267C104.594 81.267 107.202 78.6582 107.202 75.4401C107.202 72.222 104.594 69.6133 101.376 69.6133C98.1576 69.6133 95.5488 72.222 95.5488 75.4401C95.5488 78.6582 98.1576 81.267 101.376 81.267Z" fill="black"/>
        </g>
        <path d="M148.573 72.7207H104.678V76.6053H148.573V72.7207Z" fill="#535461"/>
        <path d="M101.319 72.6551L73.6992 58.1914L71.8971 61.6327L99.5166 76.0963L101.319 72.6551Z" fill="#535461"/>
        <path d="M101.376 80.4896C104.594 80.4896 107.202 77.8808 107.202 74.6628C107.202 71.4447 104.594 68.8359 101.376 68.8359C98.1576 68.8359 95.5488 71.4447 95.5488 74.6628C95.5488 77.8808 98.1576 80.4896 101.376 80.4896Z" fill="#535461"/>
        <g opacity="0.1">
            <path opacity="0.1" d="M50.6774 81.2674C50.6774 50.9096 75.286 26.301 105.644 26.301C114.164 26.2935 122.57 28.27 130.194 32.0741C137.818 35.8782 144.452 41.4053 149.57 48.2176C140.216 31.2188 122.153 19.6973 101.371 19.6973C71.013 19.6973 46.4044 44.3059 46.4044 74.6637C46.3865 86.5896 50.2651 98.1948 57.4501 107.713C52.9943 99.6119 50.6642 90.5134 50.6774 81.2674Z" fill="black"/>
        </g>
        <path d="M152.161 34.2289C151.509 33.6015 146.016 37.725 146.016 37.725C146.016 37.725 144.06 38.0823 144.526 39.4245C144.992 40.7666 142.477 48.2832 142.477 48.2832L141.453 46.8517C141.552 45.1717 141.09 43.981 140.64 43.2391C140.603 43.1789 140.566 43.1206 140.529 43.0662L140.708 43.0041C140.64 42.0873 139.173 40.6908 138.394 40.0071C138.394 39.9081 138.394 39.8129 138.394 39.7119C138.443 38.6165 138.882 37.4608 138.394 36.4683C137.843 35.336 136.229 34.7669 136.093 33.5238C136.011 32.7819 136.512 32.1118 136.734 31.397C137.262 29.6878 136.165 27.9437 135.116 26.4714C134.76 25.9194 134.328 25.4211 133.832 24.9914C133.359 24.6458 132.84 24.3685 132.29 24.1679C130.753 23.5463 129.182 23.2336 127.597 22.8083C126.076 22.4043 124.674 22.212 123.13 22.7189C122.764 22.8177 122.429 23.0098 122.159 23.2764C121.792 23.6881 121.743 24.2747 121.502 24.7661C121.114 25.5566 120.277 26.0286 119.537 26.5355C118.797 27.0424 118.055 27.7378 118.051 28.6118C118.051 29.8529 119.469 30.6337 119.943 31.7894C120.386 32.8654 119.943 34.0638 119.696 35.1981C119.593 35.5647 119.583 35.9512 119.667 36.3226C119.765 36.5995 119.912 36.8562 120.102 37.0801C120.395 37.4686 120.71 37.8299 121.023 38.1989L120.879 38.2552C118.272 37.9872 116.596 41.2968 116.596 41.2968C116.717 41.3221 116.831 41.3512 116.944 41.3842L116.833 41.5279C116.046 42.5508 115.402 43.6768 114.92 44.8745L112.783 47.7374C112.783 47.7374 112.317 40.5782 113.436 38.968C114.555 37.3579 112.412 36.3731 112.412 36.3731C112.412 36.3731 107.751 31.1834 107.104 31.6301C106.457 32.0768 108.687 37.7153 110.643 38.6106C110.643 38.6106 110.837 40.3995 110.449 41.5629C110.214 42.299 108.959 50.0643 108.959 50.0643C108.959 50.0643 107.842 56.5961 112.964 53.3661C116.291 51.2723 118.441 47.6675 119.537 45.4028C119.613 45.2435 119.685 45.0914 119.752 44.9464C119.803 45.1865 119.837 45.4299 119.855 45.6747L120.05 53.1583C120.099 55.0093 119.695 56.8443 118.872 58.5034L116.59 63.1319L116.845 63.2096L116.691 63.431C115.188 65.6433 112.632 70.6174 117.894 73.1521L124.886 74.0475L124.513 75.8363C124.513 75.8363 121.627 81.2941 120.788 85.0524C120.266 87.3539 119.452 89.5791 118.366 91.6736L118.581 91.7882C118.536 91.8387 118.49 91.8912 118.445 91.9456C118.021 92.4224 117.741 93.0097 117.637 93.6392L116.689 94.9833C116.689 94.9833 116.316 100.53 117.062 101.874C117.47 102.609 118.824 103.075 119.976 103.347C121.685 103.753 123.064 101.987 122.157 100.532L122.145 100.513H122.128C121.934 99.6098 121.339 96.8071 121.533 95.7427C121.588 95.4397 121.638 95.1387 121.664 94.8318C121.71 94.4285 121.833 94.0377 122.025 93.68C122.056 93.6198 122.089 93.5615 122.122 93.5033L122.223 93.546C122.536 93.68 122.844 93.8063 123.138 93.917C122.683 94.3307 122.361 95.1872 122.749 96.9489C122.749 96.9489 122.786 101.356 123.122 102.049C123.458 102.743 127.218 103.659 127.871 102.945C128.524 102.23 127.452 99.7671 127.452 99.7671L127.419 99.7904C127.203 98.3628 126.937 95.8068 127.591 94.8007C127.856 94.3948 128.112 93.9752 128.341 93.5829L128.483 93.3401C129.699 93.9461 130.985 94.4025 131.688 94.086C131.688 94.086 134.76 86.9267 134.574 86.0333C134.387 85.1398 139.323 75.0264 139.323 75.0264C139.323 75.0264 143.512 70.3649 138.392 67.1524C136.767 66.1288 135.582 65.4413 134.721 64.9771L134.001 61.209C133.63 59.2336 133.697 57.2011 134.195 55.254L134.972 52.2901L135.036 52.0376C135.036 52.0376 136.992 48.0113 136.899 46.1311C136.892 45.9851 136.908 45.8388 136.947 45.698C136.969 45.7874 136.992 45.8806 137.017 45.9777C137.531 47.9318 138.208 49.8394 139.041 51.6802C140.527 55.0326 142.731 54.7665 143.94 54.2906C144.198 54.1906 144.428 54.0278 144.608 53.8169C144.788 53.606 144.913 53.3536 144.971 53.0826C145.406 50.9965 146.6 45.1522 146.676 43.5382C146.744 42.2761 146.9 41.0203 147.142 39.7799C150.207 37.9872 152.814 34.8562 152.161 34.2289Z" fill="url(#paint1_linear)"/>
        <path d="M129.362 91.5688C129.362 91.5688 128.953 92.3903 128.391 93.377C128.172 93.7655 127.927 94.1831 127.677 94.5851C126.789 96.0049 127.677 100.528 127.677 100.528L125.734 100.795L123.792 99.8234L123.437 96.541V94.1403L125.651 91.6639L126.622 90.5918L129.362 91.5688Z" fill="#F8BDC5"/>
        <g opacity="0.1">
            <path opacity="0.1" d="M129.361 91.5687C129.361 91.5687 128.951 92.3903 128.39 93.3769C127.532 92.9187 126.704 92.4089 125.908 91.8504L125.737 91.7299L125.646 91.6639L126.617 90.5918L129.361 91.5687Z" fill="black"/>
        </g>
        <path d="M138.858 74.9765C138.858 74.9765 134.156 85.0005 134.335 85.8881C134.513 86.7758 131.584 93.8728 131.584 93.8728C130.916 94.1875 129.689 93.7349 128.531 93.1348C127.658 92.6695 126.815 92.1506 126.006 91.5809L125.835 91.4605L125.732 91.3867L133.451 70.0062L126.622 64.9971L126.117 64.6261L123.063 62.373L132.386 64.0589C132.386 64.0589 132.711 64.0182 134.426 64.9776C135.249 65.438 136.393 66.1275 137.974 67.1646C142.848 70.3636 138.858 74.9765 138.858 74.9765Z" fill="#5E52AD"/>
        <g opacity="0.03">
            <path opacity="0.03" d="M138.858 74.9765C138.858 74.9765 134.156 85.0005 134.335 85.8881C134.513 86.7758 131.584 93.8728 131.584 93.8728C130.916 94.1875 129.689 93.7349 128.531 93.1348C127.658 92.6695 126.815 92.1506 126.006 91.5809L125.835 91.4605L125.732 91.3867L133.451 70.0062L126.622 64.9971L126.117 64.6261L123.063 62.373L132.386 64.0589C132.386 64.0589 132.711 64.0182 134.426 64.9776C135.249 65.438 136.393 66.1275 137.974 67.1646C142.848 70.3636 138.858 74.9765 138.858 74.9765Z" fill="black"/>
        </g>
        <path d="M124.57 93.3412C124.57 93.3412 122.263 92.9857 123.063 96.7129C123.063 96.7129 123.098 101.083 123.419 101.763C123.739 102.443 127.323 103.359 127.942 102.651C128.562 101.942 127.542 99.5021 127.542 99.5021C127.542 99.5021 124.926 101.409 124.215 99.368C123.504 97.3267 124.57 93.3412 124.57 93.3412Z" fill="#5D3E53"/>
        <path d="M122.972 92.6327C122.72 92.8724 122.516 93.1569 122.368 93.4717C122.185 93.8283 122.068 94.2153 122.024 94.6138C122.001 94.9168 121.953 95.2179 121.902 95.517C121.681 96.7814 122.529 100.528 122.529 100.528L119.158 101.06L117.916 99.7298L117.65 96.8028C117.982 95.7992 118.161 94.7517 118.183 93.6951C118.183 92.9318 118.571 92.2501 118.959 91.7528C119.223 91.4211 119.525 91.1218 119.859 90.8613C119.859 90.8613 123.683 92.0112 122.972 92.6327Z" fill="#F8BDC5"/>
        <g opacity="0.1">
            <path opacity="0.1" d="M122.974 92.6327C122.722 92.8724 122.517 93.1569 122.37 93.4717C120.989 92.8482 119.538 92.0616 119.01 91.7703L118.969 91.7489C119.232 91.4171 119.534 91.1179 119.868 90.8574C119.868 90.8574 123.685 92.0111 122.974 92.6327Z" fill="black"/>
        </g>
        <path d="M133.887 72.3155C133.887 72.3155 131.67 76.4856 130.249 79.9448C129.316 82.2173 127.39 87.6284 126.17 91.074L125.991 91.5829C125.455 93.1076 125.098 94.1389 125.098 94.1389C124.861 94.1405 124.626 94.1058 124.401 94.036C124.191 93.9797 123.956 93.9039 123.705 93.8107L123.424 93.7039C123.144 93.5951 122.841 93.4689 122.551 93.3368C121.141 92.7075 119.638 91.8878 119.092 91.5887L118.886 91.4741C119.927 89.3885 120.704 87.1812 121.2 84.9034C121.998 81.1781 124.748 75.7747 124.748 75.7747L125.104 73.9995L118.449 73.1119C113.436 70.6063 115.872 65.6671 117.303 63.4743C117.548 63.0937 117.811 62.7261 118.094 62.373L123.418 63.5384C123.418 63.5384 124.257 63.8064 126.121 64.6319L126.978 65.0204C128.023 65.5001 129.309 66.1177 130.862 66.9102C136.103 69.5595 133.887 72.3155 133.887 72.3155Z" fill="#5E52AD"/>
        <path d="M122.499 100.262C122.688 100.582 122.779 100.951 122.76 101.323C122.74 101.694 122.611 102.051 122.389 102.35C122.167 102.648 121.861 102.874 121.511 102.999C121.161 103.124 120.781 103.142 120.42 103.051C119.331 102.781 118.039 102.319 117.651 101.591C116.942 100.26 117.295 94.7599 117.295 94.7599L118.227 93.3848C118.227 93.3848 117.74 99.4621 118.894 99.9885C120.047 100.515 122.487 100.235 122.487 100.235L122.499 100.262Z" fill="#5D3E53"/>
        <path d="M123.442 23.1131C123.087 23.2117 122.766 23.4028 122.509 23.6667C122.16 24.0745 122.121 24.6572 121.884 25.1447C121.515 25.9216 120.719 26.3975 120.012 26.8928C119.305 27.3881 118.6 28.0853 118.596 28.9516C118.596 30.183 119.955 30.956 120.398 32.1C120.82 33.1683 120.398 34.355 120.163 35.4796C120.065 35.8437 120.056 36.226 120.136 36.5944C120.229 36.8678 120.369 37.1223 120.552 37.3461C121.408 38.5115 122.472 39.5448 123.045 40.8713C123.481 41.8794 123.601 42.9923 123.716 44.0858C123.881 45.659 124.046 47.2614 123.747 48.8152C123.718 48.9082 123.718 49.0078 123.747 49.1008C123.798 49.1899 123.878 49.2585 123.974 49.295C124.539 49.5696 125.154 49.7271 125.782 49.758C126.409 49.7889 127.037 49.6926 127.626 49.4749C128.215 49.2572 128.755 48.9226 129.212 48.4911C129.668 48.0597 130.033 47.5403 130.284 46.9643C130.673 46.0844 130.822 45.022 131.591 44.451C131.681 44.3767 131.789 44.3278 131.904 44.3092C132.086 44.3142 132.261 44.373 132.409 44.4781C133.407 45.0181 134.618 45.0336 135.73 44.8122C136.402 44.6782 137.09 44.4393 137.535 43.9149C138.411 42.8738 137.923 41.3181 137.982 39.9604C138.028 38.8747 138.446 37.7287 137.982 36.7459C137.457 35.6233 135.917 35.06 135.789 33.8325C135.711 33.0983 136.189 32.4321 136.401 31.7252C136.904 30.0296 135.859 28.3009 134.86 26.8423C134.524 26.2982 134.113 25.8044 133.639 25.3759C133.191 25.0349 132.696 24.7601 132.17 24.5601C130.708 23.9444 129.216 23.6336 127.703 23.2141C126.254 22.8004 124.92 22.6081 123.442 23.1131Z" fill="#85555C"/>
        <path d="M130.87 48.4514H125.723V40.1113C125.876 39.3103 125.966 38.4985 125.991 37.6834C125.991 37.4096 125.991 37.1299 125.991 36.8482C125.943 35.8538 125.737 34.8613 125.197 34.2553C123.777 32.6587 129.81 32.9248 129.81 32.9248C129.995 33.658 130.235 34.3761 130.528 35.073C130.965 36.1605 131.547 37.1842 132.257 38.1165C132.882 38.9462 133.682 39.6273 134.601 40.1113C138.144 41.8865 130.87 48.4514 130.87 48.4514Z" fill="#F8BDC5"/>
        <g opacity="0.1">
            <path opacity="0.1" d="M130.523 35.073C130.001 35.7544 129.302 36.2799 128.502 36.5928C127.703 36.9057 126.833 36.994 125.986 36.8482C125.938 35.8538 125.732 34.8613 125.192 34.2553C123.772 32.6587 129.805 32.9248 129.805 32.9248C129.99 33.658 130.23 34.3761 130.523 35.073Z" fill="black"/>
        </g>
        <path d="M126.788 36.6545C129.385 36.6545 131.49 34.5492 131.49 31.9522C131.49 29.3553 129.385 27.25 126.788 27.25C124.191 27.25 122.086 29.3553 122.086 31.9522C122.086 34.5492 124.191 36.6545 126.788 36.6545Z" fill="#F8BDC5"/>
        <path d="M146.304 40.0255C146.073 41.256 145.925 42.5005 145.861 43.7508C145.79 45.3493 144.651 51.1451 144.236 53.2136C144.183 53.4788 144.066 53.727 143.895 53.9361C143.723 54.1452 143.503 54.3086 143.253 54.412C142.099 54.8839 140.002 55.1481 138.592 51.8249C137.796 49.9962 137.151 48.106 136.663 46.1728C136.49 45.523 136.36 44.8625 136.274 44.1956L139.382 42.5097C139.675 42.7834 139.922 43.1012 140.116 43.4517C140.545 44.1878 140.986 45.3687 140.893 47.0333L141.864 48.4531C141.864 48.4531 144.259 41.0006 143.807 39.6701C143.354 38.3396 145.226 37.9842 145.226 37.9842C145.226 37.9842 150.461 33.9054 151.082 34.525C151.704 35.1446 149.231 38.2503 146.304 40.0255Z" fill="#F8BDC5"/>
        <path d="M120.843 43.5737C120.601 44.2676 120.322 44.9484 120.008 45.6131C118.963 47.8603 116.916 51.4399 113.746 53.5103C108.867 56.7034 109.932 50.2279 109.932 50.2279C109.932 50.2279 111.126 42.5287 111.351 41.8004C111.707 40.6467 111.528 38.8734 111.528 38.8734C109.666 37.9857 107.537 32.3978 108.156 31.953C108.776 31.5083 113.206 36.6553 113.206 36.6553C113.206 36.6553 115.248 37.6264 114.177 39.2288C113.107 40.8312 113.556 47.9224 113.556 47.9224L115.609 45.0886C116.066 43.9062 116.679 42.7904 117.433 41.7712C117.821 41.241 118.093 40.9205 118.093 40.9205L120.843 43.5737Z" fill="#F8BDC5"/>
        <g opacity="0.1">
            <path opacity="0.1" d="M140.12 43.4498C139.468 43.6907 136.941 44.7104 136.661 46.169C136.488 45.5192 136.358 44.8587 136.272 44.1918L139.38 42.5059C139.675 42.7797 139.925 43.0982 140.12 43.4498Z" fill="black"/>
        </g>
        <g opacity="0.1">
            <path opacity="0.1" d="M120.845 43.573C120.603 44.267 120.324 44.9477 120.01 45.6124C119.89 44.7345 119.394 42.4892 117.435 41.7648C117.823 41.2345 118.095 40.9141 118.095 40.9141L120.845 43.573Z" fill="black"/>
        </g>
        <g opacity="0.1">
            <path opacity="0.1" d="M130.87 48.4515H125.723V40.1114C125.876 39.3104 125.965 38.4987 125.991 37.6836C127.049 38.7052 126.787 40.2882 126.787 40.2882L129.537 46.5035L130.87 41.0088L130.427 40.2998L132.253 38.1284C132.877 38.958 133.678 39.6392 134.597 40.1231C138.144 41.8867 130.87 48.4515 130.87 48.4515Z" fill="black"/>
        </g>
        <g opacity="0.1">
            <path opacity="0.1" d="M134.507 65.4807C134.507 65.4807 130.475 65.1602 126.977 65.0087L126.626 64.9932C126.128 64.9738 125.655 64.9582 125.19 64.9466C121.795 64.865 117.955 63.6783 117.303 63.4704C117.548 63.0911 117.812 62.7248 118.095 62.373L123.419 63.5384C123.419 63.5384 124.258 63.8065 126.123 64.6319L123.064 62.373L132.386 64.0589C132.386 64.0589 132.711 64.0182 134.426 64.9776L134.507 65.4807Z" fill="black"/>
        </g>
        <path d="M130.872 41.3547L130.429 40.6458L132.399 38.2898C132.399 38.2898 136.46 40.2806 137.524 39.8436C137.524 39.8436 140.098 41.9801 140.185 43.2154C140.185 43.2154 136.46 44.4565 136.547 46.323C136.635 48.1896 134.78 52.1771 134.78 52.1771L134.003 55.3663C133.525 57.2991 133.459 59.3108 133.809 61.2708L134.518 65.2195C134.518 65.2195 128.928 64.7766 125.195 64.6873C121.462 64.5979 117.21 63.1801 117.21 63.1801L119.387 58.5982C120.172 56.9447 120.557 55.1295 120.51 53.2997L120.316 45.8821C120.316 45.8821 120.139 42.1569 117.208 41.5353C117.208 41.5353 118.805 38.2529 121.287 38.519C121.287 38.519 124.903 37.0098 125.977 38.0295C127.051 39.0492 126.787 40.6477 126.787 40.6477L129.538 46.863L130.872 41.3547Z" fill="#ED677B"/>
        <g opacity="0.1">
            <path opacity="0.1" d="M123.394 30.9831C124.107 30.9831 124.667 30.2276 125.379 30.2664C125.748 30.2858 126.065 30.5208 126.37 30.7326C127.522 31.5305 128.804 32.122 130.159 32.4806C130.686 32.6204 131.243 32.7253 131.771 32.5971C132.3 32.4689 132.795 32.0533 132.855 31.5114C132.87 31.2726 132.838 31.0331 132.762 30.8064C132.164 28.7228 130.811 26.9368 128.967 25.7972C128.229 25.3447 127.328 24.999 126.51 25.2825C125.772 25.537 125.296 26.2284 124.762 26.7975C124.359 27.2236 123.902 27.5946 123.402 27.9007C123.014 28.1357 122.431 28.2892 122.208 28.7204C121.786 29.5245 122.449 30.9753 123.394 30.9831Z" fill="black"/>
        </g>
        <path d="M123.394 30.8054C124.107 30.8054 124.667 30.0498 125.379 30.0887C125.748 30.1081 126.065 30.3431 126.37 30.5548C127.522 31.3527 128.804 31.9442 130.159 32.3029C130.686 32.4427 131.243 32.5476 131.771 32.4194C132.3 32.2912 132.795 31.8756 132.855 31.3337C132.87 31.0949 132.838 30.8554 132.762 30.6286C132.164 28.545 130.811 26.7591 128.967 25.6195C128.229 25.167 127.328 24.8212 126.51 25.1048C125.772 25.3592 125.296 26.0507 124.762 26.6198C124.359 27.0459 123.902 27.4169 123.402 27.723C123.014 27.958 122.431 28.1115 122.208 28.5426C121.786 29.3545 122.449 30.7957 123.394 30.8054Z" fill="#85555C"/>
        <path opacity="0.05" d="M121.244 51.0684C121.244 51.0684 125.591 52.6649 128.431 51.4238L129.85 51.5131C129.85 51.5131 132.21 53.168 134.706 52.4279" fill="black"/>
        <path opacity="0.05" d="M141.827 48.4082C141.827 48.4082 141.118 50.0941 141.472 50.6263L141.827 48.4082Z" fill="black"/>
        <path opacity="0.05" d="M113.525 47.875C113.525 47.875 113.881 49.5609 113.525 50.0931V47.875Z" fill="black"/>
        <path d="M187.104 86.291C187.104 86.291 178.978 94.4175 183.565 106.475C188.153 118.533 175.703 138.585 175.703 138.585C175.703 138.585 175.837 138.565 176.092 138.523C192.782 135.576 201.073 116.49 191.793 102.309C188.334 97.0357 185.502 90.8515 187.104 86.291Z" fill="#0075FF"/>
        <path opacity="0.1" d="M187.104 86.4277C187.104 86.4277 178.978 94.5542 183.565 106.612C188.153 118.67 175.703 138.72 175.703 138.72C175.703 138.72 175.837 138.7 176.092 138.657C192.782 135.711 201.073 116.624 191.793 102.444C188.334 97.1724 185.502 90.9882 187.104 86.4277Z" fill="black"/>
        <path d="M187.104 86.291C187.104 86.291 182.517 96.251 187.104 104.377C191.692 112.504 187.881 135.308 175.701 138.585" stroke="#535461" stroke-miterlimit="10"/>
        <path d="M201.577 119.158C201.577 119.158 192.305 117.682 191.46 125.991C190.615 134.3 173.624 135.452 173.624 135.452L173.943 135.664C187.966 144.87 201.373 141.527 199.351 129.303C198.606 124.76 198.668 120.195 201.577 119.158Z" fill="#0075FF"/>
        <path d="M201.576 119.158C201.576 119.158 194.378 120.737 194.973 127.283C195.567 133.828 184.29 141.673 173.631 135.454" stroke="#535461" stroke-miterlimit="10"/>
        <path d="M193.419 135.755C193.419 135.755 186.116 134.294 184.168 132.346C182.22 130.398 173.456 126.991 172.483 129.433C171.51 131.874 159.338 140.144 167.614 141.605C175.89 143.066 187.089 143.547 189.523 142.576C191.956 141.605 193.419 135.755 193.419 135.755Z" fill="#A8A8A8"/>
        <path opacity="0.2" d="M167.614 140.695C175.892 142.155 187.089 142.637 189.523 141.666C191.377 140.924 192.665 137.362 193.174 135.703L193.417 135.754C193.417 135.754 191.956 141.596 189.523 142.569C187.089 143.542 175.89 143.057 167.614 141.598C165.225 141.176 164.541 140.186 164.799 138.933C165.001 139.751 165.835 140.38 167.614 140.695Z" fill="black"/>
    </g>
    <defs>
        <linearGradient id="paint0_linear" x1="101.376" y1="144.974" x2="101.376" y2="4.35352" gradientUnits="userSpaceOnUse">
            <stop stop-color="#808080" stop-opacity="0.25"/>
            <stop offset="0.54" stop-color="#808080" stop-opacity="0.12"/>
            <stop offset="1" stop-color="#808080" stop-opacity="0.1"/>
        </linearGradient>
        <linearGradient id="paint1_linear" x1="33990.3" y1="48316.2" x2="33990.3" y2="14541" gradientUnits="userSpaceOnUse">
            <stop stop-color="#808080" stop-opacity="0.25"/>
            <stop offset="0.54" stop-color="#808080" stop-opacity="0.12"/>
            <stop offset="1" stop-color="#808080" stop-opacity="0.1"/>
        </linearGradient>
        <clipPath id="clip0">
            <rect width="201.597" height="150" fill="white"/>
        </clipPath>
    </defs>
</svg>