<svg width="248" height="150" viewBox="0 0 248 150" fill="none" xmlns="http://www.w3.org/2000/svg">
    <g clip-path="url(#clip0)">
        <path d="M20.4961 32.5431C27.5426 32.5431 33.255 26.8307 33.255 19.7842C33.255 12.7377 27.5426 7.02539 20.4961 7.02539C13.4496 7.02539 7.7373 12.7377 7.7373 19.7842C7.7373 26.8307 13.4496 32.5431 20.4961 32.5431Z" fill="#FF6584"/>
        <path d="M123.151 150.001C191.166 150.001 246.303 147.766 246.303 145.008C246.303 142.251 191.166 140.016 123.151 140.016C55.1367 140.016 0 142.251 0 145.008C0 147.766 55.1367 150.001 123.151 150.001Z" fill="#E6E6E6"/>
        <path d="M31.3424 82.4386C48.6523 82.4386 62.6847 68.4061 62.6847 51.0962C62.6847 33.7864 48.6523 19.7539 31.3424 19.7539C14.0324 19.7539 0 33.7864 0 51.0962C0 68.4061 14.0324 82.4386 31.3424 82.4386Z" fill="#0075FF"/>
        <path d="M34.3649 145.5H27.9453L30.8718 46.375L34.3649 145.5Z" fill="#3F3D56"/>
        <path d="M31.4355 65.1617L38.3272 55.627L31.3412 67.5218L30.5859 66.2001L31.4355 65.1617Z" fill="#3F3D56"/>
        <path d="M30.6805 74.7925L23.7891 65.2578L30.7751 77.1526L31.5303 75.831L30.6805 74.7925Z" fill="#3F3D56"/>
        <path d="M229.521 145.605H223.102L226.028 46.4805L229.521 145.605Z" fill="#3F3D56"/>
        <path d="M226.596 65.2671L233.487 55.7324L226.501 67.6273L225.746 66.3056L226.596 65.2671Z" fill="#3F3D56"/>
        <path d="M225.84 74.8961L218.948 65.3613L225.934 77.2562L226.69 75.9345L225.84 74.8961Z" fill="#3F3D56"/>
        <path d="M127.325 145.589C159.571 145.589 185.711 119.449 185.711 87.2029C185.711 54.9569 159.571 28.8164 127.325 28.8164C95.079 28.8164 68.9385 54.9569 68.9385 87.2029C68.9385 119.449 95.079 145.589 127.325 145.589Z" fill="#3F3D56"/>
        <path d="M127.326 140.755C156.902 140.755 180.879 116.778 180.879 87.2016C180.879 57.625 156.902 33.6484 127.326 33.6484C97.749 33.6484 73.7725 57.625 73.7725 87.2016C73.7725 116.778 97.749 140.755 127.326 140.755Z" fill="white"/>
        <path d="M127.133 94.5488C131.083 94.5488 134.286 91.3462 134.286 87.3955C134.286 83.4448 131.083 80.2422 127.133 80.2422C123.182 80.2422 119.979 83.4448 119.979 87.3955C119.979 91.3462 123.182 94.5488 127.133 94.5488Z" fill="#3F3D56"/>
        <path d="M128.678 36.3555H125.585V42.1555H128.678V36.3555Z" fill="#3F3D56"/>
        <path d="M128.678 132.635H125.585V138.435H128.678V132.635Z" fill="#3F3D56"/>
        <path d="M81.8926 88.9409V85.8477H76.0926V88.9409H81.8926Z" fill="#3F3D56"/>
        <path d="M178.173 88.9409V85.8477H172.373V88.9409H178.173Z" fill="#3F3D56"/>
        <path d="M125.071 90.4997L127.715 84.4551L160.839 102.801L125.071 90.4997Z" fill="#3F3D56"/>
        <path d="M134.866 14.7012H119.786V32.1011H134.866V14.7012Z" fill="#3F3D56"/>
        <path d="M127.327 19.5358C136.936 19.5358 144.727 17.3718 144.727 14.7025C144.727 12.0331 136.936 9.86914 127.327 9.86914C117.717 9.86914 109.927 12.0331 109.927 14.7025C109.927 17.3718 117.717 19.5358 127.327 19.5358Z" fill="#3F3D56"/>
        <path d="M159.902 97.5447L158.936 98.8981C158.936 98.8981 154.489 104.118 154.296 101.605C154.103 99.0914 157.583 97.3514 157.583 97.3514L159.516 96.1914L159.902 97.5447Z" fill="#FFB8B8"/>
        <path d="M187.423 102.111L188.232 103.563C188.232 103.563 191.047 109.816 188.693 108.915C186.339 108.014 186.255 104.125 186.255 104.125L186.034 101.881L187.423 102.111Z" fill="#FFB8B8"/>
        <path d="M183.071 76.3499C186.323 76.3499 188.958 73.7143 188.958 70.4631C188.958 67.2118 186.323 64.5762 183.071 64.5762C179.82 64.5762 177.185 67.2118 177.185 70.4631C177.185 73.7143 179.82 76.3499 183.071 76.3499Z" fill="#2F2E41"/>
        <path d="M182.522 118.812L183.296 123.839V125.386H187.742V123.452C187.742 123.452 187.936 119.972 187.162 119.006C186.389 118.039 182.522 118.812 182.522 118.812Z" fill="#FFB8B8"/>
        <path d="M174.596 118.812L175.369 123.839V125.386H179.816V123.452C179.816 123.452 180.009 119.972 179.236 119.006C178.462 118.039 174.596 118.812 174.596 118.812Z" fill="#FFB8B8"/>
        <path d="M177.589 78.4355C177.589 78.4355 175.879 79.337 177.047 81.3875C178.215 83.438 185.069 104.652 185.069 104.652L189.023 103.53L185.536 90.1132L183.539 81.6809L177.589 78.4355Z" fill="#0075FF"/>
        <path d="M182.426 76.5691C184.882 76.5691 186.873 74.5782 186.873 72.1224C186.873 69.6666 184.882 67.6758 182.426 67.6758C179.97 67.6758 177.979 69.6666 177.979 72.1224C177.979 74.5782 179.97 76.5691 182.426 76.5691Z" fill="#FFB8B8"/>
        <path d="M184.457 72.7988L183.877 81.8855L179.817 78.9855C179.817 78.9855 181.171 73.5722 180.784 73.1855L184.457 72.7988Z" fill="#FFB8B8"/>
        <path d="M184.457 81.113L180.084 77.8742C180.084 77.8742 178.077 77.0531 177.497 78.0197C176.917 78.9864 174.017 93.293 175.564 95.9997C175.564 95.9997 183.877 97.7397 185.617 96.773L186.391 91.7464C186.391 91.7464 187.357 88.653 185.811 86.7197L184.457 81.113Z" fill="#0075FF"/>
        <path d="M178.655 78.2123C178.655 78.2123 177.109 77.0523 175.755 78.9856C174.402 80.919 158.162 96.1923 158.162 96.1923L160.869 99.2856L171.502 90.3923L178.269 84.979L178.655 78.2123Z" fill="#0075FF"/>
        <path d="M185.713 96.6761C185.713 96.6761 176.143 94.8395 175.176 96.1928L174.983 98.3195C174.983 98.3195 172.856 102.379 174.016 108.953C175.176 115.526 174.403 119.586 174.403 119.586C174.403 119.586 179.623 119.006 183.489 119.586C187.356 120.166 187.936 119.586 187.936 119.586L185.713 96.6761Z" fill="#2F2E41"/>
        <path d="M188.129 124.611L182.522 124.805L184.456 139.305C184.456 139.305 182.909 145.491 184.649 145.878C185.859 146.122 187.089 146.252 188.322 146.265C188.322 146.265 190.062 148.005 191.996 147.811C193.28 147.647 194.524 147.254 195.669 146.651C195.669 146.651 196.056 145.491 194.702 145.105C193.349 144.718 189.676 143.558 188.902 139.498L188.129 124.611Z" fill="#2F2E41"/>
        <path d="M180.202 124.611L174.596 124.805L176.529 139.305C176.529 139.305 174.982 145.491 176.722 145.878C177.932 146.122 179.162 146.252 180.396 146.265C180.396 146.265 182.136 148.005 184.069 147.811C185.353 147.647 186.597 147.254 187.742 146.651C187.742 146.651 188.129 145.491 186.776 145.105C185.422 144.718 181.749 143.558 180.976 139.498L180.202 124.611Z" fill="#2F2E41"/>
        <path d="M185.13 66.702C186.476 66.702 187.566 65.6114 187.566 64.266C187.566 62.9207 186.476 61.8301 185.13 61.8301C183.785 61.8301 182.694 62.9207 182.694 64.266C182.694 65.6114 183.785 66.702 185.13 66.702Z" fill="#2F2E41"/>
        <path d="M188.378 62.9477C188.378 62.3456 188.154 61.7648 187.752 61.3174C187.349 60.87 186.794 60.5877 186.195 60.5249C186.28 60.5161 186.364 60.5117 186.449 60.5117C187.095 60.5117 187.715 60.7684 188.172 61.2252C188.628 61.682 188.885 62.3016 188.885 62.9477C188.885 63.5937 188.628 64.2133 188.172 64.6701C187.715 65.127 187.095 65.3836 186.449 65.3836C186.364 65.3836 186.28 65.3792 186.195 65.3704C186.794 65.3077 187.349 65.0254 187.751 64.578C188.154 64.1306 188.377 63.5498 188.378 62.9477Z" fill="#2F2E41"/>
        <path d="M182.385 71.6512C184.627 71.6512 186.445 70.5606 186.445 69.2153C186.445 67.8699 184.627 66.7793 182.385 66.7793C180.143 66.7793 178.325 67.8699 178.325 69.2153C178.325 70.5606 180.143 71.6512 182.385 71.6512Z" fill="#2F2E41"/>
        <path d="M246.333 11.6921C246.167 8.76004 244.965 5.98216 242.942 3.85375C240.918 1.72533 238.205 0.384727 235.285 0.0709554C232.365 -0.242816 229.429 0.490641 226.999 2.14056C224.57 3.79047 222.805 6.24959 222.02 9.07949C221.87 9.0741 221.72 9.06807 221.568 9.06807C218.891 9.06856 216.286 9.93587 214.143 11.5402C212 13.1446 210.434 15.3998 209.679 17.9684C207.905 17.189 205.922 17.0198 204.042 17.4876C202.161 17.9553 200.489 19.0335 199.287 20.5533H237.941C239.069 20.5565 240.186 20.3321 241.225 19.8935C242.264 19.455 243.203 18.8113 243.988 18.001C244.772 17.1908 245.385 16.2306 245.789 15.1779C246.194 14.1253 246.382 13.0018 246.342 11.8749C246.339 11.814 246.336 11.7531 246.333 11.6921Z" fill="#E6E6E6"/>
        <path d="M214.02 37.77C215.858 37.77 217.348 36.2799 217.348 34.4417C217.348 32.6034 215.858 31.1133 214.02 31.1133C212.182 31.1133 210.691 32.6034 210.691 34.4417C210.691 36.2799 212.182 37.77 214.02 37.77Z" fill="#E6E6E6"/>
        <path d="M224.068 29.367C225.599 29.367 226.84 28.1262 226.84 26.5956C226.84 25.065 225.599 23.8242 224.068 23.8242C222.538 23.8242 221.297 25.065 221.297 26.5956C221.297 28.1262 222.538 29.367 224.068 29.367Z" fill="#E6E6E6"/>
        <path d="M237.596 44.9829C239.434 44.9829 240.924 43.4928 240.924 41.6546C240.924 39.8163 239.434 38.3262 237.596 38.3262C235.758 38.3262 234.268 39.8163 234.268 41.6546C234.268 43.4928 235.758 44.9829 237.596 44.9829Z" fill="#E6E6E6"/>
        <path d="M212.356 60.2369C214.194 60.2369 215.684 58.7467 215.684 56.9085C215.684 55.0702 214.194 53.5801 212.356 53.5801C210.518 53.5801 209.027 55.0702 209.027 56.9085C209.027 58.7467 210.518 60.2369 212.356 60.2369Z" fill="#E6E6E6"/>
        <path d="M237.596 79.3755C239.434 79.3755 240.924 77.8854 240.924 76.0471C240.924 74.2089 239.434 72.7188 237.596 72.7188C235.758 72.7188 234.268 74.2089 234.268 76.0471C234.268 77.8854 235.758 79.3755 237.596 79.3755Z" fill="#E6E6E6"/>
        <path d="M232.319 140.227C232.32 140.191 232.325 140.156 232.325 140.12C232.326 139.562 232.186 139.013 231.919 138.523C231.652 138.034 231.266 137.619 230.797 137.318C230.327 137.017 229.79 136.838 229.233 136.799C228.677 136.76 228.12 136.862 227.613 137.095C227.138 136.546 226.495 136.168 225.784 136.02C225.074 135.871 224.334 135.959 223.678 136.271C223.022 136.583 222.487 137.102 222.154 137.747C221.821 138.393 221.709 139.13 221.835 139.845C221.818 139.844 221.802 139.842 221.785 139.842C221.255 139.841 220.733 139.967 220.261 140.209C219.79 140.451 219.383 140.801 219.074 141.232C218.765 141.663 218.564 142.161 218.487 142.685C218.409 143.209 218.458 143.744 218.63 144.246C218.801 144.747 219.089 145.201 219.471 145.568C219.853 145.936 220.317 146.207 220.824 146.359C221.332 146.511 221.868 146.54 222.389 146.443C222.91 146.346 223.4 146.126 223.819 145.801C224.083 146.316 224.477 146.753 224.962 147.069C225.446 147.384 226.005 147.569 226.583 147.603C227.16 147.637 227.737 147.52 228.255 147.263C228.773 147.006 229.216 146.619 229.539 146.139C229.935 146.427 230.39 146.624 230.871 146.716C231.352 146.808 231.847 146.792 232.322 146.671C232.796 146.549 233.238 146.324 233.615 146.012C233.993 145.7 234.296 145.308 234.505 144.865C234.713 144.422 234.821 143.938 234.821 143.448C234.821 142.958 234.713 142.475 234.504 142.032C234.295 141.589 233.991 141.197 233.613 140.885C233.236 140.573 232.794 140.349 232.319 140.227Z" fill="#E6E6E6"/>
        <path d="M240.648 64.1213C241.413 64.1213 242.034 63.5004 242.034 62.7345C242.034 61.9686 241.413 61.3477 240.648 61.3477C239.882 61.3477 239.261 61.9686 239.261 62.7345C239.261 63.5004 239.882 64.1213 240.648 64.1213Z" fill="#E6E6E6"/>
        <path d="M231.772 30.8361C232.538 30.8361 233.158 30.2152 233.158 29.4493C233.158 28.6834 232.538 28.0625 231.772 28.0625C231.006 28.0625 230.385 28.6834 230.385 29.4493C230.385 30.2152 231.006 30.8361 231.772 30.8361Z" fill="#E6E6E6"/>
        <path d="M227.056 65.2307C227.822 65.2307 228.443 64.6098 228.443 63.8438C228.443 63.0779 227.822 62.457 227.056 62.457C226.29 62.457 225.669 63.0779 225.669 63.8438C225.669 64.6098 226.29 65.2307 227.056 65.2307Z" fill="#E6E6E6"/>
        <path d="M228.165 63.844C228.931 63.844 229.552 63.2231 229.552 62.4571C229.552 61.6912 228.931 61.0703 228.165 61.0703C227.399 61.0703 226.778 61.6912 226.778 62.4571C226.778 63.2231 227.399 63.844 228.165 63.844Z" fill="#E6E6E6"/>
        <path d="M228.997 62.4573C229.763 62.4573 230.384 61.8363 230.384 61.0704C230.384 60.3045 229.763 59.6836 228.997 59.6836C228.231 59.6836 227.61 60.3045 227.61 61.0704C227.61 61.8363 228.231 62.4573 228.997 62.4573Z" fill="#E6E6E6"/>
        <path d="M225.669 74.1057C226.435 74.1057 227.056 73.4848 227.056 72.7189C227.056 71.9529 226.435 71.332 225.669 71.332C224.903 71.332 224.282 71.9529 224.282 72.7189C224.282 73.4848 224.903 74.1057 225.669 74.1057Z" fill="#E6E6E6"/>
        <path d="M246.194 89.6389C246.96 89.6389 247.581 89.018 247.581 88.252C247.581 87.4861 246.96 86.8652 246.194 86.8652C245.429 86.8652 244.808 87.4861 244.808 88.252C244.808 89.018 245.429 89.6389 246.194 89.6389Z" fill="#E6E6E6"/>
        <path d="M216.517 90.4709C217.283 90.4709 217.904 89.85 217.904 89.0841C217.904 88.3182 217.283 87.6973 216.517 87.6973C215.751 87.6973 215.13 88.3182 215.13 89.0841C215.13 89.85 215.751 90.4709 216.517 90.4709Z" fill="#E6E6E6"/>
        <path d="M218.181 47.7561C218.947 47.7561 219.568 47.1352 219.568 46.3693C219.568 45.6033 218.947 44.9824 218.181 44.9824C217.415 44.9824 216.794 45.6033 216.794 46.3693C216.794 47.1352 217.415 47.7561 218.181 47.7561Z" fill="#E6E6E6"/>
        <path d="M224.56 72.719C225.326 72.719 225.947 72.0981 225.947 71.3322C225.947 70.5662 225.326 69.9453 224.56 69.9453C223.794 69.9453 223.173 70.5662 223.173 71.3322C223.173 72.0981 223.794 72.719 224.56 72.719Z" fill="#E6E6E6"/>
        <path d="M223.173 70.5002C223.939 70.5002 224.56 69.8793 224.56 69.1134C224.56 68.3475 223.939 67.7266 223.173 67.7266C222.407 67.7266 221.786 68.3475 221.786 69.1134C221.786 69.8793 222.407 70.5002 223.173 70.5002Z" fill="#E6E6E6"/>
    </g>
    <defs>
        <clipPath id="clip0">
            <rect width="247.581" height="150" fill="white"/>
        </clipPath>
    </defs>
</svg>