<svg width="150" height="163" viewBox="0 0 150 163" fill="none" xmlns="http://www.w3.org/2000/svg">
    <path d="M45.7449 152.849C45.7449 152.849 38.9681 140.784 28.7555 137.307C24.4698 135.849 22.6541 135.043 20.0957 131.293" stroke="#E6E6E6" stroke-width="2" stroke-miterlimit="10"/>
    <path d="M22.8544 141.842C24.3865 141.309 27.8634 136.977 27.8634 136.977C27.8634 136.977 22.4611 135.735 20.9288 136.268C20.217 136.541 19.6389 137.082 19.3166 137.775C18.9943 138.469 18.953 139.262 19.2016 139.985C19.4502 140.709 19.9691 141.307 20.6487 141.654C21.3283 142 22.1153 142.068 22.8434 141.842L22.8544 141.842Z" fill="#E6E6E6"/>
    <path d="M33.0935 147.944C34.6925 147.679 38.8539 144.001 38.8539 144.001C38.8539 144.001 33.7373 141.859 32.1375 142.124C31.7571 142.187 31.3928 142.325 31.0653 142.53C30.7379 142.734 30.4538 143.001 30.2292 143.316C30.0046 143.631 29.844 143.987 29.7564 144.365C29.6688 144.742 29.6561 145.133 29.7189 145.515C29.7817 145.897 29.9188 146.263 30.1223 146.592C30.3259 146.921 30.592 147.206 30.9054 147.432C31.2188 147.658 31.5733 147.819 31.9488 147.907C32.3243 147.995 32.7133 148.008 33.0937 147.945L33.0935 147.944Z" fill="#E6E6E6"/>
    <path d="M18.2585 127.139C19.5853 128.074 21.7547 133.2 21.7547 133.2C21.7547 133.2 16.2182 132.907 14.8901 131.973C14.5707 131.752 14.298 131.47 14.0877 131.143C13.8775 130.815 13.7338 130.45 13.665 130.066C13.5962 129.683 13.6037 129.29 13.687 128.909C13.7703 128.529 13.9277 128.169 14.1503 127.85C14.3728 127.531 14.656 127.259 14.9835 127.051C15.3111 126.842 15.6765 126.701 16.0586 126.635C16.4408 126.569 16.8321 126.58 17.2101 126.667C17.5881 126.754 17.9452 126.915 18.2608 127.141L18.2585 127.139Z" fill="#E6E6E6"/>
    <path d="M45.2725 152.558C45.2725 152.558 43.6644 135.832 34.0387 126.935C30.0004 123.2 27.1952 118.318 26.1945 112.89C25.7233 110.317 25.4883 107.706 25.4922 105.09" stroke="#535461" stroke-width="2" stroke-miterlimit="10"/>
    <path d="M19.4629 99.4465C20.1974 101.279 25.631 105.256 25.631 105.256C25.631 105.256 26.8014 98.6046 26.067 96.7717C25.8944 96.3324 25.637 95.9318 25.3097 95.5929C24.9823 95.254 24.5915 94.9835 24.1596 94.7969C23.7278 94.6104 23.2635 94.5116 22.7935 94.5061C22.3234 94.5006 21.857 94.5886 21.4209 94.765C20.9849 94.9414 20.5879 95.2028 20.2529 95.534C19.9178 95.8652 19.6512 96.2597 19.4686 96.6948C19.2859 97.13 19.1907 97.5971 19.1885 98.0694C19.1863 98.5416 19.2771 99.0096 19.4557 99.4465H19.4629Z" fill="#0075FF"/>
    <path d="M18.0743 111.806C19.6824 112.943 26.3956 113.314 26.3956 113.314C26.3956 113.314 23.7815 107.092 22.1734 105.954C21.7911 105.682 21.3591 105.488 20.902 105.384C20.445 105.279 19.972 105.267 19.5101 105.347C19.0482 105.426 18.6065 105.597 18.2104 105.849C17.8143 106.1 17.4716 106.428 17.2018 106.813C16.932 107.198 16.7406 107.633 16.6384 108.093C16.5362 108.552 16.5253 109.027 16.6064 109.491C16.6874 109.955 16.8588 110.398 17.1107 110.795C17.3625 111.192 17.6899 111.535 18.0741 111.805L18.0743 111.806Z" fill="#0075FF"/>
    <path d="M25.2719 129.055C27.2374 129.22 33.2126 126.136 33.2126 126.136C33.2126 126.136 27.8288 122.086 25.8688 121.926C25.3973 121.876 24.9206 121.921 24.4666 122.058C24.0126 122.196 23.5905 122.423 23.2251 122.726C22.8596 123.03 22.5582 123.403 22.3384 123.825C22.1186 124.248 21.9849 124.709 21.9452 125.184C21.9054 125.659 21.9604 126.137 22.1069 126.59C22.2534 127.043 22.4885 127.462 22.7984 127.822C23.1083 128.183 23.4867 128.478 23.9114 128.689C24.3362 128.901 24.7987 129.025 25.2719 129.055Z" fill="#0075FF"/>
    <path d="M33.6422 140.874C35.5469 141.369 41.9599 139.344 41.9599 139.344C41.9599 139.344 37.3338 134.443 35.4308 133.948C34.9775 133.828 34.5051 133.799 34.0407 133.863C33.5764 133.927 33.1291 134.083 32.7247 134.321C32.3203 134.559 31.9666 134.875 31.684 135.25C31.4014 135.626 31.1954 136.054 31.0778 136.51C30.9602 136.966 30.9333 137.441 30.9987 137.907C31.0641 138.373 31.2205 138.822 31.4589 139.227C31.6973 139.633 32.0131 139.987 32.388 140.269C32.763 140.552 33.1897 140.757 33.6439 140.874L33.6422 140.874Z" fill="#0075FF"/>
    <path d="M33.4743 110.859C32.6773 112.667 27.1132 116.457 27.1132 116.457C27.1132 116.457 26.1665 109.77 26.9613 107.964C27.1506 107.534 27.4222 107.146 27.7607 106.822C28.0993 106.498 28.498 106.244 28.9342 106.074C29.3704 105.905 29.8356 105.824 30.3031 105.835C30.7706 105.846 31.2314 105.95 31.659 106.14C32.0867 106.33 32.4729 106.603 32.7955 106.943C33.1182 107.283 33.371 107.684 33.5396 108.122C33.7082 108.56 33.7891 109.028 33.7779 109.497C33.7667 109.967 33.6636 110.43 33.4743 110.86V110.859Z" fill="#0075FF"/>
    <path d="M43.0867 124.807C41.7894 126.291 35.3516 128.236 35.3516 128.236C35.3516 128.236 36.4397 121.57 37.737 120.088C38.36 119.375 39.2392 118.94 40.1813 118.879C41.1235 118.817 42.0513 119.134 42.7607 119.76C43.4701 120.386 43.903 121.269 43.9642 122.216C44.0253 123.162 43.7097 124.095 43.0867 124.807V124.807Z" fill="#0075FF"/>
    <path d="M50.5808 139.65C49.5444 141.334 43.5326 144.345 43.5326 144.345C43.5326 144.345 43.4825 137.591 44.5118 135.907C44.7565 135.506 45.0775 135.158 45.4562 134.882C45.835 134.606 46.2642 134.407 46.7193 134.298C47.1744 134.188 47.6466 134.17 48.1088 134.244C48.5709 134.317 49.0141 134.482 49.413 134.728C49.8119 134.974 50.1587 135.296 50.4336 135.677C50.7085 136.057 50.9061 136.488 51.0151 136.946C51.1241 137.403 51.1424 137.877 51.0689 138.342C50.9955 138.806 50.8317 139.251 50.5869 139.652L50.5808 139.65Z" fill="#0075FF"/>
    <path d="M74.9657 163C116.368 163 149.931 160.792 149.931 158.068C149.931 155.345 116.368 153.137 74.9657 153.137C33.5633 153.137 0 155.345 0 158.068C0 160.792 33.5633 163 74.9657 163Z" fill="#E6E6E6"/>
    <path opacity="0.1" d="M132.481 44.854C132.481 44.854 138.793 42.8227 139.439 44.854H132.481Z" fill="#111111"/>
    <path d="M77.0732 52.4833C77.0732 52.4833 78.4999 44.964 83.0929 44.9258L86.4478 51.8644L84.2105 53.4147C84.2105 53.4147 79.3487 53.5698 77.0732 52.4833Z" fill="#D0CDE1"/>
    <path opacity="0.502" d="M86.4478 51.8644L84.2104 53.4166C84.2104 53.4166 80.7993 53.5254 78.3434 52.9207C77.9067 52.8182 77.4812 52.6723 77.0732 52.4852C77.0763 52.4439 77.0851 52.4032 77.0993 52.3643C77.0988 52.3549 77.0988 52.3454 77.0993 52.336C77.3102 51.3923 77.6009 50.4683 77.968 49.5742C78.1086 49.2374 78.2691 48.8889 78.4416 48.542C79.1138 47.2418 80.0589 45.9676 81.3512 45.3367C81.8295 45.1005 82.3501 44.9634 82.8822 44.9336H83.0869L83.1591 45.0868L84.2952 47.4312L86.4478 51.8644Z" fill="#111111"/>
    <path d="M124.568 83.107C124.568 83.107 129.384 82.642 129.815 82.9902C130.246 83.3383 132.979 85.1229 134.599 83.998C136.218 82.8731 135.138 78.9584 135.138 78.803C135.138 78.6476 134.986 73.1062 134.986 73.1062L132.09 69.1913L128.465 62.3374L121.057 61.6016L121.257 72.4875L121.219 78.0695L124.568 83.107Z" fill="#D0CDE1"/>
    <path opacity="0.503" d="M124.568 83.107C124.568 83.107 129.384 82.642 129.815 82.9902C130.246 83.3383 132.979 85.1229 134.599 83.998C136.218 82.8731 135.138 78.9584 135.138 78.803C135.138 78.6476 134.986 73.1062 134.986 73.1062L132.09 69.1913L128.465 62.3374L121.057 61.6016L121.257 72.4875L121.219 78.0695L124.568 83.107Z" fill="#111111"/>
    <path d="M82.1259 44.7328C82.1259 44.7328 81.7425 49.4622 78.809 49.5387C78.809 49.5387 77.9784 49.0348 76.8608 48.196C74.2845 46.2588 70.195 42.5354 71.3248 39.0722C72.9461 34.1111 80.8158 43.2591 80.8158 43.2591L81.4177 43.9404L82.1259 44.7328Z" fill="#FBBEBE"/>
    <path opacity="0.1" d="M82.1263 44.7332C82.1263 44.7332 81.7429 49.4626 78.8094 49.5391C78.8094 49.5391 77.9788 49.0352 76.8611 48.1964L76.6104 47.8738C77.1074 48.1346 77.6554 48.2825 78.2157 48.3072C78.952 48.3232 79.7808 48.0491 80.3125 46.9808C80.6175 46.372 80.8855 45.7453 81.1151 45.104C81.2557 44.7284 81.3553 44.3386 81.412 43.9414L82.1263 44.7332Z" fill="#111111"/>
    <path d="M80.8531 53.2975L80.1929 52.4448L77.9657 49.5722L76.834 48.1046C77.3307 48.3667 77.8788 48.5154 78.4393 48.5401C79.1757 48.5561 80.0044 48.282 80.5382 47.2116C80.8434 46.6029 81.1114 45.9761 81.3408 45.3347C81.708 44.2884 81.7 43.7494 81.5723 43.5689C81.4446 43.3884 82.3909 44.2724 82.8464 44.7059L82.8624 44.722C82.9929 44.8429 83.077 44.9236 83.077 44.9236L83.1553 45.0809L84.2729 47.3265L84.2849 47.4212C84.3867 48.1349 84.7639 52.6564 80.8531 53.2975Z" fill="#E6E6E6"/>
    <path d="M103.965 153.072C103.965 153.072 100.725 155.205 99.1046 154.886C97.4846 154.568 95.824 155.431 95.824 155.431C94.7076 156.656 93.2999 157.576 91.7326 158.106C89.11 158.997 85.4462 158.648 83.3633 157.948C82.3762 157.62 82.2979 157.193 82.7715 156.668C83.2992 156.082 84.5091 155.374 85.9097 154.538C88.5704 152.949 91.4257 149.808 91.4257 149.808C91.4257 149.808 91.4637 149.034 91.9272 148.685C92.2112 148.442 92.4718 148.172 92.7057 147.879C93.1191 147.387 93.5083 146.871 93.5083 146.871L103.039 147.182C103.039 147.182 103.202 147.873 103.328 148.579C103.434 149.157 103.517 149.746 103.463 149.974C103.346 150.476 103.733 150.941 103.733 150.941L103.904 152.524L103.965 153.072Z" fill="#111111"/>
    <path d="M123.915 155.746C123.801 156.209 123.663 157.042 123.6 157.433C123.579 157.566 123.568 157.647 123.568 157.647C123.568 157.647 122.795 159.352 118.513 159.973C114.232 160.594 114.231 158.538 114.231 158.538C114.231 158.538 114.247 158.316 114.276 157.983C114.35 157.076 114.504 155.341 114.617 154.972C114.771 154.468 114.502 152.258 114.502 152.258L114.456 149.948L114.424 148.335L121.524 147.598C121.569 148.131 121.646 148.662 121.753 149.186C121.797 149.474 121.904 149.75 122.064 149.993C122.449 150.422 122.682 152.319 122.682 152.319C122.682 152.319 124.066 155.125 123.915 155.746Z" fill="#111111"/>
    <path opacity="0.1" d="M103.047 147.182C103.047 147.182 103.209 147.873 103.336 148.579C102.306 148.769 97.8057 149.552 96.6801 149.004C95.408 148.383 92.667 148.034 92.667 148.034L92.7131 147.877C93.1265 147.385 93.5157 146.869 93.5157 146.869L103.047 147.182Z" fill="#111111"/>
    <path opacity="0.1" d="M121.749 149.194C119.943 148.888 116.006 149.63 114.453 149.948L114.421 148.335L121.52 147.598C121.565 148.134 121.641 148.667 121.749 149.194Z" fill="#111111"/>
    <path d="M125.763 90.4326L125.609 95.8977C125.609 95.8977 125.81 104.231 125.224 105.55C124.638 106.868 124.644 112.178 124.644 112.178C124.644 112.178 125.031 114.698 124.606 115.238C124.18 115.778 124.489 117.798 124.806 118.845C125.124 119.891 124.843 122.489 124.843 122.489L124.766 137.141C124.766 137.141 124.343 140.939 123.801 141.483C123.646 141.644 123.535 141.843 123.481 142.061C123.428 142.279 123.432 142.507 123.494 142.723C123.494 142.723 123.032 144.892 123.147 145.28C123.263 145.669 123.494 146.558 122.608 146.984C121.721 147.409 121.95 148.768 121.95 148.768C119.829 148.264 113.811 149.623 113.811 149.623C113.811 149.623 112.607 147.141 112.111 145.474C111.616 143.807 112.846 142.76 113.654 142.652C114.463 142.543 113.077 141.099 113.077 141.099C113.077 141.099 113.231 140.898 112.845 139.511C112.459 138.124 112.921 134.548 113.046 133.618C113.17 132.689 113.74 128.192 113.74 128.192C113.74 128.192 113.433 122.495 113.664 122.261C113.895 122.027 114.667 119.78 114.282 119.036C113.897 118.292 113.279 113.454 113.279 113.19C113.279 112.926 112.777 106.638 112.777 106.638C112.777 106.638 112.316 102.257 112.43 101.328C112.544 100.399 112.121 96.9498 112.121 96.9498C112.121 94.079 110.464 90.9788 110.464 90.9788L110.422 91.0898L106.836 100.564C106.836 100.564 106.258 103.431 105.755 105.06C105.439 106.165 105.187 107.289 105.002 108.424L104.968 108.626C104.954 108.712 104.942 108.787 104.934 108.844L104.91 109.001C104.91 109.001 105.179 111.055 104.756 111.714C104.332 112.373 103.851 114.349 103.851 114.899C103.851 115.449 103.887 117.538 103.887 117.538C103.887 117.538 104.044 121.685 103.618 122.151C103.193 122.616 103.418 123.003 103.418 123.003C103.418 123.003 104.114 126.142 103.805 126.956C103.496 127.77 103.729 129.667 103.729 129.667C103.729 129.667 103.117 135.663 103.048 135.977C102.98 136.291 102.547 138.69 103.008 138.884C103.47 139.077 104.359 140.24 104.359 140.24C104.359 140.24 104.559 145.318 103.859 145.705C103.159 146.093 103.548 148.07 103.548 148.07C103.548 148.07 97.9559 149.157 96.6817 148.535C95.4076 147.914 92.6687 147.566 92.6687 147.566L93.052 146.292C93.031 146.336 92.7751 146.749 92.5925 145.163C92.3918 143.496 94.0211 144.31 94.0211 144.31C94.0211 144.31 95.2931 144.621 93.2466 142.605C91.2001 140.589 92.2052 138.535 92.3209 138.535C92.4366 138.535 92.7061 135.551 92.7061 135.551C92.7061 135.551 93.0533 133.767 92.7823 132.372C92.5113 130.977 92.2826 126.635 92.2826 126.635C92.2826 126.635 92.4833 123.341 92.1282 122.139C91.773 120.938 92.3596 118.767 92.4753 118.261C92.591 117.755 92.1282 113.145 92.1282 113.145C92.1282 113.145 92.5155 110.976 92.2826 109.388C92.0497 107.799 92.5153 101.945 92.5153 101.945L93.2096 95.2C93.2096 95.2 93.7093 93.1073 93.6329 92.2549C93.5565 91.4024 94.2109 88.4247 94.2109 88.4247C94.2109 88.4247 94.1347 87.3382 94.5199 86.5646C94.9052 85.791 95.0617 83.2323 95.0617 83.2323L98.7657 74.703L100.572 67.1837L125.071 66.9512C125.071 66.9512 125.161 67.6022 125.308 68.7876C125.454 69.973 125.667 71.7287 125.91 73.8938C126.122 75.8613 126.355 78.1755 126.583 80.7479C127.306 88.9589 125.763 90.4326 125.763 90.4326Z" fill="#111111"/>
    <path d="M123.489 22.5599L117.776 28.6863C117.776 28.6863 110.448 25.739 111.219 24.7312C111.518 24.3401 111.469 23.1184 111.297 21.7508C111.026 19.6059 110.448 17.1324 110.448 17.1324C110.448 17.1324 123.256 15.0398 122.174 17.2089C121.773 18.0033 121.849 18.9285 122.094 19.7833C122.407 20.778 122.878 21.7154 123.489 22.5591V22.5599Z" fill="#FBBEBE"/>
    <path opacity="0.1" d="M122.174 17.2109C121.773 18.0052 121.592 18.0817 121.839 18.9366C120.164 20.7508 118.027 22.7164 115.386 22.7164C113.967 22.7186 112.567 22.3887 111.297 21.7527C111.026 19.6079 110.448 17.1344 110.448 17.1344C110.448 17.1344 123.256 15.0417 122.174 17.2109Z" fill="#111111"/>
    <path d="M124.568 13.2582C124.568 15.7052 123.6 18.0521 121.878 19.7824C120.155 21.5127 117.82 22.4848 115.384 22.4848C112.948 22.4848 110.612 21.5127 108.89 19.7824C107.168 18.0521 106.2 15.7052 106.2 13.2582C106.2 13.2138 106.2 13.1694 106.2 13.1252C106.218 10.6787 107.202 8.33938 108.936 6.62188C110.671 4.90438 113.013 3.94941 115.448 3.96704C117.883 3.98467 120.212 4.97346 121.921 6.71589C123.631 8.45833 124.581 10.8117 124.564 13.2582H124.568Z" fill="#FBBEBE"/>
    <path opacity="0.1" d="M125.897 74.1187C124.682 74.1288 120.63 74.1631 116.104 74.2356H116.049L114.553 74.2609H114.507C109.14 74.3476 103.85 73.2933 101.728 73.4949C97.2129 73.9202 103.348 69.308 103.348 69.308C106.712 70.1283 110.172 70.4797 113.631 70.3522L114.929 70.2856C119.032 70.0518 123.156 69.6648 125.307 69.0156C125.456 70.212 125.665 71.9618 125.897 74.1187Z" fill="#111111"/>
    <path d="M125.898 73.8857C124.682 73.8857 120.631 73.9301 116.104 74.0007H116.05L114.553 74.0269H114.507C109.14 74.1136 103.85 73.0593 101.728 73.2588C97.2129 73.6841 103.348 69.0735 103.348 69.0735C106.712 69.8927 110.172 70.2441 113.631 70.1177L114.929 70.0492C119.032 69.8167 123.156 69.4284 125.307 68.7793C125.457 69.977 125.666 71.7206 125.898 73.8857Z" fill="#7C5C5C"/>
    <path opacity="0.1" d="M112.916 25.1197L105.816 28.454L100.339 71.0132C100.339 71.0132 103.579 69.5416 105.43 70.471C107.282 71.4004 112.991 70.5496 112.991 70.5496C112.991 70.5496 117.158 70.3158 117.776 70.7821C118.394 71.2484 125.645 68.8449 125.645 68.8449C125.645 68.8449 126.957 65.8976 125.954 65.4341C124.951 64.9706 126.263 60.3945 126.263 60.3945L125.645 29.6945L124.411 25.7418L121.094 23.7246L117.695 26.4381L116.09 26.6706L112.916 25.1197Z" fill="#111111"/>
    <path d="M112.916 24.6531L105.816 27.9873L100.339 70.5503C100.339 70.5503 103.579 69.0768 105.43 70.0082C107.282 70.9395 112.991 70.0847 112.991 70.0847C112.991 70.0847 117.158 69.8522 117.776 70.3172C118.394 70.7822 125.645 68.3799 125.645 68.3799C125.645 68.3799 126.957 65.4348 125.954 64.9691C124.951 64.5035 126.263 59.9295 126.263 59.9295L125.645 29.2256L124.411 25.2728L121.094 23.2559L117.695 25.9712L116.09 26.201L112.916 24.6531Z" fill="#E6E6E6"/>
    <path opacity="0.1" d="M112.8 26.6313C112.8 26.6313 114.844 29.0725 114.806 29.5764C114.768 30.0803 114.692 31.2818 114.692 31.2818L113.147 34.4226C113.147 34.4226 112.298 38.3375 112.298 39.152C112.298 39.9664 110.948 47.0139 110.948 47.0139L109.328 57.8675L107.283 72.0931L109.366 75.6975L111.836 73.6049L115.115 48.2532L115.809 43.2537C115.809 43.2537 116.541 34.2609 116.541 33.3315C116.541 32.4021 116.118 29.959 116.118 29.959C116.118 29.959 116.62 27.6326 118.703 27.0904C120.785 26.5482 118.548 26.9735 118.548 26.9735L117.344 26.0039L116.303 26.4313C116.303 26.4313 113.418 25.5467 112.8 26.6313Z" fill="#111111"/>
    <path d="M112.568 26.4022C112.568 26.4022 114.613 28.8434 114.575 29.3473C114.537 29.8512 114.459 31.0527 114.459 31.0527L112.916 34.1935C112.916 34.1935 112.077 38.104 112.077 38.9167C112.077 39.7295 110.727 46.7787 110.727 46.7787L109.095 57.6483L107.061 71.8645L109.145 75.471L111.603 73.3724L114.886 48.0266L115.58 43.0272C115.58 43.0272 116.312 34.0344 116.312 33.103C116.312 32.1717 115.889 29.7305 115.889 29.7305C115.889 29.7305 116.39 27.4054 118.473 26.8619C120.556 26.3185 118.319 26.7469 118.319 26.7469L117.115 25.7773L116.09 26.2001C116.09 26.2001 113.186 25.3123 112.568 26.4022Z" fill="#111111"/>
    <path opacity="0.1" d="M111.218 22.3281C111.218 22.3281 110.909 22.5606 110.833 24.1102C110.757 25.6598 109.676 29.1499 109.676 29.1499C109.676 29.1499 113.689 26.3578 115.695 26.6683L111.218 22.3281Z" fill="#111111"/>
    <path d="M111.218 21.8633C111.218 21.8633 110.909 22.0958 110.833 23.6473C110.757 25.1988 109.676 28.6869 109.676 28.6869C109.676 28.6869 113.689 25.8968 115.695 26.2075L111.218 21.8633Z" fill="#E6E6E6"/>
    <path opacity="0.1" d="M122.176 21.0859L115.848 26.668C115.848 26.668 121.173 29.8471 121.867 30.623C122.562 31.399 123.256 23.0243 123.256 23.0243L122.176 21.0859Z" fill="#111111"/>
    <path d="M122.407 20.623L116.091 26.2011C116.091 26.2011 121.414 29.3781 122.11 30.1538C122.807 30.9296 123.501 22.5559 123.501 22.5559L122.407 20.623Z" fill="#E6E6E6"/>
    <path opacity="0.1" d="M111.449 22.3279C111.449 22.3279 110.755 21.9791 110.099 22.9872C109.443 23.9952 108.209 24.4588 108.209 24.4588C108.209 24.4588 101.186 25.5837 100.917 26.5129L97.6385 26.7146C97.6385 26.7146 96.4814 26.8678 96.3644 29.3111C96.2474 31.7544 95.624 31.9802 95.624 31.9802C95.624 31.9802 94.2737 34.3831 94.3879 35.6228C94.5022 36.8626 93.3465 37.4829 93.3465 37.4829L98.1622 50.081C98.1622 50.081 98.3167 55.276 97.4279 57.1748C96.5392 59.0736 94.8822 67.486 94.8822 67.486C94.8822 67.486 95.5784 67.3308 95.5384 67.7944C95.4984 68.2579 94.6897 73.3381 94.6897 73.3381C94.6897 73.3381 94.4582 75.354 94.0736 76.0516C93.689 76.7491 93.6482 80.3939 93.6482 80.3939L93.0303 83.0287C93.0303 83.0287 94.4969 86.3247 96.7343 85.851C98.9716 85.3773 103.049 76.5982 103.049 76.5982L105.633 67.1015L107.64 57.7216L108.218 51.3655L109.145 37.2946L110.495 27.9913C110.495 27.9913 111.991 22.988 111.449 22.3279Z" fill="#111111"/>
    <path d="M111.218 21.863C111.218 21.863 110.524 21.5143 109.868 22.5223C109.212 23.5304 107.978 23.9958 107.978 23.9958C107.978 23.9958 100.955 25.1186 100.686 26.05L97.4055 26.2516C97.4055 26.2516 96.2483 26.4068 96.1334 28.8482C96.0186 31.2896 95.3991 31.5232 95.3991 31.5232C95.3991 31.5232 94.0488 33.9261 94.1652 35.1658C94.2815 36.4055 93.1237 37.0259 93.1237 37.0259L97.9395 49.624C97.9395 49.624 98.0939 54.819 97.2071 56.7178C96.3203 58.6166 94.6613 67.0289 94.6613 67.0289C94.6613 67.0289 95.3556 66.8738 95.3175 67.3395C95.2794 67.8051 94.4688 72.8811 94.4688 72.8811C94.4688 72.8811 94.2374 74.897 93.8509 75.5946C93.4644 76.2921 93.4275 79.9369 93.4275 79.9369L92.8145 82.5632C92.8145 82.5632 94.2811 85.8592 96.5184 85.3855C98.7558 84.9118 102.807 76.1226 102.807 76.1226L105.393 66.6258L107.4 57.2439L107.98 50.8878L108.905 36.8169L110.256 27.5135C110.256 27.5135 111.758 22.5221 111.218 21.863Z" fill="#111111"/>
    <path opacity="0.1" d="M86.4479 51.8631L84.2106 53.416C84.2106 53.416 80.7994 53.5249 78.3435 52.9201L77.0994 52.3638L76.8486 52.2549L77.1055 52.3355C78.3957 52.7206 79.4049 52.7124 80.1935 52.4464C83.3597 51.376 83.0027 46.1227 82.8882 44.9333C82.8762 44.8143 82.8672 44.7316 82.8621 44.7075C82.8616 44.7028 82.8616 44.6981 82.8621 44.6934L82.8802 44.7236C82.9233 44.795 82.9726 44.8625 83.0275 44.9252C83.0717 44.9755 83.1178 45.028 83.168 45.0764L84.2857 47.322L84.2977 47.4167L86.4479 51.8631Z" fill="#111111"/>
    <path d="M94.2029 36.707L93.1234 37.0175L92.969 39.2351C92.969 39.2351 91.6948 39.0334 91.3477 40.5535C91.0005 42.0735 90.3845 42.771 90.3845 42.771C90.3845 42.771 88.2616 44.555 88.1453 46.0649L86.8349 46.8713C86.8349 46.8713 83.7842 46.1577 83.0928 44.9266C83.0928 44.9266 84.4814 54.9275 77.0732 52.4842C77.0732 52.4842 85.3683 56.129 85.7535 56.6329C86.1387 57.1368 88.687 58.6084 91.0005 57.3687C93.314 56.129 93.8177 54.2219 93.8177 54.2219C93.8177 54.2219 96.055 51.0813 96.1333 50.6154C96.2116 50.1495 97.9391 49.6076 97.9391 49.6076L101.258 41.5433L94.2029 36.707Z" fill="#111111"/>
    <path opacity="0.1" d="M121.289 25.7403L122.407 20.625C122.407 20.625 122.909 22.2921 123.41 22.6792L125.07 23.9571C125.07 23.9571 126.729 24.7333 127.307 24.7333C127.885 24.7333 131.011 25.5397 131.396 25.973C131.782 26.4064 133.327 26.0899 133.327 26.0899C133.327 26.0899 134.599 26.5152 135.718 26.7875C136.838 27.0597 137.378 28.9203 137.145 29.6561C137.052 30.0224 137.053 30.4066 137.147 30.7726C137.242 31.1385 137.428 31.4744 137.687 31.7487C138.148 32.2137 138.381 33.7263 138.381 33.7263C138.948 33.9119 139.42 34.3156 139.692 34.8492C140.079 35.7019 139.962 37.5626 139.962 37.5626L134.214 45.7027C134.214 45.7027 134.29 48.8436 134.059 49.5329C133.829 50.2222 134.862 62.0918 134.862 62.0918L136.066 82.4804C136.066 82.4804 134.485 83.837 134.138 83.9924C133.791 84.1477 133.442 76.7815 133.442 76.5115C133.442 76.2416 124.531 63.0999 124.531 63.0999C124.531 63.0999 123.327 61.1607 123.327 60.7352C123.327 60.3097 122.207 56.3929 122.207 56.3929L120.509 48.8343L121.289 25.7403Z" fill="#111111"/>
    <path d="M140.44 37.116C140.44 37.3821 140.426 37.5599 140.426 37.5599L134.682 45.6939C134.682 45.6939 134.762 48.8326 134.529 49.524C134.395 49.9271 134.69 54.1001 134.963 57.525C135.163 59.9982 135.34 62.083 135.34 62.083L135.848 70.731L136.534 82.4715C136.534 82.4715 134.953 83.8281 134.606 83.9835C134.259 84.1389 133.911 76.7726 133.911 76.5008C133.911 76.2289 124.998 63.091 124.998 63.091C124.998 63.091 123.795 61.1518 123.795 60.7263C123.795 60.3008 122.677 56.384 122.677 56.384L120.979 48.8246L121.75 25.7247L122.406 20.6094C122.406 20.6094 123.371 22.2765 123.873 22.6616C124.374 23.0468 125.53 23.9417 125.53 23.9417C125.53 23.9417 127.19 24.7179 127.77 24.7179C128.349 24.7179 131.474 25.5243 131.859 25.9576C132.244 26.391 133.789 26.0745 133.789 26.0745C133.789 26.0745 135.061 26.4998 136.179 26.7721C137.296 27.0443 137.838 28.9049 137.607 29.6385C137.514 30.005 137.514 30.3894 137.608 30.7558C137.703 31.1221 137.888 31.4584 138.147 31.7331C138.61 32.1981 138.841 33.7086 138.841 33.7086C139.41 33.8955 139.881 34.3006 140.154 34.8354C140.424 35.4368 140.45 36.5119 140.44 37.116Z" fill="#111111"/>
    <path opacity="0.1" d="M93.2783 140.396C93.479 140.396 101.573 140.707 101.419 142.025C101.264 143.344 93.2783 140.396 93.2783 140.396Z" fill="#111111"/>
    <path opacity="0.1" d="M95.0918 142.605C95.0918 142.605 100.532 143.496 99.1049 144.311C97.6782 145.125 95.0918 142.605 95.0918 142.605Z" fill="#111111"/>
    <path opacity="0.1" d="M115.308 139.545C115.308 139.545 124.337 140.321 122.987 141.327C121.637 142.333 118.434 142.49 118.28 142.537C118.125 142.583 115.308 139.545 115.308 139.545Z" fill="#111111"/>
    <path opacity="0.1" d="M114.229 143.537C114.229 143.537 119.245 144.39 119.397 145.351C119.55 146.313 114.229 143.537 114.229 143.537Z" fill="#111111"/>
    <path opacity="0.1" d="M117.006 120.201C117.006 120.201 121.597 121.286 121.868 122.015L117.006 120.201Z" fill="#111111"/>
    <path opacity="0.1" d="M99.2959 123.537C99.2959 123.537 96.9041 124.235 99.2197 125.63C101.535 127.025 99.2959 123.537 99.2959 123.537Z" fill="#111111"/>
    <path opacity="0.1" d="M109.906 86.2849C110.177 86.2849 114.383 84.8898 115.848 85.5109C117.312 86.1319 119.128 86.1298 119.128 86.1298L109.906 86.2849Z" fill="#111111"/>
    <path opacity="0.1" d="M110.448 90.7086L110.406 91.0916L106.82 100.566C106.82 100.566 106.242 103.433 105.739 105.062C105.423 106.167 105.171 107.291 104.986 108.426L108.171 88.5879L110.448 90.7086Z" fill="#111111"/>
    <path d="M116.05 74.002L114.553 74.0283H114.507L113.63 70.1214C114.061 70.1002 114.492 70.077 114.928 70.0508L116.05 74.002Z" fill="#111111"/>
    <path d="M134.252 69.272L133.291 70.0664L130.081 72.7175C130.081 72.7175 121.399 77.3701 119.007 72.9512C116.898 69.0585 126.742 66.2787 129.112 65.6718C129.435 65.5892 129.617 65.5488 129.617 65.5488L134.252 69.272Z" fill="#FBBEBE"/>
    <path opacity="0.1" d="M97.1748 31.166C97.1748 31.166 98.8723 31.9401 99.2577 33.0261C99.6432 34.1122 97.1748 31.166 97.1748 31.166Z" fill="#111111"/>
    <path opacity="0.1" d="M91.9281 42.793C91.9281 42.793 89.4581 45.8167 90.4615 46.9799C91.4648 48.1431 91.9281 42.793 91.9281 42.793Z" fill="#111111"/>
    <path opacity="0.1" d="M136.066 32.8711C136.066 32.8711 133.75 33.1036 133.674 35.1189L136.066 32.8711Z" fill="#111111"/>
    <path opacity="0.1" d="M114.613 64.6561C114.845 64.4235 120.169 56.5159 121.403 57.2135L114.613 64.6561Z" fill="#111111"/>
    <path opacity="0.1" d="M124.568 13.2567C124.57 14.7759 124.197 16.272 123.482 17.611L123.414 17.599C122.832 17.476 122.529 16.7926 122.084 16.3692C121.811 16.1077 121.463 15.9387 121.09 15.886C120.716 15.8332 120.335 15.8993 120.001 16.075C119.663 16.2783 119.389 16.5722 119.208 16.9237C119.027 17.2751 118.947 17.6702 118.978 18.0647C118.685 16.8228 118.777 15.5026 118.49 14.2586C118.203 13.0147 117.338 11.757 116.157 11.7348C115.647 11.7348 115.051 11.925 114.684 11.5331C114.461 11.3006 114.415 10.9284 114.248 10.6561C113.404 9.28217 110.837 9.97675 109.782 10.6802C108.766 11.3566 107.51 12.5107 106.205 13.1155C106.223 10.6689 107.207 8.32961 108.941 6.61211C109.8 5.76169 110.817 5.08954 111.934 4.63402C113.052 4.1785 114.247 3.94854 115.453 3.95727C116.659 3.966 117.851 4.21325 118.962 4.6849C120.072 5.15655 121.08 5.84336 121.926 6.70613C122.773 7.56889 123.442 8.59071 123.895 9.71324C124.349 10.8358 124.577 12.037 124.569 13.2484L124.568 13.2567Z" fill="#111111"/>
    <path d="M114.248 10.431C114.416 10.7112 114.461 11.078 114.684 11.308C115.051 11.691 115.647 11.4955 116.156 11.5096C117.338 11.5308 118.203 12.7897 118.49 14.0335C118.777 15.2772 118.691 16.5956 118.977 17.8382C118.947 17.444 119.027 17.0492 119.208 16.6982C119.39 16.3471 119.665 16.0538 120.003 15.8513C120.336 15.6759 120.717 15.6097 121.09 15.6621C121.463 15.7146 121.81 15.8829 122.083 16.1436C122.529 16.5689 122.832 17.2504 123.414 17.3734C123.996 17.4964 124.557 16.9359 124.766 16.3191C124.975 15.7023 124.967 15.0269 125.099 14.3879C125.362 13.1784 126.147 12.1896 126.582 11.0395C127.099 9.64025 127.085 8.0988 126.542 6.70946C126.253 5.98169 125.821 5.32663 125.539 4.59886C125.093 3.49421 122.623 2.00654 122.083 0.954092C121.175 -0.807733 121.76 0.290792 120.003 0.954092C119.164 1.27116 118.064 0.143674 117.214 0.42396C116.072 0.79091 114.854 0.51464 113.672 0.349344C112.49 0.184047 111.188 0.167982 110.239 0.954092C109.147 1.85118 108.848 3.53838 107.831 4.52425C107.4 4.93749 106.863 5.20065 106.408 5.58451C105.954 5.96837 105.562 6.53571 105.606 7.15885C105.674 7.96525 106.457 8.69091 106.167 9.43474C106.063 9.64965 105.918 9.84206 105.74 10.0012C104.88 10.9058 104.24 11.9989 103.872 13.1943C105.937 13.8413 108.172 11.5553 109.787 10.4749C110.833 9.7535 113.403 9.0661 114.248 10.431Z" fill="#111111"/>
    <path opacity="0.1" d="M134.251 69.2721L133.29 70.0664C132.443 68.6553 128.966 65.819 128.966 65.819L129.116 65.6738C129.439 65.5912 129.621 65.5508 129.621 65.5508L134.251 69.2721Z" fill="#111111"/>
    <path d="M135.178 67.8353C135.178 67.8353 134.833 68.6981 134.475 69.4481C134.118 70.1981 133.731 70.8713 133.711 70.3211C133.673 69.2346 129.198 65.5898 129.198 65.5898L129.8 64.998L130.504 64.3125L135.178 67.8353Z" fill="#E6E6E6"/>
    <path opacity="0.1" d="M135.333 62.098L135.841 70.7461C134.637 68.8733 131.352 64.0736 129.234 64.2287L134.368 58.3C134.581 58.0604 134.778 57.8061 134.956 57.5391C135.152 60.0136 135.333 62.098 135.333 62.098Z" fill="#111111"/>
    <path opacity="0.1" d="M135.179 67.8342C135.179 67.8342 134.834 68.697 134.476 69.447C133.132 67.5945 131.282 65.4053 129.806 64.996L130.51 64.3105L135.179 67.8342Z" fill="#111111"/>
    <path d="M139.037 36.4824L140.426 37.567C140.426 37.567 142.74 37.6074 142.972 39.5446C143.203 41.4819 145.325 42.3669 145.325 42.3669C145.325 42.3669 146.906 43.9554 146.906 44.6921C146.906 45.4287 148.11 46.7484 148.11 46.8631C148.11 46.9779 149.267 49.3447 149.113 49.77C148.959 50.1953 150.347 52.0579 149.916 52.7555C149.567 53.381 149.257 54.0281 148.989 54.6927C148.989 54.6927 147.183 58.1821 146.25 58.8414C145.317 59.5007 141.081 65.0424 141.081 65.0424C141.081 65.0424 136.529 70.3139 136.529 71.9428C136.529 71.9428 132.089 64.5002 129.468 64.6856L134.598 58.7548C134.598 58.7548 135.487 57.7871 135.525 57.2045C135.564 56.622 137.993 53.9493 139.151 53.832C139.151 53.832 139.352 52.2435 138.842 52.2044C138.332 52.1653 137.916 50.9243 137.916 50.9243C137.916 50.9243 134.521 46.8925 134.483 44.3344C134.445 41.7764 139.037 36.4824 139.037 36.4824Z" fill="#111111"/>
    <path opacity="0.1" d="M141.081 40.1582C141.081 40.1582 137.839 42.5611 138.536 43.3352C139.232 44.1093 141.081 40.1582 141.081 40.1582Z" fill="#111111"/>
    <path opacity="0.1" d="M103.965 153.073C103.965 153.073 100.725 155.206 99.1046 154.888C97.4846 154.569 95.824 155.432 95.824 155.432C94.7076 156.657 93.2999 157.578 91.7326 158.107C89.11 158.998 85.4462 158.649 83.3633 157.95C82.3762 157.621 82.2979 157.194 82.7715 156.67C85.0368 157.123 90.0993 158.025 91.4637 157.369C93.2376 156.517 95.7838 154.656 95.7838 154.656C95.7838 154.656 99.1046 154.191 99.566 154.191C99.8951 154.191 102.457 153.128 103.904 152.518L103.965 153.073Z" fill="#111111"/>
    <path opacity="0.1" d="M98.7765 39.6934C98.7765 39.6934 98.7765 48.531 98.0241 49.4038C97.2718 50.2766 98.7765 39.6934 98.7765 39.6934Z" fill="#111111"/>
    <path opacity="0.1" d="M133.557 42.541L134.674 45.699C134.674 45.699 135.12 42.5996 133.557 42.541Z" fill="#111111"/>
    <g opacity="0.1">
        <path opacity="0.1" d="M106.276 8.66287C106.559 7.9351 105.819 7.2236 105.723 6.44531C105.624 6.66524 105.581 6.90629 105.598 7.14687C105.648 7.73344 106.08 8.28387 106.2 8.82605C106.231 8.77423 106.256 8.7195 106.276 8.66265V8.66287Z" fill="#111111"/>
        <path opacity="0.1" d="M119.082 17.0109C118.805 15.7872 118.881 14.4929 118.604 13.2714C118.327 12.0498 117.454 10.7676 116.273 10.7476C115.763 10.7476 115.167 10.935 114.798 10.5459C114.577 10.3161 114.531 9.94115 114.364 9.6689C113.52 8.29495 110.953 8.99249 109.896 9.69511C108.317 10.7495 106.15 12.9528 104.127 12.4527C104.029 12.6886 103.938 12.9264 103.864 13.1714C105.929 13.8184 108.164 11.5324 109.78 10.4521C110.833 9.74859 113.403 9.0409 114.248 10.4258C114.416 10.7061 114.461 11.0729 114.684 11.3028C115.051 11.6859 115.647 11.4903 116.156 11.5045C117.338 11.5256 118.203 12.7846 118.49 14.0283C118.777 15.2721 118.691 16.5904 118.977 17.8331C118.958 17.5553 118.993 17.2763 119.083 17.0126L119.082 17.0109Z" fill="#111111"/>
        <path opacity="0.1" d="M124.883 15.556C124.682 16.1728 124.122 16.7374 123.528 16.6103C122.935 16.4833 122.643 15.8039 122.2 15.3806C121.927 15.1194 121.579 14.9507 121.205 14.8983C120.832 14.8459 120.451 14.9123 120.117 15.0882C119.795 15.2813 119.531 15.5573 119.351 15.8876C119.171 16.218 119.082 16.5906 119.094 16.9669C119.248 16.4925 119.572 16.0924 120.003 15.8441C120.337 15.6687 120.717 15.6025 121.09 15.6549C121.463 15.7074 121.81 15.8757 122.083 16.1364C122.529 16.5617 122.832 17.2432 123.414 17.3662C123.996 17.4892 124.558 16.9287 124.766 16.3119C124.877 15.9497 124.948 15.5767 124.979 15.1992C124.954 15.3199 124.922 15.4391 124.883 15.556Z" fill="#111111"/>
        <path opacity="0.1" d="M126.696 10.2749C126.262 11.4239 125.475 12.4157 125.215 13.6252C125.163 13.8691 125.133 14.1192 125.103 14.369C125.367 13.1595 126.148 12.1758 126.581 11.0308C126.774 10.5124 126.895 9.9696 126.939 9.41797C126.88 9.70928 126.799 9.99567 126.696 10.2747L126.696 10.2749Z" fill="#111111"/>
    </g>
    <path d="M74.1673 39.177L74.1524 39.1846C74.113 39.2045 74.0972 39.2528 74.117 39.2924L74.697 40.4488C74.7169 40.4884 74.765 40.5043 74.8044 40.4844L74.8192 40.4768C74.8587 40.4569 74.8745 40.4086 74.8547 40.369L74.2747 39.2126C74.2548 39.173 74.2067 39.1571 74.1673 39.177Z" fill="#3A3768"/>
    <path d="M72.5235 36.9575L68.1152 39.1893C67.8828 39.307 67.7893 39.5916 67.9064 39.8252L72.8601 49.7014C72.9773 49.9349 73.2606 50.0289 73.4931 49.9112L77.9014 47.6794C78.1338 47.5617 78.2273 47.277 78.1101 47.0435L73.1564 37.1672C73.0393 36.9337 72.7559 36.8398 72.5235 36.9575Z" fill="#3A3768"/>
    <path d="M71.9306 37.6016C71.9049 37.6131 71.882 37.6298 71.8633 37.6508C71.8445 37.6717 71.8303 37.6964 71.8216 37.7232C71.8129 37.7499 71.8099 37.7783 71.8127 37.8063C71.8156 37.8343 71.8243 37.8614 71.8382 37.8859L71.8592 37.9242C71.8731 37.9487 71.8817 37.976 71.8844 38.0041C71.8871 38.0322 71.884 38.0606 71.8751 38.0874C71.8662 38.1142 71.8518 38.1388 71.8328 38.1597C71.8139 38.1805 71.7907 38.1972 71.765 38.2085L69.5398 39.3353C69.5155 39.3493 69.4885 39.358 69.4606 39.3609C69.4327 39.3638 69.4045 39.3607 69.3779 39.352C69.3512 39.3433 69.3266 39.329 69.3058 39.3101C69.285 39.2913 69.2683 39.2682 69.2569 39.2425L69.2358 39.2021C69.2244 39.1764 69.2077 39.1534 69.1869 39.1345C69.166 39.1157 69.1415 39.1014 69.1148 39.0927C69.0882 39.0839 69.06 39.0809 69.0321 39.0838C69.0042 39.0866 68.9772 39.0954 68.9528 39.1093L68.5194 39.3271C68.4719 39.3508 68.4296 39.3838 68.3948 39.4241C68.3601 39.4643 68.3337 39.5111 68.3171 39.5618C68.3004 39.6124 68.294 39.6658 68.2981 39.719C68.3021 39.7721 68.3167 39.8239 68.3408 39.8714L73.0747 49.3117C73.0983 49.3594 73.1311 49.4019 73.1712 49.4368C73.2113 49.4717 73.2579 49.4983 73.3083 49.515C73.3587 49.5317 73.4119 49.5381 73.4647 49.5341C73.5176 49.53 73.5692 49.5154 73.6164 49.4911L77.4991 47.5253C77.5463 47.5016 77.5884 47.4687 77.623 47.4286C77.6575 47.3884 77.6838 47.3419 77.7004 47.2915C77.717 47.2411 77.7236 47.1879 77.7197 47.135C77.7158 47.0821 77.7015 47.0305 77.6777 46.9831L72.9499 37.5414C72.9261 37.4941 72.8932 37.452 72.8532 37.4175C72.8132 37.383 72.7668 37.3568 72.7167 37.3403C72.6666 37.3238 72.6137 37.3174 72.5611 37.3215C72.5085 37.3256 72.4573 37.34 72.4103 37.364L71.9306 37.6016Z" fill="#0075FF"/>
    <path opacity="0.1" d="M47.0819 148.428H39.4092V149.648H47.0819V148.428Z" fill="#111111"/>
    <path d="M64.1951 38.3517V62.3965C64.1957 62.7134 64.1339 63.0274 64.0134 63.3203C63.893 63.6133 63.7161 63.8794 63.493 64.1036C63.2699 64.3277 63.005 64.5054 62.7134 64.6264C62.4219 64.7474 62.1094 64.8095 61.7939 64.8089H59.2148V35.9414H61.7937C62.1089 35.9409 62.4212 36.0028 62.7126 36.1236C63.004 36.2445 63.2688 36.422 63.4919 36.6458C63.7149 36.8696 63.8918 37.1355 64.0124 37.4281C64.1331 37.7207 64.1951 38.0344 64.1949 38.3511L64.1951 38.3517Z" fill="#D0CDE1"/>
    <path opacity="0.2" d="M62.2376 39.0244V61.8351C62.0916 61.8595 61.9438 61.8715 61.7958 61.8713H61.4268V38.9883H61.7966C61.9444 38.9881 62.0919 39.0002 62.2376 39.0244Z" fill="#111111"/>
    <path d="M52.8105 73.293H43.5127V148.192H52.8105V73.293Z" fill="#D0CDE1"/>
    <path d="M36.9827 147.018H58.2711C60.6084 147.018 62.8499 147.95 64.5027 149.611C66.1554 151.271 67.0839 153.523 67.0839 155.872V157.233H28.1699V155.872C28.1699 153.523 29.0984 151.271 30.7511 149.611C32.4039 147.95 34.6454 147.018 36.9827 147.018Z" fill="#D0CDE1"/>
    <path opacity="0.1" d="M52.8105 83.6055H43.5127V92.5898H52.8105V83.6055Z" fill="#111111"/>
    <path opacity="0.1" d="M52.8105 82.9941H43.5127V91.9785H52.8105V82.9941Z" fill="#111111"/>
    <path d="M53.7787 83.2969H42.6514V92.2812H53.7787V83.2969Z" fill="#D0CDE1"/>
    <path d="M57.8185 67.6518V71.3805C57.8185 71.8399 57.7284 72.2948 57.5534 72.7192C57.3785 73.1436 57.122 73.5293 56.7986 73.8541C56.4753 74.1789 56.0914 74.4366 55.669 74.6124C55.2465 74.7882 54.7937 74.8786 54.3365 74.8786H41.9945C41.0711 74.8786 40.1855 74.5101 39.5325 73.854C38.8795 73.198 38.5127 72.3083 38.5127 71.3805V67.6518C38.5133 66.7247 38.8805 65.8358 39.5334 65.1806C40.1864 64.5254 41.0717 64.1576 41.9945 64.1582H54.3365C55.2593 64.1576 56.1446 64.5254 56.7975 65.1806C57.4505 65.8358 57.8177 66.7247 57.8183 67.6518H57.8185Z" fill="#D0CDE1"/>
    <path opacity="0.1" d="M57.8192 67.6518V68.0323C56.6858 69.525 55.2248 70.7348 53.55 71.5675C51.8752 72.4003 50.0317 72.8335 48.163 72.8335C46.2943 72.8335 44.4508 72.4003 42.776 71.5675C41.1012 70.7348 39.6402 69.525 38.5068 68.0323V67.6518C38.5074 66.7247 38.8746 65.8358 39.5276 65.1806C40.1806 64.5254 41.0658 64.1577 41.9887 64.1582H54.3308C54.7883 64.1571 55.2416 64.2466 55.6646 64.4216C56.0876 64.5966 56.4721 64.8538 56.7961 65.1783C57.1201 65.5028 57.3773 65.8883 57.5528 66.3127C57.7284 66.7372 57.8189 67.1922 57.8192 67.6518Z" fill="#111111"/>
    <path d="M36.9994 32.9102H59.3259C59.586 32.9102 59.8355 33.014 60.0194 33.1988C60.2034 33.3836 60.3067 33.6342 60.3067 33.8956V61.9584C60.3067 64.7629 59.1978 67.4526 57.2239 69.4357C55.25 71.4188 52.5728 72.5329 49.7813 72.5329H46.544C43.7525 72.5329 41.0753 71.4188 39.1014 69.4357C37.1275 67.4526 36.0186 64.7629 36.0186 61.9584V33.8956C36.0186 33.6342 36.1219 33.3836 36.3058 33.1988C36.4898 33.014 36.7393 32.9102 36.9994 32.9102Z" fill="#D0CDE1"/>
    <path d="M41.0368 21.845H55.1122C57.1762 21.845 58.8495 23.1528 58.8495 24.7662V33.1355C58.8495 33.717 58.2465 34.1881 57.5029 34.1881H38.6463C37.9026 34.1881 37.2998 33.7168 37.2998 33.1355V24.765C37.2998 23.1517 38.9731 21.8438 41.037 21.8438L41.0368 21.845Z" fill="#D0CDE1"/>
    <path opacity="0.2" d="M55.4746 28.2539H40.3369V29.3763H55.4746V28.2539Z" fill="#111111"/>
    <path opacity="0.1" d="M57.8157 36.5117H38.5078V50.5888H57.8157V36.5117Z" fill="#111111"/>
    <path d="M57.8157 36.2051H38.5078V50.2821H57.8157V36.2051Z" fill="#0075FF"/>
    <g opacity="0.1">
        <path opacity="0.1" d="M42.7946 52.6953H38.7834C38.6916 52.6953 38.6172 52.7701 38.6172 52.8623V54.086C38.6172 54.1782 38.6916 54.2529 38.7834 54.2529H42.7946C42.8864 54.2529 42.9608 54.1782 42.9608 54.086V52.8623C42.9608 52.7701 42.8864 52.6953 42.7946 52.6953Z" fill="#111111"/>
        <path opacity="0.1" d="M47.7096 52.6953H43.6984C43.6066 52.6953 43.5322 52.7701 43.5322 52.8623V54.086C43.5322 54.1782 43.6066 54.2529 43.6984 54.2529H47.7096C47.8014 54.2529 47.8758 54.1782 47.8758 54.086V52.8623C47.8758 52.7701 47.8014 52.6953 47.7096 52.6953Z" fill="#111111"/>
        <path opacity="0.1" d="M52.6256 52.6953H48.6145C48.5227 52.6953 48.4482 52.7701 48.4482 52.8623V54.086C48.4482 54.1782 48.5227 54.2529 48.6145 54.2529H52.6256C52.7174 54.2529 52.7918 54.1782 52.7918 54.086V52.8623C52.7918 52.7701 52.7174 52.6953 52.6256 52.6953Z" fill="#111111"/>
        <path opacity="0.1" d="M57.5426 52.6953H53.5314C53.4397 52.6953 53.3652 52.7701 53.3652 52.8623V54.086C53.3652 54.1782 53.4397 54.2529 53.5314 54.2529H57.5426C57.6344 54.2529 57.7088 54.1782 57.7088 54.086V52.8623C57.7088 52.7701 57.6344 52.6953 57.5426 52.6953Z" fill="#111111"/>
        <path opacity="0.1" d="M42.7946 55.7441H38.7834C38.6916 55.7441 38.6172 55.8189 38.6172 55.9111V57.1348C38.6172 57.227 38.6916 57.3018 38.7834 57.3018H42.7946C42.8864 57.3018 42.9608 57.227 42.9608 57.1348V55.9111C42.9608 55.8189 42.8864 55.7441 42.7946 55.7441Z" fill="#111111"/>
        <path opacity="0.1" d="M47.7096 55.7441H43.6984C43.6066 55.7441 43.5322 55.8189 43.5322 55.9111V57.1348C43.5322 57.227 43.6066 57.3018 43.6984 57.3018H47.7096C47.8014 57.3018 47.8758 57.227 47.8758 57.1348V55.9111C47.8758 55.8189 47.8014 55.7441 47.7096 55.7441Z" fill="#111111"/>
        <path opacity="0.1" d="M52.6256 55.7441H48.6145C48.5227 55.7441 48.4482 55.8189 48.4482 55.9111V57.1348C48.4482 57.227 48.5227 57.3018 48.6145 57.3018H52.6256C52.7174 57.3018 52.7918 57.227 52.7918 57.1348V55.9111C52.7918 55.8189 52.7174 55.7441 52.6256 55.7441Z" fill="#111111"/>
        <path opacity="0.1" d="M42.7946 58.7188H38.7834C38.6916 58.7188 38.6172 58.7935 38.6172 58.8857V60.1094C38.6172 60.2016 38.6916 60.2764 38.7834 60.2764H42.7946C42.8864 60.2764 42.9608 60.2016 42.9608 60.1094V58.8857C42.9608 58.7935 42.8864 58.7188 42.7946 58.7188Z" fill="#111111"/>
        <path opacity="0.1" d="M47.7096 58.7188H43.6984C43.6066 58.7188 43.5322 58.7935 43.5322 58.8857V60.1094C43.5322 60.2016 43.6066 60.2764 43.6984 60.2764H47.7096C47.8014 60.2764 47.8758 60.2016 47.8758 60.1094V58.8857C47.8758 58.7935 47.8014 58.7188 47.7096 58.7188Z" fill="#111111"/>
        <path opacity="0.1" d="M52.6256 58.7188H48.6145C48.5227 58.7188 48.4482 58.7935 48.4482 58.8857V60.1094C48.4482 60.2016 48.5227 60.2764 48.6145 60.2764H52.6256C52.7174 60.2764 52.7918 60.2016 52.7918 60.1094V58.8857C52.7918 58.7935 52.7174 58.7188 52.6256 58.7188Z" fill="#111111"/>
        <path opacity="0.1" d="M42.7946 61.998H38.7834C38.6916 61.998 38.6172 62.0728 38.6172 62.165V63.3887C38.6172 63.4809 38.6916 63.5557 38.7834 63.5557H42.7946C42.8864 63.5557 42.9608 63.4809 42.9608 63.3887V62.165C42.9608 62.0728 42.8864 61.998 42.7946 61.998Z" fill="#111111"/>
        <path opacity="0.1" d="M47.7096 61.998H43.6984C43.6066 61.998 43.5322 62.0728 43.5322 62.165V63.3887C43.5322 63.4809 43.6066 63.5557 43.6984 63.5557H47.7096C47.8014 63.5557 47.8758 63.4809 47.8758 63.3887V62.165C47.8758 62.0728 47.8014 61.998 47.7096 61.998Z" fill="#111111"/>
        <path opacity="0.1" d="M52.6256 61.998H48.6145C48.5227 61.998 48.4482 62.0728 48.4482 62.165V63.3887C48.4482 63.4809 48.5227 63.5557 48.6145 63.5557H52.6256C52.7174 63.5557 52.7918 63.4809 52.7918 63.3887V62.165C52.7918 62.0728 52.7174 61.998 52.6256 61.998Z" fill="#111111"/>
        <path opacity="0.1" d="M57.5426 55.7441H53.5314C53.4397 55.7441 53.3652 55.8189 53.3652 55.9111V57.1348C53.3652 57.227 53.4397 57.3018 53.5314 57.3018H57.5426C57.6344 57.3018 57.7088 57.227 57.7088 57.1348V55.9111C57.7088 55.8189 57.6344 55.7441 57.5426 55.7441Z" fill="#111111"/>
        <path opacity="0.1" d="M57.0662 58.5508H54.0453C53.8164 58.5508 53.6309 58.7372 53.6309 58.9672V63.686C53.6309 63.916 53.8164 64.1024 54.0453 64.1024H57.0662C57.2951 64.1024 57.4807 63.916 57.4807 63.686V58.9672C57.4807 58.7372 57.2951 58.5508 57.0662 58.5508Z" fill="#111111"/>
    </g>
    <path d="M42.7946 52.3867H38.7834C38.6916 52.3867 38.6172 52.4615 38.6172 52.5537V53.7774C38.6172 53.8696 38.6916 53.9444 38.7834 53.9444H42.7946C42.8864 53.9444 42.9608 53.8696 42.9608 53.7774V52.5537C42.9608 52.4615 42.8864 52.3867 42.7946 52.3867Z" fill="white"/>
    <path d="M47.7096 52.3867H43.6984C43.6066 52.3867 43.5322 52.4615 43.5322 52.5537V53.7774C43.5322 53.8696 43.6066 53.9444 43.6984 53.9444H47.7096C47.8014 53.9444 47.8758 53.8696 47.8758 53.7774V52.5537C47.8758 52.4615 47.8014 52.3867 47.7096 52.3867Z" fill="white"/>
    <path d="M52.6246 52.3867H48.6135C48.5217 52.3867 48.4473 52.4615 48.4473 52.5537V53.7774C48.4473 53.8696 48.5217 53.9444 48.6135 53.9444H52.6246C52.7164 53.9444 52.7909 53.8696 52.7909 53.7774V52.5537C52.7909 52.4615 52.7164 52.3867 52.6246 52.3867Z" fill="white"/>
    <path d="M57.5416 52.3867H53.5305C53.4387 52.3867 53.3643 52.4615 53.3643 52.5537V53.7774C53.3643 53.8696 53.4387 53.9444 53.5305 53.9444H57.5416C57.6334 53.9444 57.7079 53.8696 57.7079 53.7774V52.5537C57.7079 52.4615 57.6334 52.3867 57.5416 52.3867Z" fill="#111111"/>
    <path d="M42.7946 55.4375H38.7834C38.6916 55.4375 38.6172 55.5123 38.6172 55.6045V56.8282C38.6172 56.9204 38.6916 56.9951 38.7834 56.9951H42.7946C42.8864 56.9951 42.9608 56.9204 42.9608 56.8282V55.6045C42.9608 55.5123 42.8864 55.4375 42.7946 55.4375Z" fill="white"/>
    <path d="M47.7096 55.4375H43.6984C43.6066 55.4375 43.5322 55.5123 43.5322 55.6045V56.8282C43.5322 56.9204 43.6066 56.9951 43.6984 56.9951H47.7096C47.8014 56.9951 47.8758 56.9204 47.8758 56.8282V55.6045C47.8758 55.5123 47.8014 55.4375 47.7096 55.4375Z" fill="white"/>
    <path d="M52.6246 55.4375H48.6135C48.5217 55.4375 48.4473 55.5123 48.4473 55.6045V56.8282C48.4473 56.9204 48.5217 56.9951 48.6135 56.9951H52.6246C52.7164 56.9951 52.7909 56.9204 52.7909 56.8282V55.6045C52.7909 55.5123 52.7164 55.4375 52.6246 55.4375Z" fill="white"/>
    <path d="M42.7946 58.4102H38.7834C38.6916 58.4102 38.6172 58.4849 38.6172 58.5771V59.8008C38.6172 59.893 38.6916 59.9678 38.7834 59.9678H42.7946C42.8864 59.9678 42.9608 59.893 42.9608 59.8008V58.5771C42.9608 58.4849 42.8864 58.4102 42.7946 58.4102Z" fill="white"/>
    <path d="M47.7096 58.4102H43.6984C43.6066 58.4102 43.5322 58.4849 43.5322 58.5771V59.8008C43.5322 59.893 43.6066 59.9678 43.6984 59.9678H47.7096C47.8014 59.9678 47.8758 59.893 47.8758 59.8008V58.5771C47.8758 58.4849 47.8014 58.4102 47.7096 58.4102Z" fill="white"/>
    <path d="M52.6246 58.4102H48.6135C48.5217 58.4102 48.4473 58.4849 48.4473 58.5771V59.8008C48.4473 59.893 48.5217 59.9678 48.6135 59.9678H52.6246C52.7164 59.9678 52.7909 59.893 52.7909 59.8008V58.5771C52.7909 58.4849 52.7164 58.4102 52.6246 58.4102Z" fill="white"/>
    <path d="M42.7946 61.6934H38.7834C38.6916 61.6934 38.6172 61.7681 38.6172 61.8603V63.084C38.6172 63.1762 38.6916 63.251 38.7834 63.251H42.7946C42.8864 63.251 42.9608 63.1762 42.9608 63.084V61.8603C42.9608 61.7681 42.8864 61.6934 42.7946 61.6934Z" fill="white"/>
    <path d="M47.7096 61.6934H43.6984C43.6066 61.6934 43.5322 61.7681 43.5322 61.8603V63.084C43.5322 63.1762 43.6066 63.251 43.6984 63.251H47.7096C47.8014 63.251 47.8758 63.1762 47.8758 63.084V61.8603C47.8758 61.7681 47.8014 61.6934 47.7096 61.6934Z" fill="white"/>
    <path d="M52.6246 61.6934H48.6135C48.5217 61.6934 48.4473 61.7681 48.4473 61.8603V63.084C48.4473 63.1762 48.5217 63.251 48.6135 63.251H52.6246C52.7164 63.251 52.7909 63.1762 52.7909 63.084V61.8603C52.7909 61.7681 52.7164 61.6934 52.6246 61.6934Z" fill="white"/>
    <path d="M57.5416 55.4375H53.5305C53.4387 55.4375 53.3643 55.5123 53.3643 55.6045V56.8282C53.3643 56.9204 53.4387 56.9951 53.5305 56.9951H57.5416C57.6334 56.9951 57.7079 56.9204 57.7079 56.8282V55.6045C57.7079 55.5123 57.6334 55.4375 57.5416 55.4375Z" fill="#111111"/>
    <path d="M57.0662 58.2461H54.0453C53.8164 58.2461 53.6309 58.4325 53.6309 58.6625V63.3813C53.6309 63.6113 53.8164 63.7977 54.0453 63.7977H57.0662C57.2951 63.7977 57.4807 63.6113 57.4807 63.3813V58.6625C57.4807 58.4325 57.2951 58.2461 57.0662 58.2461Z" fill="#0075FF"/>
    <path d="M50.2166 48.5723H48.1357V48.8225H50.2166V48.5723Z" fill="white"/>
    <path d="M53.1306 48.5723H51.0498V48.8225H53.1306V48.5723Z" fill="white"/>
    <path d="M56.0447 48.5723H53.9639V48.8225H56.0447V48.5723Z" fill="white"/>
</svg>