<svg width="248" height="150" viewBox="0 0 248 150" fill="none" xmlns="http://www.w3.org/2000/svg">
    <g clip-path="url(#clip0)">
        <path d="M20.4952 32.5431C27.5417 32.5431 33.254 26.8307 33.254 19.7842C33.254 12.7377 27.5417 7.02539 20.4952 7.02539C13.4486 7.02539 7.73633 12.7377 7.73633 19.7842C7.73633 26.8307 13.4486 32.5431 20.4952 32.5431Z" fill="#FF6584"/>
        <path d="M123.151 150C191.166 150 246.303 147.765 246.303 145.007C246.303 142.25 191.166 140.015 123.151 140.015C55.1367 140.015 0 142.25 0 145.007C0 147.765 55.1367 150 123.151 150Z" fill="#E6E6E6"/>
        <path d="M31.3424 82.4386C48.6523 82.4386 62.6847 68.4061 62.6847 51.0962C62.6847 33.7864 48.6523 19.7539 31.3424 19.7539C14.0324 19.7539 0 33.7864 0 51.0962C0 68.4061 14.0324 82.4386 31.3424 82.4386Z" fill="#0075FF"/>
        <path d="M34.3649 145.501H27.9453L30.8718 46.376L34.3649 145.501Z" fill="#3F3D56"/>
        <path d="M31.4355 65.1627L38.3272 55.6279L31.3412 67.5228L30.5859 66.2011L31.4355 65.1627Z" fill="#3F3D56"/>
        <path d="M30.6805 74.7916L23.7891 65.2568L30.7751 77.1517L31.5303 75.83L30.6805 74.7916Z" fill="#3F3D56"/>
        <path d="M229.521 145.605H223.102L226.028 46.4805L229.521 145.605Z" fill="#3F3D56"/>
        <path d="M226.596 65.2671L233.487 55.7324L226.501 67.6273L225.746 66.3056L226.596 65.2671Z" fill="#3F3D56"/>
        <path d="M225.839 74.8961L218.947 65.3613L225.933 77.2562L226.689 75.9345L225.839 74.8961Z" fill="#3F3D56"/>
        <path d="M127.326 145.588C159.572 145.588 185.712 119.448 185.712 87.202C185.712 54.956 159.572 28.8154 127.326 28.8154C95.08 28.8154 68.9395 54.956 68.9395 87.202C68.9395 119.448 95.08 145.588 127.326 145.588Z" fill="#3F3D56"/>
        <path d="M127.325 140.755C156.901 140.755 180.878 116.778 180.878 87.2016C180.878 57.625 156.901 33.6484 127.325 33.6484C97.7481 33.6484 73.7715 57.625 73.7715 87.2016C73.7715 116.778 97.7481 140.755 127.325 140.755Z" fill="white"/>
        <path d="M127.134 94.5488C131.084 94.5488 134.287 91.3462 134.287 87.3955C134.287 83.4448 131.084 80.2422 127.134 80.2422C123.183 80.2422 119.98 83.4448 119.98 87.3955C119.98 91.3462 123.183 94.5488 127.134 94.5488Z" fill="#3F3D56"/>
        <path d="M128.677 36.3555H125.584V42.1555H128.677V36.3555Z" fill="#3F3D56"/>
        <path d="M128.677 132.635H125.584V138.435H128.677V132.635Z" fill="#3F3D56"/>
        <path d="M81.8926 88.9419V85.8486H76.0926V88.9419H81.8926Z" fill="#3F3D56"/>
        <path d="M178.172 88.9419V85.8486H172.372V88.9419H178.172Z" fill="#3F3D56"/>
        <path d="M125.07 90.5007L127.714 84.4561L160.838 102.802L125.07 90.5007Z" fill="#3F3D56"/>
        <path d="M134.867 14.7021H119.787V32.1021H134.867V14.7021Z" fill="#3F3D56"/>
        <path d="M127.328 19.5358C136.937 19.5358 144.728 17.3718 144.728 14.7025C144.728 12.0331 136.937 9.86914 127.328 9.86914C117.718 9.86914 109.928 12.0331 109.928 14.7025C109.928 17.3718 117.718 19.5358 127.328 19.5358Z" fill="#3F3D56"/>
        <path d="M159.903 97.5457L158.937 98.899C158.937 98.899 154.49 104.119 154.297 101.606C154.103 99.0924 157.583 97.3524 157.583 97.3524L159.517 96.1924L159.903 97.5457Z" fill="#FFB8B8"/>
        <path d="M187.424 102.112L188.233 103.564C188.233 103.564 191.048 109.817 188.694 108.916C186.339 108.015 186.256 104.126 186.256 104.126L186.035 101.882L187.424 102.112Z" fill="#FFB8B8"/>
        <path d="M183.071 76.349C186.322 76.349 188.957 73.7133 188.957 70.4621C188.957 67.2108 186.322 64.5752 183.071 64.5752C179.819 64.5752 177.184 67.2108 177.184 70.4621C177.184 73.7133 179.819 76.349 183.071 76.349Z" fill="#2F2E41"/>
        <path d="M182.521 118.811L183.295 123.838V125.385H187.741V123.451C187.741 123.451 187.935 119.971 187.161 119.005C186.388 118.038 182.521 118.811 182.521 118.811Z" fill="#FFB8B8"/>
        <path d="M174.596 118.811L175.369 123.838V125.385H179.816V123.451C179.816 123.451 180.009 119.971 179.236 119.005C178.462 118.038 174.596 118.811 174.596 118.811Z" fill="#FFB8B8"/>
        <path d="M177.589 78.4346C177.589 78.4346 175.879 79.336 177.047 81.3865C178.215 83.4371 185.069 104.651 185.069 104.651L189.023 103.529L185.536 90.1122L183.539 81.6799L177.589 78.4346Z" fill="#0075FF"/>
        <path d="M182.425 76.5681C184.881 76.5681 186.872 74.5773 186.872 72.1215C186.872 69.6656 184.881 67.6748 182.425 67.6748C179.969 67.6748 177.979 69.6656 177.979 72.1215C177.979 74.5773 179.969 76.5681 182.425 76.5681Z" fill="#FFB8B8"/>
        <path d="M184.458 72.7988L183.878 81.8855L179.818 78.9855C179.818 78.9855 181.172 73.5722 180.785 73.1855L184.458 72.7988Z" fill="#FFB8B8"/>
        <path d="M184.457 81.1121L180.084 77.8732C180.084 77.8732 178.077 77.0521 177.497 78.0187C176.917 78.9854 174.017 93.292 175.564 95.9987C175.564 95.9987 183.877 97.7387 185.617 96.772L186.391 91.7454C186.391 91.7454 187.357 88.6521 185.811 86.7187L184.457 81.1121Z" fill="#0075FF"/>
        <path d="M178.655 78.2123C178.655 78.2123 177.109 77.0523 175.755 78.9856C174.402 80.919 158.162 96.1923 158.162 96.1923L160.869 99.2856L171.502 90.3923L178.269 84.979L178.655 78.2123Z" fill="#0075FF"/>
        <path d="M185.713 96.6752C185.713 96.6752 176.143 94.8385 175.176 96.1918L174.983 98.3185C174.983 98.3185 172.856 102.378 174.016 108.952C175.176 115.525 174.403 119.585 174.403 119.585C174.403 119.585 179.623 119.005 183.489 119.585C187.356 120.165 187.936 119.585 187.936 119.585L185.713 96.6752Z" fill="#2F2E41"/>
        <path d="M188.128 124.611L182.521 124.805L184.455 139.305C184.455 139.305 182.908 145.491 184.648 145.878C185.858 146.122 187.088 146.252 188.321 146.265C188.321 146.265 190.061 148.005 191.995 147.811C193.279 147.647 194.523 147.254 195.668 146.651C195.668 146.651 196.055 145.491 194.701 145.105C193.348 144.718 189.675 143.558 188.901 139.498L188.128 124.611Z" fill="#2F2E41"/>
        <path d="M180.202 124.611L174.596 124.805L176.529 139.305C176.529 139.305 174.982 145.491 176.722 145.878C177.932 146.122 179.162 146.252 180.396 146.265C180.396 146.265 182.136 148.005 184.069 147.811C185.353 147.647 186.597 147.254 187.742 146.651C187.742 146.651 188.129 145.491 186.776 145.105C185.422 144.718 181.749 143.558 180.976 139.498L180.202 124.611Z" fill="#2F2E41"/>
        <path d="M185.131 66.702C186.477 66.702 187.567 65.6114 187.567 64.266C187.567 62.9207 186.477 61.8301 185.131 61.8301C183.786 61.8301 182.695 62.9207 182.695 64.266C182.695 65.6114 183.786 66.702 185.131 66.702Z" fill="#2F2E41"/>
        <path d="M188.378 62.9477C188.378 62.3456 188.154 61.7648 187.752 61.3174C187.349 60.87 186.794 60.5877 186.195 60.5249C186.28 60.5161 186.364 60.5117 186.449 60.5117C187.095 60.5117 187.715 60.7684 188.172 61.2252C188.628 61.682 188.885 62.3016 188.885 62.9477C188.885 63.5937 188.628 64.2133 188.172 64.6701C187.715 65.127 187.095 65.3836 186.449 65.3836C186.364 65.3836 186.28 65.3792 186.195 65.3704C186.794 65.3077 187.349 65.0254 187.751 64.578C188.154 64.1306 188.377 63.5498 188.378 62.9477Z" fill="#2F2E41"/>
        <path d="M182.384 71.6502C184.626 71.6502 186.444 70.5596 186.444 69.2143C186.444 67.8689 184.626 66.7783 182.384 66.7783C180.142 66.7783 178.324 67.8689 178.324 69.2143C178.324 70.5596 180.142 71.6502 182.384 71.6502Z" fill="#2F2E41"/>
        <path d="M246.333 11.6911C246.167 8.75907 244.965 5.98119 242.942 3.85277C240.918 1.72435 238.205 0.383751 235.285 0.0699789C232.365 -0.243793 229.429 0.489665 226.999 2.13958C224.57 3.78949 222.805 6.24862 222.02 9.07851C221.87 9.07312 221.72 9.06709 221.568 9.06709C218.891 9.06758 216.286 9.93489 214.143 11.5393C212 13.1436 210.434 15.3988 209.679 17.9675C207.905 17.188 205.922 17.0189 204.042 17.4866C202.161 17.9543 200.489 19.0325 199.287 20.5523H237.941C239.069 20.5555 240.186 20.3311 241.225 19.8925C242.264 19.454 243.203 18.8103 243.988 18.0001C244.772 17.1898 245.385 16.2296 245.789 15.177C246.194 14.1243 246.382 13.0009 246.342 11.8739C246.339 11.8131 246.336 11.7521 246.333 11.6911Z" fill="#E6E6E6"/>
        <path d="M214.02 37.771C215.858 37.771 217.348 36.2809 217.348 34.4426C217.348 32.6044 215.858 31.1143 214.02 31.1143C212.182 31.1143 210.691 32.6044 210.691 34.4426C210.691 36.2809 212.182 37.771 214.02 37.771Z" fill="#E6E6E6"/>
        <path d="M224.068 29.366C225.599 29.366 226.84 28.1252 226.84 26.5946C226.84 25.064 225.599 23.8232 224.068 23.8232C222.538 23.8232 221.297 25.064 221.297 26.5946C221.297 28.1252 222.538 29.366 224.068 29.366Z" fill="#E6E6E6"/>
        <path d="M237.596 44.982C239.434 44.982 240.924 43.4918 240.924 41.6536C240.924 39.8154 239.434 38.3252 237.596 38.3252C235.758 38.3252 234.268 39.8154 234.268 41.6536C234.268 43.4918 235.758 44.982 237.596 44.982Z" fill="#E6E6E6"/>
        <path d="M212.356 60.2378C214.194 60.2378 215.684 58.7477 215.684 56.9094C215.684 55.0712 214.194 53.5811 212.356 53.5811C210.518 53.5811 209.027 55.0712 209.027 56.9094C209.027 58.7477 210.518 60.2378 212.356 60.2378Z" fill="#E6E6E6"/>
        <path d="M237.596 79.3755C239.434 79.3755 240.924 77.8854 240.924 76.0471C240.924 74.2089 239.434 72.7188 237.596 72.7188C235.758 72.7188 234.268 74.2089 234.268 76.0471C234.268 77.8854 235.758 79.3755 237.596 79.3755Z" fill="#E6E6E6"/>
        <path d="M232.319 140.226C232.32 140.19 232.325 140.155 232.325 140.119C232.326 139.561 232.186 139.012 231.919 138.522C231.652 138.033 231.266 137.618 230.797 137.317C230.327 137.016 229.79 136.837 229.233 136.798C228.677 136.759 228.12 136.861 227.613 137.094C227.138 136.545 226.495 136.167 225.784 136.019C225.074 135.87 224.334 135.958 223.678 136.27C223.022 136.582 222.487 137.101 222.154 137.746C221.821 138.392 221.709 139.129 221.835 139.844C221.818 139.844 221.802 139.841 221.785 139.841C221.255 139.84 220.733 139.966 220.261 140.208C219.79 140.45 219.383 140.8 219.074 141.231C218.765 141.662 218.564 142.16 218.487 142.684C218.409 143.208 218.458 143.744 218.63 144.245C218.801 144.746 219.089 145.2 219.471 145.567C219.853 145.935 220.317 146.206 220.824 146.358C221.332 146.51 221.868 146.539 222.389 146.442C222.91 146.345 223.4 146.125 223.819 145.8C224.083 146.315 224.477 146.752 224.962 147.068C225.446 147.383 226.005 147.568 226.583 147.602C227.16 147.636 227.737 147.519 228.255 147.262C228.773 147.005 229.216 146.618 229.539 146.138C229.935 146.426 230.39 146.623 230.871 146.715C231.352 146.807 231.847 146.791 232.322 146.67C232.796 146.548 233.238 146.323 233.615 146.011C233.993 145.699 234.296 145.307 234.505 144.864C234.713 144.421 234.821 143.937 234.821 143.447C234.821 142.957 234.713 142.474 234.504 142.031C234.295 141.588 233.991 141.196 233.613 140.884C233.236 140.572 232.794 140.348 232.319 140.226Z" fill="#E6E6E6"/>
        <path d="M240.649 64.1203C241.414 64.1203 242.035 63.4994 242.035 62.7335C242.035 61.9676 241.414 61.3467 240.649 61.3467C239.883 61.3467 239.262 61.9676 239.262 62.7335C239.262 63.4994 239.883 64.1203 240.649 64.1203Z" fill="#E6E6E6"/>
        <path d="M231.772 30.8361C232.538 30.8361 233.158 30.2152 233.158 29.4493C233.158 28.6834 232.538 28.0625 231.772 28.0625C231.006 28.0625 230.385 28.6834 230.385 29.4493C230.385 30.2152 231.006 30.8361 231.772 30.8361Z" fill="#E6E6E6"/>
        <path d="M227.057 65.2297C227.823 65.2297 228.444 64.6088 228.444 63.8429C228.444 63.077 227.823 62.4561 227.057 62.4561C226.291 62.4561 225.67 63.077 225.67 63.8429C225.67 64.6088 226.291 65.2297 227.057 65.2297Z" fill="#E6E6E6"/>
        <path d="M228.166 63.843C228.932 63.843 229.553 63.2221 229.553 62.4562C229.553 61.6902 228.932 61.0693 228.166 61.0693C227.4 61.0693 226.779 61.6902 226.779 62.4562C226.779 63.2221 227.4 63.843 228.166 63.843Z" fill="#E6E6E6"/>
        <path d="M228.998 62.4563C229.764 62.4563 230.385 61.8354 230.385 61.0694C230.385 60.3035 229.764 59.6826 228.998 59.6826C228.232 59.6826 227.611 60.3035 227.611 61.0694C227.611 61.8354 228.232 62.4563 228.998 62.4563Z" fill="#E6E6E6"/>
        <path d="M225.67 74.1057C226.436 74.1057 227.057 73.4848 227.057 72.7189C227.057 71.9529 226.436 71.332 225.67 71.332C224.904 71.332 224.283 71.9529 224.283 72.7189C224.283 73.4848 224.904 74.1057 225.67 74.1057Z" fill="#E6E6E6"/>
        <path d="M246.195 89.6379C246.961 89.6379 247.582 89.017 247.582 88.2511C247.582 87.4852 246.961 86.8643 246.195 86.8643C245.429 86.8643 244.809 87.4852 244.809 88.2511C244.809 89.017 245.429 89.6379 246.195 89.6379Z" fill="#E6E6E6"/>
        <path d="M216.516 90.4699C217.282 90.4699 217.903 89.849 217.903 89.0831C217.903 88.3172 217.282 87.6963 216.516 87.6963C215.75 87.6963 215.129 88.3172 215.129 89.0831C215.129 89.849 215.75 90.4699 216.516 90.4699Z" fill="#E6E6E6"/>
        <path d="M218.18 47.7561C218.946 47.7561 219.567 47.1352 219.567 46.3693C219.567 45.6033 218.946 44.9824 218.18 44.9824C217.414 44.9824 216.793 45.6033 216.793 46.3693C216.793 47.1352 217.414 47.7561 218.18 47.7561Z" fill="#E6E6E6"/>
        <path d="M224.559 72.719C225.325 72.719 225.946 72.0981 225.946 71.3322C225.946 70.5662 225.325 69.9453 224.559 69.9453C223.793 69.9453 223.172 70.5662 223.172 71.3322C223.172 72.0981 223.793 72.719 224.559 72.719Z" fill="#E6E6E6"/>
        <path d="M223.174 70.5002C223.94 70.5002 224.561 69.8793 224.561 69.1134C224.561 68.3475 223.94 67.7266 223.174 67.7266C222.408 67.7266 221.787 68.3475 221.787 69.1134C221.787 69.8793 222.408 70.5002 223.174 70.5002Z" fill="#E6E6E6"/>
    </g>
    <defs>
        <clipPath id="clip0">
            <rect width="247.581" height="150" fill="white"/>
        </clipPath>
    </defs>
</svg>