<svg width="242" height="200" viewBox="0 0 242 200" fill="none" xmlns="http://www.w3.org/2000/svg">
    <path d="M172.186 45.2783H170.473C170.135 45.2783 169.861 45.5521 169.861 45.8898V68.8616C169.861 69.1993 170.135 69.4731 170.473 69.4731H172.186C172.523 69.4731 172.797 69.1993 172.797 68.8616V45.8898C172.797 45.5521 172.523 45.2783 172.186 45.2783Z" fill="#3F3D56"/>
    <path d="M161.034 0H83.6462C77.8959 0 73.2344 4.66154 73.2344 10.4118V189.188C73.2344 194.938 77.8959 199.599 83.6462 199.599H161.034C166.784 199.599 171.445 194.938 171.445 189.188V10.4118C171.445 4.66154 166.784 0 161.034 0Z" fill="#3F3D56"/>
    <path d="M157.776 5.19922H146.511V6.55444C146.511 7.39801 146.344 8.23332 146.021 9.01264C145.699 9.79195 145.225 10.5 144.629 11.0963C144.032 11.6927 143.324 12.1656 142.544 12.4881C141.765 12.8106 140.929 12.9764 140.086 12.9759H104.257C103.414 12.9764 102.578 12.8106 101.799 12.4881C101.019 12.1656 100.311 11.6927 99.7144 11.0963C99.1177 10.5 98.6444 9.79195 98.3215 9.01264C97.9986 8.23332 97.8323 7.39801 97.8323 6.55444V5.19922H87.2843C85.2156 5.19922 83.2317 6.02099 81.7689 7.48377C80.3062 8.94654 79.4844 10.9305 79.4844 12.9992V186.614C79.4844 188.683 80.3062 190.667 81.7689 192.13C83.2317 193.593 85.2156 194.414 87.2843 194.414H157.776C159.845 194.414 161.829 193.593 163.292 192.13C164.755 190.667 165.576 188.683 165.576 186.614V13.0125C165.578 11.9871 165.378 10.9714 164.986 10.0235C164.595 9.07562 164.021 8.21419 163.297 7.48848C162.572 6.76278 161.712 6.18705 160.764 5.79423C159.817 5.40141 158.802 5.19922 157.776 5.19922Z" fill="white"/>
    <path d="M125.548 5.96094H113.901C113.33 5.96094 112.867 6.42362 112.867 6.99438V7.71084C112.867 8.2816 113.33 8.74428 113.901 8.74428H125.548C126.119 8.74428 126.581 8.2816 126.581 7.71084V6.99438C126.581 6.42362 126.119 5.96094 125.548 5.96094Z" fill="#E6E8EC"/>
    <path d="M130.237 8.93367C131.11 8.93367 131.817 8.22601 131.817 7.35306C131.817 6.48012 131.11 5.77246 130.237 5.77246C129.364 5.77246 128.656 6.48012 128.656 7.35306C128.656 8.22601 129.364 8.93367 130.237 8.93367Z" fill="#E6E8EC"/>
    <path d="M122.94 120.829C133.201 120.829 141.519 112.511 141.519 102.251C141.519 91.9898 133.201 83.6719 122.94 83.6719C112.679 83.6719 104.361 91.9898 104.361 102.251C104.361 112.511 112.679 120.829 122.94 120.829Z" fill="white"/>
    <path d="M147.375 99.6562C147.375 104.567 145.918 109.368 143.19 113.451C140.461 117.535 136.583 120.717 132.046 122.597C127.508 124.476 122.516 124.967 117.699 124.009C112.882 123.051 108.458 120.686 104.985 117.213C101.513 113.74 99.1478 109.316 98.1899 104.499C97.2319 99.6821 97.7238 94.6894 99.6034 90.1521C101.483 85.6149 104.666 81.7369 108.749 79.0086C112.833 76.2802 117.634 74.8241 122.545 74.8242C125.806 74.8243 129.035 75.4667 132.047 76.7147C135.06 77.9627 137.797 79.7918 140.103 82.0977C142.409 84.4035 144.238 87.1409 145.485 90.1536C146.733 93.1663 147.375 96.3953 147.375 99.6562ZM119.674 112.8L138.094 94.3803C138.243 94.2316 138.361 94.055 138.442 93.8605C138.523 93.6661 138.564 93.4576 138.564 93.2471C138.564 93.0366 138.523 92.8281 138.442 92.6336C138.361 92.4392 138.243 92.2626 138.094 92.1139L135.828 89.8641C135.679 89.7151 135.503 89.5969 135.309 89.5163C135.114 89.4356 134.906 89.3941 134.696 89.3941C134.486 89.3941 134.278 89.4356 134.083 89.5163C133.889 89.5969 133.713 89.7151 133.564 89.8641L118.541 104.887L111.527 97.8563C111.226 97.5569 110.818 97.3888 110.394 97.3888C109.969 97.3888 109.562 97.5569 109.26 97.8563L106.994 100.136C106.695 100.437 106.527 100.845 106.527 101.269C106.527 101.694 106.695 102.101 106.994 102.402L117.409 112.813C117.557 112.962 117.734 113.08 117.928 113.161C118.123 113.242 118.331 113.283 118.542 113.283C118.752 113.283 118.961 113.242 119.155 113.161C119.35 113.08 119.526 112.962 119.675 112.813L119.674 112.8Z" fill="#0075FF"/>
    <path d="M76.3101 39.3496H76.0529C75.7152 39.3496 75.4414 39.6234 75.4414 39.9611V45.8982C75.4414 46.2359 75.7152 46.5097 76.0529 46.5097H76.3101C76.6478 46.5097 76.9216 46.2359 76.9216 45.8982V39.9611C76.9216 39.6234 76.6478 39.3496 76.3101 39.3496Z" fill="#3F3D56"/>
    <path d="M76.4451 52.4609H76.0002C75.6625 52.4609 75.3887 52.7347 75.3887 53.0725V64.311C75.3887 64.6488 75.6625 64.9226 76.0002 64.9226H76.4451C76.7828 64.9226 77.0566 64.6488 77.0566 64.311V53.0725C77.0566 52.7347 76.7828 52.4609 76.4451 52.4609Z" fill="#3F3D56"/>
    <path d="M76.3901 69.2822H76.0256C75.6878 69.2822 75.4141 69.556 75.4141 69.8937V81.2394C75.4141 81.5772 75.6878 81.851 76.0256 81.851H76.3901C76.7278 81.851 77.0016 81.5772 77.0016 81.2394V69.8937C77.0016 69.556 76.7278 69.2822 76.3901 69.2822Z" fill="#3F3D56"/>
    <path d="M55.7422 102.519C55.7846 102.56 55.8391 102.586 55.8976 102.593C55.9561 102.601 56.0155 102.589 56.0669 102.56C55.9572 102.562 55.8479 102.548 55.7422 102.519Z" fill="url(#paint0_linear)"/>
    <path d="M68.0155 107.319L67.6951 109.065L67.4478 110.4L66.9981 112.842L62.6376 115.895C62.6376 115.895 62.2445 115.559 61.5962 115.028C59.8091 113.557 56.0532 110.561 53.2953 108.952C52.5858 108.5 51.8183 108.146 51.0137 107.901L68.0155 107.319Z" fill="#FEB9B9"/>
    <path d="M64.8173 108.618C64.8173 108.618 69.9015 109.491 70.1992 107.319C70.4969 105.148 67.5822 103.975 65.1121 103.829C62.642 103.683 47.8166 104.701 47.8166 104.701C47.8166 104.701 45.2015 108.189 54.6461 108.773L64.8173 108.618Z" fill="#3F3D56"/>
    <path d="M75.9349 36.9697H49.3379V68.5081H75.9349V36.9697Z" fill="#2F2E41"/>
    <path opacity="0.1" d="M75.9349 37.1133H49.3379V68.6516H75.9349V37.1133Z" fill="black"/>
    <path d="M18.1669 90.9591C17.729 91.0694 17.1693 91.4932 16.5468 92.1058C13.8663 94.7596 10.0271 100.988 10.0271 100.988C5.11863 95.1407 10.5502 90.5212 12.8654 88.9337C13.4283 88.5494 13.8065 88.3379 13.8065 88.3379L18.1669 90.9591Z" fill="#FEB9B9"/>
    <path d="M67.7237 46.9238C67.7237 46.9238 69.0322 56.0795 73.5374 58.2596C78.0426 60.4397 67.7237 64.5142 67.7237 64.5142L53.627 59.2781C53.627 59.2781 61.621 56.6611 60.0215 48.9579L67.7237 46.9238Z" fill="#FEB9B9"/>
    <path d="M52.6097 102.006L52.2909 103.745L52.0319 105.086L51.5822 107.528L47.2217 110.578C47.2217 110.578 46.8286 110.244 46.1802 109.714C44.3932 108.243 40.6376 105.247 37.8753 103.638C37.1663 103.186 36.3986 102.832 35.5938 102.587L52.6097 102.006Z" fill="#FEB9B9"/>
    <path d="M48.8372 104.151C48.8372 104.151 53.4001 104.184 53.6746 102.006C53.9491 99.8288 51.188 98.6615 48.8372 98.5155C46.4865 98.3694 32.2036 99.456 32.2036 99.456C32.2036 99.456 30.1773 103.568 39.1613 104.151L48.8372 104.151Z" fill="#2F2E41"/>
    <path d="M80.829 138.357C80.6296 138.259 80.4298 138.158 80.2333 138.059L79.697 137.383L72.6651 128.466V128.621C72.6176 130.11 72.1113 141.91 68.1618 143.001C63.9474 144.162 58.8632 144.454 56.5456 136.606C54.228 128.758 49.9933 111.608 45.6445 110.59L52.1135 105.285C52.1135 105.285 56.3966 110.295 58.1417 115.09C58.0763 114.792 55.1185 100.973 57.5459 98.5273H78.7688C78.7688 98.5273 82.0451 107.859 84.2907 112.481C86.039 116.07 88.6629 124.556 90.3524 130.298C92.0249 135.968 86.1484 140.975 80.829 138.357Z" fill="#3F3D56"/>
    <path opacity="0.1" d="M80.2254 101.134C76.9491 103.073 62.5664 102.283 57.8874 101.968L56.6126 101.875C56.4756 101.875 56.6334 101.798 56.6334 101.798L56.7645 100.478L60.2523 91.6146L78.9268 80.7852C78.5484 81.9259 78.4235 83.6713 78.4534 85.6698C78.5396 92.0913 80.2254 101.134 80.2254 101.134Z" fill="black"/>
    <path d="M80.2248 100.696C76.9485 102.635 62.5658 101.846 57.8867 101.53L56.6119 101.44L56.4004 101.423L56.6327 101.363L57.7823 101.065L60.2514 91.183L78.9259 80.3564C78.5478 81.4972 78.4225 83.2426 78.4524 85.2411C78.539 91.6565 80.2248 100.696 80.2248 100.696Z" fill="#EFEFEF"/>
    <path opacity="0.1" d="M78.4404 85.235C74.6429 86.1106 66.2856 88.6798 63.0748 94.885C60.9334 99.0161 59.1314 100.788 57.8745 101.53L56.5996 101.44C56.608 101.415 56.6149 101.389 56.6204 101.363L57.77 101.065L60.2391 91.1827L78.9136 80.3564C78.5398 81.4911 78.4105 83.2365 78.4404 85.235Z" fill="black"/>
    <path opacity="0.1" d="M13.8063 88.3447L18.1668 90.9598C17.7288 91.0701 17.1691 91.4939 16.5466 92.1065C16.1832 91.0461 13.9029 89.5659 12.8652 88.9346C13.4279 88.5562 13.8063 88.3447 13.8063 88.3447Z" fill="black"/>
    <path opacity="0.1" d="M55.8231 101.61C55.7753 101.635 55.721 101.644 55.6676 101.637C55.6142 101.629 55.5645 101.605 55.5254 101.568C55.6221 101.597 55.7224 101.611 55.8231 101.61Z" fill="black"/>
    <path d="M65.6896 57.6789C65.6896 57.6789 61.7642 58.1137 59.0033 55.207C59.0033 55.207 47.3871 58.5516 43.4531 66.1078C39.5191 73.6639 12.7754 88.4904 12.7754 88.4904C12.7754 88.4904 17.4277 91.1055 16.9898 92.413L34.5772 82.2388C34.5772 82.2388 40.8318 77.7354 42.5684 76.7169C44.3049 75.6985 53.9071 69.4497 55.9414 86.4534C57.9757 103.457 55.9414 101.423 55.9414 101.423C55.9414 101.423 58.8484 102.442 63.0628 94.3014C67.2772 86.1613 80.3554 84.2731 80.3554 84.2731L81.082 75.7011C81.082 75.7011 83.6763 70.0183 81.6778 67.6595C81.0723 66.9611 80.6696 66.1103 80.5132 65.1993C80.1826 63.0221 80.5132 59.3944 85.1415 56.3803C92.2629 51.728 95.0239 47.9515 95.0239 47.9515C95.0239 47.9515 95.1696 45.1877 90.8094 43.88C86.4492 42.5723 68.7187 35.4512 68.7187 35.4512L68.1229 37.9232L82.1125 47.7966C82.1125 47.7966 75.1372 53.4555 69.6034 53.3185C69.6031 53.3185 70.6307 57.5329 65.6896 57.6789Z" fill="#0075FF"/>
    <path opacity="0.1" d="M68.3831 50.9087C68.0394 49.7437 67.7709 48.5578 67.5791 47.3584L59.8769 49.3932C60.2164 50.8636 60.1558 52.3981 59.7012 53.837C61.2759 54.2572 62.9396 54.2035 64.4839 53.6826C66.0283 53.1617 67.3846 52.1968 68.3831 50.9087Z" fill="black"/>
    <path d="M61.9842 53.6822C66.5587 53.6822 70.2672 49.9738 70.2672 45.3992C70.2672 40.8246 66.5587 37.1162 61.9842 37.1162C57.4096 37.1162 53.7012 40.8246 53.7012 45.3992C53.7012 49.9738 57.4096 53.6822 61.9842 53.6822Z" fill="#FEB9B9"/>
    <path opacity="0.1" d="M70.9941 112.105C70.9941 112.105 75.7893 121.553 74.3358 124.457L70.9941 112.105Z" fill="black"/>
    <path d="M66.3896 26.2685C68.6888 26.5308 70.8721 27.5164 73.1358 28.0555C73.7015 28.2314 74.3038 28.254 74.8811 28.121C75.7597 27.8499 76.4746 26.9297 77.386 26.9564C77.9467 26.9743 78.4432 27.3556 78.9049 27.7217C79.6452 28.2884 80.3421 28.9097 80.9897 29.5803C82.5502 31.275 83.5182 33.5565 84.9418 35.4002C86.3654 37.2438 88.3957 39.4058 90.418 38.5603C89.0422 43.9214 84.7512 47.2751 79.8758 47.6089C77.931 47.7424 75.9383 47.3379 74.056 47.9067C73.5872 48.0989 73.092 48.2193 72.5873 48.264C71.5031 48.264 70.6304 47.2693 69.9543 46.3012C68.3697 44.0258 67.1159 41.4435 65.3318 39.3676C64.7361 38.6797 64.0482 38.0273 63.2142 37.9023C62.3803 37.7774 61.6149 38.1763 60.8734 38.5606C59.6493 39.1951 58.3984 39.8501 57.4483 40.9434C56.4982 42.0366 55.8995 43.6506 56.2926 45.1132C56.5041 45.9055 56.9869 46.6203 56.9954 47.4482C57.0133 48.7705 55.8458 49.7356 55.6164 51.0222C55.5646 51.5627 55.5457 52.1057 55.5598 52.6485C55.4586 54.4109 54.3047 55.853 53.1031 56.9641C52.6325 57.393 52.115 57.8576 51.9772 58.5217C51.8848 58.9773 51.9772 59.4564 51.9177 59.9186C51.742 61.0623 50.6012 61.6432 49.5915 61.7922C48.4118 61.9668 47.2069 61.824 46.1008 61.3783C47.5126 60.7107 48.3824 58.8109 48.0547 57.1102C47.605 54.7512 45.2342 53.0565 45.4377 50.6561C45.5492 49.9196 45.77 49.2039 46.093 48.5326C46.6097 47.2354 46.9851 45.8864 47.213 44.5089C47.3916 43.4455 47.4782 42.3167 47.1444 41.3012C46.8466 40.3778 46.2241 39.6424 45.6967 38.8618C44.9821 37.7999 44.4178 36.6443 44.02 35.4277C43.8758 35.0668 43.8209 34.6765 43.8598 34.2898C43.9792 33.8332 44.2336 33.4232 44.5896 33.1133C45.8853 31.7514 47.2701 30.3374 49.0067 29.9472C49.8352 29.8097 50.6779 29.7776 51.5144 29.8519C52.9694 29.8976 54.4258 29.8358 55.8717 29.6671C57.063 29.5272 59.0762 29.5451 60.0861 28.7736C61.0272 28.0526 61.5575 27.1473 62.7159 26.6888C63.8891 26.254 65.1502 26.1099 66.3912 26.2688L66.3896 26.2685Z" fill="#2F2E41"/>
    <path d="M220.297 199.104C226.933 199.104 232.312 198.194 232.312 197.072C232.312 195.95 226.933 195.04 220.297 195.04C213.661 195.04 208.281 195.95 208.281 197.072C208.281 198.194 213.661 199.104 220.297 199.104Z" fill="#0075FF"/>
    <path d="M225.267 193.749C225.814 193.301 226.213 192.698 226.411 192.019C226.56 191.335 226.268 190.523 225.61 190.259C224.875 189.978 224.088 190.489 223.494 191.003C222.901 191.517 222.216 192.105 221.435 191.995C221.837 191.632 222.138 191.171 222.308 190.657C222.479 190.144 222.513 189.594 222.408 189.064C222.373 188.843 222.279 188.637 222.136 188.466C221.729 188.03 220.988 188.215 220.501 188.561C218.947 189.652 218.514 191.766 218.505 193.662C218.347 192.978 218.481 192.263 218.475 191.57C218.469 190.877 218.281 190.075 217.687 189.709C217.32 189.512 216.907 189.415 216.491 189.428C215.792 189.401 215.015 189.473 214.537 189.983C213.939 190.617 214.101 191.681 214.615 192.374C215.129 193.067 215.915 193.512 216.638 193.994C217.216 194.339 217.709 194.81 218.08 195.371C218.124 195.45 218.16 195.533 218.187 195.619H222.552C223.537 195.121 224.45 194.492 225.266 193.75L225.267 193.749Z" fill="#0075FF"/>
    <path d="M56.9353 200C61.3146 200 64.8647 199.4 64.8647 198.659C64.8647 197.919 61.3146 197.318 56.9353 197.318C52.556 197.318 49.0059 197.919 49.0059 198.659C49.0059 199.4 52.556 200 56.9353 200Z" fill="#EFEFEF"/>
    <path d="M60.215 196.466C60.5764 196.171 60.8397 195.773 60.9702 195.324C61.0277 195.099 61.0067 194.862 60.9106 194.65C60.8145 194.439 60.649 194.267 60.4418 194.163C59.9566 193.977 59.438 194.315 59.0457 194.654C58.6534 194.993 58.2016 195.381 57.687 195.309C57.9519 195.069 58.1501 194.765 58.2624 194.426C58.3748 194.087 58.3973 193.724 58.3279 193.374C58.3048 193.229 58.2428 193.093 58.1484 192.98C57.8814 192.692 57.3911 192.814 57.0699 193.043C56.0444 193.764 55.7584 195.157 55.7526 196.409C55.6482 195.957 55.7368 195.486 55.7328 195.029C55.7288 194.571 55.6046 194.043 55.2121 193.8C54.97 193.67 54.6979 193.606 54.4232 193.615C53.9618 193.597 53.4491 193.645 53.1335 193.982C52.739 194.4 52.8456 195.102 53.1847 195.56C53.5239 196.017 54.0424 196.311 54.5199 196.628C54.9016 196.855 55.2271 197.165 55.4724 197.536C55.502 197.588 55.5258 197.642 55.5435 197.699H58.4245C59.0742 197.37 59.6764 196.955 60.215 196.465V196.466Z" fill="#EFEFEF"/>
    <path d="M12.0916 200C16.4709 200 20.021 199.4 20.021 198.659C20.021 197.919 16.4709 197.318 12.0916 197.318C7.71224 197.318 4.16211 197.919 4.16211 198.659C4.16211 199.4 7.71224 200 12.0916 200Z" fill="#EFEFEF"/>
    <path d="M15.3713 196.466C15.7327 196.171 15.996 195.773 16.1265 195.324C16.184 195.099 16.1629 194.862 16.0668 194.65C15.9707 194.439 15.8053 194.267 15.598 194.163C15.1128 193.977 14.5942 194.315 14.2019 194.654C13.8097 194.993 13.3578 195.381 12.8433 195.309C13.1081 195.069 13.3064 194.765 13.4187 194.426C13.531 194.087 13.5536 193.724 13.4841 193.374C13.461 193.229 13.399 193.093 13.3047 192.98C13.0376 192.692 12.5474 192.814 12.2261 193.043C11.2007 193.764 10.9147 195.157 10.9088 196.409C10.8044 195.957 10.8931 195.486 10.889 195.029C10.885 194.571 10.7609 194.043 10.3683 193.8C10.1262 193.67 9.85414 193.606 9.57949 193.615C9.11805 193.597 8.60534 193.645 8.2897 193.982C7.89529 194.4 8.00182 195.102 8.34096 195.56C8.6801 196.017 9.19869 196.311 9.67616 196.628C10.0578 196.855 10.3834 197.165 10.6287 197.536C10.6582 197.588 10.6821 197.642 10.6997 197.699H13.5808C14.2304 197.37 14.8327 196.955 15.3713 196.465V196.466Z" fill="#EFEFEF"/>
    <path d="M241.02 199.234H0V199.721H241.02V199.234Z" fill="#2F2E41"/>
    <path d="M229.255 13.4918C229.255 13.4918 204.095 11.9736 207.059 29.6041C207.059 29.6041 206.462 32.7207 209.294 34.1341C209.294 34.1341 209.339 32.8283 211.876 33.2734C212.779 33.4231 213.697 33.4672 214.61 33.4048C215.842 33.3238 217.015 32.8445 217.951 32.0392C217.951 32.0392 225.024 29.1167 227.773 17.5585C227.773 17.5585 229.808 15.0366 229.727 14.3879L225.481 16.2017C225.481 16.2017 226.934 19.2646 225.78 21.8095C225.78 21.8095 225.643 16.3111 224.827 16.4308C224.663 16.4548 222.622 17.4915 222.622 17.4915C222.622 17.4915 225.117 22.8253 223.234 26.7043C223.234 26.7043 223.948 20.1303 221.842 17.8771L218.853 19.6222C218.853 19.6222 221.77 25.1325 219.792 29.6297C219.792 29.6297 220.299 22.7329 218.223 20.0465L215.516 22.159C215.516 22.159 218.256 27.5885 216.586 31.3185C216.586 31.3185 216.367 23.2921 214.93 22.6856C214.93 22.6856 212.56 24.7773 212.199 25.6319C212.199 25.6319 214.075 29.5763 212.91 31.656C212.91 31.656 212.196 26.3072 211.61 26.2773C211.61 26.2773 209.249 29.8212 209.004 32.2536C209.004 32.2536 209.106 28.6409 211.039 25.9427C211.039 25.9427 208.756 26.3342 207.423 27.812C207.423 27.812 207.791 25.308 211.622 25.0868C211.622 25.0868 213.573 22.3975 214.093 22.2362C214.093 22.2362 210.286 21.9158 207.976 22.9415C207.976 22.9415 210.008 20.5779 214.792 21.6535L217.466 19.4691C217.466 19.4691 212.452 18.7847 210.325 19.541C210.325 19.541 212.772 17.4493 218.187 18.9733L221.097 17.234C221.097 17.234 216.821 16.3135 214.275 16.6364C214.275 16.6364 216.965 15.1872 221.952 16.759L224.044 15.8243C224.044 15.8243 220.912 15.2088 219.995 15.1103C219.077 15.0117 219.029 14.7607 219.029 14.7607C221.013 14.4299 223.05 14.6565 224.913 15.4152C224.913 15.4152 229.33 13.7697 229.255 13.4918Z" fill="#0075FF"/>
    <path d="M194.781 4.15827C194.781 4.15827 183.426 3.47385 184.752 11.4404C184.752 11.4404 184.485 12.848 185.762 13.4873C185.762 13.4873 185.783 12.8896 186.931 13.0958C187.338 13.1644 187.752 13.1845 188.165 13.1556C188.722 13.1187 189.252 12.9004 189.674 12.5339C189.674 12.5339 192.871 11.2132 194.114 5.98989C194.114 5.98989 195.031 4.8515 194.995 4.55856L193.077 5.3773C193.077 5.3773 193.731 6.76083 193.217 7.91123C193.217 7.91123 193.154 5.42777 192.787 5.48492C192.712 5.48492 191.789 5.96559 191.789 5.96559C191.789 5.96559 192.918 8.37695 192.067 10.1282C192.067 10.1282 192.389 7.15792 191.436 6.1389L190.086 6.94001C190.086 6.94001 191.403 9.42908 190.51 11.4612C190.51 11.4612 190.74 8.34464 189.802 7.13148L188.58 8.08774C188.58 8.08774 189.817 10.541 189.064 12.2268C189.064 12.2268 188.962 8.59912 188.314 8.32434C188.314 8.32434 187.244 9.26859 187.079 9.65713C187.079 9.65713 187.928 11.45 187.402 12.3793C187.402 12.3793 187.079 9.96182 186.805 9.94927C186.805 9.94927 185.738 11.5515 185.627 12.6386C185.681 11.6245 185.998 10.6419 186.548 9.78798C185.932 9.90459 185.364 10.1985 184.913 10.6337C184.913 10.6337 185.081 9.50118 186.811 9.40265C186.811 9.40265 187.707 8.18655 187.928 8.11178C187.928 8.11178 186.207 7.96838 185.164 8.43223C185.164 8.43223 186.081 7.3654 188.242 7.84955L189.437 6.86337C189.437 6.86337 187.17 6.56162 186.209 6.89435C186.209 6.89435 187.314 5.9501 189.762 6.63746L191.077 5.85156C191.077 5.85156 189.143 5.43632 187.993 5.58452C187.993 5.58452 189.209 4.93001 191.462 5.63793L192.404 5.21654C192.404 5.21654 190.988 4.93856 190.572 4.89369C190.155 4.84883 190.135 4.73534 190.135 4.73534C191.032 4.58611 191.953 4.68958 192.795 5.03416C192.795 5.03416 194.816 4.28271 194.781 4.15827Z" fill="#3F3D56"/>
    <path d="M19.6733 125.777C19.6733 125.777 8.31827 125.093 9.64492 133.06C9.64492 133.06 9.37788 134.467 10.6549 135.106C10.6549 135.106 10.6757 134.509 11.8232 134.715C12.2307 134.784 12.6449 134.804 13.0571 134.775C13.6145 134.738 14.1445 134.519 14.5662 134.153C14.5662 134.153 17.7634 132.832 19.0065 127.609C19.0065 127.609 19.9238 126.471 19.8877 126.178L17.9693 126.996C17.9693 126.996 18.6238 128.38 18.1098 129.53C18.1098 129.53 18.047 127.047 17.6796 127.104C17.6048 127.104 16.6814 127.585 16.6814 127.585C16.6814 127.585 17.811 129.996 16.9594 131.747C16.9594 131.747 17.282 128.777 16.3289 127.758L14.9782 128.559C14.9782 128.559 16.296 131.048 15.4025 133.08C15.4025 133.08 15.6327 129.964 14.6944 128.751L13.4721 129.707C13.4721 129.707 14.7093 132.16 13.9563 133.846C13.9563 133.846 13.8548 130.218 13.2061 129.943C13.2061 129.943 12.1364 130.888 11.9719 131.276C11.9719 131.276 12.8205 133.069 12.2947 133.998C12.2947 133.998 11.9719 131.581 11.6971 131.568C11.6971 131.568 10.6303 133.171 10.5197 134.258C10.5732 133.244 10.8904 132.261 11.4402 131.407C10.8246 131.524 10.2565 131.818 9.80568 132.253C9.80568 132.253 9.97311 131.12 11.7033 131.022C11.7033 131.022 12.5997 129.806 12.8208 129.731C12.8208 129.731 11.0997 129.588 10.0567 130.051C10.0567 130.051 10.974 128.985 13.1346 129.469L14.3299 128.483C14.3299 128.483 12.0627 128.181 11.1013 128.513C11.1013 128.513 12.2069 127.569 14.6543 128.257L15.9692 127.471C15.9692 127.471 14.0358 127.055 12.8854 127.204C12.8854 127.204 14.1015 126.549 16.3548 127.257L17.2961 126.836C17.2961 126.836 15.8808 126.558 15.4642 126.513C15.0476 126.468 15.0279 126.354 15.0279 126.354C15.9249 126.205 16.8458 126.309 17.6873 126.653C17.6873 126.653 19.7083 125.902 19.6733 125.777Z" fill="#3F3D56"/>
    <defs>
        <linearGradient id="paint0_linear" x1="55.9062" y1="102.596" x2="55.9062" y2="102.519" gradientUnits="userSpaceOnUse">
            <stop stop-color="#808080" stop-opacity="0.251"/>
            <stop offset="0.54" stop-color="#808080" stop-opacity="0.122"/>
            <stop offset="1" stop-color="#808080" stop-opacity="0.102"/>
        </linearGradient>
    </defs>
</svg>