<svg width="121" height="100" viewBox="0 0 121 100" fill="none" xmlns="http://www.w3.org/2000/svg">
    <path d="M86.0938 22.6396H85.2374C85.0685 22.6396 84.9316 22.7765 84.9316 22.9454V34.4313C84.9316 34.6001 85.0685 34.737 85.2374 34.737H86.0938C86.2627 34.737 86.3996 34.6001 86.3996 34.4313V22.9454C86.3996 22.7765 86.2627 22.6396 86.0938 22.6396Z" fill="#3F3D56"/>
    <path d="M80.5167 0H41.8231C38.948 0 36.6172 2.33077 36.6172 5.20592V94.5938C36.6172 97.4689 38.948 99.7997 41.8231 99.7997H80.5167C83.3919 99.7997 85.7227 97.4689 85.7227 94.5938V5.20592C85.7227 2.33077 83.3919 0 80.5167 0Z" fill="#3F3D56"/>
    <path d="M78.8882 2.59961H73.2553V3.27722C73.2553 3.69901 73.1722 4.11666 73.0107 4.50632C72.8493 4.89598 72.6126 5.25 72.3143 5.54817C72.0159 5.84634 71.6618 6.0828 71.2721 6.24405C70.8823 6.40531 70.4646 6.48819 70.0428 6.48796H52.1286C51.7069 6.48819 51.2892 6.40531 50.8994 6.24405C50.5097 6.0828 50.1555 5.84634 49.8572 5.54817C49.5589 5.25 49.3222 4.89598 49.1607 4.50632C48.9993 4.11666 48.9162 3.69901 48.9162 3.27722V2.59961H43.6422C42.6078 2.59961 41.6158 3.0105 40.8845 3.74188C40.1531 4.47327 39.7422 5.46524 39.7422 6.49958V93.3072C39.7422 94.3415 40.1531 95.3335 40.8845 96.0649C41.6158 96.7963 42.6078 97.2072 43.6422 97.2072H78.8882C79.9226 97.2072 80.9145 96.7963 81.6459 96.0649C82.3773 95.3335 82.7882 94.3415 82.7882 93.3072V6.50625C82.7891 5.99354 82.6888 5.48569 82.4932 5.01175C82.2976 4.53781 82.0105 4.1071 81.6483 3.74424C81.286 3.38139 80.8558 3.09352 80.3822 2.89711C79.9086 2.70071 79.4009 2.59961 78.8882 2.59961Z" fill="white"/>
    <path d="M62.774 2.98047H56.9503C56.6649 2.98047 56.4336 3.21181 56.4336 3.49719V3.85542C56.4336 4.1408 56.6649 4.37214 56.9503 4.37214H62.774C63.0594 4.37214 63.2907 4.1408 63.2907 3.85542V3.49719C63.2907 3.21181 63.0594 2.98047 62.774 2.98047Z" fill="#E6E8EC"/>
    <path d="M65.1184 4.46635C65.5549 4.46635 65.9087 4.11252 65.9087 3.67604C65.9087 3.23957 65.5549 2.88574 65.1184 2.88574C64.682 2.88574 64.3281 3.23957 64.3281 3.67604C64.3281 4.11252 64.682 4.46635 65.1184 4.46635Z" fill="#E6E8EC"/>
    <path d="M61.469 60.4146C66.5994 60.4146 70.7584 56.2556 70.7584 51.1253C70.7584 45.9949 66.5994 41.8359 61.469 41.8359C56.3387 41.8359 52.1797 45.9949 52.1797 51.1253C52.1797 56.2556 56.3387 60.4146 61.469 60.4146Z" fill="white"/>
    <path d="M73.6885 49.8281C73.6885 52.2836 72.9602 54.684 71.5959 56.7257C70.2316 58.7674 68.2925 60.3587 66.0238 61.2983C63.7552 62.2379 61.2588 62.4837 58.8504 62.0046C56.4421 61.5255 54.2299 60.3429 52.4936 58.6065C50.7573 56.8701 49.5749 54.6578 49.0959 52.2494C48.6169 49.841 48.8629 47.3447 49.8027 45.0761C50.7424 42.8075 52.3338 40.8685 54.3756 39.5043C56.4174 38.1401 58.8178 37.412 61.2734 37.4121C62.9038 37.4122 64.5183 37.7334 66.0246 38.3573C67.5309 38.9813 68.8995 39.8959 70.0524 41.0488C71.2052 42.2018 72.1197 43.5705 72.7436 45.0768C73.3675 46.5832 73.6886 48.1976 73.6885 49.8281ZM59.8382 56.3999L69.0479 47.1901C69.1225 47.1158 69.1816 47.0275 69.222 46.9303C69.2623 46.833 69.2831 46.7288 69.2831 46.6235C69.2831 46.5183 69.2623 46.414 69.222 46.3168C69.1816 46.2196 69.1225 46.1313 69.0479 46.057L67.9148 44.9321C67.8406 44.8576 67.7524 44.7985 67.6553 44.7581C67.5582 44.7178 67.4541 44.697 67.349 44.697C67.2438 44.697 67.1397 44.7178 67.0427 44.7581C66.9456 44.7985 66.8574 44.8576 66.7832 44.9321L59.2717 52.4437L55.7644 48.9282C55.6138 48.7784 55.4101 48.6944 55.1978 48.6944C54.9855 48.6944 54.7818 48.7784 54.6312 48.9282L53.498 50.068C53.3483 50.2186 53.2643 50.4223 53.2643 50.6346C53.2643 50.8469 53.3483 51.0506 53.498 51.2012L58.7053 56.4066C58.7796 56.4811 58.8679 56.5402 58.9651 56.5806C59.0624 56.6209 59.1666 56.6417 59.2719 56.6417C59.3771 56.6417 59.4814 56.6209 59.5786 56.5806C59.6758 56.5402 59.7641 56.4811 59.8385 56.4066L59.8382 56.3999Z" fill="#0075FF"/>
    <path d="M38.1531 19.6758H38.0245C37.8556 19.6758 37.7188 19.8127 37.7188 19.9815V22.9501C37.7188 23.1189 37.8556 23.2558 38.0245 23.2558H38.1531C38.322 23.2558 38.4588 23.1189 38.4588 22.9501V19.9815C38.4588 19.8127 38.322 19.6758 38.1531 19.6758Z" fill="#3F3D56"/>
    <path d="M38.2216 26.2305H37.9991C37.8303 26.2305 37.6934 26.3674 37.6934 26.5362V32.1555C37.6934 32.3244 37.8303 32.4613 37.9991 32.4613H38.2216C38.3904 32.4613 38.5273 32.3244 38.5273 32.1555V26.5362C38.5273 26.3674 38.3904 26.2305 38.2216 26.2305Z" fill="#3F3D56"/>
    <path d="M38.195 34.6416H38.0128C37.8439 34.6416 37.707 34.7785 37.707 34.9474V40.6202C37.707 40.7891 37.8439 40.926 38.0128 40.926H38.195C38.3639 40.926 38.5008 40.7891 38.5008 40.6202V34.9474C38.5008 34.7785 38.3639 34.6416 38.195 34.6416Z" fill="#3F3D56"/>
    <path d="M27.8691 51.2598C27.8904 51.2802 27.9176 51.2933 27.9469 51.2971C27.9761 51.3008 28.0058 51.2951 28.0315 51.2806C27.9767 51.2814 27.922 51.2744 27.8691 51.2598Z" fill="url(#paint0_linear)"/>
    <path d="M34.0068 53.6602L33.8465 54.5328L33.7229 55.2004L33.4981 56.4216L31.3178 57.948C31.3178 57.948 31.1213 57.7797 30.7971 57.5146C29.9036 56.7789 28.0256 55.2808 26.6467 54.4766C26.2919 54.2506 25.9082 54.0737 25.5059 53.951L34.0068 53.6602Z" fill="#FEB9B9"/>
    <path d="M32.4067 54.31C32.4067 54.31 34.9488 54.7464 35.0976 53.6607C35.2465 52.5751 33.7892 51.9884 32.5541 51.9154C31.3191 51.8423 23.9063 52.3517 23.9063 52.3517C23.9063 52.3517 22.5988 54.0956 27.3211 54.3875L32.4067 54.31Z" fill="#3F3D56"/>
    <path d="M37.9665 18.4854H24.668V34.2545H37.9665V18.4854Z" fill="#2F2E41"/>
    <path opacity="0.1" d="M37.9665 18.5566H24.668V34.3258H37.9665V18.5566Z" fill="black"/>
    <path d="M9.0825 45.4796C8.86353 45.5347 8.58367 45.7466 8.27244 46.0529C6.93217 47.3798 5.01256 50.4938 5.01256 50.4938C2.55834 47.5704 5.27412 45.2606 6.43174 44.4668C6.71319 44.2747 6.90226 44.1689 6.90226 44.1689L9.0825 45.4796Z" fill="#FEB9B9"/>
    <path d="M33.8609 23.4619C33.8609 23.4619 34.5151 28.0398 36.7677 29.1298C39.0203 30.2199 33.8609 32.2571 33.8609 32.2571L26.8125 29.6391C26.8125 29.6391 30.8095 28.3306 30.0098 24.4789L33.8609 23.4619Z" fill="#FEB9B9"/>
    <path d="M26.3029 51.0039L26.1435 51.8736L26.014 52.5438L25.7891 53.7649L23.6089 55.2899C23.6089 55.2899 23.4123 55.1231 23.0882 54.8581C22.1947 54.1224 20.3168 52.6243 18.9357 51.8201C18.5812 51.5937 18.1974 51.4169 17.7949 51.2944L26.3029 51.0039Z" fill="#FEB9B9"/>
    <path d="M24.4167 52.0757C24.4167 52.0757 26.6981 52.0918 26.8354 51.0031C26.9726 49.9144 25.592 49.3308 24.4167 49.2577C23.2413 49.1847 16.0999 49.728 16.0999 49.728C16.0999 49.728 15.0867 51.7842 19.5787 52.0755L24.4167 52.0757Z" fill="#2F2E41"/>
    <path d="M40.4145 69.1795C40.3148 69.1303 40.2149 69.0797 40.1166 69.0306L39.8485 68.6925L36.3326 64.2339V64.3114C36.3088 65.056 36.0556 70.9562 34.0809 71.5012C31.9737 72.082 29.4316 72.228 28.2728 68.304C27.114 64.38 24.9966 55.8051 22.8223 55.2959L26.0568 52.6436C26.0568 52.6436 28.1983 55.1484 29.0708 57.5461C29.0381 57.3972 27.5593 50.4873 28.773 49.2646H39.3844C39.3844 49.2646 41.0226 53.9304 42.1453 56.2416C43.0195 58.0361 44.3314 62.2788 45.1762 65.15C46.0124 67.9851 43.0742 70.4885 40.4145 69.1795Z" fill="#3F3D56"/>
    <path opacity="0.1" d="M40.1117 50.5669C38.4736 51.5364 31.2822 51.1417 28.9427 50.9839L28.3053 50.9377C28.2368 50.9377 28.3157 50.8989 28.3157 50.8989L28.3813 50.2392L30.1252 45.8073L39.4624 40.3926C39.2732 40.963 39.2108 41.8357 39.2257 42.8349C39.2688 46.0457 40.1117 50.5669 40.1117 50.5669Z" fill="black"/>
    <path d="M40.1114 50.3485C38.4733 51.318 31.2819 50.9233 28.9424 50.7655L28.305 50.7207L28.1992 50.7118L28.3154 50.682L28.8902 50.5331L30.1247 45.592L39.462 40.1787C39.2729 40.7491 39.2103 41.6218 39.2252 42.621C39.2685 45.8287 40.1114 50.3485 40.1114 50.3485Z" fill="#EFEFEF"/>
    <path opacity="0.1" d="M39.2192 42.618C37.3205 43.0558 33.1418 44.3404 31.5364 47.443C30.4657 49.5085 29.5647 50.3946 28.9363 50.7653L28.2988 50.7206C28.303 50.7079 28.3065 50.695 28.3092 50.6819L28.884 50.533L30.1186 45.5919L39.4558 40.1787C39.2689 40.746 39.2043 41.6187 39.2192 42.618Z" fill="black"/>
    <path opacity="0.1" d="M6.90216 44.1729L9.0824 45.4804C8.86343 45.5355 8.58357 45.7474 8.27234 46.0537C8.09062 45.5235 6.9505 44.7834 6.43164 44.4678C6.71297 44.2786 6.90216 44.1729 6.90216 44.1729Z" fill="black"/>
    <path opacity="0.1" d="M27.9106 50.805C27.8867 50.8175 27.8595 50.8222 27.8328 50.8184C27.8061 50.8147 27.7813 50.8027 27.7617 50.7842C27.8101 50.7984 27.8602 50.8054 27.9106 50.805Z" fill="black"/>
    <path d="M32.8439 28.8395C32.8439 28.8395 30.8811 29.0568 29.5007 27.6035C29.5007 27.6035 23.6926 29.2758 21.7256 33.0539C19.7586 36.8319 6.38672 44.2452 6.38672 44.2452C6.38672 44.2452 8.71289 45.5528 8.49392 46.2065L17.2876 41.1194C17.2876 41.1194 20.4149 38.8677 21.2832 38.3585C22.1515 37.8492 26.9526 34.7249 27.9697 43.2267C28.9869 51.7286 27.9697 50.7114 27.9697 50.7114C27.9697 50.7114 29.4232 51.2208 31.5304 47.1507C33.6376 43.0807 40.1767 42.1365 40.1767 42.1365L40.54 37.8506C40.54 37.8506 41.8372 35.0091 40.8379 33.8298C40.5352 33.4806 40.3338 33.0551 40.2556 32.5996C40.0904 31.5111 40.2556 29.6972 42.5698 28.1902C46.1305 25.864 47.511 23.9758 47.511 23.9758C47.511 23.9758 47.5839 22.5938 45.4037 21.94C43.2236 21.2861 34.3584 17.7256 34.3584 17.7256L34.0605 18.9616L41.0553 23.8983C41.0553 23.8983 37.5676 26.7277 34.8007 26.6592C34.8006 26.6592 35.3144 28.7664 32.8439 28.8395Z" fill="#0075FF"/>
    <path opacity="0.1" d="M34.1906 25.4548C34.0187 24.8723 33.8845 24.2794 33.7886 23.6797L29.9375 24.6971C30.1072 25.4323 30.0769 26.1995 29.8496 26.919C30.637 27.1291 31.4688 27.1022 32.241 26.8418C33.0132 26.5814 33.6913 26.0989 34.1906 25.4548Z" fill="black"/>
    <path d="M30.9911 26.8416C33.2784 26.8416 35.1326 24.9874 35.1326 22.7001C35.1326 20.4128 33.2784 18.5586 30.9911 18.5586C28.7038 18.5586 26.8496 20.4128 26.8496 22.7001C26.8496 24.9874 28.7038 26.8416 30.9911 26.8416Z" fill="#FEB9B9"/>
    <path opacity="0.1" d="M35.4961 56.0537C35.4961 56.0537 37.8937 60.7775 37.1669 62.2294L35.4961 56.0537Z" fill="black"/>
    <path d="M33.1948 13.1347C34.3444 13.2659 35.436 13.7587 36.5679 14.0283C36.8508 14.1162 37.1519 14.1275 37.4406 14.061C37.8799 13.9254 38.2373 13.4653 38.693 13.4787C38.9734 13.4876 39.2216 13.6783 39.4524 13.8614C39.8226 14.1447 40.171 14.4553 40.4948 14.7907C41.2751 15.638 41.7591 16.7788 42.4709 17.7006C43.1827 18.6224 44.1979 19.7034 45.209 19.2806C44.5211 21.9612 42.3756 23.6381 39.9379 23.805C38.9655 23.8717 37.9692 23.6694 37.028 23.9538C36.7936 24.0499 36.546 24.1102 36.2936 24.1325C35.7516 24.1325 35.3152 23.6351 34.9771 23.1511C34.1848 22.0134 33.558 20.7223 32.6659 19.6843C32.368 19.3403 32.0241 19.0141 31.6071 18.9517C31.1901 18.8892 30.8075 19.0886 30.4367 19.2808C29.8246 19.598 29.1992 19.9255 28.7242 20.4722C28.2491 21.0188 27.9497 21.8258 28.1463 22.5571C28.252 22.9532 28.4934 23.3107 28.4977 23.7246C28.5067 24.3858 27.9229 24.8683 27.8082 25.5116C27.7823 25.7818 27.7729 26.0534 27.7799 26.3247C27.7293 27.206 27.1524 27.927 26.5515 28.4825C26.3163 28.697 26.0575 28.9293 25.9886 29.2614C25.9424 29.4891 25.9886 29.7287 25.9588 29.9598C25.871 30.5317 25.3006 30.8221 24.7958 30.8966C24.2059 30.9839 23.6034 30.9125 23.0504 30.6896C23.7563 30.3558 24.1912 29.406 24.0273 28.5556C23.8025 27.3761 22.6171 26.5287 22.7189 25.3285C22.7746 24.9603 22.885 24.6024 23.0465 24.2668C23.3048 23.6182 23.4926 22.9437 23.6065 22.2549C23.6958 21.7233 23.7391 21.1589 23.5722 20.6511C23.4233 20.1894 23.1121 19.8217 22.8484 19.4314C22.491 18.9005 22.2089 18.3226 22.01 17.7143C21.9379 17.5339 21.9104 17.3387 21.9299 17.1454C21.9896 16.9171 22.1168 16.7121 22.2948 16.5571C22.9426 15.8762 23.6351 15.1692 24.5033 14.9741C24.9176 14.9053 25.3389 14.8893 25.7572 14.9264C26.4847 14.9493 27.2129 14.9184 27.9359 14.8341C28.5315 14.7641 29.5381 14.773 30.0431 14.3873C30.5136 14.0268 30.7788 13.5742 31.358 13.3449C31.9445 13.1275 32.5751 13.0554 33.1956 13.1349L33.1948 13.1347Z" fill="#2F2E41"/>
    <path d="M110.148 99.5515C113.466 99.5515 116.156 99.0966 116.156 98.5355C116.156 97.9744 113.466 97.5195 110.148 97.5195C106.83 97.5195 104.141 97.9744 104.141 98.5355C104.141 99.0966 106.83 99.5515 110.148 99.5515Z" fill="#0075FF"/>
    <path d="M112.632 96.8745C112.906 96.6506 113.106 96.349 113.205 96.0094C113.279 95.6673 113.133 95.2617 112.804 95.1294C112.436 94.9889 112.043 95.2445 111.746 95.5014C111.449 95.7583 111.107 96.0527 110.717 95.9974C110.918 95.8159 111.068 95.5856 111.153 95.3287C111.238 95.0718 111.255 94.7972 111.203 94.5318C111.185 94.4217 111.138 94.3184 111.067 94.2329C110.864 94.0148 110.493 94.1074 110.25 94.2807C109.473 94.826 109.256 95.883 109.252 96.831C109.172 96.4889 109.24 96.1317 109.237 95.7851C109.234 95.4385 109.14 95.0374 108.842 94.8543C108.659 94.7559 108.453 94.7075 108.245 94.7139C107.895 94.7005 107.507 94.7363 107.268 94.9917C106.969 95.3084 107.049 95.8404 107.306 96.187C107.563 96.5336 107.956 96.7562 108.318 96.9968C108.607 97.1693 108.853 97.4048 109.039 97.6856C109.061 97.7249 109.079 97.7665 109.092 97.8097H111.275C111.767 97.5605 112.224 97.2462 112.632 96.875L112.632 96.8745Z" fill="#0075FF"/>
    <path d="M28.4686 100C30.6583 100 32.4333 99.7 32.4333 99.3297C32.4333 98.9594 30.6583 98.6592 28.4686 98.6592C26.279 98.6592 24.5039 98.9594 24.5039 99.3297C24.5039 99.7 26.279 100 28.4686 100Z" fill="#EFEFEF"/>
    <path d="M30.1085 98.2336C30.2892 98.0858 30.4208 97.8867 30.4861 97.6626C30.5148 97.5502 30.5043 97.4313 30.4563 97.3257C30.4082 97.2201 30.3255 97.134 30.2219 97.0818C29.9793 96.9892 29.72 97.1578 29.5238 97.3274C29.3277 97.497 29.1018 97.6912 28.8445 97.6548C28.9769 97.535 29.076 97.3829 29.1322 97.2134C29.1884 97.0439 29.1996 96.8627 29.1649 96.6876C29.1534 96.6149 29.1224 96.5468 29.0752 96.4903C28.9417 96.3464 28.6965 96.4076 28.5359 96.5219C28.0232 96.8824 27.8802 97.5788 27.8773 98.205C27.8251 97.9792 27.8694 97.7436 27.8674 97.5148C27.8654 97.2861 27.8033 97.0219 27.607 96.9007C27.486 96.8357 27.3499 96.8037 27.2126 96.808C26.9819 96.7992 26.7255 96.8228 26.5677 96.9914C26.3705 97.2005 26.4238 97.5516 26.5933 97.7803C26.7629 98.009 27.0222 98.156 27.2609 98.3144C27.4518 98.428 27.6145 98.5832 27.7372 98.7683C27.752 98.7942 27.7639 98.8217 27.7727 98.8502H29.2133C29.5381 98.6856 29.8392 98.478 30.1085 98.2329V98.2336Z" fill="#EFEFEF"/>
    <path d="M6.04676 100C8.23641 100 10.0115 99.7 10.0115 99.3297C10.0115 98.9594 8.23641 98.6592 6.04676 98.6592C3.8571 98.6592 2.08203 98.9594 2.08203 99.3297C2.08203 99.7 3.8571 100 6.04676 100Z" fill="#EFEFEF"/>
    <path d="M7.68467 98.2336C7.86535 98.0858 7.997 97.8867 8.06227 97.6626C8.09101 97.5502 8.08049 97.4313 8.03243 97.3257C7.98438 97.2201 7.90168 97.134 7.79803 97.0818C7.55543 96.9892 7.29613 97.1578 7.09999 97.3274C6.90385 97.497 6.67794 97.6912 6.42065 97.6548C6.55308 97.535 6.65221 97.3829 6.70837 97.2134C6.76453 97.0439 6.77581 96.8627 6.74109 96.6876C6.72954 96.6149 6.69853 96.5468 6.65137 96.4903C6.51785 96.3464 6.2727 96.4076 6.11208 96.5219C5.59937 96.8824 5.45637 97.5788 5.45343 98.205C5.40123 97.9792 5.44555 97.7436 5.44355 97.5148C5.44154 97.2861 5.37946 97.0219 5.18319 96.9007C5.06213 96.8357 4.92609 96.8037 4.78877 96.808C4.55805 96.7992 4.3017 96.8228 4.14388 96.9914C3.94667 97.2005 3.99994 97.5516 4.16951 97.7803C4.33908 98.009 4.59837 98.156 4.8371 98.3144C5.02793 98.428 5.19071 98.5832 5.31337 98.7683C5.32814 98.7942 5.34005 98.8217 5.34888 98.8502H6.78942C7.11424 98.6856 7.41537 98.478 7.68467 98.2329V98.2336Z" fill="#EFEFEF"/>
    <path d="M120.51 99.6172H0V99.8603H120.51V99.6172Z" fill="#2F2E41"/>
    <path d="M114.628 6.74588C114.628 6.74588 102.047 5.98682 103.53 14.802C103.53 14.802 103.231 16.3603 104.647 17.0671C104.647 17.0671 104.67 16.4141 105.938 16.6367C106.39 16.7116 106.848 16.7336 107.305 16.7024C107.921 16.6619 108.507 16.4222 108.975 16.0196C108.975 16.0196 112.512 14.5584 113.887 8.77924C113.887 8.77924 114.904 7.51829 114.864 7.19397L112.741 8.10083C112.741 8.10083 113.467 9.6323 112.89 10.9047C112.89 10.9047 112.821 8.15557 112.413 8.21539C112.331 8.22741 111.311 8.74573 111.311 8.74573C111.311 8.74573 112.558 11.4126 111.617 13.3521C111.617 13.3521 111.974 10.0652 110.921 8.93853L109.427 9.81108C109.427 9.81108 110.885 12.5663 109.896 14.8149C109.896 14.8149 110.15 11.3664 109.112 10.0232L107.758 11.0795C107.758 11.0795 109.128 13.7942 108.293 15.6592C108.293 15.6592 108.184 11.646 107.465 11.3428C107.465 11.3428 106.28 12.3887 106.099 12.8159C106.099 12.8159 107.038 14.7881 106.455 15.828C106.455 15.828 106.098 13.1536 105.805 13.1387C105.805 13.1387 104.625 14.9106 104.502 16.1268C104.502 16.1268 104.553 14.3204 105.519 12.9714C105.519 12.9714 104.378 13.1671 103.712 13.906C103.712 13.906 103.895 12.654 105.811 12.5434C105.811 12.5434 106.786 11.1987 107.046 11.1181C107.046 11.1181 105.143 10.9579 103.988 11.4707C103.988 11.4707 105.004 10.2889 107.396 10.8268L108.733 9.73457C108.733 9.73457 106.226 9.39236 105.162 9.77049C105.162 9.77049 106.386 8.72463 109.093 9.48663L110.549 8.61702C110.549 8.61702 108.411 8.15677 107.138 8.3182C107.138 8.3182 108.482 7.59359 110.976 8.37949L112.022 7.91217C112.022 7.91217 110.456 7.60441 109.997 7.55514C109.539 7.50587 109.515 7.38036 109.515 7.38036C110.507 7.21497 111.525 7.32826 112.457 7.70762C112.457 7.70762 114.665 6.88487 114.628 6.74588Z" fill="#0075FF"/>
    <path d="M97.3904 2.07865C97.3904 2.07865 91.7128 1.73644 92.3762 5.71972C92.3762 5.71972 92.2426 6.4235 92.8811 6.74315C92.8811 6.74315 92.8916 6.44433 93.4653 6.54741C93.669 6.58171 93.8762 6.59175 94.0823 6.57732C94.361 6.55887 94.626 6.4497 94.8368 6.26648C94.8368 6.26648 96.4354 5.6061 97.057 2.99446C97.057 2.99446 97.5156 2.42526 97.4976 2.27879L96.5384 2.68816C96.5384 2.68816 96.8656 3.37993 96.6086 3.95513C96.6086 3.95513 96.5772 2.7134 96.3935 2.74197C96.3561 2.74197 95.8944 2.98231 95.8944 2.98231C95.8944 2.98231 96.4592 4.18799 96.0334 5.06361C96.0334 5.06361 96.1947 3.57847 95.7182 3.06896L95.0428 3.46952C95.0428 3.46952 95.7017 4.71405 95.255 5.73014C95.255 5.73014 95.3701 4.17183 94.9009 3.56525L94.2898 4.04338C94.2898 4.04338 94.9084 5.27003 94.5318 6.11293C94.5318 6.11293 94.4811 4.29907 94.1568 4.16168C94.1568 4.16168 93.6219 4.63381 93.5397 4.82808C93.5397 4.82808 93.964 5.72453 93.7011 6.18917C93.7011 6.18917 93.5397 4.98042 93.4023 4.97415C93.4023 4.97415 92.8689 5.77526 92.8136 6.31882C92.8403 5.81175 92.9989 5.32044 93.2738 4.8935C92.966 4.95181 92.682 5.09878 92.4565 5.31636C92.4565 5.31636 92.5403 4.7501 93.4053 4.70083C93.4053 4.70083 93.8536 4.09279 93.9641 4.0554C93.9641 4.0554 93.1036 3.9837 92.5821 4.21563C92.5821 4.21563 93.0407 3.68221 94.121 3.92428L94.7186 3.4312C94.7186 3.4312 93.5851 3.28032 93.1044 3.44669C93.1044 3.44669 93.6572 2.97456 94.8809 3.31824L95.5383 2.92529C95.5383 2.92529 94.5716 2.71767 93.9964 2.79177C93.9964 2.79177 94.6045 2.46452 95.7311 2.81848L96.2018 2.60778C96.2018 2.60778 95.4941 2.46879 95.2858 2.44636C95.0775 2.42393 95.0677 2.36718 95.0677 2.36718C95.5162 2.29257 95.9766 2.3443 96.3974 2.51659C96.3974 2.51659 97.4078 2.14087 97.3904 2.07865Z" fill="#3F3D56"/>
    <path d="M9.83566 62.8882C9.83566 62.8882 4.15816 62.546 4.82148 66.5293C4.82148 66.5293 4.68796 67.2331 5.32645 67.5527C5.32645 67.5527 5.33687 67.2539 5.9106 67.357C6.11436 67.3913 6.32146 67.4013 6.52759 67.3869C6.80629 67.3684 7.07129 67.2593 7.28211 67.076C7.28211 67.076 8.88074 66.4157 9.50227 63.804C9.50227 63.804 9.96091 63.2348 9.94289 63.0884L8.98368 63.4977C8.98368 63.4977 9.31094 64.1895 9.05391 64.7647C9.05391 64.7647 9.02253 63.523 8.83881 63.5515C8.80142 63.5515 8.33972 63.7919 8.33972 63.7919C8.33972 63.7919 8.9045 64.9976 8.47871 65.8732C8.47871 65.8732 8.64 64.388 8.16347 63.8785L7.48813 64.2791C7.48813 64.2791 8.14705 65.5236 7.70029 66.5397C7.70029 66.5397 7.81539 64.9814 7.3462 64.3748L6.73508 64.853C6.73508 64.853 7.35367 66.0796 6.97715 66.9225C6.97715 66.9225 6.92642 65.1086 6.6021 64.9712C6.6021 64.9712 6.06722 65.4434 5.98497 65.6376C5.98497 65.6376 6.40929 66.5341 6.14639 66.9987C6.14639 66.9987 5.98497 65.79 5.84758 65.7837C5.84758 65.7837 5.31417 66.5848 5.25889 67.1284C5.28561 66.6213 5.44425 66.13 5.71913 65.7031C5.41132 65.7614 5.12726 65.9083 4.90186 66.1259C4.90186 66.1259 4.98558 65.5597 5.85065 65.5104C5.85065 65.5104 6.29888 64.9024 6.40943 64.865C6.40943 64.865 5.5489 64.7933 5.02737 65.0252C5.02737 65.0252 5.48601 64.4918 6.56631 64.7339L7.16395 64.2408C7.16395 64.2408 6.03037 64.0899 5.5497 64.2563C5.5497 64.2563 6.10246 63.7841 7.32617 64.1278L7.98362 63.7349C7.98362 63.7349 7.01694 63.5272 6.44174 63.6013C6.44174 63.6013 7.04978 63.2741 8.17642 63.628L8.64708 63.4174C8.64708 63.4174 7.93943 63.2784 7.73114 63.2559C7.52285 63.2335 7.51296 63.1768 7.51296 63.1768C7.96148 63.1021 8.42191 63.1539 8.84269 63.3262C8.84269 63.3262 9.85316 62.9504 9.83566 62.8882Z" fill="#3F3D56"/>
    <defs>
        <linearGradient id="paint0_linear" x1="27.9511" y1="51.2985" x2="27.9511" y2="51.2598" gradientUnits="userSpaceOnUse">
            <stop stop-color="#808080" stop-opacity="0.251"/>
            <stop offset="0.54" stop-color="#808080" stop-opacity="0.122"/>
            <stop offset="1" stop-color="#808080" stop-opacity="0.102"/>
        </linearGradient>
    </defs>
</svg>