<svg width="200" height="121" viewBox="0 0 200 121" fill="none" xmlns="http://www.w3.org/2000/svg">
    <g clip-path="url(#clip0)">
        <path d="M0.288086 6.58789C0.288086 19.0532 8.10819 29.14 17.7723 29.14L0.288086 6.58789Z" fill="#46455B"/>
        <path d="M17.7725 29.1415C17.7725 16.5361 26.4992 6.33594 37.2839 6.33594L17.7725 29.1415Z" fill="#0075FF"/>
        <path d="M6.62305 7.7168C6.62305 19.5576 11.6098 29.1389 17.7724 29.1389L6.62305 7.7168Z" fill="#0075FF"/>
        <path d="M17.7725 29.1404C17.7725 13.0335 27.8593 0 40.3246 0L17.7725 29.1404Z" fill="#46455B"/>
        <path d="M155.894 33.6973H15.0387C11.9 33.6973 9.35547 36.2417 9.35547 39.3805V114.273C9.35547 117.412 11.9 119.956 15.0387 119.956H155.894C159.033 119.956 161.577 117.412 161.577 114.273V39.3805C161.577 36.2417 159.033 33.6973 155.894 33.6973Z" fill="#F2F2F2"/>
        <path d="M158.512 45.8535H6.29004V57.9044H158.512V45.8535Z" fill="white"/>
        <path d="M142.196 97.6523H28.5247C27.921 97.6523 27.4316 98.1417 27.4316 98.7454V102.479C27.4316 103.083 27.921 103.572 28.5247 103.572H142.196C142.8 103.572 143.289 103.083 143.289 102.479V98.7454C143.289 98.1417 142.8 97.6523 142.196 97.6523Z" fill="white"/>
        <path d="M159.277 29.0469H18.4215C15.2828 29.0469 12.7383 31.5914 12.7383 34.7301V109.623C12.7383 112.761 15.2828 115.306 18.4215 115.306H159.277C162.416 115.306 164.96 112.761 164.96 109.623V34.7301C164.96 31.5914 162.416 29.0469 159.277 29.0469Z" stroke="#3F3D56" stroke-miterlimit="10"/>
        <path d="M164.855 42.0488H12.6328V54.0997H164.855V42.0488Z" stroke="#3F3D56" stroke-miterlimit="10"/>
        <path d="M35.517 72.4922H19.7695C18.7469 72.4922 17.918 73.3212 17.918 74.3437V86.7085C17.918 87.7311 18.7469 88.5601 19.7695 88.5601H35.517C36.5396 88.5601 37.3686 87.7311 37.3686 86.7085V74.3437C37.3686 73.3212 36.5396 72.4922 35.517 72.4922Z" fill="#0075FF"/>
        <path d="M37.8422 69.7441H22.0947C21.0721 69.7441 20.2432 70.5731 20.2432 71.5957V83.9605C20.2432 84.9831 21.0721 85.812 22.0947 85.812H37.8422C38.8648 85.812 39.6938 84.9831 39.6938 83.9605V71.5957C39.6938 70.5731 38.8648 69.7441 37.8422 69.7441Z" stroke="#3F3D56" stroke-miterlimit="10"/>
        <path d="M145.579 94.6914H31.9075C31.3038 94.6914 30.8145 95.1808 30.8145 95.7845V99.5181C30.8145 100.122 31.3038 100.611 31.9075 100.611H145.579C146.183 100.611 146.672 100.122 146.672 99.5181V95.7845C146.672 95.1808 146.183 94.6914 145.579 94.6914Z" stroke="#3F3D56" stroke-miterlimit="10"/>
        <path d="M0 119.957H181.132" stroke="#3F3D56" stroke-miterlimit="10"/>
        <path d="M199.111 94.4609L194.005 99.346C193.836 99.5082 193.614 99.6038 193.38 99.6149C193.146 99.626 192.916 99.552 192.732 99.4066C187.802 95.4735 183.422 90.8959 179.711 85.7966C179.574 85.6068 179.51 85.3737 179.531 85.1405C179.553 84.9073 179.658 84.6897 179.828 84.5281L184.965 79.6127C185.066 79.5162 185.186 79.4426 185.318 79.397C185.45 79.3514 185.59 79.3348 185.729 79.3483C185.868 79.3619 186.002 79.4053 186.122 79.4756C186.243 79.5458 186.347 79.6413 186.427 79.7555C190.177 85.1109 194.328 89.6068 199.007 92.9765C199.123 93.0594 199.218 93.1667 199.287 93.2908C199.356 93.4149 199.397 93.5527 199.407 93.6944C199.417 93.8361 199.396 93.9782 199.345 94.1107C199.293 94.2432 199.213 94.3628 199.111 94.4609Z" fill="#F2F2F2"/>
        <path d="M199.595 92.8281L194.489 97.7133C194.32 97.8755 194.098 97.971 193.864 97.9821C193.63 97.9932 193.4 97.9192 193.217 97.7738C188.286 93.8408 183.907 89.2632 180.195 84.1638C180.058 83.974 179.994 83.7409 180.016 83.5077C180.037 83.2745 180.142 83.0569 180.312 82.8953L185.45 77.9799C185.55 77.8834 185.671 77.8098 185.803 77.7642C185.934 77.7186 186.074 77.702 186.213 77.7155C186.352 77.7291 186.486 77.7725 186.607 77.8428C186.727 77.913 186.831 78.0085 186.911 78.1227C190.661 83.4781 194.813 87.974 199.492 91.3437C199.607 91.4266 199.703 91.5339 199.772 91.658C199.841 91.7821 199.882 91.9199 199.892 92.0616C199.902 92.2033 199.88 92.3454 199.829 92.4779C199.778 92.6104 199.698 92.73 199.595 92.8281V92.8281Z" stroke="#3F3D56" stroke-miterlimit="10"/>
        <path d="M192.239 91.3804C192.914 90.7346 192.479 89.1852 191.268 87.9197C190.058 86.6542 188.529 86.1518 187.854 86.7975C187.179 87.4433 187.613 88.9927 188.824 90.2582C190.035 91.5237 191.564 92.0262 192.239 91.3804Z" fill="#0075FF"/>
        <path d="M192.111 90.3316C192.786 89.6858 192.351 88.1364 191.14 86.8709C189.93 85.6054 188.401 85.1029 187.726 85.7487C187.051 86.3945 187.485 87.9439 188.696 89.2094C189.907 90.4749 191.436 90.9773 192.111 90.3316Z" stroke="#3F3D56" stroke-miterlimit="10"/>
        <path d="M195.871 77.3072L194.796 84.2914C194.761 84.5229 194.643 84.7339 194.464 84.8852C194.285 85.0364 194.058 85.1178 193.824 85.1142C187.518 84.997 181.256 84.033 175.207 82.2483C174.983 82.1813 174.79 82.0352 174.665 81.8372C174.54 81.6391 174.491 81.4025 174.527 81.1711L175.609 74.1435C175.63 74.0057 175.681 73.874 175.758 73.7575C175.834 73.6411 175.935 73.5426 176.054 73.4688C176.172 73.395 176.305 73.3477 176.443 73.33C176.582 73.3124 176.722 73.3249 176.856 73.3666C183.091 75.3312 189.122 76.3691 194.885 76.1928C195.027 76.1884 195.168 76.2152 195.299 76.2715C195.429 76.3278 195.546 76.4122 195.64 76.5186C195.734 76.6249 195.803 76.7508 195.843 76.8871C195.883 77.0234 195.893 77.1668 195.871 77.3072Z" fill="#F2F2F2"/>
        <path d="M195.261 75.7135L194.186 82.6976C194.15 82.9292 194.033 83.1401 193.854 83.2914C193.675 83.4427 193.447 83.5241 193.213 83.5205C186.907 83.4032 180.646 82.4392 174.597 80.6545C174.372 80.5875 174.18 80.4414 174.055 80.2434C173.93 80.0453 173.881 79.8087 173.917 79.5773L174.999 72.5498C175.02 72.4119 175.071 72.2802 175.147 72.1638C175.224 72.0473 175.325 71.9488 175.443 71.875C175.562 71.8012 175.695 71.7539 175.833 71.7363C175.972 71.7186 176.112 71.7311 176.245 71.7729C182.481 73.7374 188.512 74.7754 194.275 74.5991C194.417 74.5946 194.558 74.6215 194.688 74.6778C194.819 74.7341 194.935 74.8184 195.029 74.9248C195.124 75.0312 195.193 75.157 195.233 75.2933C195.273 75.4296 195.283 75.5731 195.261 75.7135Z" stroke="#3F3D56" stroke-miterlimit="10"/>
        <path d="M188.546 79.0492C188.688 78.126 187.4 77.1615 185.669 76.895C183.938 76.6286 182.419 77.161 182.277 78.0842C182.135 79.0074 183.423 79.9719 185.154 80.2384C186.885 80.5049 188.404 79.9725 188.546 79.0492Z" fill="#0075FF"/>
        <path d="M187.805 78.2934C187.948 77.3702 186.659 76.4057 184.928 76.1392C183.197 75.8727 181.679 76.4051 181.537 77.3283C181.395 78.2516 182.683 79.216 184.414 79.4825C186.145 79.749 187.663 79.2166 187.805 78.2934Z" stroke="#3F3D56" stroke-miterlimit="10"/>
        <path d="M165.446 20.2258C167.452 20.2258 169.077 18.6 169.077 16.5944C169.077 14.5888 167.452 12.9629 165.446 12.9629C163.44 12.9629 161.814 14.5888 161.814 16.5944C161.814 18.6 163.44 20.2258 165.446 20.2258Z" fill="#2F2E41"/>
        <path d="M168.669 18.4805C169.197 17.7418 169.43 16.8319 169.321 15.9301C169.212 15.0284 168.768 14.2003 168.078 13.6094C168.168 13.6627 168.257 13.7194 168.344 13.7814C169.126 14.3422 169.654 15.191 169.811 16.141C169.969 17.091 169.742 18.0645 169.181 18.8475C168.621 19.6304 167.772 20.1586 166.822 20.316C165.872 20.4734 164.899 20.247 164.115 19.6867C164.029 19.6247 163.947 19.559 163.867 19.4911C164.649 19.9537 165.576 20.1066 166.464 19.9195C167.353 19.7324 168.14 19.219 168.669 18.4805Z" fill="#2F2E41"/>
        <path d="M164.972 30.962C168.635 30.962 171.604 27.993 171.604 24.3306C171.604 20.6682 168.635 17.6992 164.972 17.6992C161.31 17.6992 158.341 20.6682 158.341 24.3306C158.341 27.993 161.31 30.962 164.972 30.962Z" fill="#2F2E41"/>
        <path d="M166.236 34.4354C166.236 34.2775 164.973 33.1723 164.973 33.1723C164.973 33.1723 158.658 31.4355 157.394 32.6986C157.038 33.0357 156.799 33.4788 156.713 33.9623C156.628 34.4458 156.701 34.9439 156.921 35.3828L162.763 37.1195L166.236 34.4354Z" fill="#3F3D56"/>
        <path d="M165.368 30.4087C165.368 30.4087 163.947 34.356 165.368 34.6718C166.789 34.9875 157.789 36.4086 157.789 36.4086L156.368 33.7244C156.368 33.7244 161.263 31.1982 160.631 27.7246L165.368 30.4087Z" fill="#FBBEBE"/>
        <path opacity="0.1" d="M165.368 30.4087C165.368 30.4087 163.947 34.356 165.368 34.6718C166.789 34.9875 157.789 36.4086 157.789 36.4086L156.368 33.7244C156.368 33.7244 161.263 31.1982 160.631 27.7246L165.368 30.4087Z" fill="black"/>
        <path d="M149.249 42.7266L149.991 52.666C149.991 52.666 149.582 60.0553 151.162 66.8497C151.162 66.8497 151.018 74.9993 153.72 74.9432C156.422 74.887 154.138 65.3209 154.138 65.3209L153.684 44.8209L149.249 42.7266Z" fill="#FBBEBE"/>
        <path d="M174.999 42.5664L175.63 52.5135C175.63 52.5135 177.051 59.7764 176.42 66.7236C176.42 66.7236 177.683 74.776 174.999 75.0918C172.315 75.4075 173.262 65.6184 173.262 65.6184L170.894 45.2505L174.999 42.5664Z" fill="#FBBEBE"/>
        <path d="M162.21 72.4082C162.21 72.4082 163.631 88.8288 163.157 89.7761C162.683 90.7234 163.157 107.776 163.157 107.776C163.157 107.776 163.631 114.249 163.315 114.249C162.999 114.249 160.315 113.302 160.315 113.302C160.315 113.302 158.262 105.249 157.789 103.67C157.315 102.092 157.315 94.0391 157.315 90.7234C157.315 87.4077 154.157 73.6713 154.157 73.6713L162.21 72.4082Z" fill="#FBBEBE"/>
        <path opacity="0.1" d="M162.21 72.4082C162.21 72.4082 163.631 88.8288 163.157 89.7761C162.683 90.7234 163.157 107.776 163.157 107.776C163.157 107.776 163.631 114.249 163.315 114.249C162.999 114.249 160.315 113.302 160.315 113.302C160.315 113.302 158.262 105.249 157.789 103.67C157.315 102.092 157.315 94.0391 157.315 90.7234C157.315 87.4077 154.157 73.6713 154.157 73.6713L162.21 72.4082Z" fill="black"/>
        <path d="M159.368 113.458C159.368 113.458 161.894 111.879 162.526 112.826C162.871 113.362 163.297 113.841 163.789 114.247L164.105 119.516C164.105 119.516 162.263 119.271 161.948 119.744C161.632 120.218 159.21 120.563 157.631 119.931C156.053 119.3 157.631 116.3 157.631 116.3L159.368 113.458Z" fill="#2F2E41"/>
        <path d="M173.117 70.2578C173.117 70.2578 172.946 75.5652 170.893 79.1967C168.841 82.8282 166.472 85.8281 166.788 88.6701C167.104 91.5121 169.157 90.4069 167.893 102.406C167.893 102.406 167.104 107.301 167.893 109.827C168.683 112.354 164.104 111.406 164.104 111.406C164.104 111.406 163.315 100.985 162.683 99.5645C162.051 98.1435 159.367 88.6701 160.315 84.7229C161.262 80.7756 164.104 70.5128 164.104 70.5128L173.117 70.2578Z" fill="#FBBEBE"/>
        <path d="M164.421 109.039C164.421 109.039 166.631 109.197 167.263 109.355C167.434 109.405 167.617 109.401 167.786 109.344C167.955 109.288 168.103 109.182 168.21 109.039C168.21 109.039 169 113.934 169.473 115.039C169.947 116.144 169 119.302 166.631 119.302C164.263 119.302 163.632 117.881 163.632 117.407V111.25L163.474 109.829C163.474 109.829 164.421 109.513 164.421 109.039Z" fill="#2F2E41"/>
        <path d="M164.658 31.7509C167.797 31.7509 170.342 29.2061 170.342 26.0668C170.342 22.9276 167.797 20.3828 164.658 20.3828C161.518 20.3828 158.974 22.9276 158.974 26.0668C158.974 29.2061 161.518 31.7509 164.658 31.7509Z" fill="#FBBEBE"/>
        <path d="M164.973 33.1721C164.973 33.1721 165.052 35.1457 161.895 34.672C158.737 34.1984 157.316 32.7773 157.316 32.7773C157.316 32.7773 150.369 34.0405 149.895 36.7246C149.421 39.4087 152.895 43.5139 152.895 43.5139C152.895 43.5139 152.895 46.3559 153.369 47.4611C153.842 48.5663 151.158 57.0924 152.895 57.566C154.632 58.0397 155.737 58.0397 159.21 58.8292C162.684 59.6186 166.316 59.7765 167.421 58.8292C168.526 57.8818 170.105 57.566 171.21 57.566C172.315 57.566 173.105 55.8293 172.315 55.0398C171.526 54.2504 170.736 52.1978 170.736 51.4083C170.736 50.6189 171.842 47.619 171.21 46.5138L173.263 35.6194C173.263 35.6194 171.052 33.8826 169.789 33.7247C168.526 33.5668 164.973 33.1721 164.973 33.1721Z" fill="#3F3D56"/>
        <path d="M171.999 35.4609L173.183 35.5399C173.183 35.5399 176.577 43.5133 175.788 43.987C174.999 44.4607 170.736 46.6711 170.262 46.5132C169.788 46.3553 171.999 35.4609 171.999 35.4609Z" fill="#3F3D56"/>
        <path d="M151.473 36.0938L150.131 36.1727C150.131 36.1727 148.789 43.6725 148.631 44.1461C148.473 44.6198 153.842 46.8303 154.315 46.5145C154.789 46.1987 151.473 36.0938 151.473 36.0938Z" fill="#3F3D56"/>
        <path d="M170.893 56.4609L172.602 59.9444C172.602 59.9444 174.405 71.4908 173.202 71.6335C171.999 71.7763 164.736 70.9868 163.946 72.0921C163.157 73.1973 162.525 73.3552 162.525 73.3552C162.525 73.3552 154.157 75.092 153.21 73.9867C152.262 72.8815 153.21 58.5135 154.315 57.4083C154.315 57.4083 162.052 59.303 163.157 58.5135C164.262 57.7241 170.893 56.4609 170.893 56.4609Z" fill="#2F2E41"/>
        <path d="M168.1 21.2267C168.191 21.2814 168.279 21.3383 168.366 21.3965C166.866 20.5875 165.113 20.387 163.469 20.8365C161.826 21.2861 160.418 22.3511 159.539 23.8107C158.659 25.2703 158.376 27.0125 158.746 28.6757C159.117 30.3388 160.114 31.7954 161.53 32.7432C161.438 32.6934 161.346 32.6417 161.256 32.5871C159.751 31.6785 158.669 30.2098 158.247 28.5038C157.825 26.7978 158.097 24.994 159.004 23.4886C159.911 21.9832 161.378 20.8994 163.084 20.4753C164.789 20.0512 166.594 20.3215 168.1 21.2267Z" fill="#2F2E41"/>
        <path d="M161.373 21.2267C161.282 21.2814 161.194 21.3383 161.106 21.3965C162.606 20.5875 164.36 20.387 166.004 20.8365C167.647 21.286 169.055 22.3511 169.934 23.8107C170.813 25.2703 171.097 27.0125 170.726 28.6757C170.355 30.3389 169.359 31.7954 167.942 32.7432C168.035 32.6934 168.126 32.6417 168.217 32.5871C169.721 31.6785 170.804 30.2098 171.226 28.5038C171.648 26.7978 171.376 24.994 170.469 23.4886C169.562 21.9832 168.094 20.8994 166.389 20.4753C164.683 20.0512 162.879 20.3215 161.373 21.2267Z" fill="#2F2E41"/>
        <path d="M164.973 26.5416C168.287 26.5416 170.973 24.8451 170.973 22.7522C170.973 20.6594 168.287 18.9629 164.973 18.9629C161.66 18.9629 158.974 20.6594 158.974 22.7522C158.974 24.8451 161.66 26.5416 164.973 26.5416Z" fill="#2F2E41"/>
    </g>
    <defs>
        <clipPath id="clip0">
            <rect width="200" height="120.276" fill="white"/>
        </clipPath>
    </defs>
</svg>